<svg width="29" height="29" viewBox="0 0 29 29" fill="none" xmlns="http://www.w3.org/2000/svg">
<path fill-rule="evenodd" clip-rule="evenodd" d="M17.0234 6.07566C17.8787 5.14896 19.2821 5.13309 20.1581 6.04021L23.1857 9.17529C24.0541 10.0746 24.0792 11.5455 23.242 12.4751L21.3731 14.5502L15.1498 8.10577L17.0234 6.07566ZM13.6227 9.7605L19.8651 16.2247L12.773 24.0994C12.1507 24.7904 11.2896 25.1835 10.3874 25.1885L7.11877 25.2067C6.17972 25.2119 5.42194 24.3928 5.44586 23.3985L5.53065 19.8741C5.55201 18.986 5.8895 18.1396 6.47548 17.5047L13.6227 9.7605ZM24.8369 25.4336C25.475 25.4336 25.9776 24.9288 25.9596 24.3062C25.9415 23.6835 25.4096 23.1788 24.7715 23.1788H17.7715C17.1335 23.1788 16.6309 23.6835 16.6489 24.3062C16.667 24.9288 17.1989 25.4336 17.8369 25.4336H24.8369Z" fill="white"/>
</svg>
