<svg width="32" height="40" viewBox="0 0 32 40" fill="none" xmlns="http://www.w3.org/2000/svg">
<path d="M16.0002 20.8334C16.3684 20.8334 16.6668 20.4603 16.6668 20.0001C16.6668 19.5398 16.3684 19.1667 16.0002 19.1667C15.632 19.1667 15.3335 19.5398 15.3335 20.0001C15.3335 20.4603 15.632 20.8334 16.0002 20.8334Z" fill="#0D376E" stroke="#0D376E" stroke-width="1.5" stroke-linecap="round" stroke-linejoin="round"/>
<path d="M16.0002 30.8334C16.3684 30.8334 16.6668 30.4603 16.6668 30.0001C16.6668 29.5398 16.3684 29.1667 16.0002 29.1667C15.632 29.1667 15.3335 29.5398 15.3335 30.0001C15.3335 30.4603 15.632 30.8334 16.0002 30.8334Z" fill="#0D376E" stroke="#0D376E" stroke-width="1.5" stroke-linecap="round" stroke-linejoin="round"/>
<path d="M16.0002 10.8334C16.3684 10.8334 16.6668 10.4603 16.6668 10.0001C16.6668 9.53984 16.3684 9.16675 16.0002 9.16675C15.632 9.16675 15.3335 9.53984 15.3335 10.0001C15.3335 10.4603 15.632 10.8334 16.0002 10.8334Z" fill="#0D376E" stroke="#0D376E" stroke-width="1.5" stroke-linecap="round" stroke-linejoin="round"/>
</svg>
