<svg width="28" height="29" viewBox="0 0 28 29" fill="none" xmlns="http://www.w3.org/2000/svg">
<path d="M14 7.75391V11.6881" stroke="white" stroke-width="1.5" stroke-miterlimit="10" stroke-linecap="round"/>
<path d="M14.0232 2.5083C9.72988 2.5083 6.25321 6.02898 6.25321 10.3767V12.8577C6.25321 13.661 5.92655 14.8661 5.51821 15.5513L4.03655 18.056C3.12655 19.6037 3.75655 21.3286 5.43655 21.8956C11.0132 23.7741 17.0449 23.7741 22.6215 21.8956C24.1965 21.364 24.8732 19.4973 24.0215 18.056L22.5399 15.5513C22.1315 14.8661 21.8049 13.6492 21.8049 12.8577V10.3767C21.7932 6.0526 18.2932 2.5083 14.0232 2.5083Z" stroke="white" stroke-width="1.5" stroke-miterlimit="10" stroke-linecap="round"/>
<path d="M17.8852 22.3801C17.8852 24.5422 16.1352 26.3143 14.0002 26.3143C12.9386 26.3143 11.9586 25.8654 11.2586 25.1565C10.5586 24.4476 10.1152 23.4552 10.1152 22.3801" stroke="white" stroke-width="1.5" stroke-miterlimit="10"/>
</svg>
