<svg width="592" height="576" viewBox="0 0 592 576" fill="none" xmlns="http://www.w3.org/2000/svg">
<path d="M255.378 576C379.905 576 480.854 569.695 480.854 561.917C480.854 554.139 379.905 547.834 255.378 547.834C130.85 547.834 29.9014 554.139 29.9014 561.917C29.9014 569.695 130.85 576 255.378 576Z" fill="#407BFF"/>
<path opacity="0.8" d="M255.378 576C379.905 576 480.854 569.695 480.854 561.917C480.854 554.139 379.905 547.834 255.378 547.834C130.85 547.834 29.9014 554.139 29.9014 561.917C29.9014 569.695 130.85 576 255.378 576Z" fill="white"/>
<path d="M424.813 26.3882H198.097C182.445 26.3882 169.756 39.1101 169.756 54.8033V534.686C169.756 550.38 182.445 563.102 198.097 563.102H424.813C440.466 563.102 453.155 550.38 453.155 534.686V54.8033C453.155 39.1101 440.466 26.3882 424.813 26.3882Z" fill="#263238"/>
<path d="M440.552 85.324H182.344V504.165H440.552V85.324Z" fill="white" stroke="#263238" stroke-width="1.33739" stroke-miterlimit="10"/>
<path d="M351.031 254.925C372.887 233.011 372.887 197.482 351.031 175.569C329.174 153.655 293.737 153.655 271.88 175.569C250.023 197.482 250.023 233.011 271.88 254.925C293.737 276.839 329.174 276.839 351.031 254.925Z" fill="#407BFF"/>
<path d="M384.934 477.827H237.991C237.661 477.829 237.333 477.765 237.027 477.64C236.721 477.514 236.442 477.329 236.208 477.095C235.973 476.862 235.787 476.584 235.66 476.278C235.533 475.971 235.468 475.643 235.468 475.312C235.466 474.979 235.53 474.649 235.656 474.341C235.782 474.033 235.968 473.754 236.203 473.518C236.437 473.283 236.716 473.097 237.023 472.97C237.33 472.844 237.659 472.78 237.991 472.782H384.934C385.265 472.782 385.592 472.847 385.898 472.974C386.203 473.102 386.48 473.288 386.714 473.523C386.947 473.759 387.131 474.038 387.256 474.344C387.382 474.651 387.445 474.98 387.443 475.312C387.443 475.979 387.179 476.618 386.708 477.09C386.238 477.562 385.6 477.827 384.934 477.827Z" fill="#407BFF"/>
<path d="M389.718 302.905H233.192C229.962 302.905 227.343 305.531 227.343 308.769V327.269C227.343 330.508 229.962 333.134 233.192 333.134H389.718C392.949 333.134 395.567 330.508 395.567 327.269V308.769C395.567 305.531 392.949 302.905 389.718 302.905Z" fill="#407BFF"/>
<path d="M389.718 359.443H233.192C229.962 359.443 227.343 362.068 227.343 365.307V383.807C227.343 387.046 229.962 389.671 233.192 389.671H389.718C392.949 389.671 395.567 387.046 395.567 383.807V365.307C395.567 362.068 392.949 359.443 389.718 359.443Z" fill="#407BFF"/>
<path d="M339.323 243.238L322.855 233.732V225.879C325.239 222.986 326.967 219.608 327.916 215.978C328.483 216.18 329.08 216.284 329.681 216.285C331.723 216.285 333.022 209.938 333.24 205.405C335.618 200.359 332.38 197.405 332.38 197.405C332.38 197.405 333.722 196.06 334.611 190.663C335.501 185.267 331.475 187.519 328.339 182.576C325.203 177.633 322.957 172.251 312.659 172.251C309.821 172.158 307.021 172.922 304.623 174.445C302.224 175.969 300.339 178.18 299.21 180.792C296.647 180.801 294.093 181.1 291.596 181.684C288.446 182.576 287.556 192.916 290.24 196.966C291.441 199.18 292.082 201.656 292.107 204.176C291.392 203.299 290.648 203.065 290.24 205.054C289.35 209.543 292.938 215.832 292.938 215.832L294.791 215.305C295.724 219.184 297.524 222.8 300.056 225.879V233.732L283.588 243.238C281.665 244.351 280.068 245.952 278.957 247.88C277.846 249.807 277.26 251.994 277.258 254.221V259.661C287.052 267.247 299.079 271.362 311.456 271.362C323.832 271.362 335.859 267.247 345.653 259.661V254.221C345.654 251.994 345.07 249.806 343.958 247.877C342.847 245.949 341.248 244.349 339.323 243.238Z" fill="#263238"/>
<path d="M248.654 382.155C248.276 382.149 247.915 381.997 247.647 381.73C247.504 381.602 247.389 381.444 247.311 381.267C247.233 381.091 247.194 380.9 247.195 380.707C247.199 380.443 247.275 380.185 247.414 379.961L250.039 375.749L244.919 375.91C244.727 375.922 244.533 375.893 244.352 375.825C244.171 375.757 244.007 375.651 243.869 375.515C243.631 375.247 243.5 374.901 243.5 374.543C243.5 374.184 243.631 373.838 243.869 373.57C244.004 373.429 244.167 373.319 244.349 373.248C244.53 373.177 244.725 373.147 244.919 373.161L249.966 373.351L247.37 369.154C247.229 368.925 247.153 368.662 247.151 368.393C247.15 368.2 247.189 368.009 247.267 367.832C247.345 367.656 247.46 367.498 247.603 367.369C247.871 367.103 248.232 366.951 248.61 366.945C248.858 366.947 249.101 367.019 249.311 367.154C249.52 367.288 249.686 367.48 249.791 367.706L252.286 372.225L254.751 367.735C254.868 367.495 255.048 367.293 255.271 367.148C255.495 367.004 255.754 366.924 256.02 366.916C256.204 366.917 256.386 366.957 256.554 367.032C256.723 367.108 256.873 367.218 256.997 367.355C257.265 367.633 257.412 368.006 257.405 368.393C257.405 368.644 257.339 368.891 257.216 369.11L254.576 373.351L259.695 373.161C259.89 373.147 260.085 373.177 260.266 373.248C260.448 373.319 260.611 373.429 260.746 373.57C260.994 373.829 261.131 374.176 261.125 374.535C261.124 374.898 260.989 375.247 260.746 375.515C260.608 375.651 260.444 375.757 260.263 375.825C260.082 375.893 259.888 375.922 259.695 375.91L254.547 375.749L257.114 379.917C257.258 380.15 257.333 380.418 257.332 380.692C257.332 381.08 257.179 381.452 256.905 381.726C256.632 382.001 256.261 382.155 255.874 382.155C255.624 382.151 255.38 382.075 255.173 381.934C254.965 381.794 254.804 381.596 254.707 381.365L252.271 376.978L249.85 381.365C249.742 381.594 249.574 381.789 249.363 381.929C249.152 382.068 248.906 382.146 248.654 382.155Z" fill="#263238"/>
<path d="M272.313 382.155C271.935 382.149 271.574 381.997 271.306 381.73C271.163 381.602 271.048 381.444 270.97 381.267C270.892 381.091 270.853 380.9 270.854 380.707C270.859 380.443 270.934 380.185 271.073 379.961L273.698 375.749L268.593 375.91C268.398 375.919 268.204 375.889 268.021 375.821C267.838 375.753 267.671 375.649 267.528 375.515C267.335 375.315 267.206 375.061 267.158 374.786C267.111 374.511 267.147 374.228 267.261 373.974C267.376 373.72 267.565 373.507 267.802 373.362C268.04 373.217 268.315 373.147 268.593 373.161L273.626 373.351L271.029 369.154C270.888 368.925 270.812 368.662 270.81 368.393C270.809 368.2 270.849 368.009 270.927 367.832C271.004 367.656 271.119 367.498 271.263 367.369C271.531 367.103 271.891 366.951 272.269 366.945C272.518 366.947 272.761 367.019 272.97 367.154C273.179 367.288 273.346 367.48 273.45 367.706L275.945 372.225L278.41 367.735C278.527 367.495 278.707 367.293 278.931 367.148C279.154 367.004 279.413 366.924 279.679 366.916C279.864 366.915 280.046 366.954 280.215 367.03C280.383 367.105 280.534 367.216 280.656 367.355C280.791 367.491 280.898 367.653 280.971 367.832C281.043 368.01 281.08 368.201 281.079 368.393C281.074 368.646 281.004 368.893 280.875 369.11L278.235 373.351L283.369 373.19C283.561 373.177 283.754 373.207 283.933 373.278C284.112 373.348 284.273 373.458 284.405 373.599C284.654 373.858 284.79 374.205 284.784 374.565C284.783 374.927 284.648 375.276 284.405 375.544C284.27 375.68 284.108 375.786 283.93 375.854C283.751 375.922 283.56 375.951 283.369 375.939L278.206 375.778L280.773 379.946C280.917 380.179 280.993 380.448 280.992 380.721C280.992 381.109 280.838 381.481 280.564 381.756C280.291 382.03 279.92 382.184 279.533 382.184C279.283 382.181 279.039 382.104 278.832 381.964C278.625 381.823 278.463 381.625 278.366 381.394L275.93 377.007L273.509 381.394C273.397 381.618 273.227 381.807 273.016 381.941C272.806 382.075 272.562 382.149 272.313 382.155Z" fill="#263238"/>
<path d="M295.987 382.155C295.604 382.153 295.237 382.001 294.966 381.73C294.822 381.602 294.708 381.444 294.63 381.267C294.552 381.091 294.512 380.9 294.513 380.707C294.518 380.443 294.593 380.185 294.732 379.961L297.358 375.749L292.252 375.91C291.978 375.921 291.706 375.85 291.471 375.705C291.237 375.561 291.051 375.349 290.937 375.098C290.822 374.848 290.785 374.568 290.83 374.296C290.875 374.024 290.999 373.771 291.188 373.57C291.325 373.429 291.492 373.32 291.676 373.249C291.859 373.178 292.056 373.148 292.252 373.161L297.285 373.351L294.688 369.154C294.547 368.925 294.471 368.662 294.47 368.393C294.474 368.201 294.517 368.012 294.594 367.836C294.672 367.661 294.783 367.502 294.922 367.369C295.193 367.099 295.56 366.947 295.943 366.945C296.189 366.95 296.429 367.023 296.635 367.158C296.841 367.292 297.006 367.482 297.11 367.706L299.604 372.225L302.069 367.735C302.186 367.495 302.366 367.293 302.59 367.148C302.813 367.004 303.072 366.924 303.338 366.916C303.523 366.915 303.705 366.954 303.874 367.03C304.043 367.105 304.193 367.216 304.315 367.355C304.451 367.491 304.558 367.653 304.63 367.832C304.703 368.01 304.74 368.201 304.738 368.393C304.733 368.646 304.663 368.893 304.534 369.11L301.894 373.351L307.028 373.161C307.217 373.142 307.408 373.164 307.588 373.225C307.767 373.286 307.932 373.385 308.07 373.515C308.208 373.645 308.317 373.804 308.389 373.98C308.461 374.156 308.494 374.345 308.487 374.535C308.49 374.896 308.36 375.245 308.122 375.515C307.985 375.651 307.82 375.757 307.639 375.825C307.458 375.893 307.265 375.922 307.072 375.91L301.923 375.749L304.476 379.917C304.62 380.15 304.696 380.418 304.695 380.692C304.69 380.884 304.648 381.073 304.57 381.249C304.493 381.425 304.381 381.583 304.242 381.716C304.116 381.853 303.962 381.962 303.792 382.038C303.621 382.113 303.437 382.153 303.251 382.155C303.003 382.15 302.761 382.073 302.556 381.933C302.352 381.792 302.192 381.595 302.098 381.365L299.648 376.978L297.226 381.365C297.117 381.602 296.942 381.803 296.722 381.943C296.503 382.083 296.247 382.156 295.987 382.155Z" fill="#263238"/>
<path d="M319.646 382.155C319.263 382.153 318.896 382.001 318.625 381.73C318.35 381.46 318.193 381.093 318.187 380.707C318.183 380.444 318.253 380.185 318.391 379.961L321.017 375.749L315.912 375.91C315.717 375.919 315.522 375.889 315.339 375.821C315.156 375.753 314.989 375.649 314.847 375.515C314.609 375.247 314.478 374.901 314.478 374.543C314.478 374.184 314.609 373.838 314.847 373.57C314.988 373.434 315.155 373.327 315.338 373.257C315.521 373.186 315.716 373.154 315.912 373.161L320.958 373.351L318.377 369.154C318.235 368.925 318.16 368.662 318.158 368.393C318.163 368.201 318.205 368.012 318.282 367.836C318.36 367.661 318.471 367.502 318.61 367.369C318.882 367.099 319.248 366.947 319.631 366.945C319.88 366.947 320.123 367.019 320.332 367.154C320.541 367.288 320.708 367.48 320.813 367.706L323.292 372.225L325.757 367.735C325.874 367.495 326.054 367.293 326.278 367.148C326.502 367.004 326.761 366.924 327.026 366.916C327.211 366.915 327.394 366.954 327.562 367.03C327.731 367.105 327.881 367.216 328.004 367.355C328.139 367.491 328.246 367.653 328.318 367.832C328.391 368.01 328.428 368.201 328.427 368.393C328.422 368.646 328.351 368.893 328.223 369.11L325.582 373.351L330.717 373.161C330.906 373.142 331.096 373.164 331.276 373.225C331.455 373.286 331.62 373.385 331.758 373.515C331.896 373.645 332.005 373.804 332.077 373.98C332.149 374.156 332.183 374.345 332.175 374.535C332.178 374.896 332.049 375.245 331.811 375.515C331.673 375.651 331.509 375.757 331.328 375.825C331.147 375.893 330.953 375.922 330.761 375.91L325.612 375.749L328.164 379.917C328.308 380.15 328.384 380.418 328.383 380.692C328.384 380.885 328.345 381.076 328.267 381.253C328.189 381.429 328.074 381.587 327.931 381.716C327.804 381.853 327.65 381.962 327.48 382.038C327.309 382.113 327.125 382.153 326.939 382.155C326.691 382.15 326.45 382.073 326.245 381.933C326.04 381.792 325.881 381.595 325.787 381.365L323.336 376.978L320.915 381.365C320.803 381.607 320.624 381.81 320.398 381.951C320.173 382.091 319.911 382.162 319.646 382.155Z" fill="#263238"/>
<path d="M343.305 382.155C342.922 382.153 342.556 382.001 342.284 381.73C342.058 381.501 341.914 381.203 341.874 380.883C341.835 380.563 341.902 380.239 342.065 379.961L344.676 375.749L339.571 375.91C339.376 375.919 339.181 375.889 338.999 375.821C338.816 375.753 338.648 375.649 338.506 375.515C338.268 375.247 338.137 374.901 338.137 374.543C338.137 374.184 338.268 373.838 338.506 373.57C338.647 373.434 338.814 373.327 338.997 373.257C339.18 373.186 339.375 373.154 339.571 373.161L344.618 373.351L342.021 369.154C341.88 368.925 341.804 368.662 341.802 368.393C341.808 368.007 341.965 367.639 342.24 367.369C342.512 367.099 342.878 366.947 343.261 366.945C343.51 366.947 343.753 367.019 343.962 367.154C344.171 367.288 344.338 367.48 344.443 367.706L346.922 372.225L349.387 367.735C349.504 367.495 349.684 367.293 349.908 367.148C350.132 367.004 350.391 366.924 350.656 366.916C350.843 366.915 351.028 366.954 351.199 367.029C351.37 367.105 351.523 367.216 351.648 367.355C351.916 367.633 352.063 368.006 352.057 368.393C352.052 368.646 351.981 368.893 351.853 369.11L349.212 373.351L354.347 373.161C354.536 373.142 354.726 373.164 354.906 373.225C355.085 373.286 355.25 373.385 355.388 373.515C355.526 373.645 355.635 373.804 355.707 373.98C355.779 374.156 355.813 374.345 355.805 374.535C355.808 374.896 355.679 375.245 355.441 375.515C355.303 375.651 355.139 375.757 354.958 375.825C354.777 375.893 354.583 375.922 354.391 375.91L349.242 375.749L351.794 379.917C351.938 380.15 352.014 380.418 352.013 380.692C352.014 380.885 351.975 381.076 351.897 381.253C351.819 381.429 351.704 381.587 351.561 381.716C351.434 381.853 351.28 381.962 351.11 382.038C350.939 382.113 350.755 382.153 350.569 382.155C350.321 382.15 350.08 382.073 349.875 381.933C349.67 381.792 349.511 381.595 349.417 381.365L346.966 376.978L344.545 381.365C344.436 381.602 344.261 381.803 344.041 381.943C343.821 382.083 343.565 382.156 343.305 382.155Z" fill="#263238"/>
<path d="M366.963 382.155C366.586 382.149 366.225 381.997 365.957 381.73C365.813 381.602 365.699 381.444 365.621 381.267C365.543 381.091 365.503 380.9 365.505 380.707C365.509 380.443 365.585 380.185 365.724 379.961L368.335 375.749L363.229 375.91C363.041 375.924 362.853 375.899 362.675 375.836C362.498 375.773 362.335 375.674 362.198 375.545C362.061 375.415 361.952 375.259 361.878 375.085C361.805 374.911 361.768 374.724 361.771 374.535C361.77 374.356 361.804 374.179 361.872 374.013C361.939 373.848 362.039 373.697 362.164 373.57C362.299 373.429 362.463 373.319 362.644 373.248C362.826 373.177 363.02 373.147 363.215 373.161L368.262 373.351L365.665 369.154C365.524 368.925 365.448 368.662 365.446 368.393C365.452 368.007 365.609 367.639 365.884 367.369C366.156 367.099 366.522 366.947 366.905 366.945C367.154 366.947 367.397 367.019 367.606 367.154C367.815 367.288 367.982 367.48 368.087 367.706L370.566 372.225L373.046 367.735C373.162 367.498 373.339 367.296 373.56 367.152C373.781 367.008 374.037 366.926 374.3 366.916C374.487 366.915 374.672 366.954 374.843 367.029C375.014 367.105 375.167 367.216 375.292 367.355C375.56 367.633 375.707 368.006 375.701 368.393C375.7 368.644 375.635 368.891 375.511 369.11L372.871 373.351L377.991 373.161C378.185 373.147 378.38 373.177 378.561 373.248C378.743 373.319 378.907 373.429 379.041 373.57C379.29 373.829 379.426 374.176 379.42 374.535C379.419 374.898 379.284 375.247 379.041 375.515C378.903 375.651 378.739 375.757 378.558 375.825C378.377 375.893 378.184 375.922 377.991 375.91L372.842 375.749L375.394 379.917C375.538 380.15 375.614 380.418 375.613 380.692C375.608 381.078 375.45 381.446 375.176 381.716C374.91 381.988 374.549 382.145 374.169 382.155C373.921 382.15 373.68 382.073 373.475 381.933C373.27 381.792 373.111 381.595 373.017 381.365L370.566 376.978L368.145 381.365C368.04 381.593 367.874 381.788 367.665 381.927C367.457 382.067 367.214 382.145 366.963 382.155Z" fill="#263238"/>
<g style="mix-blend-mode:multiply">
<path d="M440.552 85.8799H182.344V102.098H440.552V85.8799Z" fill="#407BFF"/>
</g>
<path d="M339.527 56.0023H283.369C282.356 56.0023 281.384 55.5986 280.667 54.88C279.95 54.1615 279.548 53.1869 279.548 52.1707C279.548 51.1545 279.95 50.1799 280.667 49.4614C281.384 48.7428 282.356 48.3391 283.369 48.3391H339.527C340.541 48.3391 341.513 48.7428 342.229 49.4614C342.946 50.1799 343.349 51.1545 343.349 52.1707C343.349 53.1869 342.946 54.1615 342.229 54.88C341.513 55.5986 340.541 56.0023 339.527 56.0023Z" fill="#407BFF" stroke="#263238" stroke-width="1.33739" stroke-linecap="round" stroke-linejoin="round"/>
<path d="M326.763 527.827C326.766 524.789 325.87 521.818 324.188 519.291C322.506 516.763 320.114 514.793 317.315 513.629C314.516 512.465 311.435 512.159 308.463 512.751C305.491 513.343 302.761 514.806 300.618 516.955C298.475 519.103 297.016 521.84 296.425 524.82C295.835 527.801 296.139 530.889 297.3 533.696C298.461 536.502 300.427 538.9 302.948 540.586C305.469 542.273 308.432 543.171 311.462 543.168C315.519 543.164 319.409 541.547 322.277 538.671C325.146 535.794 326.759 531.895 326.763 527.827Z" fill="#407BFF"/>
<path d="M319.222 520.047H303.702V535.608H319.222V520.047Z" fill="#407BFF" stroke="#263238" stroke-width="1.33739" stroke-linecap="round" stroke-linejoin="round"/>
<path d="M496.33 351.253C496.33 351.253 475.997 299.454 494.099 293.297C512.944 286.877 512.113 321.083 511.383 337.755C509.852 373.38 505.928 380.005 502.996 371.303L496.33 351.253ZM490.219 391.66C495.805 398.972 497.381 391.397 487.301 357.191C482.575 341.104 472.307 308.565 456.553 320.776C441.427 332.475 477.426 374.886 477.426 374.886L490.219 391.66ZM479.425 421.348C484.749 426.086 484.851 420.105 472.204 395.404C466.268 383.836 453.709 360.423 443.426 372.005C433.551 383.178 467.201 410.335 467.201 410.335L479.425 421.348ZM467.756 456.651C473.08 461.404 473.182 455.408 460.535 430.722C454.599 419.154 442.04 395.726 431.756 407.323C421.94 418.525 455.488 445.683 455.488 445.683L467.756 456.651ZM501.45 384.787C492.932 388.121 499.7 391.748 535.276 391.646C551.963 391.646 586.036 390.885 578.772 372.298C571.815 354.441 521.142 377.182 521.142 377.182L501.45 384.787ZM491.75 408.537C482.736 410.101 488.658 415.015 523.548 422.006C539.9 425.296 573.434 431.365 570.006 411.769C566.724 392.874 512.55 405.071 512.55 405.071L491.75 408.537ZM480.898 437.537C473.226 438.648 478.127 442.933 507.46 449.66C521.215 452.819 549.439 458.742 546.989 442.026C544.655 425.94 498.562 435.036 498.562 435.036L480.898 437.537ZM472.657 464.402C465.145 466.317 470.469 470.061 500.371 473.63C514.374 475.297 543.065 478.192 538.879 461.828C534.838 446.121 489.971 460.029 489.971 460.029L472.657 464.402ZM516.62 355.64C512.244 365.468 521.331 363.976 552.225 336.951C566.695 324.271 595.722 297.743 572.734 284.537C550.665 271.843 526.933 333.09 526.933 333.09L516.62 355.64ZM473.794 499.398C469.17 502.103 473.707 503.156 494.915 498.915C504.863 496.941 525.095 492.554 518.254 483.896C511.631 475.56 484.501 493.109 484.501 493.109L473.794 499.398Z" fill="#407BFF"/>
<path opacity="0.3" d="M496.33 351.253C496.33 351.253 475.997 299.454 494.099 293.297C512.944 286.877 512.113 321.083 511.383 337.755C509.852 373.38 505.928 380.005 502.996 371.303L496.33 351.253ZM490.219 391.66C495.805 398.972 497.381 391.397 487.301 357.191C482.575 341.104 472.307 308.565 456.553 320.776C441.427 332.475 477.426 374.886 477.426 374.886L490.219 391.66ZM479.425 421.348C484.749 426.086 484.851 420.105 472.204 395.404C466.268 383.836 453.709 360.423 443.426 372.005C433.551 383.178 467.201 410.335 467.201 410.335L479.425 421.348ZM467.756 456.651C473.08 461.404 473.182 455.408 460.535 430.722C454.599 419.154 442.04 395.726 431.756 407.323C421.94 418.525 455.488 445.683 455.488 445.683L467.756 456.651ZM501.45 384.787C492.932 388.121 499.7 391.748 535.276 391.646C551.963 391.646 586.036 390.885 578.772 372.298C571.815 354.441 521.142 377.182 521.142 377.182L501.45 384.787ZM491.75 408.537C482.736 410.101 488.658 415.015 523.548 422.006C539.9 425.296 573.434 431.365 570.006 411.769C566.724 392.874 512.55 405.071 512.55 405.071L491.75 408.537ZM480.898 437.537C473.226 438.648 478.127 442.933 507.46 449.66C521.215 452.819 549.439 458.742 546.989 442.026C544.655 425.94 498.562 435.036 498.562 435.036L480.898 437.537ZM472.657 464.402C465.145 466.317 470.469 470.061 500.371 473.63C514.374 475.297 543.065 478.192 538.879 461.828C534.838 446.121 489.971 460.029 489.971 460.029L472.657 464.402ZM516.62 355.64C512.244 365.468 521.331 363.976 552.225 336.951C566.695 324.271 595.722 297.743 572.734 284.537C550.665 271.843 526.933 333.09 526.933 333.09L516.62 355.64ZM473.794 499.398C469.17 502.103 473.707 503.156 494.915 498.915C504.863 496.941 525.095 492.554 518.254 483.896C511.631 475.56 484.501 493.109 484.501 493.109L473.794 499.398Z" fill="white"/>
<path d="M505.301 375.369L501.756 316.243L505.301 375.369ZM494.084 394.878L471.679 344.029L494.084 394.878ZM551.904 380.093L498.212 387.814L551.904 380.093ZM482.473 422.284L453.403 384.889L482.473 422.284ZM487.578 410.818L527.633 412.836L487.578 410.818ZM478.097 439.497L508.729 442.538L478.097 439.497ZM470.702 457.719L455.488 434.773L470.702 457.719ZM468.952 465.82L504.965 466.157L468.952 465.82ZM461.659 533.56C461.9 533.542 462.124 533.428 462.282 533.245C462.441 533.061 462.521 532.823 462.505 532.581C460.214 498.096 473.517 441.617 494.857 395.258C508.495 365.629 561.954 307.395 562.523 306.81C562.695 306.637 562.792 306.403 562.792 306.159C562.792 305.915 562.695 305.681 562.523 305.508C562.439 305.423 562.339 305.356 562.229 305.31C562.119 305.264 562.001 305.24 561.881 305.24C561.762 305.24 561.644 305.264 561.534 305.31C561.424 305.356 561.324 305.423 561.24 305.508C560.7 306.093 507.022 364.547 493.267 394.439C471.533 441.924 458.406 497.38 460.74 532.698C460.758 532.93 460.862 533.148 461.032 533.308C461.202 533.467 461.426 533.557 461.659 533.56ZM505.286 376.276C505.528 376.26 505.753 376.151 505.914 375.97C506.075 375.789 506.159 375.552 506.147 375.31L502.661 316.155C502.655 316.034 502.626 315.916 502.574 315.808C502.523 315.699 502.45 315.601 502.36 315.521C502.271 315.441 502.166 315.379 502.052 315.34C501.938 315.3 501.818 315.284 501.698 315.292C501.457 315.307 501.231 315.417 501.07 315.598C500.909 315.778 500.826 316.015 500.837 316.257L504.382 375.383C504.393 375.616 504.493 375.836 504.662 375.996C504.83 376.157 505.054 376.247 505.286 376.246V376.276ZM494.405 395.711C494.623 395.612 494.795 395.431 494.882 395.207C494.969 394.983 494.965 394.734 494.872 394.512L472.452 343.663C472.356 343.442 472.175 343.269 471.951 343.181C471.727 343.093 471.477 343.098 471.256 343.195C471.036 343.292 470.863 343.473 470.775 343.698C470.688 343.923 470.693 344.173 470.79 344.395L493.194 395.243C493.265 395.407 493.38 395.546 493.528 395.644C493.676 395.743 493.848 395.797 494.026 395.799C494.177 395.807 494.327 395.777 494.463 395.711H494.405ZM498.285 388.692L551.948 380.999C552.078 380.997 552.205 380.966 552.322 380.911C552.44 380.855 552.544 380.775 552.628 380.677C552.712 380.578 552.774 380.462 552.811 380.337C552.847 380.213 552.857 380.082 552.84 379.953C552.822 379.824 552.777 379.701 552.709 379.59C552.64 379.48 552.549 379.386 552.441 379.313C552.334 379.241 552.212 379.192 552.084 379.17C551.957 379.148 551.826 379.153 551.7 379.186L498.037 386.878C497.797 386.894 497.573 387.004 497.415 387.185C497.256 387.366 497.175 387.603 497.191 387.843C497.206 388.084 497.316 388.308 497.497 388.467C497.678 388.627 497.914 388.707 498.154 388.692H498.285ZM482.984 423.015C483.174 422.865 483.298 422.646 483.328 422.405C483.358 422.164 483.292 421.92 483.144 421.728L454.059 384.26C453.91 384.067 453.69 383.94 453.448 383.908C453.206 383.877 452.962 383.943 452.768 384.092C452.575 384.242 452.448 384.462 452.417 384.705C452.385 384.947 452.451 385.193 452.6 385.387L481.744 422.913C481.828 423.022 481.937 423.11 482.061 423.171C482.185 423.232 482.321 423.264 482.459 423.264C482.676 423.253 482.883 423.165 483.042 423.015H482.984ZM528.435 412.88C528.443 412.638 528.355 412.403 528.192 412.225C528.028 412.047 527.801 411.941 527.56 411.93L487.578 409.897C487.354 409.912 487.143 410.01 486.985 410.171C486.827 410.333 486.734 410.546 486.724 410.772C486.713 410.997 486.785 411.219 486.926 411.395C487.068 411.571 487.269 411.688 487.491 411.725L527.545 413.758C527.786 413.766 528.021 413.678 528.199 413.514C528.376 413.35 528.482 413.122 528.493 412.88H528.435ZM509.575 442.626C509.589 442.506 509.579 442.384 509.545 442.268C509.512 442.151 509.455 442.043 509.379 441.949C509.303 441.855 509.208 441.777 509.102 441.72C508.995 441.663 508.878 441.628 508.758 441.617L478.126 438.59C478.008 438.578 477.888 438.589 477.773 438.624C477.659 438.659 477.553 438.716 477.46 438.792C477.368 438.868 477.292 438.962 477.236 439.068C477.18 439.174 477.146 439.29 477.135 439.409C477.114 439.649 477.188 439.887 477.341 440.073C477.494 440.259 477.713 440.377 477.951 440.403L508.583 443.445H508.67C508.906 443.462 509.138 443.385 509.318 443.232C509.498 443.079 509.611 442.862 509.633 442.626H509.575ZM471.14 458.479C471.342 458.345 471.483 458.136 471.533 457.897C471.582 457.659 471.535 457.411 471.402 457.207L456.262 434.261C456.123 434.063 455.913 433.927 455.677 433.881C455.44 433.835 455.195 433.882 454.993 434.012C454.79 434.147 454.649 434.356 454.599 434.594C454.55 434.833 454.597 435.081 454.73 435.285L469.871 458.23C469.957 458.356 470.073 458.459 470.207 458.53C470.342 458.601 470.492 458.639 470.644 458.64C470.841 458.651 471.037 458.594 471.198 458.479H471.14ZM505.884 466.157C505.881 465.916 505.785 465.686 505.616 465.514C505.448 465.343 505.22 465.243 504.98 465.235L468.966 464.899C468.726 464.899 468.496 464.995 468.327 465.165C468.157 465.335 468.062 465.565 468.062 465.806C468.058 465.927 468.079 466.047 468.122 466.16C468.166 466.272 468.232 466.375 468.317 466.461C468.402 466.547 468.503 466.615 468.614 466.661C468.726 466.707 468.846 466.729 468.966 466.727L504.98 467.063C505.103 467.069 505.226 467.05 505.342 467.008C505.457 466.965 505.563 466.899 505.653 466.815C505.743 466.73 505.815 466.628 505.865 466.515C505.914 466.402 505.941 466.28 505.943 466.157H505.884ZM457.56 520.15C457.633 519.989 463.774 503.025 482.24 498.974C482.478 498.921 482.685 498.776 482.816 498.571C482.948 498.365 482.992 498.116 482.94 497.877C482.881 497.643 482.734 497.441 482.531 497.313C482.327 497.185 482.082 497.141 481.846 497.19C462.373 501.46 455.911 519.375 455.839 519.55C455.763 519.781 455.781 520.032 455.887 520.251C455.993 520.469 456.18 520.637 456.407 520.72H456.699C456.893 520.737 457.087 520.691 457.253 520.588C457.418 520.485 457.547 520.331 457.618 520.15H457.56ZM461.659 533.56C461.9 533.542 462.124 533.428 462.282 533.245C462.441 533.061 462.521 532.823 462.505 532.581C460.214 498.096 473.517 441.617 494.857 395.258C508.495 365.629 561.954 307.395 562.523 306.81C562.695 306.637 562.792 306.403 562.792 306.159C562.792 305.915 562.695 305.681 562.523 305.508C562.439 305.423 562.339 305.356 562.229 305.31C562.119 305.264 562.001 305.24 561.881 305.24C561.762 305.24 561.644 305.264 561.534 305.31C561.424 305.356 561.324 305.423 561.24 305.508C560.7 306.093 507.022 364.547 493.267 394.439C471.533 441.924 458.406 497.38 460.74 532.698C460.758 532.93 460.862 533.148 461.032 533.308C461.202 533.467 461.426 533.557 461.659 533.56ZM505.286 376.276C505.528 376.26 505.753 376.151 505.914 375.97C506.075 375.789 506.159 375.552 506.147 375.31L502.661 316.155C502.655 316.034 502.626 315.916 502.574 315.808C502.523 315.699 502.45 315.601 502.36 315.521C502.271 315.441 502.166 315.379 502.052 315.34C501.938 315.3 501.818 315.284 501.698 315.292C501.457 315.307 501.231 315.417 501.07 315.598C500.909 315.778 500.826 316.015 500.837 316.257L504.382 375.383C504.393 375.616 504.493 375.836 504.662 375.996C504.83 376.157 505.054 376.247 505.286 376.246V376.276ZM494.405 395.711C494.623 395.612 494.795 395.431 494.882 395.207C494.969 394.983 494.965 394.734 494.872 394.512L472.452 343.663C472.356 343.442 472.175 343.269 471.951 343.181C471.727 343.093 471.477 343.098 471.256 343.195C471.036 343.292 470.863 343.473 470.775 343.698C470.688 343.923 470.693 344.173 470.79 344.395L493.194 395.243C493.265 395.407 493.38 395.546 493.528 395.644C493.676 395.743 493.848 395.797 494.026 395.799C494.177 395.807 494.327 395.777 494.463 395.711H494.405ZM498.285 388.692L551.948 380.999C552.078 380.997 552.205 380.966 552.322 380.911C552.44 380.855 552.544 380.775 552.628 380.677C552.712 380.578 552.774 380.462 552.811 380.337C552.847 380.213 552.857 380.082 552.84 379.953C552.822 379.824 552.777 379.701 552.709 379.59C552.64 379.48 552.549 379.386 552.441 379.313C552.334 379.241 552.212 379.192 552.084 379.17C551.957 379.148 551.826 379.153 551.7 379.186L498.037 386.878C497.797 386.894 497.573 387.004 497.415 387.185C497.256 387.366 497.175 387.603 497.191 387.843C497.206 388.084 497.316 388.308 497.497 388.467C497.678 388.627 497.914 388.707 498.154 388.692H498.285ZM482.984 423.015C483.174 422.865 483.298 422.646 483.328 422.405C483.358 422.164 483.292 421.92 483.144 421.728L454.059 384.26C453.985 384.164 453.893 384.084 453.789 384.023C453.684 383.963 453.568 383.924 453.448 383.908C453.328 383.893 453.207 383.901 453.09 383.932C452.973 383.964 452.864 384.018 452.768 384.092C452.672 384.166 452.592 384.258 452.532 384.363C452.471 384.468 452.432 384.584 452.417 384.705C452.401 384.825 452.41 384.947 452.441 385.064C452.472 385.181 452.527 385.291 452.6 385.387L481.744 422.913C481.828 423.022 481.937 423.11 482.061 423.171C482.185 423.232 482.321 423.264 482.459 423.264C482.676 423.253 482.883 423.165 483.042 423.015H482.984ZM528.435 412.88C528.443 412.638 528.355 412.403 528.192 412.225C528.028 412.047 527.801 411.941 527.56 411.93L487.578 409.897C487.354 409.912 487.143 410.01 486.985 410.171C486.827 410.333 486.734 410.546 486.724 410.772C486.713 410.997 486.785 411.219 486.926 411.395C487.068 411.571 487.269 411.688 487.491 411.725L527.545 413.758C527.786 413.766 528.021 413.678 528.199 413.514C528.376 413.35 528.482 413.122 528.493 412.88H528.435ZM509.575 442.626C509.589 442.506 509.579 442.384 509.545 442.268C509.512 442.151 509.455 442.043 509.379 441.949C509.303 441.855 509.208 441.777 509.102 441.72C508.995 441.663 508.878 441.628 508.758 441.617L478.126 438.59C478.008 438.578 477.888 438.589 477.773 438.624C477.659 438.659 477.553 438.716 477.46 438.792C477.368 438.868 477.292 438.962 477.236 439.068C477.18 439.174 477.146 439.29 477.135 439.409C477.114 439.649 477.188 439.887 477.341 440.073C477.494 440.259 477.713 440.377 477.951 440.403L508.583 443.445H508.67C508.906 443.462 509.138 443.385 509.318 443.232C509.498 443.079 509.611 442.862 509.633 442.626H509.575ZM471.14 458.479C471.342 458.345 471.483 458.136 471.533 457.897C471.582 457.659 471.535 457.411 471.402 457.207L456.262 434.261C456.123 434.063 455.913 433.927 455.677 433.881C455.44 433.835 455.195 433.882 454.993 434.012C454.79 434.147 454.649 434.356 454.599 434.594C454.55 434.833 454.597 435.081 454.73 435.285L469.871 458.23C469.957 458.356 470.073 458.459 470.207 458.53C470.342 458.601 470.492 458.639 470.644 458.64C470.841 458.651 471.037 458.594 471.198 458.479H471.14ZM505.884 466.157C505.881 465.916 505.785 465.686 505.616 465.514C505.448 465.343 505.22 465.243 504.98 465.235L468.966 464.899C468.726 464.899 468.496 464.995 468.327 465.165C468.157 465.335 468.062 465.565 468.062 465.806C468.058 465.927 468.079 466.047 468.122 466.16C468.166 466.272 468.232 466.375 468.317 466.461C468.402 466.547 468.503 466.615 468.614 466.661C468.726 466.707 468.846 466.729 468.966 466.727L504.98 467.063C505.103 467.069 505.226 467.05 505.342 467.008C505.457 466.965 505.563 466.899 505.653 466.815C505.743 466.73 505.815 466.628 505.865 466.515C505.914 466.402 505.941 466.28 505.943 466.157H505.884ZM457.56 520.15C457.633 519.989 463.774 503.025 482.24 498.974C482.478 498.921 482.685 498.776 482.816 498.571C482.948 498.365 482.992 498.116 482.94 497.877C482.881 497.643 482.734 497.441 482.531 497.313C482.327 497.185 482.082 497.141 481.846 497.19C462.373 501.46 455.911 519.375 455.839 519.55C455.763 519.781 455.781 520.032 455.887 520.251C455.993 520.469 456.18 520.637 456.407 520.72H456.699C456.893 520.737 457.087 520.691 457.253 520.588C457.418 520.485 457.547 520.331 457.618 520.15H457.56Z" fill="#407BFF"/>
<path opacity="0.2" d="M505.301 375.369L501.756 316.243L505.301 375.369ZM494.084 394.878L471.679 344.029L494.084 394.878ZM551.904 380.093L498.212 387.814L551.904 380.093ZM482.473 422.284L453.403 384.889L482.473 422.284ZM487.578 410.818L527.633 412.836L487.578 410.818ZM478.097 439.497L508.729 442.538L478.097 439.497ZM470.702 457.719L455.488 434.773L470.702 457.719ZM468.952 465.82L504.965 466.157L468.952 465.82ZM461.659 533.56C461.9 533.542 462.124 533.428 462.282 533.245C462.441 533.061 462.521 532.823 462.505 532.581C460.214 498.096 473.517 441.617 494.857 395.258C508.495 365.629 561.954 307.395 562.523 306.81C562.695 306.637 562.792 306.403 562.792 306.159C562.792 305.915 562.695 305.681 562.523 305.508C562.439 305.423 562.339 305.356 562.229 305.31C562.119 305.264 562.001 305.24 561.881 305.24C561.762 305.24 561.644 305.264 561.534 305.31C561.424 305.356 561.324 305.423 561.24 305.508C560.7 306.093 507.022 364.547 493.267 394.439C471.533 441.924 458.406 497.38 460.74 532.698C460.758 532.93 460.862 533.148 461.032 533.308C461.202 533.467 461.426 533.557 461.659 533.56ZM505.286 376.276C505.528 376.26 505.753 376.151 505.914 375.97C506.075 375.789 506.159 375.552 506.147 375.31L502.661 316.155C502.655 316.034 502.626 315.916 502.574 315.808C502.523 315.699 502.45 315.601 502.36 315.521C502.271 315.441 502.166 315.379 502.052 315.34C501.938 315.3 501.818 315.284 501.698 315.292C501.457 315.307 501.231 315.417 501.07 315.598C500.909 315.778 500.826 316.015 500.837 316.257L504.382 375.383C504.393 375.616 504.493 375.836 504.662 375.996C504.83 376.157 505.054 376.247 505.286 376.246V376.276ZM494.405 395.711C494.623 395.612 494.795 395.431 494.882 395.207C494.969 394.983 494.965 394.734 494.872 394.512L472.452 343.663C472.356 343.442 472.175 343.269 471.951 343.181C471.727 343.093 471.477 343.098 471.256 343.195C471.036 343.292 470.863 343.473 470.775 343.698C470.688 343.923 470.693 344.173 470.79 344.395L493.194 395.243C493.265 395.407 493.38 395.546 493.528 395.644C493.676 395.743 493.848 395.797 494.026 395.799C494.177 395.807 494.327 395.777 494.463 395.711H494.405ZM498.285 388.692L551.948 380.999C552.078 380.997 552.205 380.966 552.322 380.911C552.44 380.855 552.544 380.775 552.628 380.677C552.712 380.578 552.774 380.462 552.811 380.337C552.847 380.213 552.857 380.082 552.84 379.953C552.822 379.824 552.777 379.701 552.709 379.59C552.64 379.48 552.549 379.386 552.441 379.313C552.334 379.241 552.212 379.192 552.084 379.17C551.957 379.148 551.826 379.153 551.7 379.186L498.037 386.878C497.797 386.894 497.573 387.004 497.415 387.185C497.256 387.366 497.175 387.603 497.191 387.843C497.206 388.084 497.316 388.308 497.497 388.467C497.678 388.627 497.914 388.707 498.154 388.692H498.285ZM482.984 423.015C483.174 422.865 483.298 422.646 483.328 422.405C483.358 422.164 483.292 421.92 483.144 421.728L454.059 384.26C453.91 384.067 453.69 383.94 453.448 383.908C453.206 383.877 452.962 383.943 452.768 384.092C452.575 384.242 452.448 384.462 452.417 384.705C452.385 384.947 452.451 385.193 452.6 385.387L481.744 422.913C481.828 423.022 481.937 423.11 482.061 423.171C482.185 423.232 482.321 423.264 482.459 423.264C482.676 423.253 482.883 423.165 483.042 423.015H482.984ZM528.435 412.88C528.443 412.638 528.355 412.403 528.192 412.225C528.028 412.047 527.801 411.941 527.56 411.93L487.578 409.897C487.354 409.912 487.143 410.01 486.985 410.171C486.827 410.333 486.734 410.546 486.724 410.772C486.713 410.997 486.785 411.219 486.926 411.395C487.068 411.571 487.269 411.688 487.491 411.725L527.545 413.758C527.786 413.766 528.021 413.678 528.199 413.514C528.376 413.35 528.482 413.122 528.493 412.88H528.435ZM509.575 442.626C509.589 442.506 509.579 442.384 509.545 442.268C509.512 442.151 509.455 442.043 509.379 441.949C509.303 441.855 509.208 441.777 509.102 441.72C508.995 441.663 508.878 441.628 508.758 441.617L478.126 438.59C478.008 438.578 477.888 438.589 477.773 438.624C477.659 438.659 477.553 438.716 477.46 438.792C477.368 438.868 477.292 438.962 477.236 439.068C477.18 439.174 477.146 439.29 477.135 439.409C477.114 439.649 477.188 439.887 477.341 440.073C477.494 440.259 477.713 440.377 477.951 440.403L508.583 443.445H508.67C508.906 443.462 509.138 443.385 509.318 443.232C509.498 443.079 509.611 442.862 509.633 442.626H509.575ZM471.14 458.479C471.342 458.345 471.483 458.136 471.533 457.897C471.582 457.659 471.535 457.411 471.402 457.207L456.262 434.261C456.123 434.063 455.913 433.927 455.677 433.881C455.44 433.835 455.195 433.882 454.993 434.012C454.79 434.147 454.649 434.356 454.599 434.594C454.55 434.833 454.597 435.081 454.73 435.285L469.871 458.23C469.957 458.356 470.073 458.459 470.207 458.53C470.342 458.601 470.492 458.639 470.644 458.64C470.841 458.651 471.037 458.594 471.198 458.479H471.14ZM505.884 466.157C505.881 465.916 505.785 465.686 505.616 465.514C505.448 465.343 505.22 465.243 504.98 465.235L468.966 464.899C468.726 464.899 468.496 464.995 468.327 465.165C468.157 465.335 468.062 465.565 468.062 465.806C468.058 465.927 468.079 466.047 468.122 466.16C468.166 466.272 468.232 466.375 468.317 466.461C468.402 466.547 468.503 466.615 468.614 466.661C468.726 466.707 468.846 466.729 468.966 466.727L504.98 467.063C505.103 467.069 505.226 467.05 505.342 467.008C505.457 466.965 505.563 466.899 505.653 466.815C505.743 466.73 505.815 466.628 505.865 466.515C505.914 466.402 505.941 466.28 505.943 466.157H505.884ZM457.56 520.15C457.633 519.989 463.774 503.025 482.24 498.974C482.478 498.921 482.685 498.776 482.816 498.571C482.948 498.365 482.992 498.116 482.94 497.877C482.881 497.643 482.734 497.441 482.531 497.313C482.327 497.185 482.082 497.141 481.846 497.19C462.373 501.46 455.911 519.375 455.839 519.55C455.763 519.781 455.781 520.032 455.887 520.251C455.993 520.469 456.18 520.637 456.407 520.72H456.699C456.893 520.737 457.087 520.691 457.253 520.588C457.418 520.485 457.547 520.331 457.618 520.15H457.56ZM461.659 533.56C461.9 533.542 462.124 533.428 462.282 533.245C462.441 533.061 462.521 532.823 462.505 532.581C460.214 498.096 473.517 441.617 494.857 395.258C508.495 365.629 561.954 307.395 562.523 306.81C562.695 306.637 562.792 306.403 562.792 306.159C562.792 305.915 562.695 305.681 562.523 305.508C562.439 305.423 562.339 305.356 562.229 305.31C562.119 305.264 562.001 305.24 561.881 305.24C561.762 305.24 561.644 305.264 561.534 305.31C561.424 305.356 561.324 305.423 561.24 305.508C560.7 306.093 507.022 364.547 493.267 394.439C471.533 441.924 458.406 497.38 460.74 532.698C460.758 532.93 460.862 533.148 461.032 533.308C461.202 533.467 461.426 533.557 461.659 533.56ZM505.286 376.276C505.528 376.26 505.753 376.151 505.914 375.97C506.075 375.789 506.159 375.552 506.147 375.31L502.661 316.155C502.655 316.034 502.626 315.916 502.574 315.808C502.523 315.699 502.45 315.601 502.36 315.521C502.271 315.441 502.166 315.379 502.052 315.34C501.938 315.3 501.818 315.284 501.698 315.292C501.457 315.307 501.231 315.417 501.07 315.598C500.909 315.778 500.826 316.015 500.837 316.257L504.382 375.383C504.393 375.616 504.493 375.836 504.662 375.996C504.83 376.157 505.054 376.247 505.286 376.246V376.276ZM494.405 395.711C494.623 395.612 494.795 395.431 494.882 395.207C494.969 394.983 494.965 394.734 494.872 394.512L472.452 343.663C472.356 343.442 472.175 343.269 471.951 343.181C471.727 343.093 471.477 343.098 471.256 343.195C471.036 343.292 470.863 343.473 470.775 343.698C470.688 343.923 470.693 344.173 470.79 344.395L493.194 395.243C493.265 395.407 493.38 395.546 493.528 395.644C493.676 395.743 493.848 395.797 494.026 395.799C494.177 395.807 494.327 395.777 494.463 395.711H494.405ZM498.285 388.692L551.948 380.999C552.078 380.997 552.205 380.966 552.322 380.911C552.44 380.855 552.544 380.775 552.628 380.677C552.712 380.578 552.774 380.462 552.811 380.337C552.847 380.213 552.857 380.082 552.84 379.953C552.822 379.824 552.777 379.701 552.709 379.59C552.64 379.48 552.549 379.386 552.441 379.313C552.334 379.241 552.212 379.192 552.084 379.17C551.957 379.148 551.826 379.153 551.7 379.186L498.037 386.878C497.797 386.894 497.573 387.004 497.415 387.185C497.256 387.366 497.175 387.603 497.191 387.843C497.206 388.084 497.316 388.308 497.497 388.467C497.678 388.627 497.914 388.707 498.154 388.692H498.285ZM482.984 423.015C483.174 422.865 483.298 422.646 483.328 422.405C483.358 422.164 483.292 421.92 483.144 421.728L454.059 384.26C453.985 384.164 453.893 384.084 453.789 384.023C453.684 383.963 453.568 383.924 453.448 383.908C453.328 383.893 453.207 383.901 453.09 383.932C452.973 383.964 452.864 384.018 452.768 384.092C452.672 384.166 452.592 384.258 452.532 384.363C452.471 384.468 452.432 384.584 452.417 384.705C452.401 384.825 452.41 384.947 452.441 385.064C452.472 385.181 452.527 385.291 452.6 385.387L481.744 422.913C481.828 423.022 481.937 423.11 482.061 423.171C482.185 423.232 482.321 423.264 482.459 423.264C482.676 423.253 482.883 423.165 483.042 423.015H482.984ZM528.435 412.88C528.443 412.638 528.355 412.403 528.192 412.225C528.028 412.047 527.801 411.941 527.56 411.93L487.578 409.897C487.354 409.912 487.143 410.01 486.985 410.171C486.827 410.333 486.734 410.546 486.724 410.772C486.713 410.997 486.785 411.219 486.926 411.395C487.068 411.571 487.269 411.688 487.491 411.725L527.545 413.758C527.786 413.766 528.021 413.678 528.199 413.514C528.376 413.35 528.482 413.122 528.493 412.88H528.435ZM509.575 442.626C509.589 442.506 509.579 442.384 509.545 442.268C509.512 442.151 509.455 442.043 509.379 441.949C509.303 441.855 509.208 441.777 509.102 441.72C508.995 441.663 508.878 441.628 508.758 441.617L478.126 438.59C478.008 438.578 477.888 438.589 477.773 438.624C477.659 438.659 477.553 438.716 477.46 438.792C477.368 438.868 477.292 438.962 477.236 439.068C477.18 439.174 477.146 439.29 477.135 439.409C477.114 439.649 477.188 439.887 477.341 440.073C477.494 440.259 477.713 440.377 477.951 440.403L508.583 443.445H508.67C508.906 443.462 509.138 443.385 509.318 443.232C509.498 443.079 509.611 442.862 509.633 442.626H509.575ZM471.14 458.479C471.342 458.345 471.483 458.136 471.533 457.897C471.582 457.659 471.535 457.411 471.402 457.207L456.262 434.261C456.123 434.063 455.913 433.927 455.677 433.881C455.44 433.835 455.195 433.882 454.993 434.012C454.79 434.147 454.649 434.356 454.599 434.594C454.55 434.833 454.597 435.081 454.73 435.285L469.871 458.23C469.957 458.356 470.073 458.459 470.207 458.53C470.342 458.601 470.492 458.639 470.644 458.64C470.841 458.651 471.037 458.594 471.198 458.479H471.14ZM505.884 466.157C505.881 465.916 505.785 465.686 505.616 465.514C505.448 465.343 505.22 465.243 504.98 465.235L468.966 464.899C468.726 464.899 468.496 464.995 468.327 465.165C468.157 465.335 468.062 465.565 468.062 465.806C468.058 465.927 468.079 466.047 468.122 466.16C468.166 466.272 468.232 466.375 468.317 466.461C468.402 466.547 468.503 466.615 468.614 466.661C468.726 466.707 468.846 466.729 468.966 466.727L504.98 467.063C505.103 467.069 505.226 467.05 505.342 467.008C505.457 466.965 505.563 466.899 505.653 466.815C505.743 466.73 505.815 466.628 505.865 466.515C505.914 466.402 505.941 466.28 505.943 466.157H505.884ZM457.56 520.15C457.633 519.989 463.774 503.025 482.24 498.974C482.478 498.921 482.685 498.776 482.816 498.571C482.948 498.365 482.992 498.116 482.94 497.877C482.881 497.643 482.734 497.441 482.531 497.313C482.327 497.185 482.082 497.141 481.846 497.19C462.373 501.46 455.911 519.375 455.839 519.55C455.763 519.781 455.781 520.032 455.887 520.251C455.993 520.469 456.18 520.637 456.407 520.72H456.699C456.893 520.737 457.087 520.691 457.253 520.588C457.418 520.485 457.547 520.331 457.618 520.15H457.56Z" fill="black"/>
<path d="M485.478 507.778H444.184V516.347H447.786L455.24 563.101H474.421L481.875 516.347H485.478V507.778Z" fill="#407BFF"/>
<path opacity="0.3" d="M485.478 507.778H444.184V516.347H447.786L455.24 563.101H474.421L481.875 516.347H485.478V507.778Z" fill="white"/>
<path d="M113.701 248.634L65.6677 232.913L61.3939 221.594L51.6356 221.286L33.9277 217.923L36.0573 221.594L58.3453 237.812L63.8444 240.561L114.08 266.871L113.701 248.634Z" fill="white" stroke="#263238" stroke-width="1.00396" stroke-miterlimit="10"/>
<path d="M61.3937 221.594L56.8136 218.844L47.668 222.208L49.1849 224.036L61.3937 221.594Z" fill="white" stroke="#263238" stroke-width="1.00396" stroke-linejoin="round"/>
<path d="M113.701 248.634L65.6677 232.913L61.3939 221.594L51.6356 221.286L33.9277 217.923L36.0573 221.594L58.3453 237.812L63.8444 240.561L114.08 266.871L113.701 248.634Z" fill="white"/>
<path opacity="0.5" d="M113.701 248.634L65.6677 232.913L61.3939 221.594L51.6356 221.286L33.9277 217.923L36.0573 221.594L58.3453 237.812L63.8444 240.561L114.08 266.871L113.701 248.634Z" fill="#407BFF" stroke="#263238" stroke-width="1.00396" stroke-miterlimit="10"/>
<path d="M113.701 248.634L65.6677 232.913L61.3939 221.594L51.6356 221.286L33.9277 217.923L36.0573 221.594L58.3453 237.812L63.8444 240.561L114.08 266.871L113.701 248.634Z" stroke="#263238" stroke-width="1.00396" stroke-miterlimit="10"/>
<path d="M61.3937 221.594L56.8136 218.844L47.668 222.208L49.1849 224.036L61.3937 221.594Z" fill="white"/>
<path opacity="0.5" d="M61.3937 221.594L56.8136 218.844L47.668 222.208L49.1849 224.036L61.3937 221.594Z" fill="#407BFF" stroke="#263238" stroke-width="1.00396" stroke-linejoin="round"/>
<path d="M61.3937 221.594L56.8136 218.844L47.668 222.208L49.1849 224.036L61.3937 221.594Z" stroke="#263238" stroke-width="1.00396" stroke-linejoin="round"/>
<path d="M123.897 146.6C123.897 146.6 123.153 153.181 125.005 157.408C126.858 161.634 137.141 175.951 137.141 175.951L117.946 191.38C117.946 191.38 109.981 175.293 108.464 172.69C106.947 170.087 105.124 158.885 110.069 150.856C115.014 142.827 122.132 140.663 123.897 146.6Z" fill="white"/>
<g style="mix-blend-mode:multiply" opacity="0.5">
<path d="M114.037 167.747L122.365 185.062L117.931 191.395L109.559 176.405L114.037 167.747Z" fill="#407BFF"/>
</g>
<path d="M123.897 146.6C123.897 146.6 123.153 153.181 125.005 157.408C126.858 161.634 137.141 175.951 137.141 175.951L117.946 191.38C117.946 191.38 109.981 175.293 108.464 172.69C106.947 170.087 105.124 158.885 110.069 150.856C115.014 142.827 122.132 140.663 123.897 146.6Z" stroke="#263238" stroke-width="1.00396" stroke-miterlimit="10"/>
<path d="M129.848 134.55C128.667 127.238 120.309 112.365 107.05 112.935C98.4436 113.315 94.4178 115.055 90.6837 117.176C87.6399 118.974 84.8028 121.102 82.2236 123.523C75.7472 131.318 73.4717 133.453 74.7262 139.42C74.6233 141.799 74.9952 144.176 75.8202 146.41C77.8039 151.719 79.1604 155.185 80.8816 157.715C80.3565 160.186 78.9854 166.709 78.9125 168.2C78.8395 169.692 83.2884 168.654 85.5347 168.083C89.7064 177.443 97.3496 183.936 99.7272 184.682C103.87 185.983 110.419 179.154 113.891 173.86C117.362 168.566 114.737 162.614 114.751 160.245C114.766 157.875 122.555 152.669 125.443 151.017C128.331 149.364 131.015 141.847 129.848 134.55Z" fill="white"/>
<g style="mix-blend-mode:multiply" opacity="0.5">
<path d="M74.7847 139.42C74.6818 141.8 75.0537 144.176 75.8787 146.41C77.8624 151.719 79.219 155.185 80.9402 157.715C80.4151 160.186 79.0439 166.709 78.971 168.2C78.8981 169.692 83.3469 168.654 85.5932 168.083C89.7649 177.443 97.4082 183.936 99.7858 184.682C103.928 185.984 110.478 179.154 113.949 173.86C114.816 172.538 115.379 171.04 115.597 169.473C115.408 168.785 115.276 168.361 115.276 168.361C115.276 168.361 113.322 175.893 109.442 174.913C105.562 173.933 99.6253 166.138 96.3142 163.447C93.0031 160.757 94.3596 157.217 93.7032 153.21C93.0469 149.203 83.2448 145.679 82.5884 143.383C81.932 141.087 84.2221 131.581 84.2221 131.581C84.2221 131.581 87.9416 126.609 87.1394 128.656C86.5724 130.431 86.3667 132.303 86.5346 134.159C86.7024 136.016 87.2404 137.819 88.1167 139.463C88.7315 140.761 89.7069 141.852 90.9256 142.607C92.1444 143.362 93.5546 143.748 94.9868 143.719L98.5459 126.038L91.0339 119.808L82.2821 123.464C75.7474 131.318 73.5157 133.453 74.7847 139.42Z" fill="#407BFF"/>
</g>
<path d="M129.848 134.55C128.667 127.238 120.309 112.365 107.05 112.935C98.4436 113.315 94.4178 115.055 90.6837 117.176C87.6399 118.974 84.8028 121.102 82.2236 123.523C75.7472 131.318 73.4717 133.453 74.7262 139.42C74.6233 141.799 74.9952 144.176 75.8202 146.41C77.8039 151.719 79.1604 155.185 80.8816 157.715C80.3565 160.186 78.9854 166.709 78.9125 168.2C78.8395 169.692 83.2884 168.654 85.5347 168.083C89.7064 177.443 97.3496 183.936 99.7272 184.682C103.87 185.983 110.419 179.154 113.891 173.86C117.362 168.566 114.737 162.614 114.751 160.245C114.766 157.875 122.555 152.669 125.443 151.017C128.331 149.364 131.015 141.847 129.848 134.55Z" stroke="#263238" stroke-miterlimit="10"/>
<path d="M82.6904 153.298L84.1491 157.481C84.1491 157.481 87.2851 158.519 91.1068 154.336" stroke="#263238" stroke-miterlimit="10" stroke-linecap="round"/>
<path d="M93.4697 172.836C93.4697 172.836 96.9413 172.485 98.3416 167.601" stroke="#263238" stroke-miterlimit="10" stroke-linecap="round"/>
<path d="M80.2539 149.803C80.2539 149.803 81.2895 146.659 87.5471 146.659" stroke="#263238" stroke-miterlimit="10" stroke-linecap="round"/>
<path d="M112.33 107.114C107.783 106.459 103.198 106.107 98.6044 106.061C98.6044 106.061 84.864 98.1205 71.6633 106.588C58.4627 115.055 64.8077 129.885 64.8077 133.584C64.8077 137.284 60.5777 137.299 63.2178 142.067C65.858 146.834 74.7848 144.202 74.7848 144.202C74.8792 142.404 75.3531 140.646 76.1753 139.045C76.9976 137.444 78.1494 136.037 79.5546 134.915C84.3097 131.215 88.1022 130.411 89.6775 131.479C89.6775 131.479 88.6273 139.42 90.2026 142.593C90.2026 142.593 95.4829 145.24 97.0728 145.24C98.6627 145.24 96.0372 147.478 101.303 149.467C102.262 149.812 103.288 149.93 104.301 149.81C105.313 149.691 106.284 149.338 107.137 148.779C107.91 145.562 109.602 140.721 112.753 141.847C117.377 143.5 121.592 154.907 115.335 158.797C122.862 160.172 131.978 146.82 132.518 134.652C133.057 122.485 120.148 108.489 112.33 107.114Z" fill="#263238"/>
<path d="M89.9102 126.258C89.9102 126.258 93.7901 124.166 98.5453 128.641C103.3 133.116 112.548 139.098 124.801 135.807" stroke="white" stroke-width="0.5" stroke-linecap="round" stroke-linejoin="round"/>
<path d="M89.3711 122.675C89.3711 122.675 92.0404 118.492 96.5038 118.492C100.967 118.492 111.397 124.766 119.725 124.766" stroke="white" stroke-width="0.5" stroke-linecap="round" stroke-linejoin="round"/>
<path d="M86.3373 130.733C86.3373 130.733 81.2758 124.474 76.5207 129.548C71.7655 134.623 74.7849 139.42 74.7849 139.42" stroke="white" stroke-width="0.5" stroke-linecap="round" stroke-linejoin="round"/>
<path d="M66.1055 134.915C69.006 132.293 70.809 128.667 71.1524 124.766C71.7504 118.2 80.6918 112.525 86.3368 117.907" stroke="white" stroke-width="0.5" stroke-linecap="round" stroke-linejoin="round"/>
<path d="M75.3242 111.034C75.3242 111.034 84.2657 102.376 91.7047 113.418" stroke="white" stroke-width="0.5" stroke-linecap="round" stroke-linejoin="round"/>
<path d="M148.095 536.704C148.095 536.704 153.594 545.274 152.982 550.788L152.384 556.301C152.384 556.301 132.211 561.844 127.937 561.844C123.663 561.844 101.04 559.694 101.04 559.694L100.062 555.804C99.994 555.516 100.026 555.214 100.154 554.948C100.281 554.682 100.496 554.467 100.763 554.341L120.936 544.909L127.295 537.933L148.095 536.704Z" fill="white" stroke="#263238" stroke-width="1.00396" stroke-miterlimit="10"/>
<path d="M131 557.529C136.47 557.954 146.856 554.605 152.88 552.469L152.457 556.301C152.457 556.301 132.211 561.844 127.937 561.844C123.663 561.844 101.04 559.694 101.04 559.694L100.34 556.915C103.957 556.93 123.766 556.974 131 557.529Z" fill="#407BFF" stroke="#263238" stroke-width="1.00396" stroke-miterlimit="10"/>
<path d="M120.965 544.909L91.6024 557.72C91.6024 557.72 89.0935 564.023 91.6024 565.28C94.1112 566.538 148.81 565.28 148.81 565.28C148.81 565.28 152.588 555.321 146.622 548.638C140.656 541.955 120.965 544.909 120.965 544.909Z" fill="white" stroke="#263238" stroke-width="1.00396" stroke-miterlimit="10"/>
<path d="M148.81 565.28C148.81 565.28 94.1115 566.538 91.6027 565.28C90.392 564.666 90.3482 562.897 90.6254 561.215H149.773C149.58 562.597 149.258 563.958 148.81 565.28Z" fill="#407BFF" stroke="#263238" stroke-width="1.00396" stroke-miterlimit="10"/>
<path d="M107.079 322.312C107.079 322.312 99.4063 356.401 96.5036 377.723C93.6009 399.046 91.8943 441.763 92.5069 446.662C93.1195 451.562 123.663 533.648 123.663 533.648L126.712 540.96L148.096 536.675C148.096 536.675 138.323 505.438 134.662 488.283C131 471.129 122.992 442.948 122.992 438.049C122.992 433.149 141.955 339.583 143.311 333.441C144.668 327.299 150.823 317.866 150.823 317.866L109.879 317.032L107.079 322.312Z" fill="#407BFF" stroke="#263238" stroke-width="1.00396" stroke-miterlimit="10"/>
<path d="M107.078 322.311C107.078 322.311 102.586 353.447 104.438 375.091C106.291 396.735 110.273 442.816 110.273 449.675C110.273 456.534 121.315 497.496 121.942 510.366C122.919 528.953 121.548 538.152 121.548 538.152L120.892 544.894C120.892 544.894 133.771 546.737 136.586 547.541C139.838 548.381 143.194 548.745 146.549 548.623C146.549 548.623 151.231 527.959 151.231 510.351C151.231 492.744 147.337 456.504 145.397 441.822C143.457 427.139 149.568 370.499 153.04 359.925C156.511 349.352 164.096 326.962 158.991 315.526C153.886 304.09 107.078 322.311 107.078 322.311Z" fill="#407BFF" stroke="#263238" stroke-width="1.00396" stroke-miterlimit="10"/>
<path d="M164.665 309.793L164.199 323.715C164.199 323.715 155.884 325.368 144.682 327.313C135.434 328.922 112.213 326.889 104.395 326.128C103.682 326.065 103.023 325.722 102.562 325.175C102.1 324.627 101.873 323.918 101.929 323.204L102.688 310.627L164.665 309.793Z" fill="#263238"/>
<path d="M132.167 171.008C132.167 171.008 119.039 185.238 114.095 194.086C109.15 202.933 107.195 216.49 105.343 227.166C103.49 237.842 108.508 262.908 107.093 274.417L102.615 310.671C102.615 310.671 101.652 313.128 104.876 315.819C108.1 318.509 123.838 319.489 138.06 320.206C143.253 320.469 158.758 317.12 161.296 316.959C164.359 316.769 164.461 312.864 164.593 309.793C165.205 295.359 167.802 256.882 169.508 240.123C173.024 205.946 153.784 172.953 132.167 171.008Z" fill="white" stroke="#263238" stroke-width="1.00396" stroke-miterlimit="10"/>
<g style="mix-blend-mode:multiply">
<path d="M167.903 259.559C168.487 251.968 169.07 245.08 169.581 240.123C169.727 238.66 169.814 237.198 169.887 235.735L135.011 241.585L105.051 231.348C105.054 237.564 105.405 243.774 106.101 249.95L135.493 258.198L167.903 259.559Z" fill="#407BFF"/>
</g>
<g style="mix-blend-mode:multiply">
<path d="M130.869 172.441C128.885 174.65 124.947 179.139 121.198 183.907L143.34 206.472L150.634 203.547L130.869 172.441Z" fill="#407BFF"/>
</g>
<path d="M132.167 171.008C132.167 171.008 119.039 185.238 114.094 194.086C112.628 196.774 111.44 199.607 110.55 202.538L136.951 171.959C135.391 171.485 133.789 171.167 132.167 171.008Z" fill="#263238"/>
<g style="mix-blend-mode:multiply">
<path d="M106.364 221.404L135.012 230.851L169.8 226.844C169.255 218.155 167.33 209.609 164.097 201.529L136.048 212.804L110.974 201.412C108.923 207.946 107.382 214.63 106.364 221.404Z" fill="#407BFF"/>
</g>
<g style="mix-blend-mode:multiply">
<path d="M155.681 295.359C141.151 297.805 126.242 296.584 112.301 291.805L105.314 289.407L103.141 306.956L111.105 309.194C126.245 313.438 142.069 314.66 157.679 312.791L164.112 312.016C164.446 311.306 164.635 310.535 164.666 309.749C164.841 305.845 165.147 300.17 165.541 293.663L155.681 295.359Z" fill="#407BFF"/>
</g>
<g style="mix-blend-mode:multiply">
<path d="M159.575 271.463C145.045 273.918 130.132 272.692 116.195 267.894L107.298 264.838C107.518 268.024 107.475 271.223 107.166 274.402L106.131 282.84L114.999 285.327C130.134 289.575 145.953 290.802 161.559 288.939L165.935 288.412C166.3 282.563 166.723 276.333 167.175 270.176L159.575 271.463Z" fill="#407BFF"/>
</g>
<path d="M22.7274 209.619L50.9307 232.354L52.1463 230.839L23.943 208.104L22.7274 209.619Z" fill="#263238"/>
<path d="M145.748 186.788C145.748 186.788 156.089 193.851 156.323 210.538C156.425 217.85 155.666 224.68 153.989 236.657C152.311 248.634 141.897 287.637 133.787 292.376C125.677 297.114 113.089 288.164 113.089 288.164L52.2052 247.64L37.4875 235.721L30.1943 221.916L32.4844 217.528L50.4402 231.334L40.7695 222.369L42.6657 219.956L46.1664 222.398L56.3769 226.23L58.6086 240.854L61.7592 243.018L120.003 264.355C120.003 264.355 119.273 232.928 119.813 226.917C120.353 220.906 121.097 205.799 127.515 194.846" fill="white"/>
<g style="mix-blend-mode:multiply" opacity="0.5">
<path d="M119.594 240.605C119.594 251.457 119.958 264.355 119.958 264.355L61.7734 243.106L58.6227 240.942L56.391 226.317L46.1805 222.486L42.6944 220L40.7981 222.413L50.4397 231.333L32.4839 217.528L30.3105 221.842L37.6037 235.648L52.3214 247.64L56.0263 250.111L136.47 276.099L119.594 240.605Z" fill="#407BFF"/>
</g>
<path d="M145.748 186.788C145.748 186.788 156.089 193.851 156.323 210.538C156.425 217.85 155.666 224.68 153.989 236.657C152.311 248.634 141.897 287.637 133.787 292.376C125.677 297.114 113.089 288.164 113.089 288.164L52.2052 247.64L37.4875 235.721L30.1943 221.916L32.4844 217.528L50.4402 231.334L40.7695 222.369L42.6657 219.956L46.1664 222.398L56.3769 226.23L58.6086 240.854L61.7592 243.018L120.003 264.355C120.003 264.355 119.273 232.928 119.813 226.917C120.353 220.906 121.097 205.799 127.515 194.846" stroke="#263238" stroke-width="1.00396" stroke-miterlimit="10"/>
<path d="M120.002 264.355L142.231 280.442L147.993 270.205C147.993 270.205 151.975 267.061 152.559 264.692C153.142 262.322 152.398 258.476 152.996 256.107C153.594 253.738 156.57 251.515 156.847 245.782C157.124 240.05 156.847 235.267 156.847 235.267C156.847 235.267 161.661 215.422 161.135 206.794C160.61 198.166 152.311 182.912 145.659 182.576C139.008 182.24 130.358 183.249 123.648 193.427C116.939 203.606 118.31 233.322 117.26 235.18C116.209 237.037 117.668 246.206 117.668 246.206C117.085 246.642 116.601 247.198 116.249 247.836C115.897 248.474 115.685 249.18 115.626 249.906C115.509 252.29 118.076 258.155 118.076 258.155L120.002 264.355Z" fill="white" stroke="#263238" stroke-width="1.00396" stroke-miterlimit="10"/>
<g style="mix-blend-mode:multiply">
<path d="M117.843 227.546C117.889 230.098 117.699 232.649 117.275 235.165C116.341 236.832 117.406 244.364 117.639 245.899C130.142 249.793 143.363 250.793 156.308 248.824C156.586 247.807 156.752 246.763 156.804 245.709C157.095 239.991 156.804 235.194 156.804 235.194C156.804 235.194 157.227 233.425 157.81 230.734C144.404 231.588 130.946 230.515 117.843 227.546Z" fill="#407BFF"/>
</g>
<g style="mix-blend-mode:multiply">
<path d="M122.744 195.051C120.658 199.248 119.491 205.551 118.82 211.942C132.062 217.008 146.339 218.751 160.406 217.016C160.967 213.634 161.216 210.207 161.15 206.779C160.897 204.07 160.259 201.41 159.254 198.882C146.971 199.17 134.701 197.882 122.744 195.051Z" fill="#407BFF"/>
</g>
<path d="M118.077 258.315L119.959 264.355L142.188 280.442L147.95 270.205C147.95 270.205 151.932 267.061 152.516 264.692C152.62 264.28 152.683 263.858 152.705 263.434C140.991 263.231 129.352 261.511 118.077 258.315Z" fill="#263238"/>
<path d="M134.166 547.351C134.166 547.351 134.662 534.686 137.083 516.172C139.504 497.657 133.684 471.363 132.707 466.975C131.73 462.588 133.203 452.848 132.226 449.426C131.248 446.004 126.523 431.409 129.309 414.474C132.095 397.539 134.355 352.774 134.355 352.774C134.355 352.774 127.339 347.056 125.283 339.612C123.226 332.168 124.801 329.828 124.801 329.828" stroke="#263238" stroke-width="1.00396" stroke-miterlimit="10"/>
<path d="M137.418 330.516L134.72 345.491" stroke="#263238" stroke-width="1.00396" stroke-miterlimit="10"/>
</svg>
