<svg width="32" height="33" viewBox="0 0 32 33" fill="none" xmlns="http://www.w3.org/2000/svg">
<path d="M16 8.86157V13.3578" stroke="white" stroke-width="1.5" stroke-miterlimit="10" stroke-linecap="round"/>
<path d="M16.0265 2.8667C11.1199 2.8667 7.14653 6.89033 7.14653 11.8591V14.6945C7.14653 15.6127 6.7732 16.9899 6.30653 17.773L4.6132 20.6355C3.5732 22.4043 4.2932 24.3756 6.2132 25.0237C12.5865 27.1705 19.4799 27.1705 25.8532 25.0237C27.6532 24.4161 28.4265 22.2827 27.4532 20.6355L25.7599 17.773C25.2932 16.9899 24.9199 15.5992 24.9199 14.6945V11.8591C24.9065 6.91733 20.9065 2.8667 16.0265 2.8667Z" stroke="white" stroke-width="1.5" stroke-miterlimit="10" stroke-linecap="round"/>
<path d="M20.4401 25.5771C20.4401 28.048 18.4401 30.0734 16.0001 30.0734C14.7867 30.0734 13.6667 29.5603 12.8667 28.7501C12.0667 27.94 11.5601 26.8058 11.5601 25.5771" stroke="white" stroke-width="1.5" stroke-miterlimit="10"/>
</svg>
