<svg width="32" height="32" viewBox="0 0 32 32" fill="none" xmlns="http://www.w3.org/2000/svg">
<path d="M5.33325 28.7334V3.26675C5.33325 2.93538 5.60188 2.66675 5.93325 2.66675H21.7514C21.9105 2.66675 22.0631 2.72996 22.1757 2.84248L26.4908 7.15768C26.6034 7.2702 26.6666 7.42281 26.6666 7.58194V28.7334C26.6666 29.0648 26.398 29.3334 26.0666 29.3334H5.93325C5.60188 29.3334 5.33325 29.0648 5.33325 28.7334Z" stroke="white" stroke-width="1.5" stroke-linecap="round" stroke-linejoin="round"/>
<path d="M21.3333 7.40008V3.13815C21.3333 2.8778 21.5443 2.66675 21.8047 2.66675C21.9297 2.66675 22.0496 2.71641 22.138 2.80482L26.5285 7.19534C26.6169 7.28375 26.6666 7.40365 26.6666 7.52868C26.6666 7.78903 26.4555 8.00008 26.1952 8.00008H21.9333C21.6019 8.00008 21.3333 7.73145 21.3333 7.40008Z" fill="white" stroke="white" stroke-width="1.5" stroke-linecap="round" stroke-linejoin="round"/>
<path d="M10.6667 13.3333L21.3334 13.3333" stroke="white" stroke-width="1.5" stroke-linecap="round" stroke-linejoin="round"/>
<path d="M10.6667 24L21.3334 24" stroke="white" stroke-width="1.5" stroke-linecap="round" stroke-linejoin="round"/>
<path d="M10.6667 18.6667L16.0001 18.6667" stroke="white" stroke-width="1.5" stroke-linecap="round" stroke-linejoin="round"/>
</svg>
