<svg width="32" height="32" viewBox="0 0 32 32" fill="none" xmlns="http://www.w3.org/2000/svg">
<path d="M28 4.6V27.4C28 27.7314 27.7314 28 27.4 28H4.6C4.26863 28 4 27.7314 4 27.4V4.6C4 4.26863 4.26863 4 4.6 4H27.4C27.7314 4 28 4.26863 28 4.6Z" stroke="white" stroke-width="1.5" stroke-linecap="round" stroke-linejoin="round"/>
<path d="M4 21.3334L13.3333 17.3334L28 24" stroke="white" stroke-width="1.5" stroke-linecap="round" stroke-linejoin="round"/>
<path d="M21.3333 13.3333C19.8606 13.3333 18.6667 12.1394 18.6667 10.6667C18.6667 9.19391 19.8606 8 21.3333 8C22.8061 8 24 9.19391 24 10.6667C24 12.1394 22.8061 13.3333 21.3333 13.3333Z" stroke="white" stroke-width="1.5" stroke-linecap="round" stroke-linejoin="round"/>
</svg>
