<svg width="827" height="680" viewBox="0 0 827 680" fill="none" xmlns="http://www.w3.org/2000/svg">
<g clip-path="url(#clip0_805_2728)">
<path d="M797.918 0.00428126H577.544C566.909 0.00368376 556.591 4.15402 548.285 11.773C539.979 19.392 534.18 30.0262 531.841 41.9276L420.493 608.541C419.278 614.722 419.257 621.132 420.43 627.323C421.603 633.513 423.943 639.335 427.284 644.379C430.626 649.422 434.889 653.567 439.774 656.521C444.66 659.474 450.049 661.167 455.565 661.478L682.113 674.283C694.243 674.969 706.177 670.567 715.687 661.9C725.197 653.234 731.634 640.893 733.796 627.182L796.964 226.581L801.663 228.122L813.753 152.192L808.916 150.805L826.548 38.9824C827.303 34.1927 827.128 29.2707 826.036 24.5674C824.943 19.8641 822.959 15.4952 820.226 11.7724C817.492 8.04954 814.076 5.06436 810.222 3.02967C806.368 0.99498 802.169 -0.0391084 797.927 0.00113086L797.918 0.00428126Z" fill="#3F3D56"/>
<path d="M606.552 12.2188H580.83C573.443 12.2188 566.278 15.1173 560.524 20.433C554.77 25.7487 550.775 33.162 549.2 41.4421L442.316 603.433C441.701 606.668 441.701 610.018 442.318 613.254C442.934 616.49 444.152 619.534 445.889 622.18C447.625 624.826 449.839 627.011 452.379 628.585C454.919 630.159 457.725 631.086 460.606 631.302L686.417 648.281C692.787 648.76 699.089 646.532 704.118 642.021C709.148 637.51 712.553 631.032 713.685 623.824L804.888 42.952C805.479 39.1924 805.343 35.33 804.49 31.6374C803.637 27.9447 802.088 24.5118 799.952 21.581C797.816 18.6501 795.146 16.2926 792.129 14.675C789.113 13.0573 785.823 12.2188 782.493 12.2188H758.092C755.73 12.2187 753.434 13.1118 751.559 14.76C749.684 16.4081 748.335 18.7193 747.721 21.3358V21.3358C747.179 23.6464 745.988 25.6874 744.332 27.1427C742.676 28.5979 740.648 29.3861 738.562 29.3852H622.715C618.631 29.3851 614.698 27.6171 611.702 24.4345C608.705 21.252 606.866 16.8894 606.552 12.2188V12.2188Z" fill="white"/>
<path d="M731.381 405.098C731.82 405.115 732.25 404.951 732.593 404.635C732.935 404.319 733.167 403.872 733.246 403.377L783.183 87.2004C783.23 86.8999 783.221 86.5911 783.155 86.2952C783.089 85.9993 782.968 85.7232 782.801 85.4857C782.635 85.2501 782.426 85.0593 782.188 84.9269C781.951 84.7945 781.691 84.7238 781.427 84.7197L554.235 81.6411H554.214C553.801 81.6451 553.402 81.8097 553.082 82.1079C552.761 82.406 552.539 82.8201 552.451 83.2823L493.581 389.196C493.524 389.495 493.523 389.804 493.58 390.103C493.636 390.402 493.748 390.683 493.907 390.928C494.066 391.171 494.269 391.37 494.502 391.513C494.735 391.655 494.993 391.737 495.257 391.753L731.381 405.098Z" fill="#E6E6E6"/>
<path d="M534.225 425.541C534.018 425.541 533.818 425.621 533.656 425.769C533.494 425.916 533.38 426.122 533.334 426.353L531.206 436.814C531.176 436.961 531.174 437.115 531.201 437.264C531.227 437.412 531.281 437.553 531.36 437.675C531.438 437.797 531.538 437.899 531.654 437.972C531.77 438.046 531.898 438.09 532.03 438.101L652.221 447.901C652.444 447.917 652.665 447.84 652.842 447.684C653.019 447.528 653.141 447.304 653.186 447.053L655.232 434.95C655.256 434.803 655.254 434.652 655.223 434.506C655.193 434.361 655.136 434.224 655.056 434.106C654.976 433.988 654.875 433.891 654.76 433.821C654.644 433.751 654.517 433.71 654.387 433.701L534.281 425.543L534.225 425.541Z" fill="#E6E6E6"/>
<path d="M680.25 486.757C680.467 486.777 680.683 486.707 680.859 486.562C681.035 486.416 681.161 486.203 681.213 485.96L683.817 473.832C683.849 473.683 683.853 473.528 683.827 473.378C683.801 473.228 683.747 473.086 683.669 472.962C683.59 472.838 683.489 472.736 683.372 472.661C683.256 472.587 683.126 472.543 682.993 472.532L529.502 460.217C529.294 460.198 529.086 460.262 528.914 460.399C528.742 460.535 528.617 460.736 528.559 460.966L525.853 471.447C525.814 471.597 525.805 471.754 525.827 471.909C525.848 472.063 525.899 472.21 525.976 472.339C526.053 472.468 526.154 472.575 526.272 472.654C526.39 472.732 526.521 472.779 526.657 472.792L680.25 486.757Z" fill="#E6E6E6"/>
<path d="M672.007 525.633C672.224 525.653 672.44 525.584 672.616 525.438C672.792 525.292 672.918 525.079 672.97 524.837L675.575 512.708C675.606 512.56 675.61 512.405 675.584 512.254C675.558 512.104 675.504 511.962 675.426 511.838C675.347 511.715 675.246 511.612 675.13 511.538C675.013 511.463 674.883 511.419 674.75 511.408L521.259 499.093C521.051 499.074 520.843 499.138 520.671 499.275C520.499 499.411 520.374 499.612 520.316 499.842L517.61 510.323C517.571 510.473 517.562 510.631 517.584 510.785C517.605 510.939 517.656 511.086 517.733 511.215C517.81 511.344 517.911 511.451 518.029 511.53C518.147 511.608 518.278 511.655 518.414 511.668L672.007 525.633Z" fill="#E6E6E6"/>
<path d="M405.882 662.496C405.882 671.29 335.721 672.226 249.369 678.418C163.093 684.603 92.8547 671.29 92.8547 662.496C92.8547 653.703 163.421 636.011 249.369 646.575C335.721 657.189 405.882 653.703 405.882 662.496Z" fill="#E6E6E6"/>
<path d="M601.314 592.092C601.533 592.118 601.752 592.052 601.931 591.907C602.111 591.761 602.238 591.545 602.289 591.3L607.796 566.03C607.828 565.882 607.832 565.728 607.807 565.578C607.783 565.428 607.73 565.287 607.653 565.163C607.576 565.039 607.476 564.936 607.36 564.86C607.245 564.785 607.117 564.739 606.984 564.727L512.726 555.632C512.506 555.614 512.287 555.687 512.11 555.837C511.932 555.987 511.806 556.204 511.755 556.45L507.057 580.704C507.029 580.849 507.028 581 507.055 581.146C507.081 581.292 507.134 581.43 507.211 581.55C507.287 581.671 507.385 581.772 507.498 581.845C507.611 581.919 507.737 581.964 507.866 581.978L601.314 592.092Z" fill="#3F85E2"/>
<path d="M220.72 489.116C221.907 488.183 222.901 486.962 223.632 485.541C224.363 484.119 224.814 482.531 224.952 480.888C225.09 479.245 224.913 477.587 224.432 476.032C223.951 474.476 223.178 473.06 222.169 471.884L225.985 374.149L206.555 376.651L207.684 472.25C206.073 474.325 205.181 477.006 205.179 479.786C205.176 482.565 206.063 485.248 207.67 487.328C209.278 489.407 211.494 490.737 213.9 491.066C216.305 491.394 218.732 490.699 220.721 489.111L220.72 489.116Z" fill="#A0616A"/>
<path d="M256.167 654.559L267.226 656.79L278.156 608.915L263.666 605.624L256.167 654.559Z" fill="#A0616A"/>
<path d="M286.752 672.871L251.995 665.861L254.356 650.456L275.684 654.758C279.246 655.476 282.412 657.788 284.488 661.185C286.564 664.582 287.378 668.786 286.752 672.872L286.752 672.871Z" fill="#2F2E41"/>
<path d="M225.813 660.91H237.042L242.383 611.224H225.811L225.813 660.91Z" fill="#A0616A"/>
<path d="M258.692 672.873L223.403 672.875L223.402 657.233L245.057 657.232C248.673 657.231 252.141 658.879 254.698 661.812C257.255 664.746 258.692 668.724 258.692 672.873V672.873Z" fill="#2F2E41"/>
<path d="M272.659 643.1C272.484 643.101 272.309 643.089 272.136 643.065L258.919 641.817C258.318 641.736 257.737 641.516 257.212 641.169C256.687 640.822 256.228 640.357 255.865 639.8C255.501 639.244 255.24 638.609 255.097 637.934C254.954 637.258 254.933 636.557 255.033 635.871L268.153 561.606L259.91 511.725C259.843 511.32 259.651 510.956 259.368 510.701C259.085 510.445 258.732 510.316 258.373 510.337C258.013 510.357 257.673 510.526 257.414 510.812C257.154 511.098 256.994 511.482 256.962 511.893L244.817 638.637C244.703 639.972 244.142 641.204 243.252 642.074C242.362 642.944 241.212 643.383 240.045 643.299L227.594 642.767C226.503 642.678 225.478 642.134 224.712 641.238C223.947 640.341 223.494 639.155 223.439 637.901L224.434 484.742L288.986 475.485L293.496 555.382L293.477 555.467L277 639.182C276.763 640.298 276.206 641.291 275.419 642.001C274.633 642.711 273.661 643.098 272.659 643.1V643.1Z" fill="#2F2E41"/>
<path d="M245.721 310.82C258.145 310.82 268.216 299.266 268.216 285.013C268.216 270.761 258.145 259.207 245.721 259.207C233.298 259.207 223.226 270.761 223.226 285.013C223.226 299.266 233.298 310.82 245.721 310.82Z" fill="#A0616A"/>
<path d="M266.917 496.397C263.399 496.421 259.948 495.289 256.973 493.134C246.074 485.321 233.7 488.425 227.292 490.972C226.657 491.228 225.978 491.315 225.309 491.228C224.64 491.14 223.996 490.88 223.427 490.467C222.864 490.061 222.388 489.515 222.035 488.869C221.682 488.222 221.462 487.493 221.39 486.735L209.739 367.348C207.786 347.345 218.289 328.538 234.713 322.63C235.33 322.408 235.958 322.198 236.595 321.999C241.706 320.41 247.058 320.124 252.276 321.163C257.493 322.202 262.448 324.54 266.793 328.013C271.219 331.523 274.921 336.104 277.637 341.432C280.354 346.761 282.019 352.708 282.516 358.854L292.326 479.041C292.393 479.82 292.302 480.605 292.059 481.335C291.816 482.066 291.429 482.722 290.928 483.252C287.488 486.9 277.506 496.396 266.917 496.397Z" fill="#3F85E2"/>
<path d="M231.435 392.949L205.149 389.633C204.401 389.539 203.679 389.261 203.033 388.818C202.388 388.375 201.833 387.777 201.406 387.066C200.98 386.354 200.692 385.546 200.563 384.695C200.433 383.845 200.465 382.973 200.656 382.138L207.348 352.88C207.545 350.687 208.119 348.56 209.037 346.623C209.954 344.686 211.198 342.977 212.695 341.595C214.191 340.212 215.912 339.184 217.758 338.569C219.603 337.954 221.537 337.765 223.446 338.012C225.356 338.259 227.204 338.938 228.883 340.01C230.562 341.082 232.04 342.524 233.231 344.255C234.421 345.985 235.301 347.969 235.819 350.092C236.337 352.215 236.483 354.435 236.249 356.623L237.243 386.752C237.271 387.615 237.137 388.475 236.85 389.273C236.563 390.071 236.129 390.789 235.578 391.377C235.027 391.965 234.372 392.41 233.658 392.682C232.943 392.954 232.186 393.046 231.438 392.951L231.435 392.949Z" fill="#3F85E2"/>
<path d="M292.219 484.931C293.299 483.84 294.157 482.492 294.733 480.98C295.31 479.468 295.59 477.829 295.554 476.18C295.519 474.53 295.169 472.909 294.528 471.432C293.888 469.954 292.973 468.656 291.847 467.628L285.369 370.078L266.329 374.995L277.503 469.994C276.121 472.277 275.518 475.062 275.807 477.821C276.096 480.58 277.258 483.122 279.072 484.964C280.887 486.806 283.227 487.82 285.649 487.814C288.072 487.807 290.408 486.782 292.216 484.931H292.219Z" fill="#A0616A"/>
<path d="M259.03 386.817C258.479 386.23 258.045 385.512 257.758 384.714C257.471 383.917 257.337 383.057 257.365 382.194L258.359 352.065C258.145 349.888 258.306 347.684 258.835 345.579C259.363 343.473 260.247 341.508 261.438 339.795C262.628 338.081 264.101 336.654 265.772 335.594C267.444 334.533 269.28 333.861 271.178 333.615C273.076 333.37 274.997 333.555 276.832 334.161C278.668 334.767 280.381 335.782 281.874 337.147C283.368 338.513 284.612 340.203 285.536 342.12C286.46 344.037 287.046 346.145 287.261 348.322L293.952 377.58C294.143 378.415 294.175 379.287 294.046 380.138C293.916 380.988 293.628 381.796 293.202 382.508C292.776 383.219 292.221 383.817 291.575 384.26C290.929 384.703 290.208 384.981 289.46 385.075L263.174 388.391C262.426 388.486 261.668 388.394 260.954 388.122C260.239 387.85 259.585 387.404 259.034 386.815L259.03 386.817Z" fill="#3F85E2"/>
<path d="M244.384 311.792C243.983 311.792 243.583 311.738 243.193 311.633L243.079 311.602C223.301 308.134 218.93 294.988 217.971 289.5C216.978 283.818 218.108 278.333 220.663 276.202C219.27 271.159 219.494 266.682 221.329 262.898C224.535 256.3 231.478 254.072 232.411 253.795C237.96 249.099 244.598 252.233 245.806 252.869C256.539 248.314 260.643 252.105 261.383 252.952C266.181 253.941 269.105 256.066 270.076 259.273C271.9 265.295 266.133 272.785 265.887 273.102L265.759 273.265L257.168 273.735C256.352 273.78 255.555 274.02 254.826 274.442C254.097 274.863 253.453 275.455 252.937 276.18C252.42 276.905 252.042 277.746 251.827 278.65C251.613 279.553 251.566 280.498 251.69 281.423C251.922 282.617 252.216 283.794 252.569 284.948C254.034 290.208 255.133 294.702 253.718 296.41C253.396 296.741 253 296.961 252.575 297.046C252.15 297.13 251.713 297.076 251.313 296.889C249.97 296.477 249.058 296.563 248.604 297.146C247.899 298.049 248.114 300.335 249.21 303.582C249.554 304.608 249.647 305.724 249.478 306.807C249.309 307.889 248.885 308.899 248.252 309.725C247.776 310.37 247.183 310.889 246.515 311.245C245.847 311.602 245.119 311.789 244.382 311.792H244.384Z" fill="#2F2E41"/>
</g>
<defs>
<clipPath id="clip0_805_2728">
<rect width="827" height="680" fill="white"/>
</clipPath>
</defs>
</svg>
