<svg width="215" height="50" viewBox="0 0 215 50" fill="none" xmlns="http://www.w3.org/2000/svg">
<path d="M0 43.1619V13.7644H6.5693V18.1402H6.83563C7.24991 16.7635 7.9601 15.5999 8.96621 14.6494C9.97232 13.666 11.3483 13.1744 13.0942 13.1744C14.6922 13.1744 16.0534 13.6169 17.1778 14.5019C18.3023 15.3869 19.1161 16.6816 19.6191 18.386H19.7523C19.9594 17.6649 20.2701 16.993 20.6844 16.3702C21.1283 15.7146 21.6609 15.1574 22.2824 14.6985C22.9038 14.2396 23.5992 13.8791 24.3686 13.6169C25.1379 13.3219 25.9665 13.1744 26.8542 13.1744C29.1032 13.1744 30.8195 14.0594 32.0032 15.8294C33.2164 17.5993 33.823 20.1232 33.823 23.401V35.0534L27.2537 32.3492V23.991C27.2537 20.7132 26.1884 19.0743 24.0578 19.0743C23.0813 19.0743 22.1936 19.3857 21.3946 20.0085C20.5957 20.6313 20.1962 21.5818 20.1962 22.8601V39.085L13.6269 35.1026V23.991C13.6269 20.7132 12.5616 19.0743 10.431 19.0743C9.95752 19.0743 9.48406 19.1563 9.0106 19.3202C8.56673 19.4513 8.15245 19.6807 7.76776 20.0085C7.41266 20.3363 7.11675 20.746 6.88001 21.2377C6.67287 21.6965 6.5693 22.2374 6.5693 22.8601V49.41L0 43.1619Z" fill="#196DDC"/>
<path d="M47.771 40.1667C45.9955 40.1667 44.4124 39.8553 43.0216 39.2325C41.6308 38.577 40.4471 37.6756 39.4706 36.5284C38.5237 35.3484 37.7987 33.9226 37.2957 32.2509C36.8222 30.5793 36.5855 28.7109 36.5855 26.646C36.5855 24.6137 36.8222 22.7782 37.2957 21.1393C37.7691 19.4677 38.4645 18.0418 39.3819 16.8619C40.3288 15.6819 41.4828 14.7805 42.8441 14.1577C44.2053 13.5022 45.7588 13.1744 47.5047 13.1744C49.4282 13.1744 51.0705 13.5349 52.4317 14.256C53.8225 14.9771 54.947 15.9441 55.8051 17.1568C56.6929 18.3696 57.3291 19.7791 57.7138 21.3852C58.128 22.9585 58.3352 24.6137 58.3352 26.351V28.5143H43.3767V28.9076C43.3767 30.612 43.791 31.9723 44.6195 32.9884C45.4481 33.9717 46.7501 34.4634 48.5256 34.4634C49.8868 34.4634 50.9965 34.1684 51.8547 33.5784C52.7128 32.9556 53.5118 32.2181 54.2516 31.3659L57.5362 35.8892C56.5005 37.2331 55.1393 38.282 53.4526 39.0359C51.7955 39.7898 49.9016 40.1667 47.771 40.1667ZM47.6379 18.5335C46.3063 18.5335 45.2558 19.0252 44.4864 20.0085C43.7466 20.959 43.3767 22.2374 43.3767 23.8435V24.2368H51.5439V23.7943C51.5439 22.221 51.2184 20.959 50.5674 20.0085C49.946 19.0252 48.9695 18.5335 47.6379 18.5335Z" fill="#196DDC"/>
<path d="M69.6763 39.5767C67.3978 39.5767 65.6667 38.9375 64.483 37.6592C63.329 36.3809 62.7519 34.5126 62.7519 32.0543V19.4185H59.4673V13.7644H61.1096C61.9974 13.7644 62.604 13.5349 62.9295 13.076C63.255 12.5844 63.4178 11.8961 63.4178 11.0111V6.78275H69.3213V13.7644H73.9375V19.4185H69.3213V33.9226H73.5824V39.5767H69.6763Z" fill="#196DDC"/>
<path d="M93.9646 39.5767C92.7809 39.5767 91.7896 39.167 90.9907 38.3475C90.2213 37.5281 89.733 36.4301 89.5259 35.0534H89.2596C88.9045 36.7251 88.1203 38.0034 86.907 38.8884C85.6938 39.7406 84.1994 40.1667 82.4239 40.1667C80.0862 40.1667 78.2959 39.4784 77.0531 38.1017C75.8102 36.725 75.1888 34.9059 75.1888 32.6442C75.1888 29.9237 76.0766 27.9079 77.8521 26.5968C79.6571 25.2529 82.0984 24.581 85.1759 24.581H88.8601V22.9585C88.8601 21.7129 88.5642 20.7296 87.9723 20.0085C87.3805 19.2546 86.3892 18.8777 84.9984 18.8777C83.6964 18.8777 82.6607 19.1891 81.8913 19.8118C81.1219 20.4346 80.4857 21.1393 79.9827 21.926L76.0766 18.091C77.0235 16.5505 78.2072 15.3541 79.6275 14.5019C81.0775 13.6169 83.0306 13.1744 85.4866 13.1744C88.8009 13.1744 91.2866 13.9774 92.9437 15.5835C94.6008 17.1896 95.4294 19.5332 95.4294 22.6143V33.9226H97.6044V39.5767H93.9646ZM84.8652 35.1026C85.9601 35.1026 86.8923 34.8403 87.6616 34.3159C88.4606 33.7915 88.8601 32.9392 88.8601 31.7593V28.7109H85.6642C83.0898 28.7109 81.8025 29.6779 81.8025 31.6118V32.3492C81.8025 33.2998 82.0688 34.0045 82.6015 34.4634C83.1341 34.8895 83.8887 35.1026 84.8652 35.1026Z" fill="#196DDC"/>
<path d="M99.9617 43.1619V13.7644H106.531V18.1402H106.797C107.212 16.7635 107.922 15.5999 108.928 14.6494C109.934 13.6661 111.31 13.1744 113.056 13.1744C114.654 13.1744 116.015 13.6169 117.14 14.5019C118.264 15.3869 119.078 16.6816 119.581 18.386H119.714C119.921 17.6649 120.232 16.993 120.646 16.3702C121.09 15.7146 121.623 15.1574 122.244 14.6985C122.866 14.2397 123.561 13.8791 124.33 13.6169C125.1 13.3219 125.928 13.1744 126.816 13.1744C129.065 13.1744 130.781 14.0594 131.965 15.8294C133.178 17.5994 133.785 20.1232 133.785 23.401V35.1026L127.215 32.2509V23.991C127.215 20.7132 126.15 19.0743 124.02 19.0743C123.043 19.0743 122.155 19.3857 121.356 20.0085C120.557 20.6313 120.158 21.5818 120.158 22.8602V39.5767L113.589 35.1026V23.991C113.589 20.7132 112.523 19.0743 110.393 19.0743C109.919 19.0743 109.446 19.1563 108.972 19.3202C108.528 19.4513 108.114 19.6807 107.729 20.0085C107.374 20.3363 107.078 20.746 106.842 21.2377C106.635 21.6966 106.531 22.2374 106.531 22.8602V49.41L99.9617 43.1619Z" fill="#196DDC"/>
<path d="M154.648 39.5767C153.464 39.5767 152.473 39.167 151.674 38.3476C150.905 37.5281 150.416 36.4301 150.209 35.0534H149.943C149.588 36.7251 148.804 38.0034 147.59 38.8884C146.377 39.7406 144.883 40.1667 143.107 40.1667C140.77 40.1667 138.979 39.4784 137.736 38.1017C136.494 36.7251 135.872 34.9059 135.872 32.6443C135.872 29.9237 136.76 27.9079 138.535 26.5968C140.341 25.2529 142.782 24.581 145.859 24.581H149.543V22.9585C149.543 21.713 149.248 20.7296 148.656 20.0085C148.064 19.2546 147.073 18.8777 145.682 18.8777C144.38 18.8777 143.344 19.1891 142.575 19.8119C141.805 20.4346 141.169 21.1394 140.666 21.926L136.76 18.091C137.707 16.5505 138.891 15.3541 140.311 14.5019C141.761 13.6169 143.714 13.1744 146.17 13.1744C149.484 13.1744 151.97 13.9775 153.627 15.5836C155.284 17.1897 156.113 19.5332 156.113 22.6143V33.9226H158.288V39.5767H154.648ZM145.549 35.1026C146.643 35.1026 147.576 34.8404 148.345 34.3159C149.144 33.7915 149.543 32.9393 149.543 31.7593V28.711H146.348C143.773 28.711 142.486 29.6779 142.486 31.6118V32.3493C142.486 33.2998 142.752 34.0045 143.285 34.4634C143.817 34.8895 144.572 35.1026 145.549 35.1026Z" fill="#196DDC"/>
<path d="M183.097 41.445C183.097 42.8217 182.875 44.0345 182.431 45.0834C182.017 46.1322 181.321 47.0172 180.345 47.7383C179.368 48.4922 178.066 49.0494 176.439 49.41C174.841 49.8033 172.858 50 170.491 50C168.479 50 166.762 49.8525 165.342 49.5575C163.951 49.2953 162.812 48.9019 161.924 48.3775C161.066 47.8858 160.43 47.2631 160.015 46.5092C159.631 45.7881 159.438 44.9523 159.438 44.0017C159.438 42.5595 159.823 41.4287 160.592 40.6092C161.362 39.7898 162.427 39.2817 163.788 39.0851V38.5442C162.664 38.3148 161.82 37.7904 161.258 36.9709C160.696 36.1187 160.415 35.1354 160.415 34.0209C160.415 33.3326 160.533 32.7426 160.77 32.2509C161.036 31.7265 161.362 31.284 161.746 30.9235C162.161 30.5301 162.634 30.2187 163.167 29.9893C163.7 29.7599 164.232 29.5796 164.765 29.4485V29.2518C163.344 28.5307 162.294 27.5474 161.613 26.3018C160.933 25.0235 160.592 23.5485 160.592 21.8768C160.592 19.2546 161.406 17.1569 163.034 15.5836C164.691 13.9775 167.206 13.1744 170.58 13.1744C172.118 13.1744 173.435 13.3383 174.53 13.6661V12.6827C174.53 11.3061 174.826 10.3228 175.418 9.73276C176.039 9.10999 176.912 8.7986 178.037 8.7986H181.721V14.2069H176.572V14.5019C177.933 15.223 178.939 16.2227 179.59 17.501C180.241 18.7466 180.567 20.2052 180.567 21.8768C180.567 24.4663 179.738 26.5477 178.081 28.121C176.453 29.6615 173.953 30.4318 170.58 30.4318C169.07 30.4318 167.694 30.2515 166.452 29.891C165.771 30.3826 165.431 31.071 165.431 31.9559C165.431 32.5787 165.638 33.0704 166.052 33.4309C166.496 33.7587 167.221 33.9226 168.227 33.9226H174.974C177.815 33.9226 179.871 34.5782 181.144 35.8893C182.446 37.2004 183.097 39.0523 183.097 41.445ZM176.927 42.4284C176.927 41.6745 176.661 41.1009 176.128 40.7076C175.595 40.3142 174.663 40.1176 173.332 40.1176H165.342C165.046 40.4453 164.824 40.8059 164.676 41.1992C164.558 41.6253 164.498 42.035 164.498 42.4284C164.498 43.3789 164.868 44.0673 165.608 44.4934C166.348 44.9522 167.606 45.1817 169.381 45.1817H172.044C173.82 45.1817 175.077 44.9522 175.817 44.4934C176.557 44.0673 176.927 43.3789 176.927 42.4284ZM170.58 25.6627C171.882 25.6627 172.843 25.3677 173.465 24.7777C174.116 24.1549 174.441 23.2699 174.441 22.1227V21.5327C174.441 20.3855 174.116 19.5169 173.465 18.9269C172.843 18.3041 171.882 17.9927 170.58 17.9927C169.277 17.9927 168.301 18.3041 167.65 18.9269C167.029 19.5169 166.718 20.3855 166.718 21.5327V22.1227C166.718 23.2699 167.029 24.1549 167.65 24.7777C168.301 25.3677 169.277 25.6627 170.58 25.6627Z" fill="#196DDC"/>
<path d="M184.843 18.8777H191.412V39.5767H184.843V18.8777Z" fill="#196DDC"/>
<path d="M205.546 40.1667C203.8 40.1667 202.246 39.8553 200.885 39.2326C199.524 38.577 198.384 37.6756 197.467 36.5284C196.55 35.3484 195.854 33.9226 195.381 32.2509C194.907 30.5793 194.671 28.711 194.671 26.646C194.671 24.581 194.907 22.7291 195.381 21.0902C195.854 19.4185 196.55 17.9927 197.467 16.8127C198.384 15.6327 199.524 14.7313 200.885 14.1086C202.246 13.4858 203.8 13.1744 205.546 13.1744C207.913 13.1744 209.881 13.7644 211.449 14.9444C213.047 16.1244 214.186 17.7797 214.867 19.9102L209.54 22.4668C209.333 21.4835 208.904 20.6477 208.253 19.9594C207.602 19.271 206.7 18.9269 205.546 18.9269C204.214 18.9269 203.208 19.4185 202.527 20.4019C201.847 21.3524 201.506 22.6471 201.506 24.286V29.1043C201.506 30.7432 201.847 32.0379 202.527 32.9884C203.208 33.939 204.214 34.4143 205.546 34.4143C206.729 34.4143 207.661 34.0701 208.342 33.3818C209.052 32.6607 209.57 31.7265 209.895 30.5793L215 33.0376C214.231 35.4959 213.032 37.2987 211.405 38.4459C209.807 39.5931 207.854 40.1667 205.546 40.1667Z" fill="#196DDC"/>
<path d="M188.327 0L190.268 6.28165H196.55L191.468 10.1639L193.409 16.4456L188.327 12.5633L183.244 16.4456L185.185 10.1639L180.103 6.28165H186.385L188.327 0Z" fill="#FC7C1C"/>
</svg>
