<svg width="615" height="460" viewBox="0 0 615 460" fill="none" xmlns="http://www.w3.org/2000/svg">
<rect width="615" height="460" transform="matrix(-1 0 0 1 615 0)" fill="#F6F6F6"/>
<path d="M0 0H615V460H0V0Z" fill="#F6F6F6"/>
<path d="M416.5 62.8633C356.577 62.8633 308 111.112 308 170.629C308 230.146 356.577 278.395 416.5 278.395C476.423 278.395 525 230.146 525 170.629C525 111.112 476.423 62.8633 416.5 62.8633Z" fill="#E9F4F7"/>
<path d="M228.5 151.67C168.577 151.67 120 199.919 120 259.436C120 318.954 168.577 367.202 228.5 367.202C288.423 367.202 337 318.954 337 259.436C337 199.919 288.423 151.67 228.5 151.67Z" fill="#E9F4F7"/>
<path d="M412 81.822C486.559 81.822 547 141.909 547 216.03C547 290.151 486.559 350.238 412 350.238C337.441 350.238 277 290.151 277 216.03C277 141.909 337.441 81.822 412 81.822ZM412 83.3536C338.292 83.3536 278.541 142.755 278.541 216.03C278.541 289.306 338.292 348.707 412 348.707C485.708 348.707 545.459 289.306 545.459 216.03C545.459 142.755 485.708 83.3536 412 83.3536Z" fill="#EFDECF"/>
<path d="M119 117.744H293V237.484H119V117.744ZM120.54 235.949H291.46V119.279H120.54V235.949Z" fill="#EFDECF"/>
<path d="M120 139.696H272V137.701H120V139.696Z" fill="#EFDECF"/>
<path d="M278 96.7896C281.866 96.7896 285 99.9169 285 103.774C285 107.632 281.866 110.759 278 110.759C274.134 110.759 271 107.632 271 103.774C271 99.9169 274.134 96.7896 278 96.7896ZM278 98.2998C274.97 98.2998 272.514 100.751 272.514 103.774C272.514 106.798 274.97 109.249 278 109.249C281.03 109.249 283.486 106.798 283.486 103.774C283.486 100.751 281.03 98.2998 278 98.2998Z" fill="#EFDECF"/>
<path d="M252 97.7874H265V110.759H252V97.7874ZM253.53 109.233H263.471V99.3134H253.53V109.233Z" fill="#EFDECF"/>
<path d="M229 110.759H245V108.764H229V110.759Z" fill="#EFDECF"/>
<path d="M350.834 178.511C351.352 181.828 351.611 184.763 351.611 187.316L352.842 200.702L359.4 213.536L373.194 208.302L395.351 188.272L399.429 179.338C390.885 164.015 385.798 150.531 384.167 138.886L361.513 134.816L347.467 162.389L350.834 178.511Z" fill="#FCB4A2"/>
<path d="M382.686 143.002C382.337 161.06 378.793 171.63 372.056 174.713C361.949 179.338 343.179 185.81 339.664 179.338C336.148 172.866 328.614 157.476 325.727 148.658C323.803 142.78 321.365 135.198 318.414 125.912C314.443 114.188 319.076 106.61 332.312 103.18C345.549 99.7496 362.834 98.0569 384.166 98.1025L378.92 128.717C381.503 125.249 384.919 123.515 389.167 123.515C395.539 123.515 399.037 139.311 392.501 141.157C388.143 142.387 384.872 143.002 382.686 143.002Z" fill="#FCB4A2"/>
<path d="M352.776 160.676C352.438 160.419 351.956 160.483 351.697 160.819C348.49 164.988 344.563 166.672 339.818 165.934C339.398 165.869 339.005 166.155 338.939 166.573C338.874 166.99 339.161 167.382 339.581 167.448C344.899 168.274 349.378 166.353 352.919 161.75C353.178 161.414 353.113 160.933 352.776 160.676Z" fill="#573D40"/>
<path d="M384.443 142.739C381.769 143.995 380.745 146.753 381.372 151.011L381.401 151.203C382.429 157.754 379.146 167.301 377.122 171.007C375.773 173.478 367.215 176.891 351.448 181.246L360.406 182.53C364.713 183.148 367.702 187.123 367.081 191.41C367.04 191.7 366.981 191.987 366.907 192.271L366.848 192.483C365.201 198.114 359.515 200.702 359.401 213.155L359.4 213.536L373.194 208.302L395.351 188.272L399.429 179.338C391.903 165.84 387.059 153.769 384.897 143.125L384.443 142.739Z" fill="#F69783"/>
<path d="M334.693 140.17L334.636 140.173C334.212 140.208 333.898 140.578 333.933 141C334.309 145.479 334.333 148.894 334.137 152.802L334.072 153.983C334.044 154.461 333.999 155.223 333.986 155.466L333.963 155.912C333.948 156.236 333.938 156.514 333.933 156.766L333.93 156.976L333.927 157.399L334.285 157.627C337.815 159.879 341.133 159.505 343.987 156.528C344.28 156.222 344.269 155.737 343.961 155.445C343.654 155.153 343.166 155.165 342.873 155.471C340.673 157.766 338.331 158.154 335.64 156.652L335.478 156.559L335.49 156.234C335.493 156.152 335.497 156.067 335.501 155.978L335.63 153.704C335.874 149.38 335.874 145.74 335.467 140.873C335.433 140.47 335.093 140.166 334.693 140.17Z" fill="#2D3639"/>
<path d="M353.222 126.96L352.591 126.608L351.97 126.266C345.768 122.879 342.052 121.655 340.819 122.593C338.661 124.235 340.938 128.486 345.809 128.932C348.101 129.142 350.351 129.074 352.557 128.726L352.924 128.666C353.427 128.579 353.764 128.104 353.677 127.604C353.63 127.332 353.463 127.096 353.222 126.96Z" fill="#2D3639"/>
<path d="M317.525 133.038L317.95 132.591L318.258 132.272C322.525 127.861 325.298 125.873 326.576 126.307C328.795 127.062 328.057 131.062 324.162 132.688C322.329 133.452 320.457 133.984 318.546 134.28L318.227 134.328C317.79 134.389 317.385 134.096 317.322 133.673C317.288 133.443 317.362 133.209 317.525 133.038Z" fill="#2D3639"/>
<path d="M392.761 166.47C392.92 158.63 395.79 149.083 401.371 137.827C409.743 120.945 408.134 91.4033 385.024 86.3326C379.028 74.0314 368.318 70.1426 352.896 74.6658L351.979 74.9357C337.137 79.3169 328.966 82.4327 327.465 84.2835L327.2 83.5216C326.074 80.2549 325.511 78.3214 325.511 77.7215C325.511 76.7536 313.073 85.7997 311.218 91.9509L309.345 89.3144C299.885 99.3713 301.003 111.828 312.699 126.687L321.149 134.517L318.443 125.81L318.569 125.703C319.716 124.707 321.561 122.443 324.103 118.91C327.881 118.843 330.96 118.134 333.338 116.785L334.191 116.665C340.729 115.73 344.987 114.607 346.967 113.297C352.692 121.982 359.105 126.273 366.206 126.169L369.76 137.003C370.833 140.272 374.089 142.312 377.504 141.874L377.641 141.856L378.921 128.717C382.934 124.461 387.107 123.492 391.439 125.81C397.937 129.286 397.937 142.739 384.443 142.739L386.989 153.529L392.761 166.47Z" fill="#2D3639"/>
<path d="M389.717 130.388C387.832 128.512 384.777 128.512 382.892 130.388C382.591 130.687 382.591 131.172 382.892 131.471C383.192 131.77 383.679 131.77 383.98 131.471C385.264 130.193 387.345 130.193 388.629 131.471C389.913 132.748 389.913 134.82 388.629 136.097C388.328 136.396 388.328 136.881 388.629 137.18C388.93 137.479 389.416 137.479 389.717 137.18C391.601 135.304 391.601 132.264 389.717 130.388Z" fill="#573D40"/>
<path d="M381.483 150.441C381.06 150.396 380.681 150.701 380.635 151.121L380.551 151.886C379.156 164.272 376.89 171.455 373.962 173.3C370.78 175.305 365.677 177.096 358.67 178.652C358.255 178.744 357.994 179.153 358.086 179.566C358.179 179.979 358.59 180.239 359.005 180.146C366.17 178.556 371.425 176.712 374.786 174.594C378.34 172.354 380.726 164.632 382.165 151.285C382.211 150.864 381.905 150.487 381.483 150.441Z" fill="#573D40"/>
<path d="M382.145 87.1719C382.039 86.7626 381.619 86.5171 381.207 86.6232C366.829 90.3386 356.943 97.865 351.611 109.187C351.431 109.57 351.597 110.026 351.981 110.205C352.366 110.384 352.824 110.219 353.005 109.837C358.131 98.9497 367.64 91.7115 381.594 88.1057C382.005 87.9992 382.252 87.5811 382.145 87.1719Z" fill="#F6F6F6"/>
<path d="M344.966 140.183C343.919 140.367 342.847 139.25 342.57 137.688C342.294 136.126 342.918 134.711 343.964 134.528C345.01 134.344 346.082 135.462 346.359 137.024C346.636 138.585 346.012 140 344.966 140.183Z" fill="#2D3639"/>
<path d="M327.652 143.246C326.605 143.43 325.533 142.313 325.256 140.751C324.98 139.189 325.604 137.774 326.65 137.591C327.696 137.407 328.768 138.525 329.045 140.086C329.322 141.648 328.698 143.063 327.652 143.246Z" fill="#2D3639"/>
<path d="M83.6117 147.679H216.388C226.667 147.679 235 155.944 235 166.139C235 176.334 226.667 184.599 216.388 184.599H83.6117C73.3327 184.599 65 176.334 65 166.139C65 155.944 73.3327 147.679 83.6117 147.679Z" fill="#FED3B3"/>
<path d="M83.6116 150.724C75.0279 150.724 68.0698 157.625 68.0698 166.139C68.0698 174.652 75.0279 181.554 83.6116 181.554C92.1949 181.554 99.1533 174.652 99.1533 166.139C99.1533 157.625 92.1949 150.724 83.6116 150.724ZM83.6116 152.246C91.3472 152.246 97.6184 158.466 97.6184 166.139C97.6184 173.811 91.3472 180.031 83.6116 180.031C75.8756 180.031 69.6048 173.811 69.6048 166.139C69.6048 158.466 75.8756 152.246 83.6116 152.246Z" fill="#F6F6F6"/>
<path d="M83.6119 168.993C88.3976 168.993 92.7148 171.61 94.9386 175.708L95.0203 175.862L95.2736 176.344L94.8971 176.737C91.981 179.791 87.9371 181.554 83.6119 181.554C79.3584 181.554 75.3778 179.849 72.4736 176.889L72.3267 176.738L71.9502 176.344L72.2035 175.863C74.4008 171.676 78.7663 168.993 83.6119 168.993ZM83.6119 170.516C79.639 170.516 76.034 172.563 73.9929 175.821L73.8996 175.972L73.8325 176.085L73.8647 176.116C76.3575 178.513 79.6597 179.923 83.1986 180.025L83.407 180.03L83.6119 180.031C87.2375 180.031 90.6406 178.659 93.2144 176.253L93.3591 176.116L93.3905 176.084L93.3192 175.964C91.3551 172.723 87.8588 170.643 83.9718 170.522L83.7892 170.517L83.6119 170.516ZM83.6119 156.052C86.8971 156.052 89.56 158.694 89.56 161.952C89.56 165.21 86.8971 167.852 83.6119 167.852C80.3266 167.852 77.6638 165.21 77.6638 161.952C77.6638 158.694 80.3266 156.052 83.6119 156.052ZM83.6119 157.575C81.1743 157.575 79.1988 159.535 79.1988 161.952C79.1988 164.369 81.1743 166.329 83.6119 166.329C86.0491 166.329 88.025 164.369 88.025 161.952C88.025 159.535 86.0491 157.575 83.6119 157.575Z" fill="#F6F6F6"/>
<path d="M184.729 154.149H110.666C107.699 154.149 105.293 156.535 105.293 159.478C105.293 162.421 107.699 164.807 110.666 164.807H184.729C187.696 164.807 190.102 162.421 190.102 159.478C190.102 156.535 187.696 154.149 184.729 154.149ZM110.666 155.672H184.729C186.848 155.672 188.567 157.376 188.567 159.478C188.567 161.58 186.848 163.284 184.729 163.284H110.666C108.546 163.284 106.828 161.58 106.828 159.478C106.828 157.376 108.546 155.672 110.666 155.672Z" fill="#F6F6F6"/>
<path d="M181.164 170.326C181.588 170.326 181.932 170.667 181.932 171.087C181.932 171.488 181.619 171.817 181.221 171.846L181.164 171.848H106.061C105.637 171.848 105.293 171.507 105.293 171.087C105.293 170.686 105.606 170.357 106.004 170.327L106.061 170.326H181.164Z" fill="#F6F6F6"/>
<path d="M158.139 176.415C158.563 176.415 158.907 176.756 158.907 177.177C158.907 177.578 158.594 177.907 158.196 177.936L158.139 177.938H106.061C105.637 177.938 105.293 177.597 105.293 177.177C105.293 176.775 105.606 176.447 106.004 176.417L106.061 176.415H158.139Z" fill="#F6F6F6"/>
<path d="M205.509 172.8C206.462 172.8 207.289 172.628 207.992 172.284C208.695 171.941 209.227 171.466 209.591 170.859C209.954 170.252 210.136 169.576 210.136 168.83C210.136 168.32 210.05 167.857 209.881 167.44C209.711 167.023 209.46 166.655 209.126 166.339C208.793 166.022 208.373 165.766 207.867 165.571C208.462 165.281 208.91 164.908 209.211 164.452C209.512 163.996 209.662 163.478 209.662 162.897C209.662 162.442 209.576 162.011 209.403 161.605C209.23 161.2 208.966 160.835 208.608 160.513C208.251 160.19 207.804 159.937 207.268 159.753C206.732 159.57 206.11 159.478 205.402 159.478C204.562 159.478 203.828 159.635 203.2 159.949C202.572 160.262 202.095 160.682 201.771 161.205C201.447 161.729 201.284 162.287 201.284 162.88C201.284 164.105 201.895 165.002 203.115 165.571C201.603 166.162 200.847 167.255 200.847 168.848C200.847 169.594 201.025 170.267 201.383 170.868C201.74 171.469 202.27 171.941 202.973 172.284C203.675 172.628 204.521 172.8 205.509 172.8ZM205.645 164.981C205.088 164.981 204.633 164.806 204.28 164.458C203.926 164.109 203.749 163.673 203.749 163.149C203.749 162.582 203.922 162.118 204.266 161.757C204.61 161.396 205.064 161.216 205.627 161.216C205.998 161.216 206.328 161.299 206.616 161.465C206.903 161.632 207.126 161.86 207.285 162.15C207.444 162.44 207.523 162.767 207.523 163.13C207.523 163.402 207.478 163.65 207.388 163.875C207.298 164.1 207.171 164.294 207.006 164.458C206.842 164.621 206.644 164.749 206.413 164.842C206.183 164.934 205.927 164.981 205.645 164.981ZM205.491 171.062C205.111 171.062 204.767 170.965 204.459 170.772C204.15 170.579 203.907 170.306 203.727 169.953C203.549 169.599 203.459 169.191 203.459 168.727C203.459 168.003 203.649 167.438 204.029 167.034C204.409 166.631 204.88 166.428 205.442 166.428C205.838 166.428 206.196 166.521 206.515 166.705C206.835 166.889 207.082 167.153 207.258 167.498C207.435 167.842 207.523 168.246 207.523 168.709C207.523 169.173 207.435 169.583 207.258 169.939C207.082 170.296 206.84 170.572 206.532 170.768C206.223 170.964 205.876 171.062 205.491 171.062ZM212.035 172.8C212.383 172.8 212.685 172.683 212.942 172.449C213.2 172.215 213.328 171.893 213.328 171.483C213.328 171.126 213.2 170.821 212.942 170.57C212.685 170.319 212.374 170.193 212.009 170.193C211.645 170.193 211.338 170.32 211.089 170.574C210.84 170.828 210.716 171.131 210.716 171.483C210.716 171.899 210.846 172.222 211.107 172.453C211.367 172.684 211.676 172.8 212.035 172.8ZM218.698 172.8C219.412 172.8 220.064 172.688 220.653 172.466C221.243 172.244 221.752 171.935 222.181 171.541C222.611 171.147 222.936 170.698 223.157 170.194C223.377 169.69 223.488 169.168 223.488 168.629C223.488 168.178 223.406 167.759 223.243 167.37C223.08 166.982 222.836 166.628 222.513 166.308C222.189 165.988 221.792 165.703 221.32 165.454C221.81 165.051 222.186 164.637 222.449 164.213C222.712 163.79 222.844 163.281 222.844 162.689C222.844 162.238 222.753 161.817 222.572 161.426C222.39 161.034 222.121 160.691 221.764 160.394C221.408 160.098 220.987 159.871 220.503 159.714C220.019 159.557 219.485 159.478 218.898 159.478C218.227 159.478 217.619 159.571 217.075 159.758C216.53 159.945 216.075 160.192 215.71 160.501C215.343 160.809 215.065 161.134 214.875 161.474C214.685 161.815 214.589 162.14 214.589 162.448C214.589 162.768 214.691 163.025 214.893 163.218C215.096 163.41 215.318 163.506 215.56 163.506C215.765 163.506 215.947 163.471 216.104 163.4C216.261 163.329 216.37 163.231 216.431 163.106C216.533 162.875 216.647 162.629 216.771 162.368C216.895 162.107 217.027 161.894 217.166 161.728C217.304 161.562 217.493 161.429 217.732 161.328C217.971 161.227 218.275 161.176 218.644 161.176C219.188 161.176 219.62 161.341 219.941 161.67C220.262 161.999 220.422 162.392 220.422 162.848C220.422 163.447 220.221 163.907 219.819 164.227C219.417 164.547 218.937 164.707 218.381 164.707H218.009C217.58 164.707 217.256 164.794 217.039 164.97C216.821 165.144 216.712 165.374 216.712 165.658C216.712 165.949 216.803 166.176 216.984 166.339C217.166 166.502 217.423 166.583 217.755 166.583C217.827 166.583 217.991 166.572 218.245 166.548C218.499 166.524 218.686 166.512 218.807 166.512C219.496 166.512 220.035 166.709 220.422 167.104C220.809 167.498 221.002 168.042 221.002 168.735C221.002 169.204 220.889 169.616 220.662 169.972C220.435 170.327 220.148 170.595 219.8 170.777C219.453 170.957 219.091 171.048 218.717 171.048C218.063 171.048 217.557 170.848 217.197 170.447C216.837 170.047 216.5 169.435 216.186 168.611C216.137 168.475 216.035 168.358 215.877 168.26C215.72 168.162 215.556 168.113 215.388 168.113C215.049 168.113 214.766 168.218 214.539 168.429C214.312 168.639 214.199 168.916 214.199 169.26C214.199 169.527 214.294 169.865 214.485 170.274C214.675 170.683 214.957 171.079 215.329 171.461C215.7 171.843 216.174 172.162 216.748 172.417C217.322 172.672 217.973 172.8 218.698 172.8Z" fill="#F6F6F6"/>
<path d="M113.612 192.581H246.388C256.667 192.581 265 200.846 265 211.041C265 221.236 256.667 229.501 246.388 229.501H113.612C103.333 229.501 95 221.236 95 211.041C95 200.846 103.333 192.581 113.612 192.581Z" fill="#FED3B3"/>
<path d="M234.068 217.702C234.459 217.702 234.771 217.586 235.006 217.354C235.241 217.121 235.422 216.705 235.55 216.105C235.606 215.846 235.67 215.473 235.743 214.984C235.816 214.496 235.883 214.099 235.944 213.793C236.005 213.487 236.109 213.102 236.255 212.637C236.603 211.585 236.985 210.693 237.404 209.964C237.822 209.235 238.227 208.624 238.621 208.133C239.014 207.642 239.365 207.194 239.673 206.788C239.981 206.382 240.135 206.055 240.135 205.808C240.135 205.402 240.004 205.111 239.742 204.935C239.479 204.758 239.055 204.67 238.47 204.67H232.375C231.893 204.67 231.518 204.729 231.249 204.847C230.981 204.964 230.847 205.226 230.847 205.632C230.847 206.014 230.973 206.295 231.227 206.475C231.48 206.654 231.862 206.744 232.375 206.744H237.271C236.502 207.685 235.839 208.63 235.28 209.58C234.722 210.53 234.257 211.457 233.885 212.36C233.513 213.262 233.244 214.038 233.08 214.684C232.915 215.331 232.833 215.843 232.833 216.22C232.833 216.708 232.945 217.077 233.171 217.327C233.397 217.577 233.696 217.702 234.068 217.702ZM241.892 217.702C242.277 217.702 242.613 217.585 242.899 217.351C243.185 217.118 243.328 216.796 243.328 216.386C243.328 216.028 243.185 215.723 242.899 215.472C242.613 215.221 242.267 215.096 241.863 215.096C241.458 215.096 241.117 215.223 240.84 215.477C240.564 215.731 240.425 216.034 240.425 216.386C240.425 216.801 240.57 217.125 240.859 217.356C241.149 217.587 241.493 217.702 241.892 217.702ZM248.717 217.702C249.699 217.702 250.553 217.53 251.277 217.187C252.002 216.844 252.551 216.369 252.926 215.762C253.3 215.155 253.488 214.478 253.488 213.732C253.488 213.223 253.4 212.76 253.225 212.342C253.05 211.925 252.791 211.558 252.447 211.241C252.103 210.924 251.67 210.668 251.148 210.473C251.762 210.183 252.224 209.81 252.535 209.354C252.845 208.898 253 208.38 253 207.8C253 207.344 252.91 206.913 252.733 206.508C252.554 206.102 252.281 205.738 251.913 205.415C251.544 205.093 251.084 204.839 250.531 204.656C249.979 204.472 249.337 204.38 248.606 204.38C247.74 204.38 246.984 204.538 246.336 204.851C245.688 205.165 245.197 205.584 244.862 206.108C244.528 206.632 244.36 207.19 244.36 207.782C244.36 209.008 244.99 209.905 246.248 210.473C244.689 211.065 243.909 212.157 243.909 213.75C243.909 214.496 244.093 215.17 244.462 215.77C244.83 216.371 245.376 216.844 246.101 217.187C246.826 217.53 247.698 217.702 248.717 217.702ZM248.707 209.883C248.15 209.883 247.695 209.709 247.342 209.36C246.988 209.012 246.812 208.576 246.812 208.051C246.812 207.484 246.984 207.02 247.328 206.659C247.672 206.298 248.126 206.118 248.689 206.118C249.06 206.118 249.39 206.202 249.678 206.368C249.965 206.534 250.188 206.763 250.347 207.052C250.506 207.342 250.585 207.669 250.585 208.033C250.585 208.304 250.54 208.552 250.45 208.778C250.361 209.003 250.233 209.197 250.068 209.36C249.904 209.524 249.706 209.652 249.475 209.744C249.245 209.836 248.989 209.883 248.707 209.883ZM248.553 215.964C248.119 215.964 247.726 215.868 247.373 215.675C247.021 215.482 246.742 215.209 246.538 214.855C246.334 214.502 246.231 214.093 246.231 213.63C246.231 212.905 246.448 212.341 246.882 211.937C247.316 211.533 247.855 211.331 248.497 211.331C248.95 211.331 249.359 211.423 249.724 211.607C250.089 211.791 250.372 212.055 250.574 212.4C250.775 212.745 250.876 213.149 250.876 213.612C250.876 214.075 250.775 214.485 250.574 214.842C250.372 215.198 250.095 215.474 249.743 215.671C249.39 215.867 248.994 215.964 248.553 215.964Z" fill="#F6F6F6"/>
<path d="M113.612 195.626C105.028 195.626 98.0698 202.528 98.0698 211.041C98.0698 219.555 105.028 226.456 113.612 226.456C122.195 226.456 129.153 219.555 129.153 211.041C129.153 202.528 122.195 195.626 113.612 195.626ZM113.612 197.149C121.347 197.149 127.618 203.369 127.618 211.041C127.618 218.714 121.347 224.934 113.612 224.934C105.876 224.934 99.6048 218.714 99.6048 211.041C99.6048 203.369 105.876 197.149 113.612 197.149Z" fill="#F6F6F6"/>
<path d="M113.787 213.896C118.573 213.896 122.89 216.513 125.113 220.61L125.195 220.765L125.448 221.246L125.072 221.64C122.156 224.693 118.112 226.456 113.787 226.456C109.534 226.456 105.552 224.752 102.648 221.792L102.502 221.64L102.125 221.246L102.378 220.765C104.576 216.579 108.942 213.896 113.787 213.896ZM113.787 215.418C109.814 215.418 106.209 217.465 104.168 220.723L104.075 220.874L104.007 220.987L104.04 221.018C106.532 223.416 109.835 224.826 113.373 224.928L113.581 224.932L113.787 224.934C117.413 224.934 120.816 223.561 123.389 221.155L123.565 220.987L123.494 220.866C121.53 217.625 118.034 215.545 114.147 215.424L113.964 215.419L113.787 215.418ZM113.787 200.955C117.072 200.955 119.735 203.596 119.735 206.854C119.735 210.113 117.072 212.754 113.787 212.754C110.502 212.754 107.839 210.113 107.839 206.854C107.839 203.596 110.502 200.955 113.787 200.955ZM113.787 202.477C111.35 202.477 109.374 204.437 109.374 206.854C109.374 209.272 111.35 211.231 113.787 211.231C116.224 211.231 118.2 209.272 118.2 206.854C118.2 204.437 116.224 202.477 113.787 202.477Z" fill="#F6F6F6"/>
<path d="M214.729 199.052H140.666C137.699 199.052 135.293 201.437 135.293 204.38C135.293 207.323 137.699 209.709 140.666 209.709H214.729C217.696 209.709 220.102 207.323 220.102 204.38C220.102 201.437 217.696 199.052 214.729 199.052ZM140.666 200.574H214.729C216.848 200.574 218.567 202.278 218.567 204.38C218.567 206.483 216.848 208.187 214.729 208.187H140.666C138.546 208.187 136.828 206.483 136.828 204.38C136.828 202.278 138.546 200.574 140.666 200.574Z" fill="#F6F6F6"/>
<path d="M211.164 215.228C211.588 215.228 211.932 215.569 211.932 215.989C211.932 216.39 211.619 216.719 211.221 216.748L211.164 216.75H136.061C135.637 216.75 135.293 216.409 135.293 215.989C135.293 215.588 135.606 215.259 136.004 215.23L136.061 215.228H211.164Z" fill="#F6F6F6"/>
<path d="M188.139 221.318C188.563 221.318 188.907 221.659 188.907 222.079C188.907 222.48 188.594 222.809 188.196 222.838L188.139 222.84H136.061C135.637 222.84 135.293 222.499 135.293 222.079C135.293 221.678 135.606 221.349 136.004 221.32L136.061 221.318H188.139Z" fill="#F6F6F6"/>
<path d="M518.019 362.213L547.817 383.43C551.255 385.878 552.029 390.611 549.545 394C548.101 395.97 545.785 397.137 543.319 397.137H115.681C111.439 397.137 108 393.747 108 389.567C108 387.241 109.084 385.045 110.941 383.61L138.618 362.213H518.019Z" fill="#E9F4F7"/>
<path d="M285.769 361.215C285.344 361.215 285 361.656 285 362.2C285 362.719 285.314 363.145 285.712 363.182L285.769 363.185L545.231 363.211C545.656 363.211 546 362.77 546 362.226C546 361.706 545.687 361.281 545.289 361.243L545.231 361.24L285.769 361.215Z" fill="#2D3639"/>
<path d="M358.56 226.167L349.777 193.907C325.212 210.219 311.205 221.487 307.757 227.713C302.584 237.051 305.698 281.739 307.757 302.324L307.441 302.572C303.927 305.367 302.586 307.787 303.421 309.83L303.46 309.92C304.867 313.102 298.775 311.48 297.842 313.348C296.92 315.196 296.257 320.882 292.498 321.009L292.37 321.011C289.789 321.011 249.953 327.315 172.861 339.923V361.36L311.011 361.614C317.393 361.626 323.554 359.307 328.335 355.101L328.536 354.922V361.36L474.202 361.361L475.471 361.759C482.633 363.988 487.825 365.34 489.899 365.34C501.288 365.34 508.46 349.348 505.761 340.739C503.061 332.13 477.307 223.461 467.63 217.472C461.243 213.52 440.987 204.046 407.631 189.052L358.56 226.167Z" fill="#196DDC"/>
<path d="M378.349 211.106L362.13 226.183L352.302 209.39L359.272 204.379L363.402 211.106L370.521 204.379L372.758 203.519L378.349 211.106Z" fill="#D7D7D7"/>
<path d="M420.62 244.606C420.471 244.21 420.028 244.008 419.63 244.157C419.251 244.298 419.05 244.705 419.161 245.086L419.179 245.143L441.258 304.014L441.17 303.997C435.7 302.906 414.733 297.157 378.846 286.891L375.369 285.896C372.03 284.939 368.497 286.599 367.112 289.776C361.359 302.971 359.668 313.431 362.095 321.174C362.841 323.553 364.649 325.453 366.992 326.32C440.395 353.482 473.468 364.043 482.485 364.043C482.909 364.043 483.253 363.7 483.253 363.276C483.253 362.853 482.909 362.509 482.485 362.509C473.749 362.509 440.64 351.937 367.527 324.882C365.631 324.18 364.167 322.642 363.563 320.716C361.267 313.393 362.903 303.277 368.522 290.388C369.6 287.917 372.348 286.626 374.945 287.37L382.435 289.513C420.392 300.352 440.148 305.697 442.423 305.721C442.944 305.728 443.314 305.228 443.17 304.741L443.152 304.686L420.62 244.606Z" fill="#20396D"/>
<path d="M442.607 304.208C442.193 304.112 441.78 304.368 441.683 304.78C441.591 305.174 441.821 305.568 442.202 305.687L442.257 305.702L471.658 312.553C472.072 312.649 472.486 312.393 472.582 311.98C472.674 311.586 472.445 311.194 472.064 311.075L472.008 311.059L442.607 304.208Z" fill="#20396D"/>
<path d="M326.176 319.393C325.771 319.416 325.457 319.746 325.45 320.144L325.451 320.201L327.768 361.403C327.792 361.826 328.155 362.149 328.579 362.126C328.984 362.103 329.298 361.772 329.305 361.374L329.304 361.317L326.986 320.116C326.964 319.712 326.632 319.399 326.233 319.392L326.176 319.393Z" fill="#20396D"/>
<path d="M370.521 204.261C377.199 209.149 380.256 215.561 379.692 223.498C396.429 206.948 409.752 197.752 411.969 192.074C410.034 186.235 404.407 181.135 402.776 180.607L370.521 204.261Z" fill="#F6F6F6"/>
<path d="M359.271 204.379C354.435 209.238 352.018 214.604 352.018 220.477C349.225 215.51 348.484 206.586 349.794 193.705L354.909 188.369L356.863 203.673L359.271 204.379Z" fill="#F6F6F6"/>
<path d="M233.824 256.715H89.9182C87.7948 256.715 86.0736 258.432 86.0736 260.549C86.0736 261.042 86.169 261.531 86.3543 261.988L129.101 367.269H285.188L242.733 262.703C241.263 259.083 237.739 256.715 233.824 256.715Z" fill="#B2CEF3"/>
<path d="M358 362.213H269V373.189H348.368C353.688 373.189 358 368.953 358 363.727V362.213Z" fill="#B2CEF3"/>
<path d="M225.559 256.443H81.8395C79.719 256.443 78 258.162 78 260.283C78 260.777 78.0952 261.267 78.2803 261.725L117.67 359.044C119.666 363.975 124.452 367.202 129.77 367.202H271.16C273.281 367.202 275 365.482 275 363.361C275 362.867 274.905 362.377 274.719 361.919L234.456 262.441C232.988 258.815 229.469 256.443 225.559 256.443Z" fill="#E9EFF6"/>
<path d="M305.326 244.109C304.902 244.09 304.542 244.417 304.523 244.84L304.485 245.722C303.91 259.635 304.655 277.583 306.72 299.57L306.948 301.947L306.824 302.034C303.885 304.108 302.389 306.171 302.439 308.268L302.444 308.384C302.654 312.519 306.012 318.5 312.352 324.24C312.666 324.525 313.153 324.501 313.438 324.188C313.724 323.874 313.7 323.389 313.386 323.105C307.324 317.617 304.167 311.993 303.979 308.307C303.899 306.723 305.258 304.921 308.185 302.961C308.42 302.804 308.549 302.531 308.522 302.25L308.318 300.13C306.164 277.418 305.412 259.009 306.059 244.91C306.079 244.487 305.751 244.129 305.326 244.109Z" fill="#20396D"/>
<path d="M304.283 311.759C302.053 311.68 300.199 311.838 298.715 312.24C296.255 312.907 295.294 315.478 295.294 320.159C295.294 321.459 296.033 322.774 297.409 324.266C298.052 324.964 298.773 325.644 299.818 326.561L301.206 327.77C304.101 330.309 304.871 331.184 304.747 331.818L304.734 331.871C304.62 332.279 304.86 332.702 305.269 332.815C305.678 332.929 306.102 332.69 306.216 332.281C306.499 331.267 305.969 330.243 304.8 328.993C304.367 328.531 303.845 328.036 303.163 327.431L302.693 327.019L301.294 325.81C300.03 324.716 299.227 323.972 298.541 323.228C297.403 321.993 296.832 320.977 296.832 320.159C296.832 316.106 297.566 314.141 299.118 313.72C300.435 313.363 302.141 313.218 304.228 313.292C304.653 313.307 305.009 312.977 305.024 312.553C305.039 312.13 304.707 311.774 304.283 311.759Z" fill="#20396D"/>
<path d="M295.794 320.015C295.715 319.599 295.312 319.326 294.895 319.406L293.986 319.577C286.01 321.081 279.373 322.143 274.08 322.766C273.658 322.816 273.356 323.197 273.406 323.617C273.456 324.037 273.838 324.338 274.26 324.288C279.794 323.638 286.767 322.513 295.183 320.912C295.6 320.833 295.874 320.431 295.794 320.015Z" fill="#20396D"/>
<path d="M352.817 258.996H318.781L322.91 313.092C323.003 314.314 323.809 315.363 324.962 315.763C327.208 316.543 330.82 316.933 335.799 316.933L336.357 316.931C341.049 316.903 344.475 316.513 346.636 315.763C347.789 315.363 348.595 314.314 348.689 313.092L352.817 258.996Z" fill="#E1DFDF"/>
<path d="M318.781 258.996L322.91 313.092C323.003 314.314 323.809 315.363 324.961 315.763C327.207 316.543 330.82 316.933 335.799 316.933C339.418 316.933 339.881 297.669 337.189 259.142L318.781 258.996Z" fill="#F6F6F6"/>
<path d="M351.994 253.229H319.87C318.603 253.229 317.575 254.262 317.575 255.536V258.996H354.288V255.536C354.288 254.262 353.261 253.229 351.994 253.229Z" fill="#80424B"/>
<path d="M348.228 247.462H323.753C322.486 247.462 321.458 248.495 321.458 249.769V253.229H350.522V249.769C350.522 248.495 349.495 247.462 348.228 247.462Z" fill="#80424B"/>
<path d="M332.931 253.229H319.929C318.661 253.229 317.634 254.262 317.634 255.536V258.996H335.226V255.536C335.226 254.262 334.198 253.229 332.931 253.229Z" fill="#8E535E"/>
<path d="M329.107 247.462H323.753C322.486 247.462 321.458 248.495 321.458 249.769V253.229H331.401V249.769C331.401 248.495 330.374 247.462 329.107 247.462Z" fill="#8E535E"/>
<path d="M321.458 252.46C321.036 252.46 320.694 252.805 320.694 253.229C320.694 253.635 321.006 253.967 321.401 253.996L321.458 253.998H343.508C343.93 253.998 344.273 253.654 344.273 253.229C344.273 252.824 343.961 252.492 343.565 252.462L343.508 252.46H321.458Z" fill="#5F2931"/>
<path d="M317.706 258.035C317.284 258.035 316.941 258.379 316.941 258.804C316.941 259.209 317.253 259.541 317.649 259.571L317.706 259.573H349.699C350.121 259.573 350.464 259.229 350.464 258.804C350.464 258.398 350.152 258.066 349.756 258.037L349.699 258.035H317.706Z" fill="#5F2931"/>
<path d="M318.462 266.391C316.2 267.301 316 268.395 316 269.393C316 270.391 319.585 272.928 321.806 273.562C324.027 274.197 334.866 285.066 334.866 285.066L334.413 284.804C327.076 280.563 322.657 278.593 321.155 278.893C318.857 279.353 317.342 282.978 319.276 284.689L319.423 284.817C320.343 285.602 321.968 286.76 324.299 288.289L324.403 288.357L324.343 288.323C321.942 286.976 320.381 286.575 319.659 287.118C318.085 288.304 317.085 290.516 317.085 291.555C317.085 292.248 318.101 293.261 320.133 294.594C318.221 296.626 318.563 298.754 321.155 300.979L321.4 301.186C325.578 304.658 338.548 312.96 341.264 314.17C343.681 315.247 353.56 315.294 362.47 318.308C361.126 311.173 362.873 301.904 367.711 290.503L368.027 289.765C368.278 289.186 368.608 288.663 369 288.205L368.642 288.087C365.593 287.072 363.924 286.271 363.633 285.684C363.054 284.516 361.344 274.674 360.304 274.197L360.247 274.169C359.47 273.771 356.767 271.71 352.137 267.986L351.053 282.565L345.062 278.959C338.066 274.734 333.733 272.057 332.065 270.928L331.882 270.803C329.036 268.838 320.724 265.481 318.462 266.391ZM324.476 288.405L324.403 288.357L324.479 288.4C325.535 289 326.748 289.778 328.12 290.734L327.202 290.156C326.208 289.528 325.299 288.944 324.476 288.405Z" fill="#FCB4A2"/>
<path d="M347.3 289.491L346.819 289.816C341.921 293.167 339.955 295.979 339.955 302.272C339.955 306.599 337.482 309.451 338.769 312.814L339.459 313.212C340.243 313.66 340.864 313.992 341.264 314.17C343.681 315.247 353.56 315.294 362.47 318.308C361.126 311.173 362.873 301.904 367.712 290.503L368.027 289.766C368.278 289.186 368.608 288.663 369 288.205L368.642 288.087L368.128 287.914C365.406 286.98 363.907 286.237 363.633 285.684C363.055 284.517 361.344 274.674 360.304 274.197L360.247 274.169L360.18 274.133C359.323 273.658 356.642 271.609 352.137 267.986L351.053 282.564C351.858 284.917 350.607 287.225 347.3 289.491Z" fill="#F69783"/>
<path d="M338.801 274.245C338.442 274.021 337.97 274.133 337.748 274.493C337.536 274.836 337.626 275.281 337.943 275.517L337.995 275.552L353.885 285.456C354.244 285.679 354.716 285.568 354.939 285.208C355.15 284.864 355.061 284.42 354.743 284.184L354.691 284.149L338.801 274.245Z" fill="#573D40"/>
<path d="M324.224 287.304C323.862 287.087 323.392 287.206 323.176 287.571C322.971 287.918 323.067 288.361 323.389 288.591L323.441 288.625L332.091 293.807C332.455 294.025 332.924 293.906 333.14 293.541C333.346 293.194 333.249 292.751 332.927 292.521L332.875 292.486L324.224 287.304Z" fill="#573D40"/>
<path d="M320.511 294.195C320.14 293.993 319.676 294.132 319.475 294.505C319.283 294.86 319.398 295.3 319.73 295.516L319.782 295.547L327.154 299.569C327.525 299.772 327.99 299.633 328.191 299.26C328.383 298.905 328.267 298.464 327.935 298.248L327.883 298.217L320.511 294.195Z" fill="#573D40"/>
<path d="M324.738 279.159C324.358 278.973 323.901 279.132 323.716 279.514C323.54 279.878 323.674 280.312 324.015 280.513L324.068 280.542L338.063 287.395C338.442 287.581 338.9 287.423 339.085 287.041C339.261 286.677 339.126 286.243 338.785 286.041L338.733 286.013L324.738 279.159Z" fill="#573D40"/>
</svg>
