<svg width="564" height="552" viewBox="0 0 564 552" fill="none" xmlns="http://www.w3.org/2000/svg">
<path d="M396.121 276C396.121 335.742 347.336 384.173 287.155 384.173C226.975 384.173 178.189 335.742 178.189 276C178.189 216.258 226.975 167.827 287.155 167.827C347.336 167.827 396.121 216.258 396.121 276ZM191.961 276C191.961 328.192 234.581 370.501 287.155 370.501C339.73 370.501 382.349 328.192 382.349 276C382.349 223.808 339.73 181.499 287.155 181.499C234.581 181.499 191.961 223.808 191.961 276Z" fill="#196DDC"/>
<path d="M463.088 275.602C463.088 372.024 384.349 450.19 287.22 450.19C190.091 450.19 111.352 372.024 111.352 275.602C111.352 179.18 190.091 101.014 287.22 101.014C384.349 101.014 463.088 179.18 463.088 275.602ZM133.58 275.602C133.58 359.838 202.367 428.124 287.22 428.124C372.073 428.124 440.86 359.838 440.86 275.602C440.86 191.366 372.073 123.08 287.22 123.08C202.367 123.08 133.58 191.366 133.58 275.602Z" fill="#196DDC"/>
<path d="M564 276C564 428.431 439.524 552 285.976 552C132.428 552 7.95312 428.431 7.95312 276C7.95312 123.569 132.428 0 285.976 0C439.524 0 564 123.569 564 276ZM34.1422 276C34.1422 414.072 146.892 526.001 285.976 526.001C425.061 526.001 537.811 414.072 537.811 276C537.811 137.928 425.061 25.9985 285.976 25.9985C146.892 25.9985 34.1422 137.928 34.1422 276Z" fill="#196DDC"/>
<rect y="302.248" width="99.4215" height="95.4467" rx="6.36781" fill="#FC7C1C"/>
<path d="M59.3208 322.439H64.6353M69.9499 322.439H64.6353M64.6353 322.439V317.22M64.6353 322.439V327.659" stroke="white" stroke-width="2.6118" stroke-linecap="round" stroke-linejoin="round"/>
<path d="M29.6712 339.838C29.6712 340.559 30.2558 341.144 30.9771 341.144C31.6983 341.144 32.2829 340.559 32.2829 339.838H29.6712ZM54.4723 339.838C54.4723 340.559 55.057 341.144 55.7782 341.144C56.4994 341.144 57.0841 340.559 57.0841 339.838H54.4723ZM29.6712 338.107V339.838H32.2829V338.107H29.6712ZM57.0841 339.838V338.107H54.4723V339.838H57.0841ZM43.5898 324.613H43.1654V327.225H43.5898V324.613ZM57.0841 338.107C57.0841 330.655 51.0425 324.613 43.5898 324.613V327.225C49.6 327.225 54.4723 332.097 54.4723 338.107H57.0841ZM32.2829 338.107C32.2829 332.097 37.1552 327.225 43.1654 327.225V324.613C35.7127 324.613 29.6712 330.655 29.6712 338.107H32.2829Z" fill="white"/>
<path d="M43.3783 325.919C47.2918 325.919 50.4643 322.803 50.4643 318.96C50.4643 315.116 47.2918 312 43.3783 312C39.4648 312 36.2922 315.116 36.2922 318.96C36.2922 322.803 39.4648 325.919 43.3783 325.919Z" stroke="white" stroke-width="2.6118" stroke-linecap="round" stroke-linejoin="round"/>
<path d="M30.4425 361.838V360.95H32.7825V354.206H32.6985L30.5865 356.174L29.9985 355.538L32.2185 353.462H33.7905V360.95H35.9505V361.838H30.4425ZM38.2138 360.434C38.4698 360.434 38.6538 360.502 38.7658 360.638C38.8858 360.766 38.9458 360.934 38.9458 361.142V361.31C38.9458 361.638 38.8498 361.998 38.6578 362.39C38.4658 362.79 38.1978 363.138 37.8538 363.434H37.0498C37.2898 363.178 37.4818 362.934 37.6258 362.702C37.7778 362.478 37.8858 362.226 37.9498 361.946C37.7898 361.906 37.6698 361.83 37.5898 361.718C37.5178 361.606 37.4818 361.47 37.4818 361.31V361.142C37.4818 360.934 37.5378 360.766 37.6498 360.638C37.7698 360.502 37.9578 360.434 38.2138 360.434ZM43.4513 361.982C42.4513 361.982 41.7193 361.602 41.2553 360.842C40.7993 360.082 40.5713 359.018 40.5713 357.65C40.5713 356.282 40.7993 355.218 41.2553 354.458C41.7193 353.698 42.4513 353.318 43.4513 353.318C44.4513 353.318 45.1793 353.698 45.6353 354.458C46.0993 355.218 46.3313 356.282 46.3313 357.65C46.3313 359.018 46.0993 360.082 45.6353 360.842C45.1793 361.602 44.4513 361.982 43.4513 361.982ZM43.4513 361.106C43.7793 361.106 44.0593 361.038 44.2913 360.902C44.5233 360.766 44.7113 360.574 44.8553 360.326C44.9993 360.078 45.1033 359.786 45.1673 359.45C45.2393 359.114 45.2753 358.742 45.2753 358.334V356.966C45.2753 356.558 45.2393 356.186 45.1673 355.85C45.1033 355.514 44.9993 355.222 44.8553 354.974C44.7113 354.726 44.5233 354.534 44.2913 354.398C44.0593 354.262 43.7793 354.194 43.4513 354.194C43.1233 354.194 42.8433 354.262 42.6113 354.398C42.3793 354.534 42.1913 354.726 42.0473 354.974C41.9033 355.222 41.7953 355.514 41.7233 355.85C41.6593 356.186 41.6273 356.558 41.6273 356.966V358.334C41.6273 358.742 41.6593 359.114 41.7233 359.45C41.7953 359.786 41.9033 360.078 42.0473 360.326C42.1913 360.574 42.3793 360.766 42.6113 360.902C42.8433 361.038 43.1233 361.106 43.4513 361.106ZM50.6466 361.982C49.6466 361.982 48.9146 361.602 48.4506 360.842C47.9946 360.082 47.7666 359.018 47.7666 357.65C47.7666 356.282 47.9946 355.218 48.4506 354.458C48.9146 353.698 49.6466 353.318 50.6466 353.318C51.6466 353.318 52.3746 353.698 52.8306 354.458C53.2946 355.218 53.5266 356.282 53.5266 357.65C53.5266 359.018 53.2946 360.082 52.8306 360.842C52.3746 361.602 51.6466 361.982 50.6466 361.982ZM50.6466 361.106C50.9746 361.106 51.2546 361.038 51.4866 360.902C51.7186 360.766 51.9066 360.574 52.0506 360.326C52.1946 360.078 52.2986 359.786 52.3626 359.45C52.4346 359.114 52.4706 358.742 52.4706 358.334V356.966C52.4706 356.558 52.4346 356.186 52.3626 355.85C52.2986 355.514 52.1946 355.222 52.0506 354.974C51.9066 354.726 51.7186 354.534 51.4866 354.398C51.2546 354.262 50.9746 354.194 50.6466 354.194C50.3186 354.194 50.0386 354.262 49.8066 354.398C49.5746 354.534 49.3866 354.726 49.2426 354.974C49.0986 355.222 48.9906 355.514 48.9186 355.85C48.8546 356.186 48.8226 356.558 48.8226 356.966V358.334C48.8226 358.742 48.8546 359.114 48.9186 359.45C48.9906 359.786 49.0986 360.078 49.2426 360.326C49.3866 360.574 49.5746 360.766 49.8066 360.902C50.0386 361.038 50.3186 361.106 50.6466 361.106ZM57.8419 361.982C56.8419 361.982 56.1099 361.602 55.6459 360.842C55.1899 360.082 54.9619 359.018 54.9619 357.65C54.9619 356.282 55.1899 355.218 55.6459 354.458C56.1099 353.698 56.8419 353.318 57.8419 353.318C58.8419 353.318 59.5699 353.698 60.0259 354.458C60.4899 355.218 60.7219 356.282 60.7219 357.65C60.7219 359.018 60.4899 360.082 60.0259 360.842C59.5699 361.602 58.8419 361.982 57.8419 361.982ZM57.8419 361.106C58.1699 361.106 58.4499 361.038 58.6819 360.902C58.9139 360.766 59.1019 360.574 59.2459 360.326C59.3899 360.078 59.4939 359.786 59.5579 359.45C59.6299 359.114 59.6659 358.742 59.6659 358.334V356.966C59.6659 356.558 59.6299 356.186 59.5579 355.85C59.4939 355.514 59.3899 355.222 59.2459 354.974C59.1019 354.726 58.9139 354.534 58.6819 354.398C58.4499 354.262 58.1699 354.194 57.8419 354.194C57.5139 354.194 57.2339 354.262 57.0019 354.398C56.7699 354.534 56.5819 354.726 56.4379 354.974C56.2939 355.222 56.1859 355.514 56.1139 355.85C56.0499 356.186 56.0179 356.558 56.0179 356.966V358.334C56.0179 358.742 56.0499 359.114 56.1139 359.45C56.1859 359.786 56.2939 360.078 56.4379 360.326C56.5819 360.574 56.7699 360.766 57.0019 360.902C57.2339 361.038 57.5139 361.106 57.8419 361.106ZM64.5813 361.094V358.586H62.2413V357.77H64.5813V355.262H65.4933V357.77H67.8333V358.586H65.4933V361.094H64.5813Z" fill="white"/>
<path d="M28.116 381.824V373.448H31.452C32.204 373.448 32.78 373.664 33.18 374.096C33.588 374.52 33.792 375.104 33.792 375.848C33.792 376.592 33.588 377.18 33.18 377.612C32.78 378.036 32.204 378.248 31.452 378.248H29.124V381.824H28.116ZM29.124 377.36H31.452C31.852 377.36 32.16 377.256 32.376 377.048C32.6 376.84 32.712 376.544 32.712 376.16V375.536C32.712 375.152 32.6 374.856 32.376 374.648C32.16 374.44 31.852 374.336 31.452 374.336H29.124V377.36ZM35.3933 381.824V373.448H40.5053V374.336H36.4013V377.144H40.2653V378.032H36.4013V380.936H40.5053V381.824H35.3933ZM45.5214 381.968C44.9774 381.968 44.4854 381.876 44.0454 381.692C43.6134 381.5 43.2414 381.224 42.9294 380.864C42.6254 380.496 42.3894 380.044 42.2214 379.508C42.0534 378.964 41.9694 378.34 41.9694 377.636C41.9694 376.932 42.0534 376.312 42.2214 375.776C42.3894 375.24 42.6254 374.788 42.9294 374.42C43.2414 374.052 43.6134 373.776 44.0454 373.592C44.4854 373.4 44.9774 373.304 45.5214 373.304C46.0574 373.304 46.5454 373.4 46.9854 373.592C47.4254 373.776 47.7974 374.052 48.1014 374.42C48.4134 374.788 48.6534 375.24 48.8214 375.776C48.9894 376.312 49.0734 376.932 49.0734 377.636C49.0734 378.34 48.9894 378.964 48.8214 379.508C48.6534 380.044 48.4134 380.496 48.1014 380.864C47.7974 381.224 47.4254 381.5 46.9854 381.692C46.5454 381.876 46.0574 381.968 45.5214 381.968ZM45.5214 381.068C45.8814 381.068 46.2134 381.004 46.5174 380.876C46.8214 380.748 47.0814 380.564 47.2974 380.324C47.5214 380.084 47.6934 379.796 47.8134 379.46C47.9334 379.124 47.9934 378.748 47.9934 378.332V376.94C47.9934 376.524 47.9334 376.148 47.8134 375.812C47.6934 375.476 47.5214 375.188 47.2974 374.948C47.0814 374.708 46.8214 374.524 46.5174 374.396C46.2134 374.268 45.8814 374.204 45.5214 374.204C45.1614 374.204 44.8294 374.268 44.5254 374.396C44.2214 374.524 43.9574 374.708 43.7334 374.948C43.5174 375.188 43.3494 375.476 43.2294 375.812C43.1094 376.148 43.0494 376.524 43.0494 376.94V378.332C43.0494 378.748 43.1094 379.124 43.2294 379.46C43.3494 379.796 43.5174 380.084 43.7334 380.324C43.9574 380.564 44.2214 380.748 44.5254 380.876C44.8294 381.004 45.1614 381.068 45.5214 381.068ZM50.8855 381.824V373.448H54.2215C54.9735 373.448 55.5495 373.664 55.9495 374.096C56.3575 374.52 56.5615 375.104 56.5615 375.848C56.5615 376.592 56.3575 377.18 55.9495 377.612C55.5495 378.036 54.9735 378.248 54.2215 378.248H51.8935V381.824H50.8855ZM51.8935 377.36H54.2215C54.6215 377.36 54.9295 377.256 55.1455 377.048C55.3695 376.84 55.4815 376.544 55.4815 376.16V375.536C55.4815 375.152 55.3695 374.856 55.1455 374.648C54.9295 374.44 54.6215 374.336 54.2215 374.336H51.8935V377.36ZM58.1629 381.824V373.448H59.1709V380.936H62.7349V381.824H58.1629ZM64.1746 381.824V373.448H69.2866V374.336H65.1826V377.144H69.0466V378.032H65.1826V380.936H69.2866V381.824H64.1746Z" fill="white"/>
<path d="M49.7107 423.942L31.4572 386.957H67.9643L49.7107 423.942Z" fill="#FC7C1C"/>
<rect x="338.082" y="161.464" width="99.4215" height="95.4467" rx="6.36781" fill="#FC7C1C"/>
<path d="M390.378 194.444L396.874 198.839L407.7 191.514" stroke="white" stroke-width="2.32509" stroke-linecap="round" stroke-linejoin="round"/>
<path d="M369.889 175.396C369.889 174.754 369.368 174.233 368.726 174.233C368.084 174.233 367.564 174.754 367.564 175.396H369.889ZM400.201 175.396C400.201 174.754 399.68 174.233 399.038 174.233C398.396 174.233 397.876 174.754 397.876 175.396H400.201ZM367.564 175.396V184.187H369.889V175.396H367.564ZM368.726 184.187C367.564 184.187 367.564 184.189 367.564 184.191C367.564 184.192 367.564 184.194 367.564 184.195C367.564 184.198 367.564 184.201 367.564 184.204C367.564 184.209 367.564 184.216 367.564 184.222C367.564 184.235 367.565 184.249 367.566 184.264C367.567 184.295 367.57 184.33 367.575 184.369C367.584 184.448 367.6 184.544 367.627 184.654C367.681 184.875 367.78 185.149 367.955 185.453C368.308 186.067 368.941 186.754 370.037 187.39C372.195 188.642 376.23 189.745 383.882 189.745V187.42C376.378 187.42 372.835 186.325 371.204 185.379C370.406 184.916 370.091 184.504 369.971 184.295C369.909 184.187 369.889 184.117 369.884 184.098C369.882 184.088 369.883 184.089 369.885 184.104C369.886 184.111 369.887 184.121 369.887 184.135C369.888 184.142 369.888 184.15 369.888 184.158C369.888 184.163 369.888 184.167 369.889 184.172C369.889 184.174 369.889 184.177 369.889 184.179C369.889 184.181 369.889 184.183 369.889 184.183C369.889 184.185 369.889 184.187 368.726 184.187ZM400.201 184.187V175.396H397.876V184.187H400.201ZM383.882 189.745C391.534 189.745 395.569 188.642 397.727 187.39C398.823 186.754 399.456 186.067 399.809 185.453C399.984 185.149 400.083 184.875 400.137 184.654C400.164 184.544 400.18 184.448 400.189 184.369C400.194 184.33 400.197 184.295 400.198 184.264C400.199 184.249 400.2 184.235 400.2 184.222C400.2 184.216 400.2 184.209 400.201 184.204C400.201 184.201 400.201 184.198 400.201 184.195C400.201 184.194 400.201 184.192 400.201 184.191C400.201 184.189 400.201 184.187 399.038 184.187C397.876 184.187 397.876 184.185 397.876 184.183C397.876 184.183 397.876 184.181 397.876 184.179C397.876 184.177 397.876 184.174 397.876 184.172C397.876 184.167 397.876 184.163 397.876 184.158C397.876 184.15 397.876 184.142 397.877 184.135C397.878 184.121 397.879 184.111 397.879 184.104C397.881 184.089 397.882 184.088 397.88 184.098C397.875 184.117 397.855 184.187 397.793 184.295C397.673 184.504 397.358 184.916 396.56 185.379C394.929 186.325 391.386 187.42 383.882 187.42V189.745Z" fill="white"/>
<path d="M399.038 175.396C400.2 175.396 400.2 175.394 400.2 175.392C400.2 175.391 400.2 175.389 400.2 175.387C400.2 175.385 400.2 175.382 400.2 175.379C400.2 175.373 400.2 175.367 400.2 175.361C400.2 175.348 400.199 175.334 400.198 175.318C400.196 175.288 400.194 175.253 400.189 175.213C400.18 175.135 400.164 175.039 400.137 174.929C400.083 174.707 399.984 174.434 399.809 174.129C399.456 173.515 398.823 172.828 397.727 172.192C395.569 170.94 391.534 169.837 383.882 169.837V172.163C391.386 172.163 394.929 173.257 396.56 174.203C397.358 174.666 397.673 175.078 397.793 175.288C397.855 175.396 397.875 175.466 397.879 175.485C397.882 175.495 397.881 175.493 397.879 175.479C397.878 175.472 397.877 175.461 397.877 175.447C397.876 175.441 397.876 175.433 397.876 175.424C397.876 175.42 397.875 175.415 397.875 175.41C397.875 175.408 397.875 175.406 397.875 175.403C397.875 175.402 397.875 175.4 397.875 175.399C397.875 175.397 397.875 175.396 399.038 175.396ZM383.882 169.837C376.23 169.837 372.195 170.94 370.037 172.192C368.94 172.828 368.308 173.515 367.955 174.129C367.78 174.434 367.681 174.707 367.627 174.929C367.6 175.039 367.584 175.135 367.575 175.213C367.57 175.253 367.567 175.288 367.566 175.318C367.565 175.334 367.564 175.348 367.564 175.361C367.564 175.367 367.563 175.373 367.563 175.379C367.563 175.382 367.563 175.385 367.563 175.387C367.563 175.389 367.563 175.391 367.563 175.392C367.563 175.394 367.563 175.396 368.726 175.396C369.888 175.396 369.888 175.397 369.888 175.399C369.888 175.4 369.888 175.402 369.888 175.403C369.888 175.406 369.888 175.408 369.888 175.41C369.888 175.415 369.888 175.42 369.888 175.424C369.888 175.433 369.887 175.441 369.887 175.447C369.886 175.461 369.885 175.472 369.884 175.479C369.883 175.493 369.882 175.495 369.884 175.485C369.889 175.466 369.909 175.396 369.971 175.288C370.091 175.078 370.406 174.666 371.204 174.203C372.835 173.257 376.378 172.163 383.882 172.163V169.837ZM368.726 175.396C367.563 175.396 367.563 175.397 367.563 175.399C367.563 175.4 367.563 175.402 367.563 175.404C367.563 175.406 367.563 175.409 367.563 175.412C367.563 175.418 367.564 175.424 367.564 175.431C367.564 175.443 367.565 175.457 367.566 175.473C367.567 175.503 367.57 175.538 367.575 175.578C367.584 175.656 367.6 175.752 367.627 175.862C367.681 176.084 367.78 176.357 367.955 176.662C368.308 177.276 368.94 177.963 370.037 178.599C372.195 179.851 376.23 180.954 383.882 180.954V178.628C376.378 178.628 372.835 177.534 371.204 176.588C370.406 176.125 370.091 175.713 369.971 175.503C369.909 175.395 369.889 175.325 369.884 175.306C369.882 175.296 369.883 175.298 369.884 175.312C369.885 175.319 369.886 175.33 369.887 175.344C369.887 175.35 369.888 175.358 369.888 175.367C369.888 175.371 369.888 175.376 369.888 175.381C369.888 175.383 369.888 175.385 369.888 175.388C369.888 175.389 369.888 175.391 369.888 175.392C369.888 175.394 369.888 175.396 368.726 175.396ZM383.882 180.954C391.534 180.954 395.569 179.851 397.727 178.599C398.823 177.963 399.456 177.276 399.809 176.662C399.984 176.357 400.083 176.084 400.137 175.862C400.164 175.752 400.18 175.656 400.189 175.578C400.194 175.538 400.196 175.503 400.198 175.473C400.199 175.457 400.2 175.443 400.2 175.431C400.2 175.424 400.2 175.418 400.2 175.412C400.2 175.409 400.2 175.406 400.2 175.404C400.2 175.402 400.2 175.4 400.2 175.399C400.2 175.397 400.2 175.396 399.038 175.396C397.875 175.396 397.875 175.394 397.875 175.392C397.875 175.391 397.875 175.389 397.875 175.388C397.875 175.385 397.875 175.383 397.875 175.381C397.875 175.376 397.876 175.371 397.876 175.367C397.876 175.358 397.876 175.35 397.877 175.344C397.877 175.33 397.878 175.319 397.879 175.312C397.881 175.298 397.882 175.296 397.879 175.306C397.875 175.325 397.855 175.395 397.793 175.503C397.673 175.713 397.358 176.125 396.56 176.588C394.929 177.534 391.386 178.628 383.882 178.628V180.954Z" fill="white"/>
<path d="M383.882 198.536C384.524 198.536 385.045 198.016 385.045 197.374C385.045 196.732 384.524 196.211 383.882 196.211V198.536ZM369.889 184.187C369.889 183.545 369.368 183.024 368.726 183.024C368.084 183.024 367.564 183.545 367.564 184.187H369.889ZM368.726 192.978C367.564 192.978 367.564 192.98 367.564 192.982C367.564 192.983 367.564 192.985 367.564 192.986C367.564 192.989 367.564 192.992 367.564 192.995C367.564 193 367.564 193.007 367.564 193.013C367.564 193.026 367.565 193.04 367.566 193.055C367.567 193.086 367.57 193.121 367.575 193.16C367.584 193.239 367.6 193.335 367.627 193.445C367.681 193.666 367.78 193.94 367.955 194.244C368.308 194.859 368.941 195.545 370.037 196.181C372.195 197.433 376.23 198.536 383.882 198.536V196.211C376.378 196.211 372.835 195.116 371.204 194.17C370.406 193.707 370.091 193.295 369.971 193.086C369.909 192.978 369.889 192.908 369.884 192.889C369.882 192.879 369.883 192.88 369.885 192.895C369.886 192.902 369.887 192.912 369.887 192.926C369.888 192.933 369.888 192.941 369.888 192.949C369.888 192.954 369.888 192.958 369.889 192.963C369.889 192.965 369.889 192.968 369.889 192.97C369.889 192.972 369.889 192.974 369.889 192.974C369.889 192.976 369.889 192.978 368.726 192.978ZM367.564 184.187V192.978H369.889V184.187H367.564Z" fill="white"/>
<path d="M369.555 220.839H364.059V219.807L366.795 217.287C367.187 216.927 367.515 216.547 367.779 216.147C368.043 215.739 368.175 215.331 368.175 214.923V214.779C368.175 214.315 368.047 213.939 367.791 213.651C367.535 213.363 367.147 213.219 366.627 213.219C366.371 213.219 366.147 213.255 365.955 213.327C365.763 213.399 365.595 213.499 365.451 213.627C365.315 213.755 365.199 213.907 365.103 214.083C365.015 214.251 364.943 214.435 364.887 214.635L363.987 214.287C364.067 214.039 364.175 213.799 364.311 213.567C364.455 213.327 364.631 213.115 364.839 212.931C365.055 212.747 365.311 212.599 365.607 212.487C365.911 212.375 366.267 212.319 366.675 212.319C367.083 212.319 367.447 212.379 367.767 212.499C368.087 212.619 368.355 212.787 368.571 213.003C368.787 213.219 368.951 213.475 369.063 213.771C369.183 214.067 369.243 214.395 369.243 214.755C369.243 215.083 369.195 215.387 369.099 215.667C369.011 215.947 368.887 216.215 368.727 216.471C368.567 216.719 368.371 216.963 368.139 217.203C367.915 217.443 367.671 217.683 367.407 217.923L365.151 219.951H369.555V220.839ZM373.954 220.983C372.954 220.983 372.222 220.603 371.758 219.843C371.302 219.083 371.074 218.019 371.074 216.651C371.074 215.283 371.302 214.219 371.758 213.459C372.222 212.699 372.954 212.319 373.954 212.319C374.954 212.319 375.682 212.699 376.138 213.459C376.602 214.219 376.834 215.283 376.834 216.651C376.834 218.019 376.602 219.083 376.138 219.843C375.682 220.603 374.954 220.983 373.954 220.983ZM373.954 220.107C374.282 220.107 374.562 220.039 374.794 219.903C375.026 219.767 375.214 219.575 375.358 219.327C375.502 219.079 375.606 218.787 375.67 218.451C375.742 218.115 375.778 217.743 375.778 217.335V215.967C375.778 215.559 375.742 215.187 375.67 214.851C375.606 214.515 375.502 214.223 375.358 213.975C375.214 213.727 375.026 213.535 374.794 213.399C374.562 213.263 374.282 213.195 373.954 213.195C373.626 213.195 373.346 213.263 373.114 213.399C372.882 213.535 372.694 213.727 372.55 213.975C372.406 214.223 372.298 214.515 372.226 214.851C372.162 215.187 372.13 215.559 372.13 215.967V217.335C372.13 217.743 372.162 218.115 372.226 218.451C372.298 218.787 372.406 219.079 372.55 219.327C372.694 219.575 372.882 219.767 373.114 219.903C373.346 220.039 373.626 220.107 373.954 220.107ZM379.181 219.435C379.437 219.435 379.621 219.503 379.733 219.639C379.853 219.767 379.913 219.935 379.913 220.143V220.311C379.913 220.639 379.817 220.999 379.625 221.391C379.433 221.791 379.165 222.139 378.821 222.435H378.017C378.257 222.179 378.449 221.935 378.593 221.703C378.745 221.479 378.853 221.227 378.917 220.947C378.757 220.907 378.637 220.831 378.557 220.719C378.485 220.607 378.449 220.471 378.449 220.311V220.143C378.449 219.935 378.505 219.767 378.617 219.639C378.737 219.503 378.925 219.435 379.181 219.435ZM384.419 220.983C383.419 220.983 382.687 220.603 382.223 219.843C381.767 219.083 381.539 218.019 381.539 216.651C381.539 215.283 381.767 214.219 382.223 213.459C382.687 212.699 383.419 212.319 384.419 212.319C385.419 212.319 386.147 212.699 386.603 213.459C387.067 214.219 387.299 215.283 387.299 216.651C387.299 218.019 387.067 219.083 386.603 219.843C386.147 220.603 385.419 220.983 384.419 220.983ZM384.419 220.107C384.747 220.107 385.027 220.039 385.259 219.903C385.491 219.767 385.679 219.575 385.823 219.327C385.967 219.079 386.071 218.787 386.135 218.451C386.207 218.115 386.243 217.743 386.243 217.335V215.967C386.243 215.559 386.207 215.187 386.135 214.851C386.071 214.515 385.967 214.223 385.823 213.975C385.679 213.727 385.491 213.535 385.259 213.399C385.027 213.263 384.747 213.195 384.419 213.195C384.091 213.195 383.811 213.263 383.579 213.399C383.347 213.535 383.159 213.727 383.015 213.975C382.871 214.223 382.763 214.515 382.691 214.851C382.627 215.187 382.595 215.559 382.595 215.967V217.335C382.595 217.743 382.627 218.115 382.691 218.451C382.763 218.787 382.871 219.079 383.015 219.327C383.159 219.575 383.347 219.767 383.579 219.903C383.811 220.039 384.091 220.107 384.419 220.107ZM391.614 220.983C390.614 220.983 389.882 220.603 389.418 219.843C388.962 219.083 388.734 218.019 388.734 216.651C388.734 215.283 388.962 214.219 389.418 213.459C389.882 212.699 390.614 212.319 391.614 212.319C392.614 212.319 393.342 212.699 393.798 213.459C394.262 214.219 394.494 215.283 394.494 216.651C394.494 218.019 394.262 219.083 393.798 219.843C393.342 220.603 392.614 220.983 391.614 220.983ZM391.614 220.107C391.942 220.107 392.222 220.039 392.454 219.903C392.686 219.767 392.874 219.575 393.018 219.327C393.162 219.079 393.266 218.787 393.33 218.451C393.402 218.115 393.438 217.743 393.438 217.335V215.967C393.438 215.559 393.402 215.187 393.33 214.851C393.266 214.515 393.162 214.223 393.018 213.975C392.874 213.727 392.686 213.535 392.454 213.399C392.222 213.263 391.942 213.195 391.614 213.195C391.286 213.195 391.006 213.263 390.774 213.399C390.542 213.535 390.354 213.727 390.21 213.975C390.066 214.223 389.958 214.515 389.886 214.851C389.822 215.187 389.79 215.559 389.79 215.967V217.335C389.79 217.743 389.822 218.115 389.886 218.451C389.958 218.787 390.066 219.079 390.21 219.327C390.354 219.575 390.542 219.767 390.774 219.903C391.006 220.039 391.286 220.107 391.614 220.107ZM398.809 220.983C397.809 220.983 397.077 220.603 396.613 219.843C396.157 219.083 395.929 218.019 395.929 216.651C395.929 215.283 396.157 214.219 396.613 213.459C397.077 212.699 397.809 212.319 398.809 212.319C399.809 212.319 400.537 212.699 400.993 213.459C401.457 214.219 401.689 215.283 401.689 216.651C401.689 218.019 401.457 219.083 400.993 219.843C400.537 220.603 399.809 220.983 398.809 220.983ZM398.809 220.107C399.137 220.107 399.417 220.039 399.649 219.903C399.881 219.767 400.069 219.575 400.213 219.327C400.357 219.079 400.461 218.787 400.525 218.451C400.597 218.115 400.633 217.743 400.633 217.335V215.967C400.633 215.559 400.597 215.187 400.525 214.851C400.461 214.515 400.357 214.223 400.213 213.975C400.069 213.727 399.881 213.535 399.649 213.399C399.417 213.263 399.137 213.195 398.809 213.195C398.481 213.195 398.201 213.263 397.969 213.399C397.737 213.535 397.549 213.727 397.405 213.975C397.261 214.223 397.153 214.515 397.081 214.851C397.017 215.187 396.985 215.559 396.985 215.967V217.335C396.985 217.743 397.017 218.115 397.081 218.451C397.153 218.787 397.261 219.079 397.405 219.327C397.549 219.575 397.737 219.767 397.969 219.903C398.201 220.039 398.481 220.107 398.809 220.107ZM405.549 220.095V217.587H403.209V216.771H405.549V214.263H406.461V216.771H408.801V217.587H406.461V220.095H405.549Z" fill="white"/>
<path d="M363.644 233.769H363.584L362.876 235.173L360.872 238.821L358.868 235.173L358.16 233.769H358.1V240.825H357.116V232.449H358.46L360.86 236.961H360.92L363.332 232.449H364.628V240.825H363.644V233.769ZM366.854 240.825V232.449H371.966V233.337H367.862V236.145H371.726V237.033H367.862V239.937H371.966V240.825H366.854ZM376.67 233.337V240.825H375.662V233.337H372.998V232.449H379.334V233.337H376.67ZM385.176 240.825L384.336 238.353H380.952L380.112 240.825H379.092L382.02 232.449H383.304L386.232 240.825H385.176ZM382.668 233.385H382.608L381.192 237.465H384.084L382.668 233.385ZM387.62 232.449H390.428C390.948 232.449 391.42 232.537 391.844 232.713C392.268 232.889 392.628 233.153 392.924 233.505C393.228 233.849 393.46 234.285 393.62 234.813C393.78 235.333 393.86 235.941 393.86 236.637C393.86 237.333 393.78 237.945 393.62 238.473C393.46 238.993 393.228 239.429 392.924 239.781C392.628 240.125 392.268 240.385 391.844 240.561C391.42 240.737 390.948 240.825 390.428 240.825H387.62V232.449ZM390.428 239.937C390.772 239.937 391.088 239.881 391.376 239.769C391.664 239.649 391.912 239.477 392.12 239.253C392.328 239.029 392.488 238.757 392.6 238.437C392.72 238.109 392.78 237.737 392.78 237.321V235.953C392.78 235.537 392.72 235.169 392.6 234.849C392.488 234.521 392.328 234.245 392.12 234.021C391.912 233.797 391.664 233.629 391.376 233.517C391.088 233.397 390.772 233.337 390.428 233.337H388.628V239.937H390.428ZM400.774 240.825L399.934 238.353H396.55L395.71 240.825H394.69L397.618 232.449H398.902L401.83 240.825H400.774ZM398.266 233.385H398.206L396.79 237.465H399.682L398.266 233.385ZM405.252 233.337V240.825H404.244V233.337H401.58V232.449H407.916V233.337H405.252ZM413.758 240.825L412.918 238.353H409.534L408.694 240.825H407.674L410.602 232.449H411.886L414.814 240.825H413.758ZM411.25 233.385H411.19L409.774 237.465H412.666L411.25 233.385Z" fill="white"/>
<path d="M387.793 283.159L369.54 246.174H406.047L387.793 283.159Z" fill="#FC7C1C"/>
<rect x="128.87" y="46.1328" width="99.4215" height="95.4467" rx="6.36781" fill="#FC7C1C"/>
<path d="M158.706 83.8388C158.706 84.5532 159.285 85.1323 160 85.1323C160.714 85.1323 161.293 84.5532 161.293 83.8388H158.706ZM183.507 83.8388C183.507 84.5532 184.087 85.1323 184.801 85.1323C185.515 85.1323 186.094 84.5532 186.094 83.8388H183.507ZM158.706 82.8106V83.8388H161.293V82.8106H158.706ZM186.094 83.8388V82.8106H183.507V83.8388H186.094ZM172.729 69.4448H172.072V72.0317H172.729V69.4448ZM186.094 82.8106C186.094 75.4289 180.11 69.4448 172.729 69.4448V72.0317C178.682 72.0317 183.507 76.8576 183.507 82.8106H186.094ZM161.293 82.8106C161.293 76.8576 166.119 72.0317 172.072 72.0317V69.4448C164.69 69.4448 158.706 75.4289 158.706 82.8106H161.293Z" fill="white"/>
<path d="M197.678 74.8323C197.678 75.5467 198.258 76.1258 198.972 76.1258C199.686 76.1258 200.265 75.5467 200.265 74.8323H197.678ZM200.265 74.8323V74.6832H197.678V74.8323H200.265ZM190.114 64.5322H189.445V67.1191H190.114V64.5322ZM200.265 74.6832C200.265 69.077 195.721 64.5322 190.114 64.5322V67.1191C194.292 67.1191 197.678 70.5057 197.678 74.6832H200.265ZM182.55 74.0135C182.55 70.2059 185.637 67.1191 189.445 67.1191V64.5322C184.208 64.5322 179.963 68.7771 179.963 74.0135H182.55Z" fill="white"/>
<path d="M172.401 70.7382C176.314 70.7382 179.487 67.8056 179.487 64.188C179.487 60.5703 176.314 57.6377 172.401 57.6377C168.487 57.6377 165.315 60.5703 165.315 64.188C165.315 67.8056 168.487 70.7382 172.401 70.7382Z" stroke="white" stroke-width="2.58692" stroke-linecap="round" stroke-linejoin="round"/>
<path d="M190.115 65.8254C193.05 65.8254 195.43 63.6259 195.43 60.9127C195.43 58.1995 193.05 56 190.115 56C187.18 56 184.801 58.1995 184.801 60.9127C184.801 63.6259 187.18 65.8254 190.115 65.8254Z" stroke="white" stroke-width="2.58692" stroke-linecap="round" stroke-linejoin="round"/>
<path d="M171.072 98.3509H167.4L167.16 101.543H167.244C167.444 101.263 167.668 101.039 167.916 100.871C168.172 100.703 168.52 100.619 168.96 100.619C169.32 100.619 169.652 100.679 169.956 100.799C170.26 100.919 170.524 101.091 170.748 101.315C170.972 101.531 171.144 101.799 171.264 102.119C171.392 102.439 171.456 102.803 171.456 103.211C171.456 103.619 171.392 103.995 171.264 104.339C171.136 104.675 170.948 104.967 170.7 105.215C170.46 105.455 170.164 105.643 169.812 105.779C169.468 105.915 169.076 105.983 168.636 105.983C168.284 105.983 167.972 105.943 167.7 105.863C167.436 105.783 167.2 105.675 166.992 105.539C166.784 105.403 166.6 105.251 166.44 105.083C166.288 104.915 166.148 104.739 166.02 104.555L166.776 103.979C166.88 104.147 166.988 104.299 167.1 104.435C167.22 104.571 167.348 104.687 167.484 104.783C167.628 104.879 167.792 104.955 167.976 105.011C168.16 105.059 168.38 105.083 168.636 105.083C169.212 105.083 169.648 104.931 169.944 104.627C170.24 104.323 170.388 103.895 170.388 103.343V103.223C170.388 102.671 170.24 102.243 169.944 101.939C169.648 101.635 169.212 101.483 168.636 101.483C168.252 101.483 167.948 101.555 167.724 101.699C167.508 101.835 167.312 101.999 167.136 102.191L166.284 102.071L166.584 97.4629H171.072V98.3509ZM175.891 105.983C174.891 105.983 174.159 105.603 173.695 104.843C173.239 104.083 173.011 103.019 173.011 101.651C173.011 100.283 173.239 99.2189 173.695 98.4589C174.159 97.6989 174.891 97.3189 175.891 97.3189C176.891 97.3189 177.619 97.6989 178.075 98.4589C178.539 99.2189 178.771 100.283 178.771 101.651C178.771 103.019 178.539 104.083 178.075 104.843C177.619 105.603 176.891 105.983 175.891 105.983ZM175.891 105.107C176.219 105.107 176.499 105.039 176.731 104.903C176.963 104.767 177.151 104.575 177.295 104.327C177.439 104.079 177.543 103.787 177.607 103.451C177.679 103.115 177.715 102.743 177.715 102.335V100.967C177.715 100.559 177.679 100.187 177.607 99.8509C177.543 99.5149 177.439 99.2229 177.295 98.9749C177.151 98.7269 176.963 98.5349 176.731 98.3989C176.499 98.2629 176.219 98.1949 175.891 98.1949C175.563 98.1949 175.283 98.2629 175.051 98.3989C174.819 98.5349 174.631 98.7269 174.487 98.9749C174.343 99.2229 174.235 99.5149 174.163 99.8509C174.099 100.187 174.067 100.559 174.067 100.967V102.335C174.067 102.743 174.099 103.115 174.163 103.451C174.235 103.787 174.343 104.079 174.487 104.327C174.631 104.575 174.819 104.767 175.051 104.903C175.283 105.039 175.563 105.107 175.891 105.107ZM183.087 105.983C182.087 105.983 181.355 105.603 180.891 104.843C180.435 104.083 180.207 103.019 180.207 101.651C180.207 100.283 180.435 99.2189 180.891 98.4589C181.355 97.6989 182.087 97.3189 183.087 97.3189C184.087 97.3189 184.815 97.6989 185.271 98.4589C185.735 99.2189 185.967 100.283 185.967 101.651C185.967 103.019 185.735 104.083 185.271 104.843C184.815 105.603 184.087 105.983 183.087 105.983ZM183.087 105.107C183.415 105.107 183.695 105.039 183.927 104.903C184.159 104.767 184.347 104.575 184.491 104.327C184.635 104.079 184.739 103.787 184.803 103.451C184.875 103.115 184.911 102.743 184.911 102.335V100.967C184.911 100.559 184.875 100.187 184.803 99.8509C184.739 99.5149 184.635 99.2229 184.491 98.9749C184.347 98.7269 184.159 98.5349 183.927 98.3989C183.695 98.2629 183.415 98.1949 183.087 98.1949C182.759 98.1949 182.479 98.2629 182.247 98.3989C182.015 98.5349 181.827 98.7269 181.683 98.9749C181.539 99.2229 181.431 99.5149 181.359 99.8509C181.295 100.187 181.263 100.559 181.263 100.967V102.335C181.263 102.743 181.295 103.115 181.359 103.451C181.431 103.787 181.539 104.079 181.683 104.327C181.827 104.575 182.015 104.767 182.247 104.903C182.479 105.039 182.759 105.107 183.087 105.107ZM189.826 105.095V102.587H187.486V101.771H189.826V99.2629H190.738V101.771H193.078V102.587H190.738V105.095H189.826Z" fill="white"/>
<path d="M162.655 125.824V117.448H167.647V118.336H163.663V121.144H167.299V122.032H163.663V125.824H162.655ZM168.962 125.824V124.984H170.138V118.288H168.962V117.448H172.322V118.288H171.146V124.984H172.322V125.824H168.962ZM175.171 125.824H174.163V117.448H177.499C178.235 117.448 178.807 117.652 179.215 118.06C179.631 118.468 179.839 119.056 179.839 119.824C179.839 120.44 179.695 120.948 179.407 121.348C179.127 121.74 178.711 122 178.159 122.128L180.079 125.824H178.939L177.127 122.224H175.171V125.824ZM177.499 121.36C177.899 121.36 178.207 121.256 178.423 121.048C178.647 120.84 178.759 120.544 178.759 120.16V119.536C178.759 119.152 178.647 118.856 178.423 118.648C178.207 118.44 177.899 118.336 177.499 118.336H175.171V121.36H177.499ZM188.367 118.768H188.307L187.599 120.172L185.595 123.82L183.591 120.172L182.883 118.768H182.823V125.824H181.839V117.448H183.183L185.583 121.96H185.643L188.055 117.448H189.351V125.824H188.367V118.768ZM193.929 125.968C193.249 125.968 192.669 125.84 192.189 125.584C191.709 125.32 191.301 124.96 190.965 124.504L191.709 123.88C192.005 124.272 192.333 124.572 192.693 124.78C193.053 124.98 193.477 125.08 193.965 125.08C194.565 125.08 195.021 124.936 195.333 124.648C195.653 124.36 195.813 123.976 195.813 123.496C195.813 123.096 195.693 122.788 195.453 122.572C195.213 122.356 194.817 122.184 194.265 122.056L193.581 121.9C192.813 121.724 192.225 121.46 191.817 121.108C191.417 120.748 191.217 120.244 191.217 119.596C191.217 119.228 191.285 118.9 191.421 118.612C191.557 118.324 191.745 118.084 191.985 117.892C192.233 117.7 192.525 117.556 192.861 117.46C193.205 117.356 193.581 117.304 193.989 117.304C194.621 117.304 195.161 117.42 195.609 117.652C196.065 117.884 196.449 118.224 196.761 118.672L196.005 119.224C195.773 118.904 195.493 118.652 195.165 118.468C194.837 118.284 194.429 118.192 193.941 118.192C193.405 118.192 192.981 118.308 192.669 118.54C192.365 118.764 192.213 119.104 192.213 119.56C192.213 119.96 192.341 120.264 192.597 120.472C192.861 120.672 193.257 120.832 193.785 120.952L194.469 121.108C195.293 121.292 195.889 121.572 196.257 121.948C196.625 122.324 196.809 122.824 196.809 123.448C196.809 123.832 196.741 124.18 196.605 124.492C196.477 124.804 196.289 125.068 196.041 125.284C195.793 125.5 195.489 125.668 195.129 125.788C194.777 125.908 194.377 125.968 193.929 125.968Z" fill="white"/>
<path d="M178.581 167.828L160.328 130.842H196.835L178.581 167.828Z" fill="#FC7C1C"/>
</svg>
