<svg width="215" height="48" viewBox="0 0 215 48" fill="none" xmlns="http://www.w3.org/2000/svg">
<path d="M0 41.4355V13.2138H6.5693V17.4146H6.83563C7.24991 16.093 7.9601 14.976 8.96621 14.0634C9.97232 13.1194 11.3483 12.6474 13.0942 12.6474C14.6922 12.6474 16.0534 13.0722 17.1778 13.9218C18.3023 14.7714 19.1161 16.0143 19.6191 17.6506H19.7523C19.9594 16.9583 20.2701 16.3133 20.6844 15.7154C21.1283 15.0861 21.6609 14.5512 22.2824 14.1106C22.9038 13.6701 23.5992 13.324 24.3686 13.0722C25.1379 12.789 25.9665 12.6474 26.8542 12.6474C29.1032 12.6474 30.8195 13.497 32.0032 15.1962C33.2164 16.8954 33.823 19.3183 33.823 22.465V33.6513L27.2537 31.0553V23.0314C27.2537 19.8847 26.1884 18.3114 24.0578 18.3114C23.0813 18.3114 22.1936 18.6103 21.3946 19.2082C20.5957 19.8061 20.1962 20.7186 20.1962 21.9458V37.5217L13.6269 33.6985V23.0314C13.6269 19.8847 12.5616 18.3114 10.431 18.3114C9.95753 18.3114 9.48406 18.3901 9.0106 18.5474C8.56673 18.6733 8.15245 18.8935 7.76776 19.2082C7.41266 19.5229 7.11674 19.9162 6.88001 20.3882C6.67287 20.8287 6.5693 21.3479 6.5693 21.9458V47.4336L0 41.4355Z" fill="#196DDC"/>
<path d="M47.771 38.5601C45.9955 38.5601 44.4124 38.2611 43.0216 37.6633C41.6308 37.0339 40.4471 36.1686 39.4706 35.0673C38.5237 33.9345 37.7987 32.5657 37.2957 30.9609C36.8222 29.3561 36.5855 27.5625 36.5855 25.5801C36.5855 23.6292 36.8222 21.8671 37.2957 20.2938C37.7691 18.689 38.4645 17.3202 39.3819 16.1874C40.3288 15.0546 41.4828 14.1893 42.8441 13.5914C44.2053 12.9621 45.7588 12.6474 47.5047 12.6474C49.4282 12.6474 51.0705 12.9936 52.4317 13.6858C53.8225 14.3781 54.947 15.3063 55.8051 16.4706C56.6929 17.6349 57.3291 18.9879 57.7138 20.5298C58.128 22.0402 58.3352 23.6292 58.3352 25.297V27.3737H43.3767V27.7513C43.3767 29.3876 43.791 30.6934 44.6195 31.6689C45.4481 32.6129 46.7501 33.0849 48.5256 33.0849C49.8868 33.0849 50.9965 32.8017 51.8547 32.2353C52.7128 31.6374 53.5118 30.9294 54.2516 30.1113L57.5362 34.4537C56.5005 35.7438 55.1393 36.7507 53.4526 37.4745C51.7955 38.1982 49.9016 38.5601 47.771 38.5601ZM47.6379 17.7922C46.3063 17.7922 45.2558 18.2642 44.4864 19.2082C43.7466 20.1207 43.3767 21.3479 43.3767 22.8898V23.2674H51.5439V22.8426C51.5439 21.3322 51.2184 20.1207 50.5674 19.2082C49.946 18.2642 48.9695 17.7922 47.6379 17.7922Z" fill="#196DDC"/>
<path d="M69.6763 37.9937C67.3978 37.9937 65.6667 37.3801 64.483 36.1529C63.329 34.9257 62.7519 33.1321 62.7519 30.7721V18.6418H59.4673V13.2138H61.1096C61.9974 13.2138 62.604 12.9936 62.9295 12.553C63.255 12.081 63.4178 11.4202 63.4178 10.5706V6.51147H69.3213V13.2138H73.9375V18.6418H69.3213V32.5657H73.5824V37.9937H69.6763Z" fill="#196DDC"/>
<path d="M93.9646 37.9937C92.7809 37.9937 91.7896 37.6003 90.9907 36.8137C90.2213 36.027 89.733 34.9729 89.5259 33.6513H89.2596C88.9045 35.2561 88.1203 36.4833 86.907 37.3329C85.6938 38.151 84.1994 38.5601 82.4239 38.5601C80.0862 38.5601 78.2959 37.8993 77.0531 36.5777C75.8102 35.2561 75.1888 33.5097 75.1888 31.3385C75.1888 28.7268 76.0766 26.7916 77.8521 25.533C79.6571 24.2428 82.0984 23.5978 85.1759 23.5978H88.8601V22.0402C88.8601 20.8444 88.5642 19.9005 87.9723 19.2082C87.3805 18.4845 86.3892 18.1226 84.9984 18.1226C83.6964 18.1226 82.6607 18.4215 81.8913 19.0194C81.1219 19.6173 80.4857 20.2938 79.9827 21.049L76.0766 17.3674C77.0235 15.8885 78.2072 14.74 79.6275 13.9218C81.0775 13.0722 83.0306 12.6474 85.4866 12.6474C88.8009 12.6474 91.2866 13.4184 92.9437 14.9602C94.6008 16.5021 95.4294 18.7519 95.4294 21.7098V32.5657H97.6044V37.9937H93.9646ZM84.8652 33.6985C85.9601 33.6985 86.8923 33.4468 87.6616 32.9433C88.4606 32.4398 88.8601 31.6217 88.8601 30.4889V27.5625H85.6642C83.0898 27.5625 81.8025 28.4908 81.8025 30.3473V31.0553C81.8025 31.9678 82.0688 32.6444 82.6015 33.0849C83.1341 33.494 83.8887 33.6985 84.8652 33.6985Z" fill="#196DDC"/>
<path d="M99.9617 41.4355V13.2138H106.531V17.4146H106.797C107.212 16.093 107.922 14.976 108.928 14.0634C109.934 13.1194 111.31 12.6474 113.056 12.6474C114.654 12.6474 116.015 13.0722 117.14 13.9218C118.264 14.7714 119.078 16.0144 119.581 17.6506H119.714C119.921 16.9583 120.232 16.3133 120.646 15.7154C121.09 15.0861 121.623 14.5512 122.244 14.1106C122.866 13.6701 123.561 13.324 124.33 13.0722C125.1 12.789 125.928 12.6474 126.816 12.6474C129.065 12.6474 130.781 13.497 131.965 15.1962C133.178 16.8954 133.785 19.3183 133.785 22.465V33.6985L127.215 30.9609V23.0314C127.215 19.8847 126.15 18.3114 124.02 18.3114C123.043 18.3114 122.155 18.6103 121.356 19.2082C120.557 19.8061 120.158 20.7186 120.158 21.9458V37.9937L113.589 33.6985V23.0314C113.589 19.8847 112.523 18.3114 110.393 18.3114C109.919 18.3114 109.446 18.3901 108.972 18.5474C108.528 18.6733 108.114 18.8935 107.729 19.2082C107.374 19.5229 107.078 19.9162 106.842 20.3882C106.635 20.8287 106.531 21.3479 106.531 21.9458V47.4336L99.9617 41.4355Z" fill="#196DDC"/>
<path d="M154.648 37.9937C153.464 37.9937 152.473 37.6004 151.674 36.8137C150.905 36.027 150.416 34.9729 150.209 33.6513H149.943C149.588 35.2561 148.804 36.4833 147.59 37.3329C146.377 38.151 144.883 38.5601 143.107 38.5601C140.77 38.5601 138.979 37.8993 137.736 36.5777C136.494 35.2561 135.872 33.5097 135.872 31.3385C135.872 28.7268 136.76 26.7916 138.535 25.533C140.341 24.2429 142.782 23.5978 145.859 23.5978H149.543V22.0402C149.543 20.8445 149.248 19.9005 148.656 19.2082C148.064 18.4845 147.073 18.1226 145.682 18.1226C144.38 18.1226 143.344 18.4216 142.575 19.0194C141.805 19.6173 141.169 20.2938 140.666 21.049L136.76 17.3674C137.707 15.8885 138.891 14.74 140.311 13.9219C141.761 13.0723 143.714 12.6475 146.17 12.6475C149.484 12.6475 151.97 13.4184 153.627 14.9602C155.284 16.5021 156.113 18.752 156.113 21.7098V32.5657H158.288V37.9937H154.648ZM145.549 33.6985C146.643 33.6985 147.576 33.4468 148.345 32.9433C149.144 32.4399 149.543 31.6217 149.543 30.4889V27.5626H146.348C143.773 27.5626 142.486 28.4908 142.486 30.3473V31.0553C142.486 31.9679 142.752 32.6444 143.285 33.0849C143.818 33.494 144.572 33.6985 145.549 33.6985Z" fill="#196DDC"/>
<path d="M183.097 39.7873C183.097 41.1089 182.875 42.2731 182.431 43.2801C182.017 44.287 181.321 45.1366 180.345 45.8288C179.368 46.5526 178.066 47.0875 176.439 47.4336C174.841 47.8112 172.858 48 170.491 48C168.479 48 166.762 47.8584 165.342 47.5752C163.951 47.3235 162.812 46.9459 161.924 46.4424C161.066 45.9704 160.43 45.3726 160.015 44.6489C159.631 43.9566 159.438 43.1542 159.438 42.2417C159.438 40.8571 159.823 39.7715 160.592 38.9849C161.362 38.1982 162.427 37.7105 163.788 37.5217V37.0025C162.664 36.7822 161.82 36.2788 161.258 35.4921C160.696 34.674 160.415 33.73 160.415 32.6601C160.415 31.9993 160.533 31.4329 160.77 30.9609C161.036 30.4575 161.362 30.0327 161.746 29.6866C162.161 29.309 162.634 29.01 163.167 28.7898C163.7 28.5695 164.232 28.3964 164.765 28.2706V28.0818C163.344 27.3895 162.294 26.4455 161.613 25.2498C160.933 24.0226 160.592 22.6066 160.592 21.0018C160.592 18.4845 161.406 16.4706 163.034 14.9602C164.691 13.4184 167.206 12.6475 170.58 12.6475C172.118 12.6475 173.435 12.8048 174.53 13.1195V12.1755C174.53 10.8539 174.826 9.90988 175.418 9.34349C176.039 8.74562 176.912 8.44669 178.037 8.44669H181.721V13.6387H176.572V13.9219C177.933 14.6141 178.939 15.5738 179.59 16.801C180.241 17.9968 180.567 19.397 180.567 21.0018C180.567 23.4877 179.738 25.4858 178.081 26.9962C176.453 28.4751 173.953 29.2146 170.58 29.2146C169.07 29.2146 167.694 29.0415 166.452 28.6954C165.771 29.1674 165.431 29.8281 165.431 30.6777C165.431 31.2756 165.638 31.7476 166.052 32.0937C166.496 32.4084 167.221 32.5657 168.227 32.5657H174.974C177.815 32.5657 179.871 33.1951 181.144 34.4537C182.446 35.7124 183.097 37.4902 183.097 39.7873ZM176.927 40.7313C176.927 40.0075 176.661 39.4569 176.128 39.0793C175.595 38.7017 174.663 38.5129 173.332 38.5129H165.342C165.046 38.8276 164.824 39.1737 164.676 39.5513C164.558 39.9603 164.498 40.3537 164.498 40.7313C164.498 41.6438 164.868 42.3046 165.608 42.7137C166.348 43.1542 167.606 43.3745 169.381 43.3745H172.044C173.82 43.3745 175.077 43.1542 175.817 42.7137C176.557 42.3046 176.927 41.6438 176.927 40.7313ZM170.58 24.6362C171.882 24.6362 172.843 24.353 173.465 23.7866C174.116 23.1887 174.441 22.3391 174.441 21.2378V20.6714C174.441 19.5701 174.116 18.7362 173.465 18.1698C172.843 17.572 171.882 17.273 170.58 17.273C169.277 17.273 168.301 17.572 167.65 18.1698C167.029 18.7362 166.718 19.5701 166.718 20.6714V21.2378C166.718 22.3391 167.029 23.1887 167.65 23.7866C168.301 24.353 169.277 24.6362 170.58 24.6362Z" fill="#196DDC"/>
<path d="M184.843 18.1226H191.412V37.9937H184.843V18.1226Z" fill="#196DDC"/>
<path d="M205.546 38.5601C203.8 38.5601 202.246 38.2612 200.885 37.6633C199.524 37.034 198.384 36.1686 197.467 35.0673C196.55 33.9345 195.854 32.5657 195.381 30.9609C194.907 29.3562 194.671 27.5626 194.671 25.5802C194.671 23.5978 194.907 21.8199 195.381 20.2466C195.854 18.6418 196.55 17.273 197.467 16.1402C198.384 15.0074 199.524 14.1421 200.885 13.5443C202.246 12.9464 203.8 12.6475 205.546 12.6475C207.913 12.6475 209.881 13.2139 211.449 14.3467C213.047 15.4794 214.186 17.0685 214.867 19.1138L209.54 21.5682C209.333 20.6242 208.904 19.8218 208.253 19.161C207.602 18.5002 206.7 18.1698 205.546 18.1698C204.214 18.1698 203.208 18.6418 202.527 19.5858C201.847 20.4983 201.506 21.7413 201.506 23.3146V27.9402C201.506 29.5135 201.847 30.7564 202.527 31.6689C203.208 32.5815 204.214 33.0377 205.546 33.0377C206.729 33.0377 207.661 32.7073 208.342 32.0465C209.052 31.3543 209.57 30.4575 209.895 29.3561L215 31.7161C214.231 34.0761 213.032 35.8068 211.405 36.9081C209.807 38.0094 207.854 38.5601 205.546 38.5601Z" fill="#196DDC"/>
<path d="M188.327 0L190.268 6.03039H196.55L191.468 9.75737L193.409 15.7878L188.327 12.0608L183.244 15.7878L185.185 9.75737L180.103 6.03039H186.385L188.327 0Z" fill="#FC7C1C"/>
</svg>
