<svg width="231" height="230" viewBox="0 0 231 230" fill="none" xmlns="http://www.w3.org/2000/svg">
<path d="M103.179 115C103.179 118.268 104.477 121.402 106.788 123.713C109.098 126.023 112.232 127.321 115.5 127.321C118.768 127.321 121.902 126.023 124.212 123.713C126.523 121.402 127.821 118.268 127.821 115C127.821 111.732 126.523 108.598 124.212 106.287C121.902 103.977 118.768 102.679 115.5 102.679C112.232 102.679 109.098 103.977 106.788 106.287C104.477 108.598 103.179 111.732 103.179 115ZM154.517 115C154.517 118.268 155.816 121.402 158.126 123.713C160.437 126.023 163.571 127.321 166.839 127.321C170.106 127.321 173.24 126.023 175.551 123.713C177.862 121.402 179.16 118.268 179.16 115C179.16 111.732 177.862 108.598 175.551 106.287C173.24 103.977 170.106 102.679 166.839 102.679C163.571 102.679 160.437 103.977 158.126 106.287C155.816 108.598 154.517 111.732 154.517 115ZM51.8401 115C51.8401 118.268 53.1382 121.402 55.4489 123.713C57.7596 126.023 60.8936 127.321 64.1614 127.321C67.4292 127.321 70.5631 126.023 72.8738 123.713C75.1845 121.402 76.4826 118.268 76.4826 115C76.4826 111.732 75.1845 108.598 72.8738 106.287C70.5631 103.977 67.4292 102.679 64.1614 102.679C60.8936 102.679 57.7596 103.977 55.4489 106.287C53.1382 108.598 51.8401 111.732 51.8401 115ZM221.566 70.4375C215.764 56.6529 207.448 44.2801 196.846 33.6529C186.319 23.0872 173.822 14.6887 160.062 8.93304C145.944 3.00335 130.953 0 115.5 0H114.987C99.431 0.0770089 84.3631 3.15737 70.1937 9.2154C56.5519 15.0301 44.1717 23.4435 33.7432 33.9866C23.2445 44.5882 15.0046 56.9096 9.30603 70.6429C3.40209 84.8638 0.424448 99.9833 0.501456 115.539C0.588559 133.366 4.80599 150.93 12.8227 166.853V205.871C12.8227 209.002 14.0668 212.006 16.2812 214.22C18.4956 216.435 21.499 217.679 24.6306 217.679H63.6737C79.5962 225.695 97.16 229.913 114.987 230H115.526C130.902 230 145.815 227.022 159.857 221.195C173.547 215.508 185.997 207.208 196.512 196.758C207.114 186.259 215.456 173.989 221.283 160.307C227.341 146.137 230.422 131.069 230.499 115.513C230.576 99.8806 227.547 84.7098 221.566 70.4375ZM182.779 182.871C164.785 200.685 140.913 210.491 115.5 210.491H115.064C99.585 210.414 84.2091 206.564 70.63 199.325L68.4738 198.17H32.3314V162.027L31.1763 159.871C23.9375 146.291 20.0871 130.915 20.0101 115.436C19.9075 89.8438 29.6875 65.817 47.6303 47.7199C65.5475 29.6228 89.497 19.6116 115.089 19.5089H115.526C128.36 19.5089 140.81 21.9989 152.541 26.9275C163.989 31.7277 174.257 38.6328 183.087 47.4632C191.892 56.2679 198.823 66.5614 203.623 78.01C208.603 89.8694 211.093 102.448 211.041 115.436C210.887 141.003 200.851 164.953 182.779 182.871Z" fill="#196DDC"/>
</svg>
