<svg width="287" height="400" viewBox="0 0 287 400" fill="none" xmlns="http://www.w3.org/2000/svg">
<path d="M131.179 115C131.179 118.268 132.477 121.402 134.788 123.713C137.098 126.023 140.232 127.321 143.5 127.321C146.768 127.321 149.902 126.023 152.212 123.713C154.523 121.402 155.821 118.268 155.821 115C155.821 111.732 154.523 108.598 152.212 106.287C149.902 103.977 146.768 102.679 143.5 102.679C140.232 102.679 137.098 103.977 134.788 106.287C132.477 108.598 131.179 111.732 131.179 115ZM182.517 115C182.517 118.268 183.816 121.402 186.126 123.713C188.437 126.023 191.571 127.321 194.839 127.321C198.106 127.321 201.24 126.023 203.551 123.713C205.862 121.402 207.16 118.268 207.16 115C207.16 111.732 205.862 108.598 203.551 106.287C201.24 103.977 198.106 102.679 194.839 102.679C191.571 102.679 188.437 103.977 186.126 106.287C183.816 108.598 182.517 111.732 182.517 115ZM79.8401 115C79.8401 118.268 81.1382 121.402 83.4489 123.713C85.7596 126.023 88.8936 127.321 92.1614 127.321C95.4292 127.321 98.5631 126.023 100.874 123.713C103.185 121.402 104.483 118.268 104.483 115C104.483 111.732 103.185 108.598 100.874 106.287C98.5631 103.977 95.4292 102.679 92.1614 102.679C88.8936 102.679 85.7596 103.977 83.4489 106.287C81.1382 108.598 79.8401 111.732 79.8401 115ZM249.566 70.4375C243.764 56.6529 235.448 44.2801 224.846 33.6529C214.319 23.0872 201.822 14.6887 188.062 8.93304C173.944 3.00335 158.953 0 143.5 0H142.987C127.431 0.0770089 112.363 3.15737 98.1937 9.2154C84.5519 15.0301 72.1717 23.4435 61.7432 33.9866C51.2445 44.5882 43.0046 56.9096 37.306 70.6429C31.4021 84.8638 28.4244 99.9833 28.5015 115.539C28.5886 133.366 32.806 150.93 40.8227 166.853V205.871C40.8227 209.002 42.0668 212.006 44.2812 214.22C46.4956 216.435 49.499 217.679 52.6306 217.679H91.6737C107.596 225.695 125.16 229.913 142.987 230H143.526C158.902 230 173.815 227.022 187.857 221.195C201.547 215.508 213.997 207.208 224.512 196.758C235.114 186.259 243.456 173.989 249.283 160.307C255.341 146.137 258.422 131.069 258.499 115.513C258.576 99.8806 255.547 84.7098 249.566 70.4375ZM210.779 182.871C192.785 200.685 168.913 210.491 143.5 210.491H143.064C127.585 210.414 112.209 206.564 98.63 199.325L96.4738 198.17H60.3314V162.027L59.1763 159.871C51.9375 146.291 48.0871 130.915 48.0101 115.436C47.9075 89.8438 57.6875 65.817 75.6303 47.7199C93.5475 29.6228 117.497 19.6116 143.089 19.5089H143.526C156.36 19.5089 168.81 21.9989 180.541 26.9275C191.989 31.7277 202.257 38.6328 211.087 47.4632C219.892 56.2679 226.823 66.5614 231.623 78.01C236.603 89.8694 239.093 102.448 239.041 115.436C238.887 141.003 228.851 164.953 210.779 182.871Z" fill="#196DDC"/>
<path d="M79.2003 349.576C76.2563 349.576 73.7603 349.08 71.7122 348.088C69.6643 347.064 67.9203 345.752 66.4803 344.152L71.2803 339.304C73.5523 341.864 76.3523 343.144 79.6803 343.144C81.4723 343.144 82.8003 342.776 83.6643 342.04C84.5283 341.304 84.9603 340.328 84.9603 339.112C84.9603 338.184 84.7043 337.416 84.1923 336.808C83.6803 336.168 82.6403 335.736 81.0723 335.512L77.7603 335.08C74.2083 334.632 71.6003 333.56 69.9363 331.864C68.3043 330.168 67.4883 327.912 67.4883 325.096C67.4883 323.592 67.7763 322.216 68.3523 320.968C68.9283 319.72 69.7443 318.648 70.8003 317.752C71.8883 316.856 73.2003 316.168 74.7363 315.688C76.3043 315.176 78.0803 314.92 80.0643 314.92C82.5923 314.92 84.8163 315.32 86.7363 316.12C88.6563 316.92 90.3043 318.088 91.6803 319.624L86.8323 324.52C86.0323 323.592 85.0563 322.84 83.9043 322.264C82.7843 321.656 81.3603 321.352 79.6323 321.352C78.0003 321.352 76.7843 321.64 75.9843 322.216C75.1843 322.792 74.7843 323.592 74.7843 324.616C74.7843 325.768 75.0883 326.6 75.6963 327.112C76.3363 327.624 77.3602 327.992 78.7682 328.216L82.0803 328.744C85.5363 329.288 88.0963 330.36 89.7603 331.96C91.4243 333.528 92.2563 335.768 92.2563 338.68C92.2563 340.28 91.9683 341.752 91.3923 343.096C90.8163 344.44 89.9683 345.592 88.8483 346.552C87.7603 347.512 86.4003 348.264 84.7683 348.808C83.1363 349.32 81.2803 349.576 79.2003 349.576ZM116.545 349C115.265 349 114.193 348.6 113.329 347.8C112.497 347 111.969 345.928 111.745 344.584H111.457C111.073 346.216 110.225 347.464 108.913 348.328C107.601 349.16 105.985 349.576 104.065 349.576C101.537 349.576 99.6014 348.904 98.2574 347.56C96.9134 346.216 96.2414 344.44 96.2414 342.232C96.2414 339.576 97.2014 337.608 99.1214 336.328C101.073 335.016 103.713 334.36 107.041 334.36H111.025V332.776C111.025 331.56 110.705 330.6 110.065 329.896C109.425 329.16 108.353 328.792 106.849 328.792C105.441 328.792 104.321 329.096 103.489 329.704C102.657 330.312 101.969 331 101.425 331.768L97.2014 328.024C98.2254 326.52 99.5054 325.352 101.041 324.52C102.609 323.656 104.721 323.224 107.377 323.224C110.961 323.224 113.649 324.008 115.441 325.576C117.233 327.144 118.129 329.432 118.129 332.44V343.48H120.481V349H116.545ZM106.705 344.632C107.889 344.632 108.897 344.376 109.729 343.864C110.593 343.352 111.025 342.52 111.025 341.368V338.392H107.569C104.785 338.392 103.393 339.336 103.393 341.224V341.944C103.393 342.872 103.681 343.56 104.257 344.008C104.833 344.424 105.649 344.632 106.705 344.632ZM140.236 323.8H146.86L137.164 352.888C136.524 354.84 135.612 356.28 134.428 357.208C133.276 358.136 131.612 358.6 129.436 358.6H125.02V353.08H129.772L130.636 350.296L121.804 323.8H128.86L132.556 335.56L134.38 342.856H134.668L136.54 335.56L140.236 323.8ZM182.26 335.272H169.492V349H162.196V315.496H169.492V328.84H182.26V315.496H189.556V349H182.26V335.272ZM200.098 321.112C198.658 321.112 197.602 320.792 196.93 320.152C196.29 319.48 195.97 318.632 195.97 317.608V316.552C195.97 315.528 196.29 314.696 196.93 314.056C197.602 313.384 198.658 313.048 200.098 313.048C201.538 313.048 202.578 313.384 203.218 314.056C203.89 314.696 204.226 315.528 204.226 316.552V317.608C204.226 318.632 203.89 319.48 203.218 320.152C202.578 320.792 201.538 321.112 200.098 321.112ZM196.546 323.8H203.65V349H196.546V323.8ZM213.209 338.44L210.953 324.808V315.496H218.441V324.808L216.233 338.44H213.209ZM214.649 349.576C213.113 349.576 212.009 349.224 211.337 348.52C210.697 347.816 210.377 346.952 210.377 345.928V344.776C210.377 343.752 210.697 342.888 211.337 342.184C212.009 341.48 213.113 341.128 214.649 341.128C216.185 341.128 217.273 341.48 217.913 342.184C218.585 342.888 218.921 343.752 218.921 344.776V345.928C218.921 346.952 218.585 347.816 217.913 348.52C217.273 349.224 216.185 349.576 214.649 349.576Z" fill="#196DDC"/>
<path d="M11.642 393L7.56203 376.248H9.69803L11.498 384.312L12.89 390.576H12.938L14.498 384.312L16.61 376.248H18.914L20.954 384.312L22.514 390.552H22.586L24.026 384.312L25.922 376.248H27.986L23.69 393H21.458L19.274 384.648L17.738 378.504H17.69L16.106 384.648L13.874 393H11.642ZM34.8015 393.288C33.9535 393.288 33.1855 393.136 32.4975 392.832C31.8255 392.528 31.2415 392.096 30.7455 391.536C30.2655 390.96 29.8895 390.28 29.6175 389.496C29.3615 388.696 29.2335 387.8 29.2335 386.808C29.2335 385.832 29.3615 384.944 29.6175 384.144C29.8895 383.344 30.2655 382.664 30.7455 382.104C31.2415 381.528 31.8255 381.088 32.4975 380.784C33.1855 380.48 33.9535 380.328 34.8015 380.328C35.6335 380.328 36.3775 380.48 37.0335 380.784C37.6895 381.088 38.2495 381.512 38.7135 382.056C39.1775 382.584 39.5295 383.216 39.7695 383.952C40.0255 384.688 40.1535 385.496 40.1535 386.376V387.288H31.2495V387.864C31.2495 388.392 31.3295 388.888 31.4895 389.352C31.6655 389.8 31.9055 390.192 32.2095 390.528C32.5295 390.864 32.9135 391.128 33.3615 391.32C33.8255 391.512 34.3455 391.608 34.9215 391.608C35.7055 391.608 36.3855 391.424 36.9615 391.056C37.5535 390.688 38.0095 390.16 38.3295 389.472L39.6975 390.456C39.2975 391.304 38.6735 391.992 37.8255 392.52C36.9775 393.032 35.9695 393.288 34.8015 393.288ZM34.8015 381.936C34.2735 381.936 33.7935 382.032 33.3615 382.224C32.9295 382.4 32.5535 382.656 32.2335 382.992C31.9295 383.328 31.6895 383.728 31.5135 384.192C31.3375 384.64 31.2495 385.136 31.2495 385.68V385.848H38.0895V385.584C38.0895 384.48 37.7855 383.6 37.1775 382.944C36.5855 382.272 35.7935 381.936 34.8015 381.936ZM44.052 375C44.564 375 44.932 375.136 45.156 375.408C45.396 375.664 45.516 376 45.516 376.416V376.752C45.516 377.408 45.324 378.136 44.94 378.936C44.556 379.72 44.02 380.408 43.332 381H41.724C42.204 380.488 42.588 380.008 42.876 379.56C43.18 379.096 43.396 378.584 43.524 378.024C43.204 377.944 42.964 377.792 42.804 377.568C42.66 377.344 42.588 377.072 42.588 376.752V376.416C42.588 376 42.7 375.664 42.924 375.408C43.164 375.136 43.54 375 44.052 375ZM55.503 390.984H55.407C54.655 392.52 53.447 393.288 51.783 393.288C51.015 393.288 50.319 393.136 49.695 392.832C49.071 392.528 48.535 392.096 48.087 391.536C47.655 390.976 47.319 390.296 47.079 389.496C46.855 388.696 46.743 387.8 46.743 386.808C46.743 385.816 46.855 384.92 47.079 384.12C47.319 383.32 47.655 382.64 48.087 382.08C48.535 381.52 49.071 381.088 49.695 380.784C50.319 380.48 51.015 380.328 51.783 380.328C52.647 380.328 53.383 380.52 53.991 380.904C54.615 381.272 55.087 381.848 55.407 382.632H55.503V375.24H57.423V393H55.503V390.984ZM52.311 391.56C52.743 391.56 53.151 391.504 53.535 391.392C53.935 391.28 54.279 391.12 54.567 390.912C54.855 390.688 55.079 390.424 55.239 390.12C55.415 389.8 55.503 389.44 55.503 389.04V384.432C55.503 384.096 55.415 383.784 55.239 383.496C55.079 383.192 54.855 382.936 54.567 382.728C54.279 382.52 53.935 382.36 53.535 382.248C53.151 382.12 52.743 382.056 52.311 382.056C51.223 382.056 50.367 382.4 49.743 383.088C49.119 383.76 48.807 384.648 48.807 385.752V387.864C48.807 388.968 49.119 389.864 49.743 390.552C50.367 391.224 51.223 391.56 52.311 391.56ZM69.2167 393C68.5447 393 68.0327 392.816 67.6807 392.448C67.3447 392.064 67.1767 391.584 67.1767 391.008V375.24H69.0967V391.32H70.9207V393H69.2167ZM74.6758 377.712C74.2598 377.712 73.9558 377.616 73.7638 377.424C73.5878 377.216 73.4998 376.952 73.4998 376.632V376.32C73.4998 376 73.5878 375.744 73.7638 375.552C73.9558 375.344 74.2598 375.24 74.6758 375.24C75.0918 375.24 75.3878 375.344 75.5638 375.552C75.7558 375.744 75.8518 376 75.8518 376.32V376.632C75.8518 376.952 75.7558 377.216 75.5638 377.424C75.3878 377.616 75.0918 377.712 74.6758 377.712ZM73.7158 380.616H75.6358V393H73.7158V380.616ZM79.7158 375.24H81.6358V386.496H81.7318L83.6278 384.384L87.1318 380.616H89.4598L84.8758 385.512L89.9158 393H87.5878L83.4838 386.688L81.6358 388.584V393H79.7158V375.24ZM96.6296 393.288C95.7816 393.288 95.0136 393.136 94.3256 392.832C93.6536 392.528 93.0696 392.096 92.5736 391.536C92.0936 390.96 91.7176 390.28 91.4456 389.496C91.1896 388.696 91.0616 387.8 91.0616 386.808C91.0616 385.832 91.1896 384.944 91.4456 384.144C91.7176 383.344 92.0936 382.664 92.5736 382.104C93.0696 381.528 93.6536 381.088 94.3256 380.784C95.0136 380.48 95.7816 380.328 96.6296 380.328C97.4616 380.328 98.2056 380.48 98.8616 380.784C99.5176 381.088 100.078 381.512 100.542 382.056C101.006 382.584 101.358 383.216 101.598 383.952C101.854 384.688 101.982 385.496 101.982 386.376V387.288H93.0776V387.864C93.0776 388.392 93.1576 388.888 93.3176 389.352C93.4936 389.8 93.7336 390.192 94.0376 390.528C94.3576 390.864 94.7416 391.128 95.1896 391.32C95.6536 391.512 96.1736 391.608 96.7496 391.608C97.5336 391.608 98.2136 391.424 98.7896 391.056C99.3816 390.688 99.8376 390.16 100.158 389.472L101.526 390.456C101.126 391.304 100.502 391.992 99.6536 392.52C98.8056 393.032 97.7976 393.288 96.6296 393.288ZM96.6296 381.936C96.1016 381.936 95.6216 382.032 95.1896 382.224C94.7576 382.4 94.3816 382.656 94.0616 382.992C93.7576 383.328 93.5176 383.728 93.3416 384.192C93.1656 384.64 93.0776 385.136 93.0776 385.68V385.848H99.9176V385.584C99.9176 384.48 99.6136 383.6 99.0056 382.944C98.4136 382.272 97.6216 381.936 96.6296 381.936ZM113.553 393C112.881 393 112.369 392.816 112.017 392.448C111.681 392.064 111.513 391.568 111.513 390.96V382.296H109.473V380.616H110.625C111.041 380.616 111.321 380.536 111.465 380.376C111.625 380.2 111.705 379.904 111.705 379.488V377.184H113.433V380.616H116.145V382.296H113.433V391.32H115.953V393H113.553ZM123.818 393.288C122.986 393.288 122.226 393.136 121.538 392.832C120.85 392.528 120.258 392.096 119.762 391.536C119.282 390.96 118.906 390.28 118.634 389.496C118.362 388.696 118.226 387.8 118.226 386.808C118.226 385.832 118.362 384.944 118.634 384.144C118.906 383.344 119.282 382.664 119.762 382.104C120.258 381.528 120.85 381.088 121.538 380.784C122.226 380.48 122.986 380.328 123.818 380.328C124.65 380.328 125.402 380.48 126.074 380.784C126.762 381.088 127.354 381.528 127.85 382.104C128.346 382.664 128.73 383.344 129.002 384.144C129.274 384.944 129.41 385.832 129.41 386.808C129.41 387.8 129.274 388.696 129.002 389.496C128.73 390.28 128.346 390.96 127.85 391.536C127.354 392.096 126.762 392.528 126.074 392.832C125.402 393.136 124.65 393.288 123.818 393.288ZM123.818 391.584C124.858 391.584 125.706 391.264 126.362 390.624C127.018 389.984 127.346 389.008 127.346 387.696V385.92C127.346 384.608 127.018 383.632 126.362 382.992C125.706 382.352 124.858 382.032 123.818 382.032C122.778 382.032 121.93 382.352 121.274 382.992C120.618 383.632 120.29 384.608 120.29 385.92V387.696C120.29 389.008 120.618 389.984 121.274 390.624C121.93 391.264 122.778 391.584 123.818 391.584ZM140.975 393C140.303 393 139.791 392.816 139.439 392.448C139.103 392.064 138.935 391.568 138.935 390.96V382.296H136.895V380.616H138.047C138.463 380.616 138.743 380.536 138.887 380.376C139.047 380.2 139.127 379.904 139.127 379.488V377.184H140.855V380.616H143.567V382.296H140.855V391.32H143.375V393H140.975ZM155.653 393C154.933 393 154.413 392.808 154.093 392.424C153.789 392.04 153.597 391.56 153.517 390.984H153.397C153.125 391.752 152.677 392.328 152.053 392.712C151.429 393.096 150.685 393.288 149.821 393.288C148.509 393.288 147.485 392.952 146.749 392.28C146.029 391.608 145.669 390.696 145.669 389.544C145.669 388.376 146.093 387.48 146.941 386.856C147.805 386.232 149.141 385.92 150.949 385.92H153.397V384.696C153.397 383.816 153.157 383.144 152.677 382.68C152.197 382.216 151.461 381.984 150.469 381.984C149.717 381.984 149.085 382.152 148.573 382.488C148.077 382.824 147.661 383.272 147.325 383.832L146.173 382.752C146.509 382.08 147.045 381.512 147.781 381.048C148.517 380.568 149.445 380.328 150.565 380.328C152.069 380.328 153.237 380.696 154.069 381.432C154.901 382.168 155.317 383.192 155.317 384.504V391.32H156.733V393H155.653ZM150.133 391.656C150.613 391.656 151.053 391.6 151.453 391.488C151.853 391.376 152.197 391.216 152.485 391.008C152.773 390.8 152.997 390.56 153.157 390.288C153.317 390.016 153.397 389.72 153.397 389.4V387.36H150.853C149.749 387.36 148.941 387.52 148.429 387.84C147.933 388.16 147.685 388.624 147.685 389.232V389.736C147.685 390.344 147.901 390.816 148.333 391.152C148.781 391.488 149.381 391.656 150.133 391.656ZM161.514 393C160.842 393 160.33 392.816 159.978 392.448C159.642 392.064 159.474 391.584 159.474 391.008V375.24H161.394V391.32H163.218V393H161.514ZM166.013 375.24H167.933V386.496H168.029L169.925 384.384L173.429 380.616H175.757L171.173 385.512L176.213 393H173.885L169.781 386.688L167.933 388.584V393H166.013V375.24ZM183.045 380.616H184.917L186.237 385.968L187.557 391.392H187.605L189.117 385.968L190.677 380.616H192.381L193.989 385.968L195.525 391.392H195.573L196.845 385.968L198.189 380.616H199.989L196.701 393H194.325L192.597 387.048L191.517 383.28H191.469L190.413 387.048L188.685 393H186.357L183.045 380.616ZM203.723 377.712C203.307 377.712 203.003 377.616 202.811 377.424C202.635 377.216 202.547 376.952 202.547 376.632V376.32C202.547 376 202.635 375.744 202.811 375.552C203.003 375.344 203.307 375.24 203.723 375.24C204.139 375.24 204.435 375.344 204.611 375.552C204.803 375.744 204.899 376 204.899 376.32V376.632C204.899 376.952 204.803 377.216 204.611 377.424C204.435 377.616 204.139 377.712 203.723 377.712ZM202.763 380.616H204.683V393H202.763V380.616ZM211.499 393C210.827 393 210.315 392.816 209.963 392.448C209.627 392.064 209.459 391.568 209.459 390.96V382.296H207.419V380.616H208.571C208.987 380.616 209.267 380.536 209.411 380.376C209.571 380.2 209.651 379.904 209.651 379.488V377.184H211.379V380.616H214.091V382.296H211.379V391.32H213.899V393H211.499ZM217.177 375.24H219.097V382.632H219.193C219.497 381.928 219.921 381.368 220.465 380.952C221.025 380.536 221.769 380.328 222.697 380.328C223.977 380.328 224.985 380.744 225.721 381.576C226.473 382.392 226.849 383.552 226.849 385.056V393H224.929V385.392C224.929 383.168 223.993 382.056 222.121 382.056C221.737 382.056 221.361 382.104 220.993 382.2C220.641 382.296 220.321 382.44 220.033 382.632C219.745 382.824 219.513 383.072 219.337 383.376C219.177 383.664 219.097 384.008 219.097 384.408V393H217.177V375.24ZM244.121 380.616H246.017L240.473 395.88C240.329 396.248 240.185 396.552 240.041 396.792C239.897 397.048 239.721 397.248 239.513 397.392C239.305 397.536 239.041 397.64 238.721 397.704C238.417 397.768 238.041 397.8 237.593 397.8H236.609V396.12H238.553L239.489 393.48L234.857 380.616H236.777L239.753 389.04L240.329 391.056H240.449L241.121 389.04L244.121 380.616ZM253.029 393.288C252.197 393.288 251.437 393.136 250.749 392.832C250.061 392.528 249.469 392.096 248.973 391.536C248.493 390.96 248.117 390.28 247.845 389.496C247.573 388.696 247.437 387.8 247.437 386.808C247.437 385.832 247.573 384.944 247.845 384.144C248.117 383.344 248.493 382.664 248.973 382.104C249.469 381.528 250.061 381.088 250.749 380.784C251.437 380.48 252.197 380.328 253.029 380.328C253.861 380.328 254.613 380.48 255.285 380.784C255.973 381.088 256.565 381.528 257.061 382.104C257.557 382.664 257.941 383.344 258.213 384.144C258.485 384.944 258.621 385.832 258.621 386.808C258.621 387.8 258.485 388.696 258.213 389.496C257.941 390.28 257.557 390.96 257.061 391.536C256.565 392.096 255.973 392.528 255.285 392.832C254.613 393.136 253.861 393.288 253.029 393.288ZM253.029 391.584C254.069 391.584 254.917 391.264 255.573 390.624C256.229 389.984 256.557 389.008 256.557 387.696V385.92C256.557 384.608 256.229 383.632 255.573 382.992C254.917 382.352 254.069 382.032 253.029 382.032C251.989 382.032 251.141 382.352 250.485 382.992C249.829 383.632 249.501 384.608 249.501 385.92V387.696C249.501 389.008 249.829 389.984 250.485 390.624C251.141 391.264 251.989 391.584 253.029 391.584ZM269.41 390.984H269.314C269.186 391.272 269.026 391.56 268.834 391.848C268.658 392.12 268.434 392.368 268.162 392.592C267.89 392.8 267.562 392.968 267.178 393.096C266.794 393.224 266.346 393.288 265.834 393.288C264.554 393.288 263.538 392.88 262.786 392.064C262.034 391.232 261.658 390.064 261.658 388.56V380.616H263.578V388.224C263.578 390.448 264.522 391.56 266.41 391.56C266.794 391.56 267.162 391.512 267.514 391.416C267.882 391.32 268.202 391.176 268.474 390.984C268.762 390.792 268.986 390.552 269.146 390.264C269.322 389.96 269.41 389.6 269.41 389.184V380.616H271.33V393H269.41V390.984ZM276.643 393.288C276.131 393.288 275.755 393.16 275.515 392.904C275.291 392.648 275.179 392.312 275.179 391.896V391.584C275.179 391.168 275.291 390.832 275.515 390.576C275.755 390.32 276.131 390.192 276.643 390.192C277.155 390.192 277.523 390.32 277.747 390.576C277.987 390.832 278.107 391.168 278.107 391.584V391.896C278.107 392.312 277.987 392.648 277.747 392.904C277.523 393.16 277.155 393.288 276.643 393.288Z" fill="#454545"/>
</svg>
