<svg width="214" height="45" viewBox="0 0 214 45" fill="none" xmlns="http://www.w3.org/2000/svg">
<path d="M0 38.8457V12.3878H6.53875V16.3261H6.80383C7.21619 15.0871 7.92308 14.0398 8.92451 13.1843C9.92594 12.2993 11.2955 11.8568 13.0333 11.8568C14.6238 11.8568 15.9787 12.2551 17.0979 13.0516C18.2172 13.8481 19.0272 15.0133 19.5279 16.5473H19.6604C19.8666 15.8983 20.1759 15.2936 20.5882 14.7331C21.03 14.1431 21.5602 13.6416 22.1787 13.2286C22.7973 12.8156 23.4894 12.4911 24.2552 12.2551C25.021 11.9896 25.8457 11.8568 26.7293 11.8568C28.9678 11.8568 30.6762 12.6533 31.8543 14.2463C33.0619 15.8393 33.6657 18.1108 33.6657 21.0608V31.548L27.127 29.1143V21.5918C27.127 18.6418 26.0666 17.1668 23.946 17.1668C22.974 17.1668 22.0904 17.4471 21.2951 18.0076C20.4999 18.5681 20.1022 19.4236 20.1022 20.5741V35.1765L13.5635 31.5923V21.5918C13.5635 18.6418 12.5031 17.1668 10.3825 17.1668C9.91121 17.1668 9.43995 17.2406 8.96869 17.3881C8.52688 17.5061 8.11453 17.7126 7.73163 18.0076C7.37818 18.3026 7.08364 18.6713 6.84801 19.1138C6.64184 19.5268 6.53875 20.0136 6.53875 20.5741V44.469L0 38.8457Z" fill="#F6F6F6"/>
<path d="M47.5488 36.15C45.7816 36.15 44.2058 35.8698 42.8215 35.3093C41.4372 34.7193 40.259 33.908 39.287 32.8755C38.3445 31.8135 37.6229 30.5303 37.1222 29.0258C36.6509 27.5213 36.4153 25.8398 36.4153 23.9813C36.4153 22.1523 36.6509 20.5003 37.1222 19.0253C37.5935 17.5208 38.2856 16.2376 39.1987 15.1756C40.1412 14.1136 41.2899 13.3023 42.6448 12.7418C43.9997 12.1518 45.546 11.8568 47.2838 11.8568C49.1983 11.8568 50.8329 12.1813 52.1878 12.8303C53.5722 13.4793 54.6914 14.3496 55.5456 15.4411C56.4292 16.5326 57.0624 17.8011 57.4453 19.2466C57.8577 20.6626 58.0639 22.1523 58.0639 23.7158V25.6628H43.1749V26.0168C43.1749 27.5508 43.5873 28.775 44.412 29.6895C45.2367 30.5745 46.5327 31.017 48.2999 31.017C49.6548 31.017 50.7593 30.7515 51.6135 30.2205C52.4676 29.66 53.2629 28.9963 53.9992 28.2293L57.2686 32.3003C56.2377 33.5098 54.8828 34.4538 53.204 35.1323C51.5546 35.8108 49.6695 36.15 47.5488 36.15ZM47.4163 16.6801C46.0909 16.6801 45.0453 17.1226 44.2795 18.0076C43.5431 18.8631 43.1749 20.0136 43.1749 21.4591V21.8131H51.3042V21.4148C51.3042 19.9988 50.9802 18.8631 50.3322 18.0076C49.7137 17.1226 48.7417 16.6801 47.4163 16.6801Z" fill="#F6F6F6"/>
<path d="M69.3523 35.619C67.0843 35.619 65.3613 35.0438 64.1831 33.8933C63.0344 32.7428 62.4601 31.0613 62.4601 28.8488V17.4766H59.1907V12.3878H60.8254C61.709 12.3878 62.3128 12.1813 62.6368 11.7683C62.9608 11.3259 63.1228 10.7064 63.1228 9.90986V6.10437H68.9988V12.3878H73.5936V17.4766H68.9988V30.5303H73.2402V35.619H69.3523Z" fill="#F6F6F6"/>
<path d="M93.5276 35.619C92.3494 35.619 91.3627 35.2503 90.5675 34.5128C89.8017 33.7753 89.3157 32.787 89.1095 31.548H88.8444C88.491 33.0525 87.7104 34.203 86.5028 34.9995C85.2952 35.7665 83.8078 36.15 82.0406 36.15C79.7137 36.15 77.9318 35.5305 76.6947 34.2915C75.4576 33.0525 74.8391 31.4153 74.8391 29.3798C74.8391 26.9313 75.7227 25.117 77.49 23.9371C79.2866 22.7276 81.7166 22.1228 84.7798 22.1228H88.4468V20.6626C88.4468 19.5416 88.1522 18.6566 87.5632 18.0076C86.9741 17.3291 85.9874 16.9898 84.6031 16.9898C83.3071 16.9898 82.2762 17.2701 81.5104 17.8306C80.7446 18.3911 80.1114 19.0253 79.6106 19.7333L75.7227 16.2818C76.6653 14.8953 77.8434 13.8186 79.2572 13.0516C80.7004 12.2551 82.6444 11.8568 85.089 11.8568C88.3879 11.8568 90.862 12.5796 92.5114 14.0251C94.1608 15.4706 94.9855 17.5798 94.9855 20.3528V30.5303H97.1504V35.619H93.5276ZM84.4705 31.5923C85.5603 31.5923 86.4881 31.3563 87.2539 30.8843C88.0492 30.4123 88.4468 29.6453 88.4468 28.5833V25.8398H85.2658C82.7033 25.8398 81.422 26.71 81.422 28.4505V29.1143C81.422 29.9698 81.6871 30.604 82.2173 31.017C82.7475 31.4005 83.4985 31.5923 84.4705 31.5923Z" fill="#F6F6F6"/>
<path d="M99.4968 38.8457V12.3879H106.036V16.3261H106.301C106.713 15.0871 107.42 14.0398 108.421 13.1844C109.423 12.2994 110.792 11.8569 112.53 11.8569C114.121 11.8569 115.476 12.2551 116.595 13.0516C117.714 13.8481 118.524 15.0133 119.025 16.5473H119.157C119.363 15.8983 119.673 15.2936 120.085 14.7331C120.527 14.1431 121.057 13.6416 121.676 13.2286C122.294 12.8156 122.986 12.4911 123.752 12.2551C124.518 11.9896 125.343 11.8569 126.226 11.8569C128.465 11.8569 130.173 12.6534 131.351 14.2463C132.559 15.8393 133.163 18.1108 133.163 21.0608V31.5923L126.624 29.0258V21.5918C126.624 18.6418 125.563 17.1668 123.443 17.1668C122.471 17.1668 121.587 17.4471 120.792 18.0076C119.997 18.5681 119.599 19.4236 119.599 20.5741V35.619L113.06 31.5923V21.5918C113.06 18.6418 112 17.1668 109.879 17.1668C109.408 17.1668 108.937 17.2406 108.465 17.3881C108.024 17.5061 107.611 17.7126 107.228 18.0076C106.875 18.3026 106.58 18.6713 106.345 19.1138C106.139 19.5268 106.036 20.0136 106.036 20.5741V44.469L99.4968 38.8457Z" fill="#F6F6F6"/>
<path d="M153.929 35.619C152.751 35.619 151.764 35.2503 150.969 34.5128C150.203 33.7753 149.717 32.787 149.511 31.548H149.246C148.892 33.0525 148.112 34.203 146.904 34.9995C145.696 35.7665 144.209 36.15 142.442 36.15C140.115 36.15 138.333 35.5305 137.096 34.2915C135.859 33.0525 135.24 31.4153 135.24 29.3798C135.24 26.9313 136.124 25.1171 137.891 23.9371C139.688 22.7276 142.118 22.1228 145.181 22.1228H148.848V20.6626C148.848 19.5416 148.553 18.6566 147.964 18.0076C147.375 17.3291 146.389 16.9899 145.004 16.9899C143.708 16.9899 142.677 17.2701 141.912 17.8306C141.146 18.3911 140.512 19.0253 140.012 19.7333L136.124 16.2819C137.066 14.8954 138.245 13.8186 139.658 13.0516C141.102 12.2551 143.046 11.8569 145.49 11.8569C148.789 11.8569 151.263 12.5796 152.913 14.0251C154.562 15.4706 155.387 17.5798 155.387 20.3528V30.5303H157.552V35.619H153.929ZM144.872 31.5923C145.961 31.5923 146.889 31.3563 147.655 30.8843C148.45 30.4123 148.848 29.6453 148.848 28.5833V25.8398H145.667C143.104 25.8398 141.823 26.7101 141.823 28.4506V29.1143C141.823 29.9698 142.088 30.6041 142.618 31.017C143.149 31.4005 143.9 31.5923 144.872 31.5923Z" fill="#F6F6F6"/>
<path d="M182.245 37.3005C182.245 38.5395 182.024 39.631 181.582 40.575C181.17 41.519 180.478 42.3155 179.506 42.9645C178.534 43.643 177.238 44.1445 175.618 44.469C174.027 44.823 172.054 45 169.698 45C167.695 45 165.987 44.8672 164.573 44.6017C163.188 44.3657 162.055 44.0118 161.171 43.5398C160.317 43.0973 159.683 42.5368 159.271 41.8583C158.888 41.2093 158.697 40.457 158.697 39.6015C158.697 38.3035 159.08 37.2858 159.845 36.5483C160.611 35.8108 161.672 35.3535 163.026 35.1765V34.6898C161.907 34.4833 161.068 34.0113 160.508 33.2738C159.949 32.5068 159.669 31.6218 159.669 30.6188C159.669 29.9993 159.787 29.4683 160.022 29.0258C160.287 28.5538 160.611 28.1556 160.994 27.8311C161.407 27.4771 161.878 27.1968 162.408 26.9903C162.938 26.7838 163.468 26.6216 163.998 26.5036V26.3266C162.585 25.6776 161.539 24.7926 160.862 23.6716C160.184 22.5211 159.845 21.1936 159.845 19.6891C159.845 17.3291 160.655 15.4411 162.275 14.0251C163.925 12.5796 166.428 11.8569 169.786 11.8569C171.318 11.8569 172.628 12.0044 173.718 12.2994V11.4144C173.718 10.1754 174.013 9.29039 174.602 8.75939C175.22 8.19889 176.089 7.91864 177.208 7.91864H180.875V12.7861H175.751V13.0516C177.105 13.7006 178.107 14.6004 178.755 15.7509C179.403 16.8719 179.727 18.1846 179.727 19.6891C179.727 22.0196 178.902 23.8928 177.253 25.3088C175.633 26.6953 173.144 27.3886 169.786 27.3886C168.284 27.3886 166.914 27.2263 165.677 26.9018C165 27.3443 164.661 27.9638 164.661 28.7603C164.661 29.3208 164.867 29.7633 165.28 30.0878C165.721 30.3828 166.443 30.5303 167.445 30.5303H174.16C176.988 30.5303 179.035 31.1203 180.301 32.3003C181.597 33.4803 182.245 35.147 182.245 37.3005ZM176.104 38.1855C176.104 37.507 175.839 36.9908 175.309 36.6368C174.779 36.2828 173.851 36.1058 172.525 36.1058H164.573C164.278 36.4008 164.057 36.7253 163.91 37.0793C163.792 37.4628 163.733 37.8315 163.733 38.1855C163.733 39.041 164.102 39.6605 164.838 40.044C165.574 40.457 166.826 40.6635 168.593 40.6635H171.244C173.011 40.6635 174.263 40.457 174.999 40.044C175.736 39.6605 176.104 39.041 176.104 38.1855ZM169.786 23.0963C171.082 23.0963 172.039 22.8308 172.658 22.2998C173.306 21.7393 173.63 20.9428 173.63 19.9103V19.3793C173.63 18.3468 173.306 17.5651 172.658 17.0341C172.039 16.4736 171.082 16.1934 169.786 16.1934C168.49 16.1934 167.518 16.4736 166.87 17.0341C166.252 17.5651 165.942 18.3468 165.942 19.3793V19.9103C165.942 20.9428 166.252 21.7393 166.87 22.2998C167.518 22.8308 168.49 23.0963 169.786 23.0963Z" fill="#F6F6F6"/>
<path d="M183.983 16.9899H190.522V35.619H183.983V16.9899Z" fill="#F6F6F6"/>
<path d="M204.59 36.15C202.852 36.15 201.305 35.8698 199.951 35.3093C198.596 34.7193 197.462 33.908 196.549 32.8755C195.636 31.8135 194.943 30.5303 194.472 29.0258C194.001 27.5213 193.765 25.8398 193.765 23.9813C193.765 22.1228 194.001 20.4561 194.472 18.9811C194.943 17.4766 195.636 16.1934 196.549 15.1314C197.462 14.0694 198.596 13.2581 199.951 12.6976C201.305 12.1371 202.852 11.8569 204.59 11.8569C206.946 11.8569 208.904 12.3879 210.466 13.4499C212.056 14.5119 213.19 16.0016 213.867 17.9191L208.566 20.2201C208.36 19.3351 207.933 18.5828 207.285 17.9633C206.637 17.3439 205.738 17.0341 204.59 17.0341C203.264 17.0341 202.263 17.4766 201.585 18.3616C200.908 19.2171 200.569 20.3823 200.569 21.8573V26.1938C200.569 27.6688 200.908 28.8341 201.585 29.6896C202.263 30.545 203.264 30.9728 204.59 30.9728C205.768 30.9728 206.695 30.6631 207.373 30.0436C208.08 29.3946 208.595 28.5538 208.919 27.5213L214 29.7338C213.234 31.9463 212.041 33.5688 210.421 34.6013C208.831 35.6338 206.887 36.15 204.59 36.15Z" fill="#F6F6F6"/>
<path d="M187.45 0L189.383 5.65351H195.636L190.577 9.14756L192.509 14.8011L187.45 11.307L182.392 14.8011L184.324 9.14756L179.265 5.65351H185.518L187.45 0Z" fill="#FD9242"/>
</svg>
