<svg width="1200" height="522" viewBox="0 0 1200 522" fill="none" xmlns="http://www.w3.org/2000/svg">
<rect width="1200" height="522" rx="4" fill="white"/>
<path d="M413.48 84.36C415.08 84.36 416.253 84.04 417 83.4C417.773 82.7333 418.16 81.8933 418.16 80.88V80.6C418.16 79.4533 417.787 78.56 417.04 77.92C416.32 77.2533 415.32 76.92 414.04 76.92C412.813 76.92 411.72 77.2133 410.76 77.8C409.827 78.3867 409.013 79.2133 408.32 80.28L404.96 77.24C405.44 76.6 405.96 76 406.52 75.44C407.107 74.8533 407.773 74.36 408.52 73.96C409.267 73.5333 410.107 73.2 411.04 72.96C411.973 72.72 413.027 72.6 414.2 72.6C415.613 72.6 416.893 72.7733 418.04 73.12C419.213 73.44 420.213 73.92 421.04 74.56C421.893 75.2 422.547 75.9733 423 76.88C423.453 77.76 423.68 78.76 423.68 79.88C423.68 80.7867 423.533 81.6 423.24 82.32C422.973 83.04 422.587 83.6667 422.08 84.2C421.6 84.7333 421.027 85.1733 420.36 85.52C419.72 85.84 419.04 86.08 418.32 86.24V86.48C419.12 86.64 419.88 86.8933 420.6 87.24C421.32 87.5867 421.933 88.0533 422.44 88.64C422.973 89.2 423.387 89.8667 423.68 90.64C424 91.4133 424.16 92.2933 424.16 93.28C424.16 94.5067 423.907 95.6267 423.4 96.64C422.92 97.6533 422.227 98.52 421.32 99.24C420.413 99.96 419.333 100.52 418.08 100.92C416.827 101.293 415.427 101.48 413.88 101.48C412.52 101.48 411.32 101.333 410.28 101.04C409.24 100.773 408.32 100.4 407.52 99.92C406.747 99.44 406.067 98.8933 405.48 98.28C404.893 97.64 404.387 96.9733 403.96 96.28L407.84 93.32C408.16 93.88 408.507 94.4 408.88 94.88C409.253 95.3333 409.68 95.7333 410.16 96.08C410.64 96.4267 411.187 96.6933 411.8 96.88C412.413 97.0667 413.107 97.16 413.88 97.16C415.427 97.16 416.613 96.7867 417.44 96.04C418.267 95.2933 418.68 94.2667 418.68 92.96V92.68C418.68 91.4 418.227 90.4267 417.32 89.76C416.44 89.0933 415.16 88.76 413.48 88.76H410.72V84.36H413.48ZM446.238 101.48C444.238 101.48 442.558 101.147 441.198 100.48C439.838 99.7867 438.638 98.84 437.598 97.64L440.718 94.6C441.491 95.48 442.331 96.1733 443.238 96.68C444.171 97.1867 445.238 97.44 446.438 97.44C447.664 97.44 448.544 97.2267 449.078 96.8C449.638 96.3733 449.918 95.7867 449.918 95.04C449.918 94.4267 449.718 93.9467 449.318 93.6C448.944 93.2267 448.291 92.9733 447.358 92.84L445.278 92.56C443.011 92.2667 441.278 91.6267 440.078 90.64C438.904 89.6267 438.318 88.16 438.318 86.24C438.318 85.2267 438.504 84.32 438.878 83.52C439.251 82.6933 439.784 82 440.478 81.44C441.171 80.8533 441.998 80.4133 442.958 80.12C443.944 79.8 445.038 79.64 446.238 79.64C447.251 79.64 448.144 79.72 448.918 79.88C449.718 80.0133 450.438 80.2267 451.078 80.52C451.718 80.7867 452.304 81.1333 452.838 81.56C453.371 81.96 453.891 82.4133 454.398 82.92L451.398 85.92C450.784 85.28 450.051 84.7467 449.198 84.32C448.344 83.8933 447.411 83.68 446.398 83.68C445.278 83.68 444.464 83.88 443.958 84.28C443.478 84.68 443.238 85.2 443.238 85.84C443.238 86.5333 443.438 87.0667 443.838 87.44C444.264 87.7867 444.971 88.04 445.958 88.2L448.078 88.48C452.584 89.12 454.838 91.1733 454.838 94.64C454.838 95.6533 454.624 96.5867 454.198 97.44C453.798 98.2667 453.224 98.9867 452.478 99.6C451.731 100.187 450.824 100.653 449.758 101C448.718 101.32 447.544 101.48 446.238 101.48ZM465.566 101C463.806 101 462.459 100.547 461.526 99.64C460.619 98.7067 460.166 97.3867 460.166 95.68V84.2H457.086V80.12H458.686C459.459 80.12 459.979 79.9467 460.246 79.6C460.539 79.2267 460.686 78.68 460.686 77.96V74.4H465.286V80.12H469.566V84.2H465.286V96.92H469.246V101H465.566ZM482.291 101.48C480.744 101.48 479.357 101.227 478.131 100.72C476.931 100.187 475.904 99.4533 475.051 98.52C474.224 97.56 473.584 96.4133 473.131 95.08C472.677 93.72 472.451 92.2 472.451 90.52C472.451 88.8667 472.664 87.3733 473.091 86.04C473.544 84.7067 474.184 83.5733 475.011 82.64C475.837 81.68 476.851 80.9467 478.051 80.44C479.251 79.9067 480.611 79.64 482.131 79.64C483.757 79.64 485.171 79.92 486.371 80.48C487.571 81.04 488.557 81.8 489.331 82.76C490.104 83.72 490.677 84.84 491.051 86.12C491.451 87.3733 491.651 88.72 491.651 90.16V91.84H477.771V92.36C477.771 93.88 478.197 95.1067 479.051 96.04C479.904 96.9467 481.171 97.4 482.851 97.4C484.131 97.4 485.171 97.1333 485.971 96.6C486.797 96.0667 487.531 95.3867 488.171 94.56L490.931 97.64C490.077 98.84 488.904 99.7867 487.411 100.48C485.944 101.147 484.237 101.48 482.291 101.48ZM482.211 83.48C480.851 83.48 479.771 83.9333 478.971 84.84C478.171 85.7467 477.771 86.92 477.771 88.36V88.68H486.331V88.32C486.331 86.88 485.971 85.72 485.251 84.84C484.557 83.9333 483.544 83.48 482.211 83.48ZM496.155 80.12H501.275V83.56H501.435C501.809 82.36 502.515 81.4133 503.555 80.72C504.595 80 505.809 79.64 507.195 79.64C509.862 79.64 511.889 80.5867 513.275 82.48C514.689 84.3467 515.395 87.0267 515.395 90.52C515.395 94.04 514.689 96.7467 513.275 98.64C511.889 100.533 509.862 101.48 507.195 101.48C505.809 101.48 504.595 101.12 503.555 100.4C502.542 99.68 501.835 98.72 501.435 97.52H501.275V109H496.155V80.12ZM505.555 97.24C506.889 97.24 507.969 96.8 508.795 95.92C509.622 95.04 510.035 93.8533 510.035 92.36V88.76C510.035 87.2667 509.622 86.08 508.795 85.2C507.969 84.2933 506.889 83.84 505.555 83.84C504.329 83.84 503.302 84.1467 502.475 84.76C501.675 85.3733 501.275 86.1867 501.275 87.2V93.84C501.275 94.9333 501.675 95.7733 502.475 96.36C503.302 96.9467 504.329 97.24 505.555 97.24ZM526.98 101.48C524.98 101.48 523.3 101.147 521.94 100.48C520.58 99.7867 519.38 98.84 518.34 97.64L521.46 94.6C522.233 95.48 523.073 96.1733 523.98 96.68C524.913 97.1867 525.98 97.44 527.18 97.44C528.406 97.44 529.286 97.2267 529.82 96.8C530.38 96.3733 530.66 95.7867 530.66 95.04C530.66 94.4267 530.46 93.9467 530.06 93.6C529.686 93.2267 529.033 92.9733 528.1 92.84L526.02 92.56C523.753 92.2667 522.02 91.6267 520.82 90.64C519.646 89.6267 519.06 88.16 519.06 86.24C519.06 85.2267 519.246 84.32 519.62 83.52C519.993 82.6933 520.526 82 521.22 81.44C521.913 80.8533 522.74 80.4133 523.7 80.12C524.686 79.8 525.78 79.64 526.98 79.64C527.993 79.64 528.886 79.72 529.66 79.88C530.46 80.0133 531.18 80.2267 531.82 80.52C532.46 80.7867 533.046 81.1333 533.58 81.56C534.113 81.96 534.633 82.4133 535.14 82.92L532.14 85.92C531.526 85.28 530.793 84.7467 529.94 84.32C529.086 83.8933 528.153 83.68 527.14 83.68C526.02 83.68 525.206 83.88 524.7 84.28C524.22 84.68 523.98 85.2 523.98 85.84C523.98 86.5333 524.18 87.0667 524.58 87.44C525.006 87.7867 525.713 88.04 526.7 88.2L528.82 88.48C533.326 89.12 535.58 91.1733 535.58 94.64C535.58 95.6533 535.366 96.5867 534.94 97.44C534.54 98.2667 533.966 98.9867 533.22 99.6C532.473 100.187 531.566 100.653 530.5 101C529.46 101.32 528.286 101.48 526.98 101.48ZM556.074 101C554.314 101 552.967 100.547 552.034 99.64C551.127 98.7067 550.674 97.3867 550.674 95.68V84.2H547.594V80.12H549.194C549.967 80.12 550.487 79.9467 550.754 79.6C551.047 79.2267 551.194 78.68 551.194 77.96V74.4H555.794V80.12H560.074V84.2H555.794V96.92H559.754V101H556.074ZM572.638 101.48C571.145 101.48 569.798 101.227 568.598 100.72C567.425 100.213 566.412 99.48 565.558 98.52C564.732 97.56 564.092 96.4133 563.638 95.08C563.185 93.72 562.958 92.2 562.958 90.52C562.958 88.84 563.185 87.3333 563.638 86C564.092 84.6667 564.732 83.5333 565.558 82.6C566.412 81.64 567.425 80.9067 568.598 80.4C569.798 79.8933 571.145 79.64 572.638 79.64C574.132 79.64 575.478 79.8933 576.678 80.4C577.878 80.9067 578.892 81.64 579.718 82.6C580.572 83.5333 581.225 84.6667 581.678 86C582.132 87.3333 582.358 88.84 582.358 90.52C582.358 92.2 582.132 93.72 581.678 95.08C581.225 96.4133 580.572 97.56 579.718 98.52C578.892 99.48 577.878 100.213 576.678 100.72C575.478 101.227 574.132 101.48 572.638 101.48ZM572.638 97.36C573.998 97.36 575.065 96.9467 575.838 96.12C576.612 95.2933 576.998 94.08 576.998 92.48V88.6C576.998 87.0267 576.612 85.8267 575.838 85C575.065 84.1733 573.998 83.76 572.638 83.76C571.305 83.76 570.252 84.1733 569.478 85C568.705 85.8267 568.318 87.0267 568.318 88.6V92.48C568.318 94.08 568.705 95.2933 569.478 96.12C570.252 96.9467 571.305 97.36 572.638 97.36ZM615.191 102.76C615.191 103.853 614.991 104.813 614.591 105.64C614.217 106.493 613.591 107.2 612.711 107.76C611.831 108.32 610.697 108.747 609.311 109.04C607.924 109.333 606.231 109.48 604.231 109.48C602.471 109.48 600.977 109.36 599.751 109.12C598.524 108.907 597.511 108.587 596.711 108.16C595.937 107.76 595.377 107.253 595.031 106.64C594.684 106.027 594.511 105.333 594.511 104.56C594.511 103.387 594.831 102.467 595.471 101.8C596.137 101.16 597.057 100.747 598.231 100.56V100.12C597.377 99.9067 596.711 99.4933 596.231 98.88C595.777 98.24 595.551 97.4933 595.551 96.64C595.551 96.1067 595.657 95.64 595.871 95.24C596.084 94.8133 596.364 94.4533 596.711 94.16C597.084 93.8667 597.497 93.6267 597.951 93.44C598.404 93.2267 598.884 93.0667 599.391 92.96V92.8C598.111 92.2133 597.151 91.4 596.511 90.36C595.897 89.32 595.591 88.1067 595.591 86.72C595.591 84.5867 596.324 82.88 597.791 81.6C599.257 80.2933 601.404 79.64 604.231 79.64C604.871 79.64 605.497 79.68 606.111 79.76C606.751 79.84 607.337 79.9733 607.871 80.16V79.48C607.871 77.4533 608.857 76.44 610.831 76.44H614.071V80.36H609.631V80.92C610.724 81.5333 611.537 82.3333 612.071 83.32C612.604 84.3067 612.871 85.44 612.871 86.72C612.871 88.8267 612.137 90.52 610.671 91.8C609.231 93.08 607.084 93.72 604.231 93.72C603.004 93.72 601.937 93.6 601.031 93.36C600.631 93.5467 600.284 93.8 599.991 94.12C599.697 94.4133 599.551 94.7867 599.551 95.24C599.551 96.28 600.457 96.8 602.271 96.8H607.871C610.431 96.8 612.284 97.3333 613.431 98.4C614.604 99.44 615.191 100.893 615.191 102.76ZM610.391 103.36C610.391 102.693 610.124 102.173 609.591 101.8C609.057 101.427 608.137 101.24 606.831 101.24H599.711C598.991 101.773 598.631 102.493 598.631 103.4C598.631 104.2 598.964 104.827 599.631 105.28C600.297 105.733 601.431 105.96 603.031 105.96H605.591C607.271 105.96 608.484 105.747 609.231 105.32C610.004 104.893 610.391 104.24 610.391 103.36ZM604.231 90.24C606.737 90.24 607.991 89.1733 607.991 87.04V86.36C607.991 84.2267 606.737 83.16 604.231 83.16C601.724 83.16 600.471 84.2267 600.471 86.36V87.04C600.471 89.1733 601.724 90.24 604.231 90.24ZM626.353 101.48C624.806 101.48 623.42 101.227 622.193 100.72C620.993 100.187 619.966 99.4533 619.113 98.52C618.286 97.56 617.646 96.4133 617.193 95.08C616.74 93.72 616.513 92.2 616.513 90.52C616.513 88.8667 616.726 87.3733 617.153 86.04C617.606 84.7067 618.246 83.5733 619.073 82.64C619.9 81.68 620.913 80.9467 622.113 80.44C623.313 79.9067 624.673 79.64 626.193 79.64C627.82 79.64 629.233 79.92 630.433 80.48C631.633 81.04 632.62 81.8 633.393 82.76C634.166 83.72 634.74 84.84 635.113 86.12C635.513 87.3733 635.713 88.72 635.713 90.16V91.84H621.833V92.36C621.833 93.88 622.26 95.1067 623.113 96.04C623.966 96.9467 625.233 97.4 626.913 97.4C628.193 97.4 629.233 97.1333 630.033 96.6C630.86 96.0667 631.593 95.3867 632.233 94.56L634.993 97.64C634.14 98.84 632.966 99.7867 631.473 100.48C630.006 101.147 628.3 101.48 626.353 101.48ZM626.273 83.48C624.913 83.48 623.833 83.9333 623.033 84.84C622.233 85.7467 621.833 86.92 621.833 88.36V88.68H630.393V88.32C630.393 86.88 630.033 85.72 629.313 84.84C628.62 83.9333 627.606 83.48 626.273 83.48ZM646.738 101C644.978 101 643.631 100.547 642.698 99.64C641.791 98.7067 641.338 97.3867 641.338 95.68V84.2H638.258V80.12H639.858C640.631 80.12 641.151 79.9467 641.418 79.6C641.711 79.2267 641.858 78.68 641.858 77.96V74.4H646.458V80.12H650.738V84.2H646.458V96.92H650.418V101H646.738ZM671.472 101.48C669.472 101.48 667.792 101.147 666.432 100.48C665.072 99.7867 663.872 98.84 662.832 97.64L665.952 94.6C666.725 95.48 667.565 96.1733 668.472 96.68C669.405 97.1867 670.472 97.44 671.672 97.44C672.899 97.44 673.779 97.2267 674.312 96.8C674.872 96.3733 675.152 95.7867 675.152 95.04C675.152 94.4267 674.952 93.9467 674.552 93.6C674.179 93.2267 673.525 92.9733 672.592 92.84L670.512 92.56C668.245 92.2667 666.512 91.6267 665.312 90.64C664.139 89.6267 663.552 88.16 663.552 86.24C663.552 85.2267 663.739 84.32 664.112 83.52C664.485 82.6933 665.019 82 665.712 81.44C666.405 80.8533 667.232 80.4133 668.192 80.12C669.179 79.8 670.272 79.64 671.472 79.64C672.485 79.64 673.379 79.72 674.152 79.88C674.952 80.0133 675.672 80.2267 676.312 80.52C676.952 80.7867 677.539 81.1333 678.072 81.56C678.605 81.96 679.125 82.4133 679.632 82.92L676.632 85.92C676.019 85.28 675.285 84.7467 674.432 84.32C673.579 83.8933 672.645 83.68 671.632 83.68C670.512 83.68 669.699 83.88 669.192 84.28C668.712 84.68 668.472 85.2 668.472 85.84C668.472 86.5333 668.672 87.0667 669.072 87.44C669.499 87.7867 670.205 88.04 671.192 88.2L673.312 88.48C677.819 89.12 680.072 91.1733 680.072 94.64C680.072 95.6533 679.859 96.5867 679.432 97.44C679.032 98.2667 678.459 98.9867 677.712 99.6C676.965 100.187 676.059 100.653 674.992 101C673.952 101.32 672.779 101.48 671.472 101.48ZM690.8 101C689.04 101 687.694 100.547 686.76 99.64C685.854 98.7067 685.4 97.3867 685.4 95.68V84.2H682.32V80.12H683.92C684.694 80.12 685.214 79.9467 685.48 79.6C685.774 79.2267 685.92 78.68 685.92 77.96V74.4H690.52V80.12H694.8V84.2H690.52V96.92H694.48V101H690.8ZM714.601 101C713.481 101 712.588 100.68 711.921 100.04C711.281 99.3733 710.881 98.4933 710.721 97.4H710.481C710.135 98.76 709.428 99.7867 708.361 100.48C707.295 101.147 705.975 101.48 704.401 101.48C702.268 101.48 700.628 100.92 699.481 99.8C698.335 98.68 697.761 97.1867 697.761 95.32C697.761 93.16 698.535 91.56 700.081 90.52C701.628 89.4533 703.828 88.92 706.681 88.92H710.241V87.4C710.241 86.2267 709.935 85.32 709.321 84.68C708.708 84.04 707.721 83.72 706.361 83.72C705.161 83.72 704.188 83.9867 703.441 84.52C702.721 85.0267 702.108 85.64 701.601 86.36L698.561 83.64C699.335 82.44 700.361 81.48 701.641 80.76C702.921 80.0133 704.615 79.64 706.721 79.64C709.548 79.64 711.695 80.28 713.161 81.56C714.628 82.84 715.361 84.68 715.361 87.08V96.92H717.441V101H714.601ZM706.121 97.76C707.268 97.76 708.241 97.5067 709.041 97C709.841 96.4933 710.241 95.7467 710.241 94.76V92H706.961C704.295 92 702.961 92.8533 702.961 94.56V95.24C702.961 96.0933 703.228 96.7333 703.761 97.16C704.321 97.56 705.108 97.76 706.121 97.76ZM721.585 101V80.12H726.705V84.44H726.905C727.038 83.88 727.238 83.3467 727.505 82.84C727.798 82.3067 728.172 81.84 728.625 81.44C729.078 81.04 729.612 80.72 730.225 80.48C730.865 80.24 731.598 80.12 732.425 80.12H733.545V84.96H731.945C730.212 84.96 728.905 85.2133 728.025 85.72C727.145 86.2267 726.705 87.0533 726.705 88.2V101H721.585ZM743.964 101C742.204 101 740.858 100.547 739.924 99.64C739.018 98.7067 738.564 97.3867 738.564 95.68V84.2H735.484V80.12H737.084C737.858 80.12 738.378 79.9467 738.644 79.6C738.938 79.2267 739.084 78.68 739.084 77.96V74.4H743.684V80.12H747.964V84.2H743.684V96.92H747.644V101H743.964ZM760.689 101.48C759.142 101.48 757.756 101.227 756.529 100.72C755.329 100.187 754.302 99.4533 753.449 98.52C752.622 97.56 751.982 96.4133 751.529 95.08C751.076 93.72 750.849 92.2 750.849 90.52C750.849 88.8667 751.062 87.3733 751.489 86.04C751.942 84.7067 752.582 83.5733 753.409 82.64C754.236 81.68 755.249 80.9467 756.449 80.44C757.649 79.9067 759.009 79.64 760.529 79.64C762.156 79.64 763.569 79.92 764.769 80.48C765.969 81.04 766.956 81.8 767.729 82.76C768.502 83.72 769.076 84.84 769.449 86.12C769.849 87.3733 770.049 88.72 770.049 90.16V91.84H756.169V92.36C756.169 93.88 756.596 95.1067 757.449 96.04C758.302 96.9467 759.569 97.4 761.249 97.4C762.529 97.4 763.569 97.1333 764.369 96.6C765.196 96.0667 765.929 95.3867 766.569 94.56L769.329 97.64C768.476 98.84 767.302 99.7867 765.809 100.48C764.342 101.147 762.636 101.48 760.689 101.48ZM760.609 83.48C759.249 83.48 758.169 83.9333 757.369 84.84C756.569 85.7467 756.169 86.92 756.169 88.36V88.68H764.729V88.32C764.729 86.88 764.369 85.72 763.649 84.84C762.956 83.9333 761.942 83.48 760.609 83.48ZM787.514 97.52H787.314C786.94 98.72 786.234 99.68 785.194 100.4C784.154 101.12 782.94 101.48 781.554 101.48C778.914 101.48 776.887 100.533 775.474 98.64C774.087 96.7467 773.394 94.04 773.394 90.52C773.394 87.0267 774.087 84.3467 775.474 82.48C776.887 80.5867 778.914 79.64 781.554 79.64C782.94 79.64 784.154 80 785.194 80.72C786.234 81.4133 786.94 82.36 787.314 83.56H787.514V71.4H792.634V101H787.514V97.52ZM783.194 97.24C784.42 97.24 785.447 96.9467 786.274 96.36C787.1 95.7733 787.514 94.9333 787.514 93.84V87.2C787.514 86.1867 787.1 85.3733 786.274 84.76C785.447 84.1467 784.42 83.84 783.194 83.84C781.86 83.84 780.78 84.2933 779.954 85.2C779.154 86.08 778.754 87.2667 778.754 88.76V92.36C778.754 93.8533 779.154 95.04 779.954 95.92C780.78 96.8 781.86 97.24 783.194 97.24Z" fill="#196DDC"/>
<circle cx="324" cy="219.5" r="39.5" fill="#D1E2F8" stroke="#8CB6EE" stroke-width="8"/>
<path d="M361.082 233.109C363.229 227.257 363.962 220.979 363.218 214.789C362.475 208.6 360.277 202.674 356.804 197.497C353.332 192.32 348.683 188.038 343.238 185.002C337.794 181.965 331.708 180.261 325.478 180.028" stroke="#196DDC" stroke-width="8" stroke-linecap="round"/>
<path d="M318.612 229V227.224H323.292V213.736H323.124L318.9 217.672L317.724 216.4L322.164 212.248H325.308V227.224H329.628V229H318.612Z" fill="#454545"/>
<path d="M273.768 319.384C271.891 319.384 270.291 319.043 268.968 318.36C267.667 317.677 266.547 316.76 265.608 315.608L268.104 313.272C268.893 314.232 269.757 314.957 270.696 315.448C271.656 315.939 272.744 316.184 273.96 316.184C275.389 316.184 276.467 315.864 277.192 315.224C277.917 314.584 278.28 313.72 278.28 312.632C278.28 311.757 278.024 311.064 277.512 310.552C277 310.04 276.093 309.656 274.792 309.4L272.808 309.048C270.632 308.643 269 307.928 267.912 306.904C266.824 305.88 266.28 304.472 266.28 302.68C266.28 301.699 266.461 300.813 266.824 300.024C267.208 299.213 267.731 298.541 268.392 298.008C269.075 297.453 269.896 297.027 270.856 296.728C271.816 296.429 272.893 296.28 274.088 296.28C275.773 296.28 277.235 296.579 278.472 297.176C279.709 297.752 280.765 298.595 281.64 299.704L279.112 301.944C278.536 301.197 277.832 300.6 277 300.152C276.168 299.704 275.133 299.48 273.896 299.48C272.616 299.48 271.624 299.736 270.92 300.248C270.216 300.76 269.864 301.507 269.864 302.488C269.864 303.427 270.152 304.131 270.728 304.6C271.304 305.048 272.2 305.389 273.416 305.624L275.4 306.04C277.64 306.467 279.272 307.192 280.296 308.216C281.341 309.24 281.864 310.648 281.864 312.44C281.864 313.485 281.683 314.435 281.32 315.288C280.957 316.141 280.424 316.877 279.72 317.496C279.037 318.093 278.195 318.563 277.192 318.904C276.189 319.224 275.048 319.384 273.768 319.384ZM287.709 299.384C286.984 299.384 286.45 299.213 286.109 298.872C285.789 298.531 285.629 298.093 285.629 297.56V297.016C285.629 296.483 285.789 296.045 286.109 295.704C286.45 295.363 286.984 295.192 287.709 295.192C288.434 295.192 288.957 295.363 289.277 295.704C289.597 296.045 289.757 296.483 289.757 297.016V297.56C289.757 298.093 289.597 298.531 289.277 298.872C288.957 299.213 288.434 299.384 287.709 299.384ZM285.949 302.36H289.437V319H285.949V302.36ZM309.01 320.568C309.01 322.296 308.349 323.597 307.026 324.472C305.703 325.347 303.549 325.784 300.562 325.784C299.197 325.784 298.034 325.688 297.074 325.496C296.135 325.325 295.357 325.069 294.738 324.728C294.141 324.387 293.703 323.971 293.426 323.48C293.149 322.989 293.01 322.424 293.01 321.784C293.01 320.867 293.255 320.152 293.746 319.64C294.258 319.128 294.962 318.776 295.858 318.584V318.232C294.599 317.827 293.97 316.973 293.97 315.672C293.97 314.819 294.258 314.168 294.834 313.72C295.41 313.251 296.103 312.92 296.914 312.728V312.6C295.933 312.131 295.175 311.48 294.642 310.648C294.13 309.795 293.874 308.803 293.874 307.672C293.874 305.965 294.439 304.589 295.57 303.544C296.722 302.499 298.365 301.976 300.498 301.976C301.671 301.976 302.674 302.147 303.506 302.488V302.04C303.506 301.293 303.677 300.717 304.018 300.312C304.381 299.885 304.935 299.672 305.682 299.672H308.242V302.488H304.85V303.16C305.597 303.651 306.173 304.291 306.578 305.08C306.983 305.848 307.186 306.712 307.186 307.672C307.186 309.357 306.61 310.723 305.458 311.768C304.306 312.792 302.663 313.304 300.53 313.304C299.719 313.304 298.994 313.219 298.354 313.048C297.927 313.197 297.554 313.411 297.234 313.688C296.914 313.944 296.754 314.285 296.754 314.712C296.754 315.16 296.957 315.48 297.362 315.672C297.767 315.864 298.343 315.96 299.09 315.96H303.186C305.234 315.96 306.717 316.376 307.634 317.208C308.551 318.019 309.01 319.139 309.01 320.568ZM305.746 320.952C305.746 320.376 305.522 319.917 305.074 319.576C304.647 319.235 303.858 319.064 302.706 319.064H297.074C296.306 319.512 295.922 320.152 295.922 320.984C295.922 321.667 296.189 322.211 296.722 322.616C297.277 323.043 298.205 323.256 299.506 323.256H301.682C304.391 323.256 305.746 322.488 305.746 320.952ZM300.53 310.776C301.554 310.776 302.343 310.552 302.898 310.104C303.474 309.635 303.762 308.92 303.762 307.96V307.32C303.762 306.36 303.474 305.656 302.898 305.208C302.343 304.739 301.554 304.504 300.53 304.504C299.506 304.504 298.706 304.739 298.13 305.208C297.575 305.656 297.298 306.36 297.298 307.32V307.96C297.298 308.92 297.575 309.635 298.13 310.104C298.706 310.552 299.506 310.776 300.53 310.776ZM311.605 319V302.36H315.093V305.112H315.253C315.616 304.216 316.16 303.469 316.885 302.872C317.632 302.275 318.645 301.976 319.925 301.976C321.632 301.976 322.955 302.541 323.893 303.672C324.853 304.781 325.333 306.371 325.333 308.44V319H321.845V308.888C321.845 306.285 320.8 304.984 318.709 304.984C318.261 304.984 317.813 305.048 317.365 305.176C316.939 305.283 316.555 305.453 316.213 305.688C315.872 305.923 315.595 306.221 315.381 306.584C315.189 306.947 315.093 307.373 315.093 307.864V319H311.605ZM341.41 296.664V310.424C341.41 312.323 341.773 313.752 342.498 314.712C343.224 315.672 344.461 316.152 346.21 316.152C347.96 316.152 349.197 315.672 349.922 314.712C350.648 313.752 351.01 312.323 351.01 310.424V296.664H354.562V309.848C354.562 311.491 354.413 312.909 354.114 314.104C353.816 315.299 353.336 316.291 352.674 317.08C352.013 317.848 351.149 318.424 350.082 318.808C349.037 319.192 347.746 319.384 346.21 319.384C344.674 319.384 343.373 319.192 342.306 318.808C341.261 318.424 340.408 317.848 339.746 317.08C339.085 316.291 338.605 315.299 338.306 314.104C338.008 312.909 337.858 311.491 337.858 309.848V296.664H341.41ZM359.668 302.36H363.156V305.112H363.316C363.679 304.109 364.265 303.341 365.076 302.808C365.908 302.253 366.879 301.976 367.988 301.976C370.1 301.976 371.732 302.744 372.884 304.28C374.036 305.795 374.612 307.928 374.612 310.68C374.612 313.432 374.036 315.576 372.884 317.112C371.732 318.627 370.1 319.384 367.988 319.384C366.879 319.384 365.908 319.107 365.076 318.552C364.265 317.997 363.679 317.229 363.316 316.248H363.156V325.4H359.668V302.36ZM366.932 316.376C368.148 316.376 369.119 315.992 369.844 315.224C370.569 314.435 370.932 313.4 370.932 312.12V309.24C370.932 307.96 370.569 306.936 369.844 306.168C369.119 305.379 368.148 304.984 366.932 304.984C365.865 304.984 364.969 305.251 364.244 305.784C363.519 306.296 363.156 306.979 363.156 307.832V313.528C363.156 314.381 363.519 315.075 364.244 315.608C364.969 316.12 365.865 316.376 366.932 316.376Z" fill="#082449"/>
<path d="M261.432 340.38H259.852V338.6H261.432V336.88C261.432 336.04 261.652 335.387 262.092 334.92C262.532 334.44 263.192 334.2 264.072 334.2H265.792V335.98H263.612V338.6H265.792V340.38H263.612V349H261.432V340.38ZM271.691 349.24C270.971 349.24 270.311 349.113 269.711 348.86C269.124 348.607 268.624 348.247 268.211 347.78C267.797 347.3 267.477 346.727 267.251 346.06C267.024 345.38 266.911 344.627 266.911 343.8C266.911 342.973 267.024 342.227 267.251 341.56C267.477 340.88 267.797 340.307 268.211 339.84C268.624 339.36 269.124 338.993 269.711 338.74C270.311 338.487 270.971 338.36 271.691 338.36C272.411 338.36 273.064 338.487 273.651 338.74C274.251 338.993 274.757 339.36 275.171 339.84C275.584 340.307 275.904 340.88 276.131 341.56C276.357 342.227 276.471 342.973 276.471 343.8C276.471 344.627 276.357 345.38 276.131 346.06C275.904 346.727 275.584 347.3 275.171 347.78C274.757 348.247 274.251 348.607 273.651 348.86C273.064 349.113 272.411 349.24 271.691 349.24ZM271.691 347.44C272.437 347.44 273.037 347.213 273.491 346.76C273.944 346.293 274.171 345.6 274.171 344.68V342.92C274.171 342 273.944 341.313 273.491 340.86C273.037 340.393 272.437 340.16 271.691 340.16C270.944 340.16 270.344 340.393 269.891 340.86C269.437 341.313 269.211 342 269.211 342.92V344.68C269.211 345.6 269.437 346.293 269.891 346.76C270.344 347.213 270.944 347.44 271.691 347.44ZM278.9 349V338.6H281.08V340.6H281.18C281.327 340.067 281.633 339.6 282.1 339.2C282.567 338.8 283.213 338.6 284.04 338.6H284.62V340.7H283.76C282.893 340.7 282.227 340.84 281.76 341.12C281.307 341.4 281.08 341.813 281.08 342.36V349H278.9ZM291.823 340.38H290.243V338.6H291.823V336.88C291.823 336.04 292.043 335.387 292.483 334.92C292.923 334.44 293.583 334.2 294.463 334.2H296.183V335.98H294.003V338.6H296.183V340.38H294.003V349H291.823V340.38ZM298.08 349V338.6H300.26V340.6H300.36C300.506 340.067 300.813 339.6 301.28 339.2C301.746 338.8 302.393 338.6 303.22 338.6H303.8V340.7H302.94C302.073 340.7 301.406 340.84 300.94 341.12C300.486 341.4 300.26 341.813 300.26 342.36V349H298.08ZM309.718 349.24C308.971 349.24 308.305 349.113 307.718 348.86C307.131 348.607 306.631 348.247 306.218 347.78C305.805 347.3 305.485 346.727 305.258 346.06C305.045 345.38 304.938 344.627 304.938 343.8C304.938 342.973 305.045 342.227 305.258 341.56C305.485 340.88 305.805 340.307 306.218 339.84C306.631 339.36 307.131 338.993 307.718 338.74C308.305 338.487 308.971 338.36 309.718 338.36C310.478 338.36 311.145 338.493 311.718 338.76C312.305 339.027 312.791 339.4 313.178 339.88C313.565 340.347 313.851 340.893 314.038 341.52C314.238 342.147 314.338 342.82 314.338 343.54V344.36H307.198V344.7C307.198 345.5 307.431 346.16 307.898 346.68C308.378 347.187 309.058 347.44 309.938 347.44C310.578 347.44 311.118 347.3 311.558 347.02C311.998 346.74 312.371 346.36 312.678 345.88L313.958 347.14C313.571 347.78 313.011 348.293 312.278 348.68C311.545 349.053 310.691 349.24 309.718 349.24ZM309.718 340.06C309.345 340.06 308.998 340.127 308.678 340.26C308.371 340.393 308.105 340.58 307.878 340.82C307.665 341.06 307.498 341.347 307.378 341.68C307.258 342.013 307.198 342.38 307.198 342.78V342.92H312.038V342.72C312.038 341.92 311.831 341.28 311.418 340.8C311.005 340.307 310.438 340.06 309.718 340.06ZM320.831 349.24C320.085 349.24 319.418 349.113 318.831 348.86C318.245 348.607 317.745 348.247 317.331 347.78C316.918 347.3 316.598 346.727 316.371 346.06C316.158 345.38 316.051 344.627 316.051 343.8C316.051 342.973 316.158 342.227 316.371 341.56C316.598 340.88 316.918 340.307 317.331 339.84C317.745 339.36 318.245 338.993 318.831 338.74C319.418 338.487 320.085 338.36 320.831 338.36C321.591 338.36 322.258 338.493 322.831 338.76C323.418 339.027 323.905 339.4 324.291 339.88C324.678 340.347 324.965 340.893 325.151 341.52C325.351 342.147 325.451 342.82 325.451 343.54V344.36H318.311V344.7C318.311 345.5 318.545 346.16 319.011 346.68C319.491 347.187 320.171 347.44 321.051 347.44C321.691 347.44 322.231 347.3 322.671 347.02C323.111 346.74 323.485 346.36 323.791 345.88L325.071 347.14C324.685 347.78 324.125 348.293 323.391 348.68C322.658 349.053 321.805 349.24 320.831 349.24ZM320.831 340.06C320.458 340.06 320.111 340.127 319.791 340.26C319.485 340.393 319.218 340.58 318.991 340.82C318.778 341.06 318.611 341.347 318.491 341.68C318.371 342.013 318.311 342.38 318.311 342.78V342.92H323.151V342.72C323.151 341.92 322.945 341.28 322.531 340.8C322.118 340.307 321.551 340.06 320.831 340.06ZM336.671 349.24C335.951 349.24 335.291 349.113 334.691 348.86C334.105 348.607 333.605 348.247 333.191 347.78C332.778 347.3 332.458 346.727 332.231 346.06C332.005 345.38 331.891 344.627 331.891 343.8C331.891 342.973 332.005 342.227 332.231 341.56C332.458 340.88 332.778 340.307 333.191 339.84C333.605 339.36 334.105 338.993 334.691 338.74C335.291 338.487 335.951 338.36 336.671 338.36C337.391 338.36 338.045 338.487 338.631 338.74C339.231 338.993 339.738 339.36 340.151 339.84C340.565 340.307 340.885 340.88 341.111 341.56C341.338 342.227 341.451 342.973 341.451 343.8C341.451 344.627 341.338 345.38 341.111 346.06C340.885 346.727 340.565 347.3 340.151 347.78C339.738 348.247 339.231 348.607 338.631 348.86C338.045 349.113 337.391 349.24 336.671 349.24ZM336.671 347.44C337.418 347.44 338.018 347.213 338.471 346.76C338.925 346.293 339.151 345.6 339.151 344.68V342.92C339.151 342 338.925 341.313 338.471 340.86C338.018 340.393 337.418 340.16 336.671 340.16C335.925 340.16 335.325 340.393 334.871 340.86C334.418 341.313 334.191 342 334.191 342.92V344.68C334.191 345.6 334.418 346.293 334.871 346.76C335.325 347.213 335.925 347.44 336.671 347.44ZM343.88 349V338.6H346.06V340.32H346.16C346.387 339.76 346.727 339.293 347.18 338.92C347.647 338.547 348.28 338.36 349.08 338.36C350.147 338.36 350.974 338.713 351.56 339.42C352.16 340.113 352.46 341.107 352.46 342.4V349H350.28V342.68C350.28 341.053 349.627 340.24 348.32 340.24C348.04 340.24 347.76 340.28 347.48 340.36C347.214 340.427 346.974 340.533 346.76 340.68C346.547 340.827 346.374 341.013 346.24 341.24C346.12 341.467 346.06 341.733 346.06 342.04V349H343.88ZM363.088 349C362.328 349 361.755 348.807 361.368 348.42C360.982 348.02 360.788 347.46 360.788 346.74V340.38H359.168V338.6H360.048C360.408 338.6 360.655 338.52 360.788 338.36C360.935 338.2 361.008 337.94 361.008 337.58V335.76H362.968V338.6H365.148V340.38H362.968V347.22H364.988V349H363.088ZM367.513 334.2H369.693V340.32H369.793C370.02 339.76 370.36 339.293 370.813 338.92C371.28 338.547 371.913 338.36 372.713 338.36C373.78 338.36 374.606 338.713 375.193 339.42C375.793 340.113 376.093 341.107 376.093 342.4V349H373.913V342.66C373.913 341.047 373.26 340.24 371.953 340.24C371.673 340.24 371.393 340.28 371.113 340.36C370.846 340.427 370.606 340.533 370.393 340.68C370.18 340.827 370.006 341.013 369.873 341.24C369.753 341.467 369.693 341.727 369.693 342.02V349H367.513V334.2ZM383.195 349.24C382.448 349.24 381.781 349.113 381.195 348.86C380.608 348.607 380.108 348.247 379.695 347.78C379.281 347.3 378.961 346.727 378.735 346.06C378.521 345.38 378.415 344.627 378.415 343.8C378.415 342.973 378.521 342.227 378.735 341.56C378.961 340.88 379.281 340.307 379.695 339.84C380.108 339.36 380.608 338.993 381.195 338.74C381.781 338.487 382.448 338.36 383.195 338.36C383.955 338.36 384.621 338.493 385.195 338.76C385.781 339.027 386.268 339.4 386.655 339.88C387.041 340.347 387.328 340.893 387.515 341.52C387.715 342.147 387.815 342.82 387.815 343.54V344.36H380.675V344.7C380.675 345.5 380.908 346.16 381.375 346.68C381.855 347.187 382.535 347.44 383.415 347.44C384.055 347.44 384.595 347.3 385.035 347.02C385.475 346.74 385.848 346.36 386.155 345.88L387.435 347.14C387.048 347.78 386.488 348.293 385.755 348.68C385.021 349.053 384.168 349.24 383.195 349.24ZM383.195 340.06C382.821 340.06 382.475 340.127 382.155 340.26C381.848 340.393 381.581 340.58 381.355 340.82C381.141 341.06 380.975 341.347 380.855 341.68C380.735 342.013 380.675 342.38 380.675 342.78V342.92H385.515V342.72C385.515 341.92 385.308 341.28 384.895 340.8C384.481 340.307 383.915 340.06 383.195 340.06ZM285.643 368.6H287.763L288.823 372.96L289.763 376.9H289.823L290.903 372.96L292.163 368.6H294.123L295.403 372.96L296.503 376.9H296.563L297.483 372.96L298.563 368.6H300.583L297.783 379H295.323L293.963 374.26L293.123 371.34H293.083L292.263 374.26L290.883 379H288.483L285.643 368.6ZM306.603 379.24C305.856 379.24 305.19 379.113 304.603 378.86C304.016 378.607 303.516 378.247 303.103 377.78C302.69 377.3 302.37 376.727 302.143 376.06C301.93 375.38 301.823 374.627 301.823 373.8C301.823 372.973 301.93 372.227 302.143 371.56C302.37 370.88 302.69 370.307 303.103 369.84C303.516 369.36 304.016 368.993 304.603 368.74C305.19 368.487 305.856 368.36 306.603 368.36C307.363 368.36 308.03 368.493 308.603 368.76C309.19 369.027 309.676 369.4 310.063 369.88C310.45 370.347 310.736 370.893 310.923 371.52C311.123 372.147 311.223 372.82 311.223 373.54V374.36H304.083V374.7C304.083 375.5 304.316 376.16 304.783 376.68C305.263 377.187 305.943 377.44 306.823 377.44C307.463 377.44 308.003 377.3 308.443 377.02C308.883 376.74 309.256 376.36 309.563 375.88L310.843 377.14C310.456 377.78 309.896 378.293 309.163 378.68C308.43 379.053 307.576 379.24 306.603 379.24ZM306.603 370.06C306.23 370.06 305.883 370.127 305.563 370.26C305.256 370.393 304.99 370.58 304.763 370.82C304.55 371.06 304.383 371.347 304.263 371.68C304.143 372.013 304.083 372.38 304.083 372.78V372.92H308.923V372.72C308.923 371.92 308.716 371.28 308.303 370.8C307.89 370.307 307.323 370.06 306.603 370.06ZM313.636 364.2H315.816V370.32H315.916C316.143 369.693 316.51 369.213 317.016 368.88C317.536 368.533 318.143 368.36 318.836 368.36C320.156 368.36 321.176 368.84 321.896 369.8C322.616 370.747 322.976 372.08 322.976 373.8C322.976 375.52 322.616 376.86 321.896 377.82C321.176 378.767 320.156 379.24 318.836 379.24C318.143 379.24 317.536 379.067 317.016 378.72C316.51 378.373 316.143 377.893 315.916 377.28H315.816V379H313.636V364.2ZM318.176 377.36C318.936 377.36 319.543 377.12 319.996 376.64C320.45 376.147 320.676 375.5 320.676 374.7V372.9C320.676 372.1 320.45 371.46 319.996 370.98C319.543 370.487 318.936 370.24 318.176 370.24C317.51 370.24 316.95 370.407 316.496 370.74C316.043 371.06 315.816 371.487 315.816 372.02V375.58C315.816 376.113 316.043 376.547 316.496 376.88C316.95 377.2 317.51 377.36 318.176 377.36ZM328.772 379.24C327.785 379.24 326.959 379.067 326.292 378.72C325.625 378.373 325.045 377.893 324.552 377.28L325.952 376C326.339 376.467 326.765 376.833 327.232 377.1C327.712 377.353 328.265 377.48 328.892 377.48C329.532 377.48 330.005 377.36 330.312 377.12C330.632 376.867 330.792 376.52 330.792 376.08C330.792 375.747 330.679 375.467 330.452 375.24C330.239 375 329.859 374.847 329.312 374.78L328.352 374.66C327.285 374.527 326.445 374.22 325.832 373.74C325.232 373.247 324.932 372.52 324.932 371.56C324.932 371.053 325.025 370.607 325.212 370.22C325.399 369.82 325.659 369.487 325.992 369.22C326.339 368.94 326.745 368.727 327.212 368.58C327.692 368.433 328.219 368.36 328.792 368.36C329.725 368.36 330.485 368.507 331.072 368.8C331.672 369.093 332.205 369.5 332.672 370.02L331.332 371.3C331.065 370.98 330.712 370.707 330.272 370.48C329.845 370.24 329.352 370.12 328.792 370.12C328.192 370.12 327.745 370.24 327.452 370.48C327.172 370.72 327.032 371.033 327.032 371.42C327.032 371.82 327.159 372.12 327.412 372.32C327.665 372.52 328.072 372.667 328.632 372.76L329.592 372.88C330.739 373.053 331.572 373.393 332.092 373.9C332.625 374.393 332.892 375.06 332.892 375.9C332.892 376.407 332.792 376.867 332.592 377.28C332.405 377.68 332.132 378.027 331.772 378.32C331.412 378.613 330.979 378.84 330.472 379C329.965 379.16 329.399 379.24 328.772 379.24ZM336.455 366.74C336.002 366.74 335.668 366.633 335.455 366.42C335.255 366.207 335.155 365.933 335.155 365.6V365.26C335.155 364.927 335.255 364.653 335.455 364.44C335.668 364.227 336.002 364.12 336.455 364.12C336.908 364.12 337.235 364.227 337.435 364.44C337.635 364.653 337.735 364.927 337.735 365.26V365.6C337.735 365.933 337.635 366.207 337.435 366.42C337.235 366.633 336.908 366.74 336.455 366.74ZM335.355 368.6H337.535V379H335.355V368.6ZM343.528 379C342.768 379 342.195 378.807 341.808 378.42C341.421 378.02 341.228 377.46 341.228 376.74V370.38H339.608V368.6H340.488C340.848 368.6 341.095 368.52 341.228 368.36C341.375 368.2 341.448 367.94 341.448 367.58V365.76H343.408V368.6H345.588V370.38H343.408V377.22H345.428V379H343.528ZM351.954 379.24C351.208 379.24 350.541 379.113 349.954 378.86C349.368 378.607 348.868 378.247 348.454 377.78C348.041 377.3 347.721 376.727 347.494 376.06C347.281 375.38 347.174 374.627 347.174 373.8C347.174 372.973 347.281 372.227 347.494 371.56C347.721 370.88 348.041 370.307 348.454 369.84C348.868 369.36 349.368 368.993 349.954 368.74C350.541 368.487 351.208 368.36 351.954 368.36C352.714 368.36 353.381 368.493 353.954 368.76C354.541 369.027 355.028 369.4 355.414 369.88C355.801 370.347 356.088 370.893 356.274 371.52C356.474 372.147 356.574 372.82 356.574 373.54V374.36H349.434V374.7C349.434 375.5 349.668 376.16 350.134 376.68C350.614 377.187 351.294 377.44 352.174 377.44C352.814 377.44 353.354 377.3 353.794 377.02C354.234 376.74 354.608 376.36 354.914 375.88L356.194 377.14C355.808 377.78 355.248 378.293 354.514 378.68C353.781 379.053 352.928 379.24 351.954 379.24ZM351.954 370.06C351.581 370.06 351.234 370.127 350.914 370.26C350.608 370.393 350.341 370.58 350.114 370.82C349.901 371.06 349.734 371.347 349.614 371.68C349.494 372.013 349.434 372.38 349.434 372.78V372.92H354.274V372.72C354.274 371.92 354.068 371.28 353.654 370.8C353.241 370.307 352.674 370.06 351.954 370.06ZM359.976 379.24C359.483 379.24 359.116 379.113 358.876 378.86C358.636 378.593 358.516 378.267 358.516 377.88V377.58C358.516 377.193 358.636 376.873 358.876 376.62C359.116 376.353 359.483 376.22 359.976 376.22C360.47 376.22 360.836 376.353 361.076 376.62C361.316 376.873 361.436 377.193 361.436 377.58V377.88C361.436 378.267 361.316 378.593 361.076 378.86C360.836 379.113 360.47 379.24 359.976 379.24Z" fill="#8B8B8B"/>
<circle cx="593.5" cy="219.5" r="39.5" fill="#D1E2F8" stroke="#8CB6EE" stroke-width="8"/>
<path d="M571.687 252.431C576.768 255.797 582.561 257.941 588.609 258.696C594.658 259.451 600.8 258.795 606.553 256.781C612.306 254.766 617.516 251.448 621.772 247.085C626.029 242.722 629.219 237.432 631.091 231.631C632.963 225.83 633.467 219.674 632.564 213.646C631.66 207.617 629.374 201.88 625.883 196.882C622.393 191.885 617.793 187.763 612.444 184.839C607.095 181.916 601.142 180.27 595.051 180.03" stroke="#196DDC" stroke-width="8" stroke-linecap="round"/>
<path d="M598.792 229H587.8V226.936L593.272 221.896C594.056 221.176 594.712 220.416 595.24 219.616C595.768 218.8 596.032 217.984 596.032 217.168V216.88C596.032 215.952 595.776 215.2 595.264 214.624C594.752 214.048 593.976 213.76 592.936 213.76C592.424 213.76 591.976 213.832 591.592 213.976C591.208 214.12 590.872 214.32 590.584 214.576C590.312 214.832 590.08 215.136 589.888 215.488C589.712 215.824 589.568 216.192 589.456 216.592L587.656 215.896C587.816 215.4 588.032 214.92 588.304 214.456C588.592 213.976 588.944 213.552 589.36 213.184C589.792 212.816 590.304 212.52 590.896 212.296C591.504 212.072 592.216 211.96 593.032 211.96C593.848 211.96 594.576 212.08 595.216 212.32C595.856 212.56 596.392 212.896 596.824 213.328C597.256 213.76 597.584 214.272 597.808 214.864C598.048 215.456 598.168 216.112 598.168 216.832C598.168 217.488 598.072 218.096 597.88 218.656C597.704 219.216 597.456 219.752 597.136 220.264C596.816 220.76 596.424 221.248 595.96 221.728C595.512 222.208 595.024 222.688 594.496 223.168L589.984 227.224H598.792V229Z" fill="#454545"/>
<path d="M547.395 296.664V310.424C547.395 312.323 547.757 313.752 548.483 314.712C549.208 315.672 550.445 316.152 552.195 316.152C553.944 316.152 555.181 315.672 555.907 314.712C556.632 313.752 556.995 312.323 556.995 310.424V296.664H560.547V309.848C560.547 311.491 560.397 312.909 560.099 314.104C559.8 315.299 559.32 316.291 558.659 317.08C557.997 317.848 557.133 318.424 556.067 318.808C555.021 319.192 553.731 319.384 552.195 319.384C550.659 319.384 549.357 319.192 548.291 318.808C547.245 318.424 546.392 317.848 545.731 317.08C545.069 316.291 544.589 315.299 544.291 314.104C543.992 312.909 543.843 311.491 543.843 309.848V296.664H547.395ZM565.652 302.36H569.14V305.112H569.3C569.663 304.109 570.25 303.341 571.06 302.808C571.892 302.253 572.863 301.976 573.972 301.976C576.084 301.976 577.716 302.744 578.868 304.28C580.02 305.795 580.596 307.928 580.596 310.68C580.596 313.432 580.02 315.576 578.868 317.112C577.716 318.627 576.084 319.384 573.972 319.384C572.863 319.384 571.892 319.107 571.06 318.552C570.25 317.997 569.663 317.229 569.3 316.248H569.14V325.4H565.652V302.36ZM572.916 316.376C574.132 316.376 575.103 315.992 575.828 315.224C576.554 314.435 576.916 313.4 576.916 312.12V309.24C576.916 307.96 576.554 306.936 575.828 306.168C575.103 305.379 574.132 304.984 572.916 304.984C571.85 304.984 570.954 305.251 570.228 305.784C569.503 306.296 569.14 306.979 569.14 307.832V313.528C569.14 314.381 569.503 315.075 570.228 315.608C570.954 316.12 571.85 316.376 572.916 316.376ZM588.142 319C586.947 319 586.051 318.701 585.454 318.104C584.878 317.485 584.59 316.632 584.59 315.544V295.32H588.078V316.152H590.382V319H588.142ZM600.243 319.384C599.091 319.384 598.035 319.181 597.075 318.776C596.136 318.371 595.336 317.795 594.675 317.048C594.013 316.28 593.501 315.363 593.139 314.296C592.776 313.208 592.595 312.003 592.595 310.68C592.595 309.357 592.776 308.163 593.139 307.096C593.501 306.008 594.013 305.091 594.675 304.344C595.336 303.576 596.136 302.989 597.075 302.584C598.035 302.179 599.091 301.976 600.243 301.976C601.395 301.976 602.44 302.179 603.379 302.584C604.339 302.989 605.149 303.576 605.811 304.344C606.472 305.091 606.984 306.008 607.347 307.096C607.709 308.163 607.891 309.357 607.891 310.68C607.891 312.003 607.709 313.208 607.347 314.296C606.984 315.363 606.472 316.28 605.811 317.048C605.149 317.795 604.339 318.371 603.379 318.776C602.44 319.181 601.395 319.384 600.243 319.384ZM600.243 316.504C601.437 316.504 602.397 316.141 603.123 315.416C603.848 314.669 604.211 313.56 604.211 312.088V309.272C604.211 307.8 603.848 306.701 603.123 305.976C602.397 305.229 601.437 304.856 600.243 304.856C599.048 304.856 598.088 305.229 597.363 305.976C596.637 306.701 596.275 307.8 596.275 309.272V312.088C596.275 313.56 596.637 314.669 597.363 315.416C598.088 316.141 599.048 316.504 600.243 316.504ZM623.969 319C623.052 319 622.348 318.744 621.857 318.232C621.367 317.699 621.068 317.027 620.961 316.216H620.801C620.481 317.261 619.895 318.051 619.041 318.584C618.188 319.117 617.153 319.384 615.937 319.384C614.209 319.384 612.876 318.936 611.937 318.04C611.02 317.144 610.561 315.939 610.561 314.424C610.561 312.76 611.159 311.512 612.353 310.68C613.569 309.848 615.34 309.432 617.665 309.432H620.673V308.024C620.673 307 620.396 306.211 619.841 305.656C619.287 305.101 618.423 304.824 617.249 304.824C616.268 304.824 615.468 305.037 614.849 305.464C614.231 305.891 613.708 306.435 613.281 307.096L611.201 305.208C611.756 304.269 612.535 303.501 613.537 302.904C614.54 302.285 615.852 301.976 617.473 301.976C619.628 301.976 621.281 302.477 622.433 303.48C623.585 304.483 624.161 305.923 624.161 307.8V316.152H625.921V319H623.969ZM616.929 316.728C618.017 316.728 618.913 316.493 619.617 316.024C620.321 315.533 620.673 314.883 620.673 314.072V311.672H617.729C615.319 311.672 614.113 312.419 614.113 313.912V314.488C614.113 315.235 614.359 315.8 614.849 316.184C615.361 316.547 616.055 316.728 616.929 316.728ZM639.804 316.248H639.644C639.281 317.229 638.684 317.997 637.852 318.552C637.041 319.107 636.081 319.384 634.972 319.384C632.86 319.384 631.228 318.627 630.076 317.112C628.924 315.576 628.348 313.432 628.348 310.68C628.348 307.928 628.924 305.795 630.076 304.28C631.228 302.744 632.86 301.976 634.972 301.976C636.081 301.976 637.041 302.253 637.852 302.808C638.684 303.341 639.281 304.109 639.644 305.112H639.804V295.32H643.292V319H639.804V316.248ZM636.028 316.376C637.094 316.376 637.99 316.12 638.716 315.608C639.441 315.075 639.804 314.381 639.804 313.528V307.832C639.804 306.979 639.441 306.296 638.716 305.784C637.99 305.251 637.094 304.984 636.028 304.984C634.812 304.984 633.841 305.379 633.116 306.168C632.39 306.936 632.028 307.96 632.028 309.24V312.12C632.028 313.4 632.39 314.435 633.116 315.224C633.841 315.992 634.812 316.376 636.028 316.376Z" fill="#082449"/>
<path d="M545.063 340.38H543.483V338.6H545.063V336.88C545.063 336.04 545.283 335.387 545.723 334.92C546.163 334.44 546.823 334.2 547.703 334.2H549.423V335.98H547.243V338.6H553.423V349H551.243V340.38H547.243V349H545.063V340.38ZM552.343 336.74C551.89 336.74 551.556 336.633 551.343 336.42C551.143 336.207 551.043 335.933 551.043 335.6V335.26C551.043 334.927 551.143 334.653 551.343 334.44C551.556 334.227 551.89 334.12 552.343 334.12C552.796 334.12 553.123 334.227 553.323 334.44C553.523 334.653 553.623 334.927 553.623 335.26V335.6C553.623 335.933 553.523 336.207 553.323 336.42C553.123 336.633 552.796 336.74 552.343 336.74ZM558.755 349C558.008 349 557.448 348.813 557.075 348.44C556.715 348.053 556.535 347.52 556.535 346.84V334.2H558.715V347.22H560.155V349H558.755ZM566.318 349.24C565.571 349.24 564.904 349.113 564.318 348.86C563.731 348.607 563.231 348.247 562.818 347.78C562.404 347.3 562.084 346.727 561.858 346.06C561.644 345.38 561.538 344.627 561.538 343.8C561.538 342.973 561.644 342.227 561.858 341.56C562.084 340.88 562.404 340.307 562.818 339.84C563.231 339.36 563.731 338.993 564.318 338.74C564.904 338.487 565.571 338.36 566.318 338.36C567.078 338.36 567.744 338.493 568.318 338.76C568.904 339.027 569.391 339.4 569.778 339.88C570.164 340.347 570.451 340.893 570.638 341.52C570.838 342.147 570.938 342.82 570.938 343.54V344.36H563.798V344.7C563.798 345.5 564.031 346.16 564.498 346.68C564.978 347.187 565.658 347.44 566.538 347.44C567.178 347.44 567.718 347.3 568.158 347.02C568.598 346.74 568.971 346.36 569.278 345.88L570.558 347.14C570.171 347.78 569.611 348.293 568.878 348.68C568.144 349.053 567.291 349.24 566.318 349.24ZM566.318 340.06C565.944 340.06 565.598 340.127 565.278 340.26C564.971 340.393 564.704 340.58 564.478 340.82C564.264 341.06 564.098 341.347 563.978 341.68C563.858 342.013 563.798 342.38 563.798 342.78V342.92H568.638V342.72C568.638 341.92 568.431 341.28 568.018 340.8C567.604 340.307 567.038 340.06 566.318 340.06ZM576.651 349.24C575.664 349.24 574.838 349.067 574.171 348.72C573.504 348.373 572.924 347.893 572.431 347.28L573.831 346C574.218 346.467 574.644 346.833 575.111 347.1C575.591 347.353 576.144 347.48 576.771 347.48C577.411 347.48 577.884 347.36 578.191 347.12C578.511 346.867 578.671 346.52 578.671 346.08C578.671 345.747 578.558 345.467 578.331 345.24C578.118 345 577.738 344.847 577.191 344.78L576.231 344.66C575.164 344.527 574.324 344.22 573.711 343.74C573.111 343.247 572.811 342.52 572.811 341.56C572.811 341.053 572.904 340.607 573.091 340.22C573.278 339.82 573.538 339.487 573.871 339.22C574.218 338.94 574.624 338.727 575.091 338.58C575.571 338.433 576.098 338.36 576.671 338.36C577.604 338.36 578.364 338.507 578.951 338.8C579.551 339.093 580.084 339.5 580.551 340.02L579.211 341.3C578.944 340.98 578.591 340.707 578.151 340.48C577.724 340.24 577.231 340.12 576.671 340.12C576.071 340.12 575.624 340.24 575.331 340.48C575.051 340.72 574.911 341.033 574.911 341.42C574.911 341.82 575.038 342.12 575.291 342.32C575.544 342.52 575.951 342.667 576.511 342.76L577.471 342.88C578.618 343.053 579.451 343.393 579.971 343.9C580.504 344.393 580.771 345.06 580.771 345.9C580.771 346.407 580.671 346.867 580.471 347.28C580.284 347.68 580.011 348.027 579.651 348.32C579.291 348.613 578.858 348.84 578.351 349C577.844 349.16 577.278 349.24 576.651 349.24ZM592.04 349.24C591.32 349.24 590.66 349.113 590.06 348.86C589.474 348.607 588.974 348.247 588.56 347.78C588.147 347.3 587.827 346.727 587.6 346.06C587.374 345.38 587.26 344.627 587.26 343.8C587.26 342.973 587.374 342.227 587.6 341.56C587.827 340.88 588.147 340.307 588.56 339.84C588.974 339.36 589.474 338.993 590.06 338.74C590.66 338.487 591.32 338.36 592.04 338.36C592.76 338.36 593.414 338.487 594 338.74C594.6 338.993 595.107 339.36 595.52 339.84C595.934 340.307 596.254 340.88 596.48 341.56C596.707 342.227 596.82 342.973 596.82 343.8C596.82 344.627 596.707 345.38 596.48 346.06C596.254 346.727 595.934 347.3 595.52 347.78C595.107 348.247 594.6 348.607 594 348.86C593.414 349.113 592.76 349.24 592.04 349.24ZM592.04 347.44C592.787 347.44 593.387 347.213 593.84 346.76C594.294 346.293 594.52 345.6 594.52 344.68V342.92C594.52 342 594.294 341.313 593.84 340.86C593.387 340.393 592.787 340.16 592.04 340.16C591.294 340.16 590.694 340.393 590.24 340.86C589.787 341.313 589.56 342 589.56 342.92V344.68C589.56 345.6 589.787 346.293 590.24 346.76C590.694 347.213 591.294 347.44 592.04 347.44ZM599.249 349V338.6H601.429V340.32H601.529C601.756 339.76 602.096 339.293 602.549 338.92C603.016 338.547 603.649 338.36 604.449 338.36C605.516 338.36 606.343 338.713 606.929 339.42C607.529 340.113 607.829 341.107 607.829 342.4V349H605.649V342.68C605.649 341.053 604.996 340.24 603.689 340.24C603.409 340.24 603.129 340.28 602.849 340.36C602.583 340.427 602.343 340.533 602.129 340.68C601.916 340.827 601.743 341.013 601.609 341.24C601.489 341.467 601.429 341.733 601.429 342.04V349H599.249ZM618.458 349C617.698 349 617.124 348.807 616.738 348.42C616.351 348.02 616.158 347.46 616.158 346.74V340.38H614.538V338.6H615.418C615.778 338.6 616.024 338.52 616.158 338.36C616.304 338.2 616.378 337.94 616.378 337.58V335.76H618.338V338.6H620.518V340.38H618.338V347.22H620.358V349H618.458ZM622.882 334.2H625.062V340.32H625.162C625.389 339.76 625.729 339.293 626.182 338.92C626.649 338.547 627.282 338.36 628.082 338.36C629.149 338.36 629.976 338.713 630.562 339.42C631.162 340.113 631.462 341.107 631.462 342.4V349H629.282V342.66C629.282 341.047 628.629 340.24 627.322 340.24C627.042 340.24 626.762 340.28 626.482 340.36C626.216 340.427 625.976 340.533 625.762 340.68C625.549 340.827 625.376 341.013 625.242 341.24C625.122 341.467 625.062 341.727 625.062 342.02V349H622.882V334.2ZM638.564 349.24C637.817 349.24 637.15 349.113 636.564 348.86C635.977 348.607 635.477 348.247 635.064 347.78C634.65 347.3 634.33 346.727 634.104 346.06C633.89 345.38 633.784 344.627 633.784 343.8C633.784 342.973 633.89 342.227 634.104 341.56C634.33 340.88 634.65 340.307 635.064 339.84C635.477 339.36 635.977 338.993 636.564 338.74C637.15 338.487 637.817 338.36 638.564 338.36C639.324 338.36 639.99 338.493 640.564 338.76C641.15 339.027 641.637 339.4 642.024 339.88C642.41 340.347 642.697 340.893 642.884 341.52C643.084 342.147 643.184 342.82 643.184 343.54V344.36H636.044V344.7C636.044 345.5 636.277 346.16 636.744 346.68C637.224 347.187 637.904 347.44 638.784 347.44C639.424 347.44 639.964 347.3 640.404 347.02C640.844 346.74 641.217 346.36 641.524 345.88L642.804 347.14C642.417 347.78 641.857 348.293 641.124 348.68C640.39 349.053 639.537 349.24 638.564 349.24ZM638.564 340.06C638.19 340.06 637.844 340.127 637.524 340.26C637.217 340.393 636.95 340.58 636.724 340.82C636.51 341.06 636.344 341.347 636.224 341.68C636.104 342.013 636.044 342.38 636.044 342.78V342.92H640.884V342.72C640.884 341.92 640.677 341.28 640.264 340.8C639.85 340.307 639.284 340.06 638.564 340.06ZM549.803 377.28H549.703C549.476 377.893 549.103 378.373 548.583 378.72C548.076 379.067 547.476 379.24 546.783 379.24C545.463 379.24 544.443 378.767 543.723 377.82C543.003 376.86 542.643 375.52 542.643 373.8C542.643 372.08 543.003 370.747 543.723 369.8C544.443 368.84 545.463 368.36 546.783 368.36C547.476 368.36 548.076 368.533 548.583 368.88C549.103 369.213 549.476 369.693 549.703 370.32H549.803V364.2H551.983V379H549.803V377.28ZM547.443 377.36C548.11 377.36 548.67 377.2 549.123 376.88C549.576 376.547 549.803 376.113 549.803 375.58V372.02C549.803 371.487 549.576 371.06 549.123 370.74C548.67 370.407 548.11 370.24 547.443 370.24C546.683 370.24 546.076 370.487 545.623 370.98C545.17 371.46 544.943 372.1 544.943 372.9V374.7C544.943 375.5 545.17 376.147 545.623 376.64C546.076 377.12 546.683 377.36 547.443 377.36ZM562.719 379C562.146 379 561.706 378.84 561.399 378.52C561.092 378.187 560.906 377.767 560.839 377.26H560.739C560.539 377.913 560.172 378.407 559.639 378.74C559.106 379.073 558.459 379.24 557.699 379.24C556.619 379.24 555.786 378.96 555.199 378.4C554.626 377.84 554.339 377.087 554.339 376.14C554.339 375.1 554.712 374.32 555.459 373.8C556.219 373.28 557.326 373.02 558.779 373.02H560.659V372.14C560.659 371.5 560.486 371.007 560.139 370.66C559.792 370.313 559.252 370.14 558.519 370.14C557.906 370.14 557.406 370.273 557.019 370.54C556.632 370.807 556.306 371.147 556.039 371.56L554.739 370.38C555.086 369.793 555.572 369.313 556.199 368.94C556.826 368.553 557.646 368.36 558.659 368.36C560.006 368.36 561.039 368.673 561.759 369.3C562.479 369.927 562.839 370.827 562.839 372V377.22H563.939V379H562.719ZM558.319 377.58C558.999 377.58 559.559 377.433 559.999 377.14C560.439 376.833 560.659 376.427 560.659 375.92V374.42H558.819C557.312 374.42 556.559 374.887 556.559 375.82V376.18C556.559 376.647 556.712 377 557.019 377.24C557.339 377.467 557.772 377.58 558.319 377.58ZM569.376 379.24C568.389 379.24 567.562 379.067 566.896 378.72C566.229 378.373 565.649 377.893 565.156 377.28L566.556 376C566.942 376.467 567.369 376.833 567.836 377.1C568.316 377.353 568.869 377.48 569.496 377.48C570.136 377.48 570.609 377.36 570.916 377.12C571.236 376.867 571.396 376.52 571.396 376.08C571.396 375.747 571.282 375.467 571.056 375.24C570.842 375 570.462 374.847 569.916 374.78L568.956 374.66C567.889 374.527 567.049 374.22 566.436 373.74C565.836 373.247 565.536 372.52 565.536 371.56C565.536 371.053 565.629 370.607 565.816 370.22C566.002 369.82 566.262 369.487 566.596 369.22C566.942 368.94 567.349 368.727 567.816 368.58C568.296 368.433 568.822 368.36 569.396 368.36C570.329 368.36 571.089 368.507 571.676 368.8C572.276 369.093 572.809 369.5 573.276 370.02L571.936 371.3C571.669 370.98 571.316 370.707 570.876 370.48C570.449 370.24 569.956 370.12 569.396 370.12C568.796 370.12 568.349 370.24 568.056 370.48C567.776 370.72 567.636 371.033 567.636 371.42C567.636 371.82 567.762 372.12 568.016 372.32C568.269 372.52 568.676 372.667 569.236 372.76L570.196 372.88C571.342 373.053 572.176 373.393 572.696 373.9C573.229 374.393 573.496 375.06 573.496 375.9C573.496 376.407 573.396 376.867 573.196 377.28C573.009 377.68 572.736 378.027 572.376 378.32C572.016 378.613 571.582 378.84 571.076 379C570.569 379.16 570.002 379.24 569.376 379.24ZM575.958 364.2H578.138V370.32H578.238C578.465 369.76 578.805 369.293 579.258 368.92C579.725 368.547 580.358 368.36 581.158 368.36C582.225 368.36 583.052 368.713 583.638 369.42C584.238 370.113 584.538 371.107 584.538 372.4V379H582.358V372.66C582.358 371.047 581.705 370.24 580.398 370.24C580.118 370.24 579.838 370.28 579.558 370.36C579.292 370.427 579.052 370.533 578.838 370.68C578.625 370.827 578.452 371.013 578.318 371.24C578.198 371.467 578.138 371.727 578.138 372.02V379H575.958V364.2ZM587.56 364.2H589.74V370.32H589.84C590.067 369.693 590.433 369.213 590.94 368.88C591.46 368.533 592.067 368.36 592.76 368.36C594.08 368.36 595.1 368.84 595.82 369.8C596.54 370.747 596.9 372.08 596.9 373.8C596.9 375.52 596.54 376.86 595.82 377.82C595.1 378.767 594.08 379.24 592.76 379.24C592.067 379.24 591.46 379.067 590.94 378.72C590.433 378.373 590.067 377.893 589.84 377.28H589.74V379H587.56V364.2ZM592.1 377.36C592.86 377.36 593.467 377.12 593.92 376.64C594.373 376.147 594.6 375.5 594.6 374.7V372.9C594.6 372.1 594.373 371.46 593.92 370.98C593.467 370.487 592.86 370.24 592.1 370.24C591.433 370.24 590.873 370.407 590.42 370.74C589.967 371.06 589.74 371.487 589.74 372.02V375.58C589.74 376.113 589.967 376.547 590.42 376.88C590.873 377.2 591.433 377.36 592.1 377.36ZM603.476 379.24C602.756 379.24 602.096 379.113 601.496 378.86C600.909 378.607 600.409 378.247 599.996 377.78C599.583 377.3 599.263 376.727 599.036 376.06C598.809 375.38 598.696 374.627 598.696 373.8C598.696 372.973 598.809 372.227 599.036 371.56C599.263 370.88 599.583 370.307 599.996 369.84C600.409 369.36 600.909 368.993 601.496 368.74C602.096 368.487 602.756 368.36 603.476 368.36C604.196 368.36 604.849 368.487 605.436 368.74C606.036 368.993 606.543 369.36 606.956 369.84C607.369 370.307 607.689 370.88 607.916 371.56C608.143 372.227 608.256 372.973 608.256 373.8C608.256 374.627 608.143 375.38 607.916 376.06C607.689 376.727 607.369 377.3 606.956 377.78C606.543 378.247 606.036 378.607 605.436 378.86C604.849 379.113 604.196 379.24 603.476 379.24ZM603.476 377.44C604.223 377.44 604.823 377.213 605.276 376.76C605.729 376.293 605.956 375.6 605.956 374.68V372.92C605.956 372 605.729 371.313 605.276 370.86C604.823 370.393 604.223 370.16 603.476 370.16C602.729 370.16 602.129 370.393 601.676 370.86C601.223 371.313 600.996 372 600.996 372.92V374.68C600.996 375.6 601.223 376.293 601.676 376.76C602.129 377.213 602.729 377.44 603.476 377.44ZM618.305 379C617.732 379 617.292 378.84 616.985 378.52C616.678 378.187 616.492 377.767 616.425 377.26H616.325C616.125 377.913 615.758 378.407 615.225 378.74C614.692 379.073 614.045 379.24 613.285 379.24C612.205 379.24 611.372 378.96 610.785 378.4C610.212 377.84 609.925 377.087 609.925 376.14C609.925 375.1 610.298 374.32 611.045 373.8C611.805 373.28 612.912 373.02 614.365 373.02H616.245V372.14C616.245 371.5 616.072 371.007 615.725 370.66C615.378 370.313 614.838 370.14 614.105 370.14C613.492 370.14 612.992 370.273 612.605 370.54C612.218 370.807 611.892 371.147 611.625 371.56L610.325 370.38C610.672 369.793 611.158 369.313 611.785 368.94C612.412 368.553 613.232 368.36 614.245 368.36C615.592 368.36 616.625 368.673 617.345 369.3C618.065 369.927 618.425 370.827 618.425 372V377.22H619.525V379H618.305ZM613.905 377.58C614.585 377.58 615.145 377.433 615.585 377.14C616.025 376.833 616.245 376.427 616.245 375.92V374.42H614.405C612.898 374.42 612.145 374.887 612.145 375.82V376.18C612.145 376.647 612.298 377 612.605 377.24C612.925 377.467 613.358 377.58 613.905 377.58ZM621.662 379V368.6H623.842V370.6H623.942C624.088 370.067 624.395 369.6 624.862 369.2C625.328 368.8 625.975 368.6 626.802 368.6H627.382V370.7H626.522C625.655 370.7 624.988 370.84 624.522 371.12C624.068 371.4 623.842 371.813 623.842 372.36V379H621.662ZM635.76 377.28H635.66C635.433 377.893 635.06 378.373 634.54 378.72C634.033 379.067 633.433 379.24 632.74 379.24C631.42 379.24 630.4 378.767 629.68 377.82C628.96 376.86 628.6 375.52 628.6 373.8C628.6 372.08 628.96 370.747 629.68 369.8C630.4 368.84 631.42 368.36 632.74 368.36C633.433 368.36 634.033 368.533 634.54 368.88C635.06 369.213 635.433 369.693 635.66 370.32H635.76V364.2H637.94V379H635.76V377.28ZM633.4 377.36C634.067 377.36 634.627 377.2 635.08 376.88C635.533 376.547 635.76 376.113 635.76 375.58V372.02C635.76 371.487 635.533 371.06 635.08 370.74C634.627 370.407 634.067 370.24 633.4 370.24C632.64 370.24 632.033 370.487 631.58 370.98C631.127 371.46 630.9 372.1 630.9 372.9V374.7C630.9 375.5 631.127 376.147 631.58 376.64C632.033 377.12 632.64 377.36 633.4 377.36ZM642.396 379.24C641.903 379.24 641.536 379.113 641.296 378.86C641.056 378.593 640.936 378.267 640.936 377.88V377.58C640.936 377.193 641.056 376.873 641.296 376.62C641.536 376.353 641.903 376.22 642.396 376.22C642.889 376.22 643.256 376.353 643.496 376.62C643.736 376.873 643.856 377.193 643.856 377.58V377.88C643.856 378.267 643.736 378.593 643.496 378.86C643.256 379.113 642.889 379.24 642.396 379.24Z" fill="#8B8B8B"/>
<circle cx="873" cy="219.5" r="39.5" fill="#D1E2F8" stroke="#196DDC" stroke-width="8"/>
<path d="M871.764 219.352C872.9 219.352 873.748 219.096 874.308 218.584C874.884 218.056 875.172 217.384 875.172 216.568V216.4C875.172 215.52 874.892 214.864 874.332 214.432C873.788 213.984 873.068 213.76 872.172 213.76C871.308 213.76 870.604 213.952 870.06 214.336C869.516 214.704 869.068 215.208 868.716 215.848L867.228 214.696C867.436 214.36 867.684 214.032 867.972 213.712C868.276 213.376 868.628 213.08 869.028 212.824C869.428 212.568 869.892 212.36 870.42 212.2C870.948 212.04 871.548 211.96 872.22 211.96C872.924 211.96 873.588 212.056 874.212 212.248C874.836 212.424 875.372 212.696 875.82 213.064C876.284 213.416 876.644 213.856 876.9 214.384C877.172 214.912 877.308 215.512 877.308 216.184C877.308 216.728 877.22 217.216 877.044 217.648C876.884 218.08 876.66 218.456 876.372 218.776C876.084 219.096 875.74 219.368 875.34 219.592C874.956 219.816 874.54 219.984 874.092 220.096V220.192C874.54 220.288 874.972 220.448 875.388 220.672C875.82 220.88 876.196 221.16 876.516 221.512C876.852 221.848 877.116 222.264 877.308 222.76C877.516 223.24 877.62 223.792 877.62 224.416C877.62 225.136 877.484 225.8 877.212 226.408C876.94 227 876.556 227.512 876.06 227.944C875.564 228.36 874.964 228.688 874.26 228.928C873.556 229.168 872.78 229.288 871.932 229.288C871.212 229.288 870.572 229.208 870.012 229.048C869.452 228.888 868.956 228.672 868.524 228.4C868.092 228.128 867.708 227.824 867.372 227.488C867.052 227.152 866.764 226.8 866.508 226.432L868.02 225.28C868.228 225.616 868.452 225.92 868.692 226.192C868.948 226.464 869.228 226.696 869.532 226.888C869.836 227.08 870.18 227.232 870.564 227.344C870.948 227.44 871.396 227.488 871.908 227.488C873.092 227.488 873.988 227.224 874.596 226.696C875.204 226.152 875.508 225.384 875.508 224.392V224.2C875.508 223.208 875.204 222.448 874.596 221.92C873.988 221.376 873.092 221.104 871.908 221.104H869.94V219.352H871.764Z" fill="#454545"/>
<path d="M822.37 315.608H822.242C822.007 316.696 821.367 317.603 820.322 318.328C819.298 319.032 817.933 319.384 816.226 319.384C814.903 319.384 813.677 319.139 812.546 318.648C811.415 318.136 810.434 317.4 809.602 316.44C808.791 315.459 808.151 314.253 807.682 312.824C807.234 311.373 807.01 309.709 807.01 307.832C807.01 305.976 807.245 304.333 807.714 302.904C808.183 301.453 808.845 300.237 809.698 299.256C810.551 298.275 811.575 297.539 812.77 297.048C813.965 296.536 815.298 296.28 816.77 296.28C818.775 296.28 820.471 296.728 821.858 297.624C823.245 298.499 824.322 299.725 825.09 301.304L822.146 303.032C821.719 301.987 821.058 301.144 820.162 300.504C819.266 299.843 818.135 299.512 816.77 299.512C814.999 299.512 813.57 300.077 812.482 301.208C811.415 302.339 810.882 303.939 810.882 306.008V309.656C810.882 311.725 811.415 313.325 812.482 314.456C813.57 315.587 814.999 316.152 816.77 316.152C817.474 316.152 818.146 316.067 818.786 315.896C819.426 315.704 819.981 315.437 820.45 315.096C820.941 314.733 821.325 314.296 821.602 313.784C821.901 313.251 822.05 312.632 822.05 311.928V310.2H817.442V307.096H825.538V319H822.37V315.608ZM836.837 319.384C835.642 319.384 834.575 319.181 833.637 318.776C832.698 318.371 831.898 317.795 831.237 317.048C830.575 316.28 830.063 315.363 829.701 314.296C829.359 313.208 829.189 312.003 829.189 310.68C829.189 309.357 829.359 308.163 829.701 307.096C830.063 306.008 830.575 305.091 831.237 304.344C831.898 303.576 832.698 302.989 833.637 302.584C834.575 302.179 835.642 301.976 836.837 301.976C838.053 301.976 839.119 302.189 840.037 302.616C840.975 303.043 841.754 303.64 842.373 304.408C842.991 305.155 843.45 306.029 843.749 307.032C844.069 308.035 844.229 309.112 844.229 310.264V311.576H832.805V312.12C832.805 313.4 833.178 314.456 833.925 315.288C834.693 316.099 835.781 316.504 837.189 316.504C838.213 316.504 839.077 316.28 839.781 315.832C840.485 315.384 841.082 314.776 841.573 314.008L843.621 316.024C843.002 317.048 842.106 317.869 840.933 318.488C839.759 319.085 838.394 319.384 836.837 319.384ZM836.837 304.696C836.239 304.696 835.685 304.803 835.173 305.016C834.682 305.229 834.255 305.528 833.893 305.912C833.551 306.296 833.285 306.755 833.093 307.288C832.901 307.821 832.805 308.408 832.805 309.048V309.272H840.549V308.952C840.549 307.672 840.218 306.648 839.557 305.88C838.895 305.091 837.989 304.696 836.837 304.696ZM848.09 319V302.36H851.578V305.112H851.738C852.1 304.216 852.644 303.469 853.37 302.872C854.116 302.275 855.13 301.976 856.41 301.976C858.116 301.976 859.439 302.541 860.378 303.672C861.338 304.781 861.818 306.371 861.818 308.44V319H858.33V308.888C858.33 306.285 857.284 304.984 855.194 304.984C854.746 304.984 854.298 305.048 853.85 305.176C853.423 305.283 853.039 305.453 852.698 305.688C852.356 305.923 852.079 306.221 851.866 306.584C851.674 306.947 851.578 307.373 851.578 307.864V319H848.09ZM873.18 319.384C871.986 319.384 870.919 319.181 869.98 318.776C869.042 318.371 868.242 317.795 867.58 317.048C866.919 316.28 866.407 315.363 866.044 314.296C865.703 313.208 865.532 312.003 865.532 310.68C865.532 309.357 865.703 308.163 866.044 307.096C866.407 306.008 866.919 305.091 867.58 304.344C868.242 303.576 869.042 302.989 869.98 302.584C870.919 302.179 871.986 301.976 873.18 301.976C874.396 301.976 875.463 302.189 876.38 302.616C877.319 303.043 878.098 303.64 878.716 304.408C879.335 305.155 879.794 306.029 880.092 307.032C880.412 308.035 880.572 309.112 880.572 310.264V311.576H869.148V312.12C869.148 313.4 869.522 314.456 870.268 315.288C871.036 316.099 872.124 316.504 873.532 316.504C874.556 316.504 875.42 316.28 876.124 315.832C876.828 315.384 877.426 314.776 877.916 314.008L879.964 316.024C879.346 317.048 878.45 317.869 877.276 318.488C876.103 319.085 874.738 319.384 873.18 319.384ZM873.18 304.696C872.583 304.696 872.028 304.803 871.516 305.016C871.026 305.229 870.599 305.528 870.236 305.912C869.895 306.296 869.628 306.755 869.436 307.288C869.244 307.821 869.148 308.408 869.148 309.048V309.272H876.892V308.952C876.892 307.672 876.562 306.648 875.9 305.88C875.239 305.091 874.332 304.696 873.18 304.696ZM884.434 319V302.36H887.922V305.56H888.082C888.316 304.707 888.807 303.96 889.554 303.32C890.3 302.68 891.335 302.36 892.658 302.36H893.586V305.72H892.21C890.823 305.72 889.756 305.944 889.01 306.392C888.284 306.84 887.922 307.501 887.922 308.376V319H884.434ZM908.626 319C907.708 319 907.004 318.744 906.514 318.232C906.023 317.699 905.724 317.027 905.618 316.216H905.458C905.138 317.261 904.551 318.051 903.698 318.584C902.844 319.117 901.81 319.384 900.594 319.384C898.866 319.384 897.532 318.936 896.594 318.04C895.676 317.144 895.218 315.939 895.218 314.424C895.218 312.76 895.815 311.512 897.01 310.68C898.226 309.848 899.996 309.432 902.322 309.432H905.33V308.024C905.33 307 905.052 306.211 904.498 305.656C903.943 305.101 903.079 304.824 901.906 304.824C900.924 304.824 900.124 305.037 899.506 305.464C898.887 305.891 898.364 306.435 897.938 307.096L895.858 305.208C896.412 304.269 897.191 303.501 898.194 302.904C899.196 302.285 900.508 301.976 902.13 301.976C904.284 301.976 905.938 302.477 907.09 303.48C908.242 304.483 908.818 305.923 908.818 307.8V316.152H910.578V319H908.626ZM901.586 316.728C902.674 316.728 903.57 316.493 904.274 316.024C904.978 315.533 905.33 314.883 905.33 314.072V311.672H902.385C899.975 311.672 898.77 312.419 898.77 313.912V314.488C898.77 315.235 899.015 315.8 899.506 316.184C900.018 316.547 900.711 316.728 901.586 316.728ZM918.51 319C917.294 319 916.377 318.691 915.758 318.072C915.14 317.432 914.83 316.536 914.83 315.384V305.208H912.238V302.36H913.646C914.222 302.36 914.617 302.232 914.83 301.976C915.065 301.72 915.182 301.304 915.182 300.728V297.816H918.318V302.36H921.806V305.208H918.318V316.152H921.55V319H918.51ZM931.993 319.384C930.798 319.384 929.731 319.181 928.793 318.776C927.854 318.371 927.054 317.795 926.393 317.048C925.731 316.28 925.219 315.363 924.857 314.296C924.515 313.208 924.345 312.003 924.345 310.68C924.345 309.357 924.515 308.163 924.857 307.096C925.219 306.008 925.731 305.091 926.393 304.344C927.054 303.576 927.854 302.989 928.793 302.584C929.731 302.179 930.798 301.976 931.993 301.976C933.209 301.976 934.275 302.189 935.193 302.616C936.131 303.043 936.91 303.64 937.529 304.408C938.147 305.155 938.606 306.029 938.905 307.032C939.225 308.035 939.385 309.112 939.385 310.264V311.576H927.961V312.12C927.961 313.4 928.334 314.456 929.081 315.288C929.849 316.099 930.937 316.504 932.345 316.504C933.369 316.504 934.233 316.28 934.937 315.832C935.641 315.384 936.238 314.776 936.729 314.008L938.777 316.024C938.158 317.048 937.262 317.869 936.089 318.488C934.915 319.085 933.55 319.384 931.993 319.384ZM931.993 304.696C931.395 304.696 930.841 304.803 930.329 305.016C929.838 305.229 929.411 305.528 929.049 305.912C928.707 306.296 928.441 306.755 928.249 307.288C928.057 307.821 927.961 308.408 927.961 309.048V309.272H935.705V308.952C935.705 307.672 935.374 306.648 934.713 305.88C934.051 305.091 933.145 304.696 931.993 304.696Z" fill="#082449"/>
<path d="M815.331 349V338.6H817.511V340.32H817.611C817.718 340.053 817.845 339.8 817.991 339.56C818.151 339.32 818.338 339.113 818.551 338.94C818.778 338.753 819.038 338.613 819.331 338.52C819.638 338.413 819.991 338.36 820.391 338.36C821.098 338.36 821.725 338.533 822.271 338.88C822.818 339.227 823.218 339.76 823.471 340.48H823.531C823.718 339.893 824.078 339.393 824.611 338.98C825.145 338.567 825.831 338.36 826.671 338.36C827.711 338.36 828.518 338.713 829.091 339.42C829.665 340.113 829.951 341.107 829.951 342.4V349H827.771V342.66C827.771 341.86 827.618 341.26 827.311 340.86C827.005 340.447 826.518 340.24 825.851 340.24C825.571 340.24 825.305 340.28 825.051 340.36C824.798 340.427 824.571 340.533 824.371 340.68C824.185 340.827 824.031 341.013 823.911 341.24C823.791 341.467 823.731 341.727 823.731 342.02V349H821.551V342.66C821.551 341.047 820.918 340.24 819.651 340.24C819.385 340.24 819.118 340.28 818.851 340.36C818.598 340.427 818.371 340.533 818.171 340.68C817.971 340.827 817.811 341.013 817.691 341.24C817.571 341.467 817.511 341.727 817.511 342.02V349H815.331ZM837.048 349.24C836.302 349.24 835.635 349.113 835.048 348.86C834.462 348.607 833.962 348.247 833.548 347.78C833.135 347.3 832.815 346.727 832.588 346.06C832.375 345.38 832.268 344.627 832.268 343.8C832.268 342.973 832.375 342.227 832.588 341.56C832.815 340.88 833.135 340.307 833.548 339.84C833.962 339.36 834.462 338.993 835.048 338.74C835.635 338.487 836.302 338.36 837.048 338.36C837.808 338.36 838.475 338.493 839.048 338.76C839.635 339.027 840.122 339.4 840.508 339.88C840.895 340.347 841.182 340.893 841.368 341.52C841.568 342.147 841.668 342.82 841.668 343.54V344.36H834.528V344.7C834.528 345.5 834.762 346.16 835.228 346.68C835.708 347.187 836.388 347.44 837.268 347.44C837.908 347.44 838.448 347.3 838.888 347.02C839.328 346.74 839.702 346.36 840.008 345.88L841.288 347.14C840.902 347.78 840.342 348.293 839.608 348.68C838.875 349.053 838.022 349.24 837.048 349.24ZM837.048 340.06C836.675 340.06 836.328 340.127 836.008 340.26C835.702 340.393 835.435 340.58 835.208 340.82C834.995 341.06 834.828 341.347 834.708 341.68C834.588 342.013 834.528 342.38 834.528 342.78V342.92H839.368V342.72C839.368 341.92 839.162 341.28 838.748 340.8C838.335 340.307 837.768 340.06 837.048 340.06ZM846.961 349C846.201 349 845.628 348.807 845.241 348.42C844.855 348.02 844.661 347.46 844.661 346.74V340.38H843.041V338.6H843.921C844.281 338.6 844.528 338.52 844.661 338.36C844.808 338.2 844.881 337.94 844.881 337.58V335.76H846.841V338.6H849.021V340.38H846.841V347.22H848.861V349H846.961ZM859.006 349C858.433 349 857.993 348.84 857.686 348.52C857.38 348.187 857.193 347.767 857.126 347.26H857.026C856.826 347.913 856.46 348.407 855.926 348.74C855.393 349.073 854.746 349.24 853.986 349.24C852.906 349.24 852.073 348.96 851.486 348.4C850.913 347.84 850.626 347.087 850.626 346.14C850.626 345.1 851 344.32 851.746 343.8C852.506 343.28 853.613 343.02 855.066 343.02H856.946V342.14C856.946 341.5 856.773 341.007 856.426 340.66C856.08 340.313 855.54 340.14 854.806 340.14C854.193 340.14 853.693 340.273 853.306 340.54C852.92 340.807 852.593 341.147 852.326 341.56L851.026 340.38C851.373 339.793 851.86 339.313 852.486 338.94C853.113 338.553 853.933 338.36 854.946 338.36C856.293 338.36 857.326 338.673 858.046 339.3C858.766 339.927 859.126 340.827 859.126 342V347.22H860.226V349H859.006ZM854.606 347.58C855.286 347.58 855.846 347.433 856.286 347.14C856.726 346.833 856.946 346.427 856.946 345.92V344.42H855.106C853.6 344.42 852.846 344.887 852.846 345.82V346.18C852.846 346.647 853 347 853.306 347.24C853.626 347.467 854.06 347.58 854.606 347.58ZM868.903 347.28H868.803C868.576 347.893 868.203 348.373 867.683 348.72C867.176 349.067 866.576 349.24 865.883 349.24C864.563 349.24 863.543 348.767 862.823 347.82C862.103 346.86 861.743 345.52 861.743 343.8C861.743 342.08 862.103 340.747 862.823 339.8C863.543 338.84 864.563 338.36 865.883 338.36C866.576 338.36 867.176 338.533 867.683 338.88C868.203 339.213 868.576 339.693 868.803 340.32H868.903V334.2H871.083V349H868.903V347.28ZM866.543 347.36C867.209 347.36 867.769 347.2 868.223 346.88C868.676 346.547 868.903 346.113 868.903 345.58V342.02C868.903 341.487 868.676 341.06 868.223 340.74C867.769 340.407 867.209 340.24 866.543 340.24C865.783 340.24 865.176 340.487 864.723 340.98C864.269 341.46 864.043 342.1 864.043 342.9V344.7C864.043 345.5 864.269 346.147 864.723 346.64C865.176 347.12 865.783 347.36 866.543 347.36ZM881.819 349C881.245 349 880.805 348.84 880.499 348.52C880.192 348.187 880.005 347.767 879.939 347.26H879.839C879.639 347.913 879.272 348.407 878.739 348.74C878.205 349.073 877.559 349.24 876.799 349.24C875.719 349.24 874.885 348.96 874.299 348.4C873.725 347.84 873.439 347.087 873.439 346.14C873.439 345.1 873.812 344.32 874.559 343.8C875.319 343.28 876.425 343.02 877.879 343.02H879.759V342.14C879.759 341.5 879.585 341.007 879.239 340.66C878.892 340.313 878.352 340.14 877.619 340.14C877.005 340.14 876.505 340.273 876.119 340.54C875.732 340.807 875.405 341.147 875.139 341.56L873.839 340.38C874.185 339.793 874.672 339.313 875.299 338.94C875.925 338.553 876.745 338.36 877.759 338.36C879.105 338.36 880.139 338.673 880.859 339.3C881.579 339.927 881.939 340.827 881.939 342V347.22H883.039V349H881.819ZM877.419 347.58C878.099 347.58 878.659 347.433 879.099 347.14C879.539 346.833 879.759 346.427 879.759 345.92V344.42H877.919C876.412 344.42 875.659 344.887 875.659 345.82V346.18C875.659 346.647 875.812 347 876.119 347.24C876.439 347.467 876.872 347.58 877.419 347.58ZM887.997 349C887.237 349 886.663 348.807 886.277 348.42C885.89 348.02 885.697 347.46 885.697 346.74V340.38H884.077V338.6H884.957C885.317 338.6 885.563 338.52 885.697 338.36C885.843 338.2 885.917 337.94 885.917 337.58V335.76H887.877V338.6H890.057V340.38H887.877V347.22H889.897V349H887.997ZM900.041 349C899.468 349 899.028 348.84 898.721 348.52C898.415 348.187 898.228 347.767 898.161 347.26H898.061C897.861 347.913 897.495 348.407 896.961 348.74C896.428 349.073 895.781 349.24 895.021 349.24C893.941 349.24 893.108 348.96 892.521 348.4C891.948 347.84 891.661 347.087 891.661 346.14C891.661 345.1 892.035 344.32 892.781 343.8C893.541 343.28 894.648 343.02 896.101 343.02H897.981V342.14C897.981 341.5 897.808 341.007 897.461 340.66C897.115 340.313 896.575 340.14 895.841 340.14C895.228 340.14 894.728 340.273 894.341 340.54C893.955 340.807 893.628 341.147 893.361 341.56L892.061 340.38C892.408 339.793 892.895 339.313 893.521 338.94C894.148 338.553 894.968 338.36 895.981 338.36C897.328 338.36 898.361 338.673 899.081 339.3C899.801 339.927 900.161 340.827 900.161 342V347.22H901.261V349H900.041ZM895.641 347.58C896.321 347.58 896.881 347.433 897.321 347.14C897.761 346.833 897.981 346.427 897.981 345.92V344.42H896.141C894.635 344.42 893.881 344.887 893.881 345.82V346.18C893.881 346.647 894.035 347 894.341 347.24C894.661 347.467 895.095 347.58 895.641 347.58ZM908.664 340.38H907.084V338.6H908.664V336.88C908.664 336.04 908.884 335.387 909.324 334.92C909.764 334.44 910.424 334.2 911.304 334.2H913.024V335.98H910.844V338.6H913.024V340.38H910.844V349H908.664V340.38ZM918.923 349.24C918.203 349.24 917.543 349.113 916.943 348.86C916.357 348.607 915.857 348.247 915.443 347.78C915.03 347.3 914.71 346.727 914.483 346.06C914.257 345.38 914.143 344.627 914.143 343.8C914.143 342.973 914.257 342.227 914.483 341.56C914.71 340.88 915.03 340.307 915.443 339.84C915.857 339.36 916.357 338.993 916.943 338.74C917.543 338.487 918.203 338.36 918.923 338.36C919.643 338.36 920.297 338.487 920.883 338.74C921.483 338.993 921.99 339.36 922.403 339.84C922.817 340.307 923.137 340.88 923.363 341.56C923.59 342.227 923.703 342.973 923.703 343.8C923.703 344.627 923.59 345.38 923.363 346.06C923.137 346.727 922.817 347.3 922.403 347.78C921.99 348.247 921.483 348.607 920.883 348.86C920.297 349.113 919.643 349.24 918.923 349.24ZM918.923 347.44C919.67 347.44 920.27 347.213 920.723 346.76C921.177 346.293 921.403 345.6 921.403 344.68V342.92C921.403 342 921.177 341.313 920.723 340.86C920.27 340.393 919.67 340.16 918.923 340.16C918.177 340.16 917.577 340.393 917.123 340.86C916.67 341.313 916.443 342 916.443 342.92V344.68C916.443 345.6 916.67 346.293 917.123 346.76C917.577 347.213 918.177 347.44 918.923 347.44ZM926.132 349V338.6H928.312V340.6H928.412C928.559 340.067 928.866 339.6 929.332 339.2C929.799 338.8 930.446 338.6 931.272 338.6H931.852V340.7H930.992C930.126 340.7 929.459 340.84 928.992 341.12C928.539 341.4 928.312 341.813 928.312 342.36V349H926.132ZM836.028 368.6H838.128L833.748 381.06C833.628 381.407 833.488 381.7 833.328 381.94C833.181 382.193 833.001 382.393 832.788 382.54C832.588 382.7 832.341 382.813 832.048 382.88C831.755 382.96 831.408 383 831.008 383H829.748V381.22H831.508L832.108 379.46L828.328 368.6H830.508L832.588 374.72L833.188 376.98H833.288L833.948 374.72L836.028 368.6ZM843.884 379.24C843.164 379.24 842.504 379.113 841.904 378.86C841.317 378.607 840.817 378.247 840.404 377.78C839.991 377.3 839.671 376.727 839.444 376.06C839.217 375.38 839.104 374.627 839.104 373.8C839.104 372.973 839.217 372.227 839.444 371.56C839.671 370.88 839.991 370.307 840.404 369.84C840.817 369.36 841.317 368.993 841.904 368.74C842.504 368.487 843.164 368.36 843.884 368.36C844.604 368.36 845.257 368.487 845.844 368.74C846.444 368.993 846.951 369.36 847.364 369.84C847.777 370.307 848.097 370.88 848.324 371.56C848.551 372.227 848.664 372.973 848.664 373.8C848.664 374.627 848.551 375.38 848.324 376.06C848.097 376.727 847.777 377.3 847.364 377.78C846.951 378.247 846.444 378.607 845.844 378.86C845.257 379.113 844.604 379.24 843.884 379.24ZM843.884 377.44C844.631 377.44 845.231 377.213 845.684 376.76C846.137 376.293 846.364 375.6 846.364 374.68V372.92C846.364 372 846.137 371.313 845.684 370.86C845.231 370.393 844.631 370.16 843.884 370.16C843.137 370.16 842.537 370.393 842.084 370.86C841.631 371.313 841.404 372 841.404 372.92V374.68C841.404 375.6 841.631 376.293 842.084 376.76C842.537 377.213 843.137 377.44 843.884 377.44ZM857.393 377.28H857.313C857.22 377.533 857.093 377.78 856.933 378.02C856.787 378.26 856.593 378.473 856.353 378.66C856.127 378.833 855.847 378.973 855.513 379.08C855.193 379.187 854.82 379.24 854.393 379.24C853.313 379.24 852.473 378.893 851.873 378.2C851.287 377.507 850.993 376.513 850.993 375.22V368.6H853.173V374.94C853.173 376.553 853.84 377.36 855.173 377.36C855.453 377.36 855.727 377.327 855.993 377.26C856.26 377.18 856.493 377.067 856.693 376.92C856.907 376.773 857.073 376.587 857.193 376.36C857.327 376.133 857.393 375.867 857.393 375.56V368.6H859.573V379H857.393V377.28ZM862.695 379V368.6H864.875V370.6H864.975C865.121 370.067 865.428 369.6 865.895 369.2C866.361 368.8 867.008 368.6 867.835 368.6H868.415V370.7H867.555C866.688 370.7 866.021 370.84 865.555 371.12C865.101 371.4 864.875 371.813 864.875 372.36V379H862.695ZM875.618 370.38H874.038V368.6H875.618V366.88C875.618 366.04 875.838 365.387 876.278 364.92C876.718 364.44 877.378 364.2 878.258 364.2H879.978V365.98H877.798V368.6H883.978V379H881.798V370.38H877.798V379H875.618V370.38ZM882.898 366.74C882.444 366.74 882.111 366.633 881.898 366.42C881.698 366.207 881.598 365.933 881.598 365.6V365.26C881.598 364.927 881.698 364.653 881.898 364.44C882.111 364.227 882.444 364.12 882.898 364.12C883.351 364.12 883.678 364.227 883.878 364.44C884.078 364.653 884.178 364.927 884.178 365.26V365.6C884.178 365.933 884.078 366.207 883.878 366.42C883.678 366.633 883.351 366.74 882.898 366.74ZM889.309 379C888.563 379 888.003 378.813 887.629 378.44C887.269 378.053 887.089 377.52 887.089 376.84V364.2H889.269V377.22H890.709V379H889.309ZM896.872 379.24C896.126 379.24 895.459 379.113 894.872 378.86C894.286 378.607 893.786 378.247 893.372 377.78C892.959 377.3 892.639 376.727 892.412 376.06C892.199 375.38 892.092 374.627 892.092 373.8C892.092 372.973 892.199 372.227 892.412 371.56C892.639 370.88 892.959 370.307 893.372 369.84C893.786 369.36 894.286 368.993 894.872 368.74C895.459 368.487 896.126 368.36 896.872 368.36C897.632 368.36 898.299 368.493 898.872 368.76C899.459 369.027 899.946 369.4 900.332 369.88C900.719 370.347 901.006 370.893 901.192 371.52C901.392 372.147 901.492 372.82 901.492 373.54V374.36H894.352V374.7C894.352 375.5 894.586 376.16 895.052 376.68C895.532 377.187 896.212 377.44 897.092 377.44C897.732 377.44 898.272 377.3 898.712 377.02C899.152 376.74 899.526 376.36 899.832 375.88L901.112 377.14C900.726 377.78 900.166 378.293 899.432 378.68C898.699 379.053 897.846 379.24 896.872 379.24ZM896.872 370.06C896.499 370.06 896.152 370.127 895.832 370.26C895.526 370.393 895.259 370.58 895.032 370.82C894.819 371.06 894.652 371.347 894.532 371.68C894.412 372.013 894.352 372.38 894.352 372.78V372.92H899.192V372.72C899.192 371.92 898.986 371.28 898.572 370.8C898.159 370.307 897.592 370.06 896.872 370.06ZM907.206 379.24C906.219 379.24 905.392 379.067 904.726 378.72C904.059 378.373 903.479 377.893 902.986 377.28L904.386 376C904.772 376.467 905.199 376.833 905.666 377.1C906.146 377.353 906.699 377.48 907.326 377.48C907.966 377.48 908.439 377.36 908.746 377.12C909.066 376.867 909.226 376.52 909.226 376.08C909.226 375.747 909.112 375.467 908.886 375.24C908.672 375 908.292 374.847 907.746 374.78L906.786 374.66C905.719 374.527 904.879 374.22 904.266 373.74C903.666 373.247 903.366 372.52 903.366 371.56C903.366 371.053 903.459 370.607 903.646 370.22C903.832 369.82 904.092 369.487 904.426 369.22C904.772 368.94 905.179 368.727 905.646 368.58C906.126 368.433 906.652 368.36 907.226 368.36C908.159 368.36 908.919 368.507 909.506 368.8C910.106 369.093 910.639 369.5 911.106 370.02L909.766 371.3C909.499 370.98 909.146 370.707 908.706 370.48C908.279 370.24 907.786 370.12 907.226 370.12C906.626 370.12 906.179 370.24 905.886 370.48C905.606 370.72 905.466 371.033 905.466 371.42C905.466 371.82 905.592 372.12 905.846 372.32C906.099 372.52 906.506 372.667 907.066 372.76L908.026 372.88C909.172 373.053 910.006 373.393 910.526 373.9C911.059 374.393 911.326 375.06 911.326 375.9C911.326 376.407 911.226 376.867 911.026 377.28C910.839 377.68 910.566 378.027 910.206 378.32C909.846 378.613 909.412 378.84 908.906 379C908.399 379.16 907.832 379.24 907.206 379.24ZM915.011 379.24C914.518 379.24 914.151 379.113 913.911 378.86C913.671 378.593 913.551 378.267 913.551 377.88V377.58C913.551 377.193 913.671 376.873 913.911 376.62C914.151 376.353 914.518 376.22 915.011 376.22C915.505 376.22 915.871 376.353 916.111 376.62C916.351 376.873 916.471 377.193 916.471 377.58V377.88C916.471 378.267 916.351 378.593 916.111 378.86C915.871 379.113 915.505 379.24 915.011 379.24Z" fill="#8B8B8B"/>
<path d="M475.4 201L493 219.804L475.4 238.607" stroke="#155BB7" stroke-width="9.79414" stroke-linecap="round" stroke-linejoin="round"/>
<g opacity="0.8">
<path d="M452.786 201L470.386 219.804L452.786 238.607" stroke="#196DDC" stroke-width="9.79414" stroke-linecap="round" stroke-linejoin="round"/>
</g>
<g opacity="0.5">
<path d="M430 201L447.601 219.804L430 238.607" stroke="#3F85E2" stroke-width="9.79414" stroke-linecap="round" stroke-linejoin="round"/>
</g>
<path d="M739.4 201L757 219.804L739.4 238.607" stroke="#155BB7" stroke-width="9.79414" stroke-linecap="round" stroke-linejoin="round"/>
<g opacity="0.8">
<path d="M716.786 201L734.386 219.804L716.786 238.607" stroke="#196DDC" stroke-width="9.79414" stroke-linecap="round" stroke-linejoin="round"/>
</g>
<g opacity="0.5">
<path d="M694 201L711.601 219.804L694 238.607" stroke="#3F85E2" stroke-width="9.79414" stroke-linecap="round" stroke-linejoin="round"/>
</g>
</svg>
