<svg width="631" height="633" viewBox="0 0 631 633" fill="none" xmlns="http://www.w3.org/2000/svg">
<g opacity="0.3">
<path d="M538.088 360.026C542.303 378.69 541.589 395.787 535.967 414.069C528.931 436.945 513.068 458.222 490.405 471.323C482.45 475.922 473.911 479.378 465.017 481.837C463.566 484.155 461.995 486.401 460.327 488.572H536.231C555.536 465.522 566.596 435.969 568.337 405.897C568.807 397.763 568.597 389.591 567.683 381.5C564.141 350.142 550.286 320.265 529.485 296.564C529.178 298.23 528.915 299.9 528.724 301.578C526.455 321.545 533.761 340.863 538.088 360.026Z" fill="#B2CEF3"/>
<path d="M303.083 483.928C298.631 477.755 295.146 469.888 290.423 463.586C280.308 465.649 270.319 468.66 260.216 471.257C239.542 476.571 218.243 480.524 196.908 480.817C173.202 481.143 149.029 476.559 128.41 464.341C112.687 455.023 98.8591 440.786 91.3823 423.788C93.4693 447.231 101.943 470.092 116.223 488.572H306.673C305.429 487.066 304.23 485.518 303.083 483.928Z" fill="#B2CEF3"/>
<path d="M333.113 162.302C338.873 162.105 345.067 161.76 351.825 161.246C383.359 158.852 414.597 166.059 444.885 176.013C447.807 176.973 450.714 178.006 453.599 179.109C440.555 164.716 423.923 153.518 405.621 147.156C369.397 134.565 325.469 139.571 293.562 159.398C306.672 159.432 319.867 160.424 333.113 162.302Z" fill="#B2CEF3"/>
<path d="M127.643 464.579C148.203 476.521 172.352 481.084 196.059 480.886C217.396 480.709 238.713 476.986 259.413 471.941C269.528 469.475 279.532 466.608 289.657 464.659C285.522 459.257 280.419 455.027 272.827 454.122C243.459 450.621 212.558 462.765 183.32 464.828C163.675 466.214 142.807 463.542 126.929 451.758C116.629 444.114 109.114 433.098 103.99 421.26C93.3604 396.695 93.0759 368.507 102.055 343.397C108.132 326.404 122.895 313.491 128.06 296.178C132.373 281.717 127.374 266.622 128.783 252.005C129.071 249.024 129.625 246.063 130.58 243.131C135.636 227.592 159.923 205.142 174.808 197.641C210.482 179.663 247.71 170.919 285.677 170.025C264.095 166.403 243.669 159.892 207.492 152.182C164.521 143.024 116.245 174.66 90.8896 211.463C88.3037 215.216 86.0286 219.157 84.069 223.24C75.2987 241.509 72.8249 262.61 76.8902 282.369C81.67 305.597 96.4436 323.498 91.163 348.227C87.9467 363.289 87.0913 377.252 85.4239 392.163C84.121 403.817 86.2664 414.958 90.8107 425.102C98.2057 441.609 111.965 455.472 127.643 464.579Z" fill="#B2CEF3"/>
<path d="M351.825 161.246C345.067 161.759 338.873 162.105 333.114 162.302C352.678 165.075 372.354 169.779 392.035 176.272C392.037 176.273 465.578 200.536 465.578 200.536C500.141 211.939 523.05 245.17 520.897 281.606C520.883 281.846 520.868 282.085 520.853 282.324C519.476 303.445 512.455 324.148 500.859 341.508C490.358 357.227 475.868 374.807 472.24 394.099C469.35 409.472 475.593 425.012 476.353 440.657C477.075 455.531 472.644 469.646 465.018 481.837C473.911 479.379 482.451 475.922 490.405 471.323C513.069 458.222 528.931 436.945 535.967 414.069C541.589 395.787 542.303 378.69 538.088 360.026C533.761 340.863 526.456 321.545 528.725 301.578C528.915 299.9 529.178 298.229 529.486 296.563C531.729 284.417 536.51 272.551 535.488 260.278C534.715 251.006 530.645 242.306 525.669 234.454C509.147 208.387 482.493 190.154 453.599 179.109C450.714 178.006 447.807 176.973 444.885 176.013C414.597 166.059 383.359 158.851 351.825 161.246Z" fill="#B2CEF3"/>
<path d="M130.245 235.775C129.305 238.806 128.766 241.865 128.493 244.943C127.156 260.036 132.23 275.589 127.988 290.536C122.91 308.431 108.211 321.835 102.219 339.404C93.3649 365.365 93.7903 394.456 104.542 419.753C109.725 431.945 117.294 443.276 127.632 451.112C143.569 463.191 164.451 465.841 184.088 464.308C213.315 462.028 244.155 449.336 273.541 452.797C281.137 453.692 286.26 458.031 290.423 463.585C295.146 469.887 298.631 477.754 303.083 483.928C304.229 485.518 305.429 487.065 306.672 488.572H460.327C461.996 486.4 463.567 484.155 465.017 481.836C472.643 469.646 477.075 455.531 476.352 440.657C475.593 425.011 469.349 409.472 472.24 394.099C475.867 374.807 490.358 357.226 500.858 341.507C512.455 324.147 519.475 303.444 520.852 282.324C520.867 282.085 520.883 281.845 520.897 281.605C523.05 245.17 500.14 211.938 465.577 200.536C465.577 200.536 392.037 176.273 392.035 176.272C372.353 169.779 352.678 165.075 333.113 162.301C319.867 160.423 306.672 159.431 293.562 159.398C290.696 159.391 287.834 159.439 284.976 159.522C247.014 160.641 209.829 169.859 174.246 188.598C159.399 196.416 135.224 219.712 130.245 235.775Z" fill="#B2CEF3"/>
</g>
<g opacity="0.5">
<path d="M287.228 197.893C299.239 194.6 311.88 192.841 324.926 192.841C374.813 192.841 418.762 218.553 444.314 257.476" stroke="#FEBE8E" stroke-width="2.48214" stroke-dasharray="38.47 38.47"/>
</g>
<g opacity="0.5">
<path d="M184.234 361.046C182.818 352.956 182.08 344.634 182.08 336.14C182.08 296.532 198.135 260.655 224.067 234.706" stroke="#FEBE8E" stroke-width="2.48214" stroke-dasharray="38.47 38.47"/>
</g>
<g opacity="0.5">
<path d="M489.402 352.812C487.679 373.521 482.118 393.144 473.435 410.96" stroke="#3F85E2" stroke-width="2.84404" stroke-dasharray="44.08 44.08"/>
</g>
<path d="M66.7982 371.101C66.7982 386.062 54.7087 398.189 39.7961 398.189C24.8829 398.189 12.7939 386.062 12.7939 371.101C12.7939 356.141 24.8829 344.014 39.7961 344.014C54.7087 344.014 66.7982 356.141 66.7982 371.101Z" fill="#D1E2F8"/>
<path d="M329.342 125.005C329.342 131.629 323.989 137 317.385 137C310.781 137 305.428 131.629 305.428 125.005C305.428 118.38 310.781 113.01 317.385 113.01C323.989 113.01 329.342 118.38 329.342 125.005Z" fill="#D1E2F8"/>
<path d="M521.38 185.526C524.584 188.74 524.584 193.95 521.38 197.164C518.177 200.377 512.983 200.377 509.78 197.164C506.576 193.95 506.576 188.74 509.78 185.526C512.983 182.313 518.177 182.313 521.38 185.526Z" fill="#D1E2F8"/>
<path d="M619.687 245.436C619.687 260.397 607.598 272.524 592.685 272.524C577.772 272.524 565.683 260.397 565.683 245.436C565.683 230.476 577.772 218.349 592.685 218.349C607.598 218.349 619.687 230.476 619.687 245.436Z" fill="#D1E2F8"/>
<path d="M173.503 332.447C173.503 334.237 172.057 335.687 170.273 335.687C168.488 335.687 167.041 334.237 167.041 332.447C167.041 330.657 168.488 329.207 170.273 329.207C172.057 329.207 173.503 330.657 173.503 332.447Z" fill="#FDA868"/>
<path d="M108.759 288.215C108.759 292.927 104.951 296.747 100.254 296.747C95.5576 296.747 91.75 292.927 91.75 288.215C91.75 283.503 95.5576 279.684 100.254 279.684C104.951 279.684 108.759 283.503 108.759 288.215Z" fill="#669EE8"/>
<path d="M213.471 279.861C213.471 281.651 212.024 283.102 210.24 283.102C208.455 283.102 207.009 281.651 207.009 279.861C207.009 278.071 208.455 276.62 210.24 276.62C212.024 276.62 213.471 278.071 213.471 279.861Z" fill="#3F85E2"/>
<path d="M208.576 209.197L183.31 227.728C182.111 228.607 180.428 228.345 179.55 227.141L164.863 206.996C163.986 205.793 164.246 204.104 165.446 203.225L190.712 184.694C191.911 183.815 193.595 184.077 194.472 185.281L209.159 205.425C210.037 206.628 209.776 208.317 208.576 209.197Z" fill="#FDA868"/>
<path d="M210.225 209.788C210.015 210.035 209.773 210.261 209.5 210.462L209.5 210.462L184.233 228.993C182.342 230.381 179.675 229.966 178.289 228.067L163.602 207.921C162.219 206.022 162.634 203.345 164.523 201.96L189.789 183.427C191.682 182.039 194.348 182.456 195.734 184.355L210.421 204.501C211.606 206.125 211.475 208.319 210.225 209.788ZM207.654 207.931C208.16 207.558 208.266 206.853 207.898 206.351L193.212 186.205C192.844 185.701 192.137 185.591 191.635 185.959L166.369 204.491C165.865 204.854 165.757 205.569 166.125 206.072L180.811 226.216C181.179 226.719 181.885 226.83 182.387 226.462L207.654 207.93L207.654 207.931Z" fill="#0D376E"/>
<path d="M189.756 211.825C189.642 211.959 189.512 212.083 189.369 212.193C188.842 212.593 188.193 212.764 187.537 212.673L180.474 211.676C179.62 211.555 179.024 210.762 179.143 209.905C179.263 209.049 180.052 208.45 180.909 208.57L187.31 209.475L189.356 194.181C189.469 193.324 190.256 192.721 191.114 192.837C191.969 192.952 192.57 193.742 192.455 194.6L190.32 210.554C190.257 211.03 190.06 211.467 189.756 211.825Z" fill="white"/>
<path d="M257.892 185.02C257.892 186.81 256.446 188.26 254.662 188.26C252.877 188.26 251.431 186.81 251.431 185.02C251.431 183.23 252.877 181.779 254.662 181.779C256.446 181.779 257.892 183.23 257.892 185.02Z" fill="#3F85E2"/>
<path d="M289.372 177.529C289.372 182.241 285.564 186.061 280.867 186.061C276.17 186.061 272.363 182.241 272.363 177.529C272.363 172.817 276.17 168.998 280.867 168.998C285.564 168.998 289.372 172.817 289.372 177.529Z" fill="#669EE8"/>
<path d="M371.258 177.089C371.258 180.988 368.108 184.148 364.221 184.148C360.335 184.148 357.185 180.988 357.185 177.089C357.185 173.19 360.335 170.03 364.221 170.03C368.108 170.03 371.258 173.19 371.258 177.089Z" fill="#FDA868"/>
<path d="M456.12 255.966L430.711 237.614C429.505 236.743 429.231 235.056 430.099 233.847L444.627 213.599C445.495 212.39 447.177 212.115 448.382 212.986L473.792 231.338C474.998 232.21 475.271 233.897 474.404 235.106L459.875 255.353C459.007 256.563 457.326 256.838 456.12 255.966Z" fill="#669EE8"/>
<path d="M429.424 238.584C428.711 237.938 428.241 237.075 428.084 236.109C427.901 234.984 428.165 233.855 428.829 232.929L443.358 212.684C444.729 210.774 447.392 210.34 449.295 211.716L474.704 230.066C476.614 231.444 477.041 234.113 475.674 236.022L461.144 256.27C459.773 258.179 457.109 258.613 455.206 257.238L429.798 238.887C429.666 238.792 429.542 238.691 429.424 238.584ZM472.976 232.69C472.946 232.662 472.912 232.635 472.878 232.61L447.47 214.259C446.964 213.894 446.258 214.009 445.895 214.515L431.367 234.764C431.191 235.008 431.12 235.308 431.169 235.606C431.217 235.904 431.382 236.166 431.623 236.342L457.032 254.694C457.537 255.059 458.243 254.944 458.606 254.437L473.135 234.191C473.473 233.719 473.397 233.071 472.976 232.69Z" fill="#0D376E"/>
<path d="M447.061 238.374C446.657 238.008 446.387 237.522 446.291 236.976L445.041 229.936C444.889 229.083 445.457 228.27 446.306 228.119C447.154 227.966 447.967 228.534 448.118 229.386L449.251 235.77L464.378 232.985C465.226 232.829 466.041 233.391 466.197 234.245C466.353 235.096 465.792 235.914 464.944 236.071L449.163 238.976C448.513 239.096 447.855 238.953 447.311 238.574C447.224 238.512 447.14 238.446 447.061 238.374Z" fill="white"/>
<path d="M503.19 275.578C503.19 277.368 501.744 278.82 499.959 278.82C498.175 278.82 496.729 277.368 496.729 275.578C496.729 273.788 498.175 272.338 499.959 272.338C501.744 272.338 503.19 273.788 503.19 275.578Z" fill="#3F85E2"/>
<path d="M518.92 314.88C518.92 316.67 517.473 318.12 515.689 318.12C513.905 318.12 512.458 316.67 512.458 314.88C512.458 313.09 513.905 311.64 515.689 311.64C517.473 311.64 518.92 313.09 518.92 314.88Z" fill="#FDA868"/>
<path d="M532.981 386.123C532.981 389.419 530.317 392.092 527.031 392.092C523.745 392.092 521.081 389.419 521.081 386.123C521.081 382.826 523.745 380.154 527.031 380.154C530.317 380.154 532.981 382.826 532.981 386.123Z" fill="#FDA868"/>
<path d="M310.02 383.395C309.555 384.668 308.63 385.684 307.411 386.264C306.167 386.856 304.765 386.92 303.463 386.447L299.78 385.105C298.187 387.746 296.153 390.022 293.719 391.889L295.42 395.467C296.016 396.724 296.095 398.136 295.641 399.441C295.193 400.798 294.249 401.799 293.005 402.39C291.761 402.981 290.359 403.046 289.056 402.572C287.758 402.1 286.714 401.147 286.117 399.892L284.416 396.312C281.433 397.022 278.384 397.162 275.333 396.731L274.045 400.434C273.572 401.713 272.653 402.791 271.409 403.384C270.165 403.975 268.762 404.039 267.461 403.566C264.781 402.59 263.363 399.605 264.298 396.91L265.591 393.19C262.954 391.554 260.672 389.473 258.793 386.989L255.277 388.662C254.032 389.253 252.63 389.318 251.326 388.844C250.027 388.371 248.984 387.418 248.387 386.162C247.789 384.906 247.711 383.495 248.165 382.189C248.648 380.852 249.557 379.831 250.8 379.24L254.317 377.568C253.578 374.543 253.407 371.458 253.804 368.378L250.105 367.031C247.424 366.055 246.007 363.07 246.943 360.375C247.422 359.061 248.335 358.018 249.579 357.427C250.823 356.835 252.226 356.771 253.528 357.245L257.212 358.585C258.804 355.945 260.838 353.669 263.272 351.802L261.572 348.224L261.573 348.224C260.975 346.968 260.895 345.556 261.349 344.25C261.786 342.928 262.74 341.893 263.985 341.3C266.55 340.081 269.64 341.203 270.875 343.8L272.575 347.379C275.56 346.67 278.608 346.529 281.658 346.961L282.946 343.257C283.441 341.935 284.338 340.899 285.582 340.308C286.825 339.716 288.228 339.652 289.53 340.125C292.21 341.1 293.629 344.086 292.692 346.782L291.4 350.5C294.038 352.138 296.32 354.219 298.199 356.701L301.714 355.03C304.281 353.81 307.371 354.932 308.604 357.529C309.201 358.785 309.28 360.197 308.826 361.503C308.386 362.809 307.436 363.86 306.19 364.451L302.674 366.123C303.412 369.149 303.585 372.234 303.187 375.314L306.886 376.659C309.567 377.635 310.985 380.62 310.048 383.315C310.038 383.342 310.03 383.369 310.02 383.395ZM291.455 391.311L292.064 390.872C294.761 388.932 296.958 386.472 298.596 383.559L298.97 382.895L304.074 384.753C304.921 385.061 305.832 385.019 306.639 384.636C307.429 384.26 308.028 383.599 308.331 382.772C308.337 382.754 308.343 382.736 308.35 382.719C308.964 380.951 308.034 378.992 306.277 378.353L301.189 376.503L301.305 375.767C301.832 372.448 301.645 369.118 300.751 365.866L300.55 365.138L305.417 362.823C306.225 362.439 306.848 361.77 307.128 360.907C307.425 360.051 307.373 359.126 306.981 358.301C306.174 356.601 304.159 355.864 302.488 356.658L297.622 358.973L297.184 358.357C295.23 355.611 292.766 353.363 289.86 351.675L289.216 351.3L290.994 346.185C291.609 344.417 290.679 342.459 288.921 341.82C288.073 341.512 287.162 341.553 286.354 341.936C285.565 342.312 284.965 342.972 284.662 343.8C284.656 343.818 284.65 343.835 284.644 343.853L282.861 348.985L282.111 348.855C278.82 348.287 275.525 348.438 272.317 349.305L271.592 349.5L269.251 344.572C268.444 342.873 266.428 342.136 264.759 342.93C263.951 343.312 263.308 343.965 263.048 344.846C262.75 345.701 262.803 346.626 263.195 347.451L263.196 347.452L265.536 352.381L264.927 352.819C262.231 354.759 260.034 357.22 258.395 360.132L258.021 360.795L252.918 358.939C252.07 358.631 251.159 358.672 250.352 359.055C249.562 359.431 248.963 360.091 248.66 360.919C248.654 360.937 248.647 360.955 248.641 360.972C248.027 362.739 248.958 364.698 250.716 365.337L255.802 367.188L255.686 367.925C255.159 371.243 255.345 374.575 256.24 377.826L256.441 378.554L251.573 380.869C250.766 381.252 250.157 381.928 249.863 382.784C249.566 383.64 249.618 384.566 250.009 385.39C250.402 386.216 251.086 386.84 251.937 387.15C252.785 387.459 253.696 387.417 254.502 387.033L259.37 384.718L259.808 385.334C261.763 388.081 264.227 390.33 267.132 392.016L267.774 392.39L265.997 397.506C265.383 399.273 266.314 401.233 268.071 401.872C268.918 402.18 269.83 402.138 270.636 401.755C271.443 401.372 272.03 400.694 272.347 399.838L274.131 394.708L274.881 394.837C278.173 395.404 281.468 395.252 284.674 394.387L285.398 394.191L287.74 399.119C288.131 399.944 288.816 400.569 289.667 400.879C290.514 401.187 291.425 401.145 292.232 400.761C293.039 400.379 293.656 399.718 293.943 398.845C294.24 397.99 294.189 397.065 293.797 396.239L291.455 391.311ZM295.638 378.394C293.992 382.894 290.731 386.486 286.424 388.535C277.349 392.849 266.411 388.873 262.039 379.67C259.923 375.215 259.644 370.211 261.252 365.582C262.857 360.915 266.171 357.246 270.567 355.156C274.965 353.065 279.923 352.837 284.53 354.512C289.134 356.187 292.834 359.564 294.951 364.021C297.069 368.477 297.348 373.48 295.739 378.109C295.706 378.204 295.672 378.299 295.638 378.394ZM263.041 365.921C263.01 366.006 262.98 366.091 262.95 366.178C261.499 370.357 261.752 374.874 263.664 378.898C267.608 387.203 277.471 390.795 285.65 386.906C289.61 385.024 292.565 381.685 294.042 377.512C295.494 373.335 295.24 368.818 293.327 364.793L293.328 364.792C291.416 360.768 288.075 357.719 283.92 356.207C279.768 354.695 275.301 354.901 271.341 356.785C267.462 358.629 264.524 361.867 263.041 365.921Z" fill="white"/>
<path d="M339.894 463.271C339.644 463.956 339.273 464.606 338.779 465.192C337.682 466.489 336.151 467.274 334.467 467.402C332.782 467.53 331.146 466.986 329.861 465.87L325.933 462.456C322.767 464.949 319.217 466.77 315.358 467.878L315.765 473.111C316.04 476.627 313.435 479.704 309.961 479.967C308.276 480.096 306.642 479.552 305.357 478.435C304.075 477.321 303.297 475.77 303.165 474.07L302.757 468.837C298.773 468.325 294.981 467.062 291.466 465.078L288.114 469.045C287.018 470.342 285.487 471.127 283.803 471.255C282.117 471.384 280.482 470.839 279.197 469.723C276.554 467.425 276.239 463.383 278.495 460.711L281.859 456.731C279.381 453.508 277.568 449.897 276.458 445.976L271.31 446.368C269.625 446.497 267.989 445.952 266.705 444.836C265.424 443.723 264.646 442.172 264.513 440.47C264.237 436.956 266.841 433.878 270.316 433.614L275.466 433.221C275.957 429.18 277.189 425.337 279.139 421.778L275.2 418.352C272.554 416.055 272.245 412.014 274.498 409.342C275.594 408.043 277.127 407.259 278.811 407.131C280.496 407.002 282.13 407.546 283.415 408.662L287.342 412.077C290.51 409.584 294.061 407.763 297.919 406.655L297.511 401.422C297.377 399.72 297.907 398.071 299.002 396.775C300.099 395.478 301.631 394.693 303.315 394.565C305 394.437 306.635 394.981 307.92 396.097C309.201 397.211 309.979 398.762 310.111 400.463L310.518 405.696C314.504 406.208 318.295 407.471 321.81 409.455L325.162 405.488C326.26 404.19 327.791 403.405 329.476 403.278C331.161 403.15 332.797 403.694 334.08 404.811C336.723 407.108 337.035 411.148 334.782 413.822L331.417 417.801C333.895 421.024 335.709 424.635 336.818 428.556L341.967 428.165C343.652 428.036 345.287 428.58 346.571 429.697C347.853 430.811 348.631 432.361 348.764 434.062C348.896 435.765 348.366 437.415 347.273 438.709C346.176 440.006 344.645 440.791 342.96 440.919L337.81 441.311C337.321 445.353 336.087 449.195 334.138 452.756L338.078 456.179C340.141 457.974 340.786 460.833 339.894 463.271ZM313.449 466.523L314.176 466.334C318.306 465.253 322.076 463.318 325.381 460.586L325.967 460.102L331.038 464.509C331.956 465.308 333.125 465.697 334.327 465.605C335.528 465.513 336.621 464.952 337.405 464.025C339.03 462.105 338.802 459.193 336.901 457.539L331.843 453.144L332.215 452.5C334.373 448.766 335.681 444.688 336.103 440.379L336.176 439.627L342.82 439.122C344.022 439.031 345.116 438.47 345.899 437.542C346.685 436.612 347.066 435.425 346.972 434.199C346.876 432.974 346.316 431.858 345.395 431.057C344.476 430.259 343.309 429.869 342.107 429.961L335.464 430.466L335.274 429.735C334.192 425.541 332.268 421.709 329.558 418.344L329.09 417.764L333.408 412.655C335.033 410.735 334.805 407.823 332.903 406.171C331.985 405.372 330.818 404.984 329.616 405.074C328.414 405.165 327.32 405.727 326.536 406.655L322.208 411.776L321.553 411.387C317.863 409.186 313.838 407.845 309.589 407.401L308.842 407.323L308.319 400.6C308.224 399.374 307.664 398.258 306.743 397.457C305.825 396.659 304.657 396.271 303.455 396.362C302.253 396.453 301.159 397.014 300.376 397.942C299.589 398.871 299.209 400.058 299.304 401.285L299.828 408.01L299.102 408.199C294.972 409.28 291.201 411.214 287.895 413.947L287.308 414.431L282.238 410.023C281.32 409.225 280.153 408.836 278.951 408.928C277.749 409.019 276.655 409.58 275.871 410.508C274.246 412.428 274.473 415.34 276.377 416.992L281.433 421.39L281.061 422.034C278.901 425.766 277.595 429.846 277.173 434.153L277.1 434.904L270.456 435.41C267.972 435.6 266.107 437.807 266.306 440.333C266.401 441.559 266.96 442.675 267.882 443.476C268.8 444.274 269.968 444.663 271.169 444.571L277.813 444.066L278.002 444.797C279.085 448.992 281.008 452.824 283.718 456.188L284.186 456.768L279.869 461.878C278.244 463.799 278.469 466.709 280.373 468.362C281.291 469.161 282.46 469.55 283.662 469.458C284.864 469.366 285.957 468.806 286.74 467.879L291.07 462.757L291.724 463.147C295.414 465.348 299.438 466.688 303.687 467.131L304.434 467.21L304.957 473.933C305.053 475.158 305.612 476.274 306.533 477.075C307.452 477.873 308.619 478.263 309.821 478.171C312.307 477.982 314.167 475.772 313.972 473.248L313.449 466.523ZM328.205 445.395C325.191 453.639 317.66 459.786 308.446 460.487C295.812 461.447 284.723 451.812 283.726 439.009C282.73 426.203 292.199 415.006 304.832 414.046C310.953 413.581 316.896 415.56 321.566 419.618C326.232 423.674 329.068 429.323 329.55 435.523C329.819 438.988 329.323 442.336 328.205 445.395ZM286.76 429.759C285.728 432.582 285.27 435.672 285.519 438.872C286.438 450.686 296.661 459.575 308.306 458.69C319.952 457.804 328.676 447.471 327.758 435.66C327.312 429.935 324.695 424.722 320.39 420.978C316.086 417.237 310.611 415.413 304.972 415.843C296.481 416.489 289.54 422.156 286.76 429.759Z" fill="white"/>
<path d="M310.906 401.2C310.552 400.232 310.406 399.192 310.485 398.133C310.633 396.162 311.546 394.366 313.055 393.076L317.891 388.944C315.469 384.689 313.937 380.087 313.33 375.244L306.949 374.778C304.967 374.632 303.161 373.731 301.862 372.238C300.562 370.745 299.925 368.835 300.072 366.863C300.377 362.799 303.957 359.736 308.053 360.035L314.435 360.502C315.756 355.797 317.956 351.468 320.986 347.613L316.818 342.822C315.516 341.327 314.881 339.419 315.028 337.447C315.176 335.476 316.088 333.681 317.598 332.391C320.708 329.733 325.417 330.079 328.096 333.158L332.276 337.961C336.574 335.553 341.224 334.03 346.118 333.428L346.59 327.117C346.895 323.053 350.475 319.99 354.571 320.288C356.554 320.433 358.36 321.335 359.659 322.827C360.959 324.321 361.596 326.231 361.449 328.202L360.975 334.514C365.727 335.822 370.1 338.002 373.992 341.01L378.84 336.867C381.95 334.209 386.659 334.555 389.34 337.634C390.642 339.131 391.276 341.038 391.128 343.008C390.981 344.979 390.069 346.775 388.559 348.066L383.722 352.199C386.145 356.451 387.677 361.053 388.283 365.899L394.663 366.365C398.759 366.665 401.846 370.217 401.539 374.279C401.392 376.25 400.48 378.046 398.971 379.336C397.463 380.623 395.542 381.253 393.56 381.108L387.179 380.641C385.859 385.344 383.658 389.673 380.628 393.529L384.795 398.32C386.097 399.816 386.732 401.723 386.584 403.695C386.437 405.667 385.524 407.463 384.015 408.752C380.906 411.409 376.196 411.065 373.518 407.984L369.338 403.182C365.038 405.59 360.389 407.113 355.495 407.714L355.022 414.026C354.718 418.09 351.138 421.154 347.043 420.855C342.946 420.554 339.86 417.005 340.166 412.94L340.637 406.629C335.886 405.321 331.513 403.139 327.621 400.133L322.773 404.276C319.663 406.932 314.953 406.588 312.274 403.509C311.671 402.817 311.211 402.036 310.906 401.2ZM320.209 389.33L314.22 394.447C313.079 395.421 312.39 396.778 312.278 398.264C312.165 399.752 312.647 401.196 313.629 402.323C315.666 404.663 319.245 404.924 321.607 402.905L327.584 397.799L328.163 398.265C332.195 401.505 336.787 403.796 341.813 405.075L342.543 405.26L341.959 413.071C341.727 416.144 344.07 418.828 347.177 419.058C350.284 419.285 353 416.968 353.229 413.895L353.814 406.084L354.564 406.007C359.724 405.474 364.608 403.875 369.08 401.256L369.722 400.879L374.873 406.798C376.909 409.138 380.488 409.4 382.85 407.381C383.991 406.407 384.68 405.051 384.792 403.564C384.904 402.078 384.421 400.637 383.439 399.506L378.277 393.574L378.76 392.984C382.032 388.987 384.345 384.439 385.635 379.463L385.823 378.735L393.694 379.31C395.202 379.421 396.662 378.943 397.806 377.965C398.946 376.99 399.636 375.635 399.746 374.149C399.979 371.075 397.636 368.389 394.529 368.162L386.658 367.587L386.58 366.839C386.044 361.729 384.435 356.895 381.794 352.467L381.405 351.812L387.393 346.695C388.534 345.721 389.224 344.365 389.335 342.877C389.446 341.392 388.967 339.95 387.984 338.82C385.947 336.48 382.368 336.218 380.006 338.237L374.03 343.343L373.451 342.878C369.418 339.636 364.825 337.345 359.8 336.068L359.07 335.883L359.654 328.072C359.767 326.583 359.287 325.144 358.303 324.013C357.317 322.88 355.945 322.196 354.437 322.086C351.33 321.859 348.613 324.174 348.383 327.248L347.799 335.059L347.049 335.136C341.89 335.669 337.006 337.268 332.534 339.887L331.891 340.264L326.741 334.344C324.705 332.004 321.126 331.742 318.763 333.761C317.622 334.735 316.933 336.091 316.821 337.578C316.711 339.067 317.192 340.508 318.173 341.636L323.336 347.569L322.853 348.159C319.582 352.152 317.269 356.701 315.979 361.679L315.79 362.407L307.918 361.833C304.811 361.605 302.096 363.921 301.865 366.994C301.755 368.483 302.235 369.924 303.218 371.053C304.204 372.185 305.576 372.87 307.084 372.979L314.955 373.556L315.033 374.304C315.569 379.413 317.181 384.249 319.819 388.675L320.209 389.33ZM324.859 379.862C323.575 376.349 323.001 372.522 323.298 368.561C323.843 361.275 327.219 354.636 332.802 349.865C338.383 345.096 345.503 342.765 352.848 343.302C360.194 343.84 366.889 347.18 371.698 352.708C376.51 358.238 378.859 365.297 378.315 372.581C377.19 387.618 363.934 398.949 348.765 397.841C337.593 397.024 328.45 389.681 324.859 379.862ZM375.068 361.871C374.013 358.986 372.425 356.287 370.342 353.893C365.845 348.725 359.585 345.601 352.714 345.1C345.843 344.597 339.185 346.776 333.968 351.235C328.753 355.69 325.6 361.89 325.091 368.692C324.038 382.74 334.721 395.007 348.899 396.043C363.079 397.079 375.471 386.495 376.522 372.451C376.796 368.801 376.29 365.212 375.068 361.871Z" fill="white"/>
<path d="M243.857 466.935L147.622 467.138C140.236 467.153 134.181 461.104 134.165 453.695L134.034 390.832C134.019 383.423 140.049 377.349 147.434 377.333L243.669 377.131C251.054 377.115 257.109 383.164 257.125 390.573L257.257 453.436C257.272 460.845 251.242 466.919 243.857 466.935Z" fill="#3F85E2"/>
<path d="M147.593 468.49C139.46 468.49 132.834 461.862 132.817 453.698L132.687 390.835C132.669 382.662 139.283 375.998 147.432 375.981L243.666 375.778H243.696C251.831 375.778 258.456 382.408 258.473 390.571L258.604 453.434C258.613 457.378 257.08 461.099 254.288 463.912C251.495 466.724 247.791 468.278 243.859 468.287L147.625 468.49H147.593ZM243.856 466.936H243.865H243.856ZM243.696 378.482H243.672L147.437 378.685C140.776 378.699 135.368 384.147 135.383 390.829L135.513 453.693C135.527 460.366 140.944 465.785 147.593 465.785H147.619L243.854 465.583C247.066 465.576 250.093 464.304 252.377 462.004C254.661 459.703 255.916 456.661 255.908 453.439L255.777 390.575C255.763 383.902 250.346 378.482 243.696 378.482Z" fill="#0D376E"/>
<path d="M243.857 466.935L147.622 467.137C140.236 467.153 134.181 461.104 134.165 453.695L134.034 390.832C134.019 383.423 140.049 377.349 147.434 377.333L243.669 377.13C251.054 377.115 257.109 383.164 257.125 390.573L257.257 453.436C257.272 460.844 251.242 466.919 243.857 466.935Z" fill="#0D376E"/>
<path d="M231.85 415.187L185.769 425.922C185.242 426.045 184.716 425.716 184.594 425.188L170.058 362.087C169.937 361.558 170.266 361.03 170.793 360.907L216.874 350.172C217.401 350.049 217.927 350.378 218.049 350.906L232.584 414.008C232.706 414.536 232.377 415.064 231.85 415.187Z" fill="#FDA868"/>
<path d="M232.636 415.856C232.463 415.965 232.269 416.047 232.06 416.095L185.979 426.831C185.482 426.947 184.97 426.862 184.537 426.592C184.105 426.321 183.803 425.897 183.688 425.399L169.153 362.298C169.039 361.8 169.124 361.286 169.395 360.852C169.665 360.418 170.087 360.115 170.585 360L216.665 349.264C217.162 349.148 217.674 349.234 218.106 349.504C218.539 349.775 218.841 350.198 218.955 350.696L233.49 413.797C233.678 414.615 233.311 415.435 232.636 415.856ZM170.992 361.821C170.974 361.832 170.961 361.857 170.965 361.876L185.5 424.977C185.505 425 185.537 425.02 185.56 425.015L231.641 414.279L231.642 414.279C231.663 414.273 231.684 414.242 231.678 414.219L217.143 351.118C217.138 351.095 217.106 351.075 217.083 351.081L171.003 361.816C170.999 361.817 170.995 361.818 170.992 361.821Z" fill="#0D376E"/>
<path d="M454.906 455.398L413.041 428.719C412.562 428.413 412.42 427.778 412.723 427.298L448.979 370.074C449.282 369.594 449.917 369.454 450.396 369.759L492.261 396.438C492.74 396.743 492.882 397.379 492.578 397.858L456.322 455.083C456.019 455.562 455.385 455.703 454.906 455.398Z" fill="#FDA868"/>
<path d="M454.986 456.478C454.778 456.428 454.574 456.343 454.384 456.222L412.519 429.543C412.067 429.255 411.754 428.809 411.637 428.286C411.52 427.763 411.614 427.225 411.9 426.774L448.156 369.55C448.442 369.098 448.887 368.785 449.409 368.669C449.93 368.553 450.466 368.648 450.918 368.936L492.782 395.614C493.234 395.902 493.546 396.349 493.664 396.871C493.78 397.395 493.687 397.932 493.4 398.383L457.145 455.607C456.675 456.348 455.795 456.675 454.986 456.478ZM449.862 370.578C449.841 370.573 449.813 370.582 449.802 370.599L413.546 427.823C413.533 427.844 413.541 427.882 413.562 427.895L455.427 454.574L455.428 454.574C455.447 454.586 455.486 454.579 455.499 454.558L491.755 397.334C491.768 397.313 491.759 397.275 491.738 397.262L449.874 370.583C449.87 370.581 449.867 370.579 449.862 370.578Z" fill="#0D376E"/>
<path d="M226.298 298.245L233.917 251.335C234.004 250.798 234.509 250.433 235.044 250.52L298.976 260.841C299.512 260.928 299.875 261.434 299.788 261.97L292.169 308.88C292.082 309.416 291.577 309.781 291.041 309.695L227.109 299.373C226.574 299.286 226.211 298.782 226.298 298.245Z" fill="#669EE8"/>
<path d="M225.379 298.723C225.344 298.521 225.342 298.31 225.377 298.097L232.996 251.186C233.078 250.681 233.352 250.237 233.767 249.936C234.182 249.636 234.689 249.516 235.194 249.597L299.126 259.92C299.63 260.001 300.073 260.275 300.372 260.69C300.671 261.105 300.79 261.612 300.708 262.119L293.089 309.028C293.006 309.535 292.732 309.978 292.318 310.278C291.902 310.578 291.395 310.699 290.891 310.617L226.959 300.295C226.13 300.161 225.511 299.509 225.379 298.723ZM298.867 261.81C298.864 261.789 298.845 261.767 298.826 261.764L234.894 251.442C234.871 251.438 234.84 251.46 234.837 251.483L227.217 298.393L227.217 298.394C227.214 298.416 227.235 298.447 227.258 298.45L291.191 308.773C291.214 308.777 291.244 308.754 291.248 308.731L298.867 261.822C298.867 261.817 298.868 261.814 298.867 261.81Z" fill="#0D376E"/>
<path d="M426.172 383.68L395.333 350.117C395 349.755 395.024 349.19 395.386 348.856L440.817 306.916C441.18 306.581 441.743 306.604 442.076 306.966L472.916 340.529C473.249 340.892 473.225 341.456 472.863 341.791L427.431 383.73C427.069 384.065 426.505 384.043 426.172 383.68Z" fill="white"/>
<path d="M394.163 350.166C394.081 349.935 394.043 349.688 394.054 349.434C394.076 348.916 394.298 348.437 394.679 348.085L440.109 306.145C440.896 305.42 442.124 305.468 442.847 306.255L473.687 339.818C474.037 340.198 474.217 340.694 474.196 341.213C474.174 341.731 473.952 342.21 473.57 342.562L428.14 384.502C427.759 384.853 427.264 385.035 426.748 385.014C426.23 384.993 425.753 384.772 425.402 384.391L394.563 350.829C394.385 350.634 394.249 350.409 394.163 350.166ZM441.412 307.792L396.209 349.521L426.839 382.854L472.041 341.126L441.412 307.792Z" fill="#0D376E"/>
<path d="M450.503 342.532C450.412 342.276 450.476 341.978 450.689 341.781C450.972 341.519 451.414 341.538 451.675 341.822L456.981 347.595C457.24 347.877 457.223 348.321 456.939 348.584C456.655 348.846 456.214 348.828 455.953 348.544L450.647 342.77C450.581 342.699 450.534 342.618 450.503 342.532Z" fill="#0D376E"/>
<path d="M423.994 330.935C423.903 330.679 423.966 330.381 424.179 330.185C424.462 329.923 424.904 329.94 425.165 330.224L448.401 355.511C448.66 355.792 448.643 356.237 448.36 356.5C448.076 356.762 447.635 356.744 447.374 356.46L424.138 331.173C424.072 331.102 424.024 331.021 423.994 330.935Z" fill="#0D376E"/>
<path d="M432.157 351.571C432.066 351.315 432.129 351.018 432.342 350.821C432.626 350.559 433.068 350.577 433.329 350.861L442.564 360.912C442.823 361.193 442.807 361.637 442.523 361.9C442.239 362.162 441.797 362.144 441.536 361.86L432.301 351.809C432.235 351.739 432.187 351.657 432.157 351.571Z" fill="#FDA868"/>
<path d="M418.157 336.317C418.066 336.061 418.129 335.764 418.342 335.567C418.625 335.305 419.068 335.323 419.328 335.607L424.981 341.759C425.239 342.04 425.223 342.485 424.939 342.748C424.656 343.009 424.214 342.992 423.953 342.708L418.3 336.555C418.235 336.485 418.188 336.403 418.157 336.317Z" fill="#FDA868"/>
<path d="M410.999 341.663C410.908 341.407 410.971 341.11 411.184 340.913C411.467 340.651 411.91 340.669 412.17 340.953L426.482 356.527C426.741 356.81 426.724 357.253 426.441 357.516C426.157 357.778 425.715 357.761 425.454 357.476L411.142 341.902C411.077 341.831 411.029 341.749 410.999 341.663Z" fill="#0D376E"/>
<path d="M469.638 445.208L434.227 459.666C433.845 459.822 433.408 459.638 433.253 459.255L413.74 411.159C413.584 410.776 413.768 410.338 414.15 410.182L449.562 395.724C449.944 395.568 450.38 395.753 450.536 396.137L470.049 444.232C470.205 444.615 470.021 445.052 469.638 445.208Z" fill="white"/>
<path d="M433.943 460.603C433.73 460.603 433.516 460.56 433.314 460.474C432.913 460.305 432.603 459.99 432.439 459.586L412.926 411.492C412.762 411.089 412.765 410.645 412.934 410.243C413.102 409.842 413.417 409.53 413.819 409.366L449.23 394.909C450.063 394.571 451.01 394.972 451.348 395.804L470.862 443.899C471.199 444.732 470.799 445.684 469.969 446.024C469.969 446.025 469.969 446.025 469.969 446.025L434.557 460.482C434.359 460.563 434.151 460.604 433.943 460.603ZM414.601 410.949L434.017 458.801L469.187 444.442L449.771 396.59L414.601 410.949ZM469.638 445.209L469.643 445.209L469.638 445.209ZM469.306 444.394L469.305 444.394L469.306 444.393L469.306 444.394Z" fill="#0D376E"/>
<path d="M444.524 413.958C444.294 413.957 444.075 413.82 443.982 413.592C443.86 413.292 444.005 412.95 444.304 412.827L450.394 410.341C450.69 410.218 451.034 410.362 451.156 410.663C451.278 410.963 451.134 411.306 450.835 411.428L444.745 413.914C444.673 413.944 444.598 413.958 444.524 413.958Z" fill="#0D376E"/>
<path d="M427.639 431.452C427.409 431.451 427.19 431.314 427.098 431.086C426.976 430.786 427.12 430.443 427.42 430.321L454.083 419.435C454.38 419.312 454.723 419.456 454.845 419.758C454.967 420.058 454.823 420.4 454.524 420.522L427.86 431.408C427.788 431.438 427.713 431.452 427.639 431.452Z" fill="#0D376E"/>
<path d="M446.215 431.08C445.985 431.08 445.766 430.942 445.674 430.715C445.552 430.414 445.696 430.072 445.996 429.95L456.594 425.623C456.892 425.499 457.234 425.645 457.356 425.945C457.478 426.246 457.334 426.588 457.035 426.71L446.436 431.037C446.364 431.067 446.289 431.08 446.215 431.08Z" fill="#FDA868"/>
<path d="M430.149 437.64C429.919 437.639 429.701 437.502 429.608 437.274C429.486 436.974 429.63 436.631 429.93 436.509L436.417 433.86C436.714 433.737 437.058 433.882 437.18 434.183C437.302 434.483 437.158 434.825 436.858 434.947L430.37 437.596C430.298 437.626 430.223 437.64 430.149 437.64Z" fill="#FDA868"/>
<path d="M432.232 444.853C432.002 444.853 431.783 444.715 431.691 444.488C431.569 444.187 431.713 443.845 432.012 443.723L448.435 437.017C448.732 436.895 449.076 437.039 449.198 437.34C449.32 437.64 449.176 437.983 448.876 438.105L432.453 444.81C432.381 444.84 432.306 444.854 432.232 444.853Z" fill="#0D376E"/>
<path d="M441.529 418.408L427.369 424.541C426.775 424.798 426.084 424.523 425.828 423.927L419.27 408.689C419.013 408.092 419.287 407.399 419.882 407.142L434.041 401.01C434.636 400.752 435.326 401.027 435.584 401.624L442.141 416.862C442.398 417.459 442.124 418.151 441.529 418.408Z" fill="#FDA868"/>
<path d="M426.902 425.225C426.683 425.225 426.465 425.183 426.255 425.1C425.819 424.926 425.476 424.592 425.29 424.16L418.732 408.921C418.546 408.489 418.539 408.009 418.712 407.571C418.885 407.133 419.218 406.79 419.649 406.603L433.809 400.471C434.699 400.087 435.736 400.497 436.12 401.391L442.678 416.629C442.863 417.062 442.871 417.541 442.698 417.979C442.525 418.417 442.192 418.761 441.761 418.948L441.761 418.948L427.601 425.08C427.377 425.177 427.139 425.226 426.902 425.225ZM434.506 401.501C434.428 401.501 434.348 401.516 434.273 401.548L420.113 407.681C419.969 407.743 419.858 407.858 419.8 408.005C419.742 408.151 419.744 408.312 419.806 408.456L426.365 423.694C426.427 423.839 426.541 423.95 426.687 424.008C426.832 424.067 426.992 424.063 427.137 424.002L441.297 417.869C441.441 417.807 441.552 417.692 441.61 417.546C441.668 417.399 441.666 417.239 441.603 417.095L435.046 401.857C434.95 401.635 434.733 401.501 434.506 401.501ZM441.529 418.408L441.534 418.408L441.529 418.408Z" fill="#0D376E"/>
<path d="M426.447 410.321C426.275 410.321 426.102 410.288 425.937 410.222C425.593 410.086 425.323 409.823 425.177 409.482L424.408 407.696C424.344 407.546 424.412 407.374 424.56 407.309C424.71 407.245 424.881 407.314 424.945 407.462L425.715 409.249C425.799 409.446 425.955 409.598 426.153 409.676C426.353 409.756 426.569 409.752 426.764 409.667L426.894 409.611C427.207 409.476 427.351 409.111 427.216 408.798L425.27 404.275C425.131 403.952 424.755 403.803 424.432 403.941L424.21 404.038C423.867 404.186 423.708 404.587 423.856 404.931L423.904 405.042C423.968 405.191 423.9 405.364 423.752 405.428C423.605 405.494 423.432 405.426 423.368 405.276L423.319 405.165C423.043 404.522 423.338 403.776 423.978 403.499L424.2 403.402C424.817 403.136 425.54 403.422 425.807 404.042L427.754 408.565C428.016 409.175 427.735 409.886 427.126 410.151L426.996 410.207C426.82 410.283 426.633 410.321 426.447 410.321Z" fill="#0D376E"/>
<path d="M434.756 403.662C435.237 404.154 435.228 404.943 434.737 405.425C434.247 405.907 433.46 405.898 432.98 405.406C432.499 404.914 432.508 404.124 432.999 403.643C433.489 403.161 434.276 403.17 434.756 403.662Z" fill="white"/>
<path d="M241.27 305.359L249.68 352.842C249.771 353.355 249.431 353.844 248.919 353.934L184.776 365.221C184.265 365.311 183.776 364.968 183.685 364.456L175.275 316.972C175.184 316.459 175.526 315.971 176.037 315.881L240.18 304.593C240.692 304.503 241.179 304.846 241.27 305.359Z" fill="white"/>
<path d="M250.756 353.441C250.7 353.703 250.59 353.955 250.432 354.182C250.119 354.631 249.65 354.93 249.112 355.024L184.97 366.311C184.432 366.407 183.889 366.285 183.44 365.971C182.992 365.657 182.693 365.186 182.597 364.647L174.187 317.164C173.992 316.048 174.734 314.987 175.844 314.791L239.987 303.503C241.097 303.308 242.16 304.055 242.358 305.167C242.359 305.167 242.359 305.168 242.359 305.168L250.769 352.651C250.816 352.917 250.811 353.185 250.756 353.441ZM184.745 364.103L248.565 352.871L240.212 305.711L176.391 316.944L184.745 364.103ZM241.271 305.359L241.272 305.353L241.271 305.359ZM240.183 305.551L240.183 305.553L240.183 305.551L240.183 305.551Z" fill="#0D376E"/>
<path d="M196.336 328.032C196.275 328.316 196.048 328.549 195.744 328.603C195.344 328.674 194.962 328.404 194.89 328.002L193.443 319.833C193.37 319.435 193.638 319.049 194.039 318.978C194.44 318.908 194.823 319.176 194.894 319.578L196.341 327.748C196.359 327.845 196.355 327.941 196.336 328.032Z" fill="#0D376E"/>
<path d="M213.336 353.488C213.275 353.772 213.048 354.005 212.744 354.059C212.344 354.129 211.961 353.861 211.89 353.459L205.553 317.685C205.48 317.286 205.748 316.901 206.15 316.831C206.55 316.76 206.933 317.028 207.004 317.43L213.341 353.204C213.359 353.3 213.355 353.397 213.336 353.488Z" fill="#0D376E"/>
<path d="M217.779 330.471C217.717 330.755 217.491 330.988 217.187 331.041C216.786 331.112 216.404 330.844 216.333 330.441L213.814 316.223C213.741 315.822 214.01 315.439 214.411 315.368C214.812 315.297 215.194 315.566 215.265 315.968L217.784 330.187C217.801 330.284 217.798 330.38 217.779 330.471Z" fill="#FDA868"/>
<path d="M221.571 352.026C221.51 352.31 221.284 352.543 220.98 352.597C220.579 352.667 220.197 352.398 220.126 351.997L218.584 343.293C218.511 342.894 218.78 342.509 219.181 342.439C219.581 342.368 219.963 342.636 220.035 343.038L221.576 351.742C221.594 351.839 221.591 351.935 221.571 352.026Z" fill="#FDA868"/>
<path d="M230.973 351.363C230.912 351.647 230.685 351.88 230.381 351.934C229.98 352.004 229.598 351.736 229.527 351.334L225.623 329.3C225.551 328.901 225.819 328.515 226.221 328.445C226.621 328.375 227.004 328.643 227.075 329.045L230.978 351.079C230.996 351.176 230.992 351.272 230.973 351.363Z" fill="#0D376E"/>
<path d="M200.99 332.922L204.785 352.004C204.944 352.805 204.425 353.583 203.625 353.741L183.203 357.78C182.403 357.938 181.625 357.417 181.466 356.615L177.672 337.534C177.513 336.732 178.032 335.955 178.832 335.796L199.254 331.757C200.054 331.599 200.831 332.12 200.99 332.922Z" fill="#FDA868"/>
<path d="M205.502 352.76C205.444 353.03 205.335 353.289 205.178 353.525C204.849 354.017 204.349 354.351 203.77 354.465L183.347 358.505C182.767 358.619 182.177 358.501 181.685 358.171C181.193 357.841 180.86 357.34 180.744 356.759L176.95 337.677C176.713 336.478 177.49 335.309 178.688 335.073L199.111 331.033C199.691 330.919 200.28 331.037 200.772 331.367C201.263 331.696 201.598 332.198 201.713 332.779L201.714 332.779L205.508 351.861C205.568 352.163 205.565 352.468 205.502 352.76ZM178.398 337.092C178.377 337.187 178.374 337.289 178.394 337.391L182.189 356.473C182.228 356.667 182.339 356.834 182.504 356.945C182.667 357.055 182.865 357.095 183.059 357.057L203.482 353.017C203.676 352.979 203.842 352.867 203.952 352.703C204.062 352.539 204.099 352.342 204.062 352.146L200.268 333.065C200.23 332.871 200.117 332.704 199.954 332.593C199.789 332.483 199.593 332.443 199.399 332.481L178.976 336.52C178.678 336.58 178.458 336.811 178.398 337.092ZM200.991 332.922L200.992 332.915L200.991 332.922Z" fill="#0D376E"/>
<path d="M187.096 349.38C187.05 349.592 186.965 349.796 186.841 349.981C186.582 350.369 186.189 350.632 185.732 350.722L183.338 351.195C183.138 351.235 182.945 351.105 182.905 350.905C182.865 350.704 182.995 350.511 183.194 350.471L185.589 349.997C185.852 349.946 186.079 349.794 186.228 349.571C186.379 349.345 186.43 349.078 186.378 348.815L186.343 348.64C186.259 348.219 185.85 347.944 185.43 348.027L179.369 349.226C178.936 349.312 178.655 349.735 178.74 350.17L178.8 350.469C178.891 350.931 179.341 351.233 179.802 351.142L179.951 351.112C180.151 351.073 180.345 351.202 180.385 351.402C180.426 351.6 180.297 351.796 180.097 351.835L179.947 351.866C179.086 352.036 178.248 351.473 178.077 350.612L178.017 350.313C177.853 349.482 178.394 348.667 179.225 348.502L185.286 347.303C186.104 347.142 186.902 347.677 187.066 348.497L187.1 348.672C187.148 348.91 187.145 349.15 187.096 349.38Z" fill="#0D376E"/>
<path d="M181.124 337.362C181.854 336.9 182.821 337.12 183.282 337.853C183.744 338.586 183.527 339.554 182.796 340.015C182.066 340.476 181.099 340.257 180.638 339.524C180.176 338.791 180.394 337.823 181.124 337.362Z" fill="white"/>
<path d="M464.13 333.663L435.727 373.693C435.42 374.125 434.822 374.226 434.39 373.918L380.263 335.266C379.831 334.958 379.729 334.358 380.036 333.925L408.439 293.895C408.746 293.463 409.344 293.362 409.776 293.671L463.904 332.322C464.336 332.63 464.437 333.23 464.13 333.663Z" fill="#669EE8"/>
<path d="M465.212 334.046C465.165 334.14 465.111 334.232 465.048 334.319L436.645 374.348C436.323 374.803 435.842 375.105 435.293 375.197C434.743 375.289 434.191 375.161 433.737 374.836L379.61 336.186C379.156 335.862 378.854 335.38 378.762 334.829C378.669 334.279 378.795 333.724 379.116 333.27L407.52 293.24C407.843 292.785 408.323 292.484 408.872 292.392C409.422 292.299 409.973 292.427 410.428 292.751L464.556 331.403C465.01 331.727 465.312 332.209 465.404 332.76C465.479 333.204 465.411 333.651 465.212 334.046ZM434.906 372.901L463.116 333.144L409.26 294.687L381.05 334.445L434.906 372.901Z" fill="#0D376E"/>
<path d="M397.507 325.328C397.49 325.362 397.47 325.395 397.448 325.426L391.991 333.115C391.751 333.454 391.283 333.532 390.944 333.291C390.606 333.049 390.525 332.577 390.767 332.24L396.223 324.551C396.463 324.212 396.932 324.134 397.271 324.376C397.578 324.595 397.671 325.001 397.507 325.328Z" fill="white"/>
<path d="M420.674 309.921C420.658 309.954 420.637 309.988 420.615 310.019L414.349 318.849C414.109 319.187 413.64 319.266 413.301 319.024C412.963 318.782 412.882 318.313 413.125 317.974L419.391 309.144C419.631 308.805 420.1 308.727 420.438 308.968C420.745 309.187 420.839 309.594 420.674 309.921Z" fill="#0D376E"/>
<path d="M409.97 325.009C409.953 325.043 409.933 325.076 409.911 325.107L399.208 340.188C398.968 340.527 398.499 340.605 398.16 340.364C397.822 340.122 397.739 339.654 397.983 339.314L408.686 324.232C408.926 323.893 409.395 323.815 409.734 324.057C410.041 324.276 410.134 324.682 409.97 325.009Z" fill="white"/>
<path d="M421.688 330.21C421.671 330.243 421.652 330.276 421.629 330.307L409.435 347.491C409.195 347.83 408.726 347.908 408.387 347.666C408.049 347.424 407.968 346.955 408.21 346.616L420.405 329.433C420.645 329.094 421.114 329.016 421.452 329.257C421.759 329.476 421.853 329.883 421.688 330.21Z" fill="#0D376E"/>
<path d="M440.526 324.099C440.51 324.132 440.489 324.166 440.467 324.197L419.06 354.361C418.82 354.7 418.351 354.778 418.012 354.536C417.674 354.295 417.594 353.826 417.836 353.486L439.243 323.322C439.483 322.983 439.952 322.905 440.29 323.147C440.597 323.365 440.691 323.772 440.526 324.099Z" fill="white"/>
<path d="M441.383 344.605C441.366 344.639 441.347 344.671 441.324 344.704L429.287 361.665C429.048 362.004 428.579 362.083 428.24 361.841C427.901 361.6 427.819 361.136 428.063 360.79L440.1 343.829C440.34 343.49 440.809 343.411 441.147 343.653C441.455 343.871 441.548 344.278 441.383 344.605Z" fill="white"/>
<path d="M247.412 478.049L144.067 478.267C138.637 478.279 134.185 473.83 134.174 468.383L134.027 398.388C134.016 392.94 138.449 388.474 143.88 388.463L247.224 388.244C252.654 388.233 257.106 392.681 257.117 398.129L257.264 468.124C257.275 473.571 252.842 478.037 247.412 478.049Z" fill="white"/>
<path d="M144.046 479.169C141.188 479.169 138.493 478.048 136.454 476.011C134.41 473.968 133.281 471.26 133.274 468.384L133.128 398.39C133.121 395.515 134.24 392.801 136.276 390.751C138.311 388.7 141.011 387.567 143.877 387.561L247.221 387.344H247.244C253.174 387.344 258.004 392.176 258.016 398.127L258.163 468.122C258.175 474.08 253.353 478.938 247.413 478.95L247.411 478.049L247.413 478.95L144.069 479.169H144.046ZM247.244 389.147H247.225L143.881 389.364C141.495 389.369 139.245 390.313 137.549 392.023C135.851 393.733 134.92 395.993 134.925 398.386L135.072 468.381C135.077 470.774 136.018 473.031 137.722 474.734C139.422 476.432 141.667 477.366 144.046 477.366H144.065L247.409 477.147C252.358 477.137 256.376 473.09 256.365 468.125L256.219 398.131C256.208 393.174 252.184 389.147 247.244 389.147Z" fill="#0D376E"/>
<path d="M248.255 371.404L222.189 371.459C217.355 371.47 213.41 375.445 213.42 380.293L213.446 392.806L147.424 392.945C140.039 392.961 134.009 399.035 134.024 406.445L134.156 469.307C134.171 476.716 140.227 482.765 147.612 482.75L243.847 482.547C251.233 482.531 257.262 476.457 257.247 469.047L257.118 407.472L257.115 406.184L257.061 380.201C257.051 375.353 253.088 371.394 248.255 371.404Z" fill="#669EE8"/>
<path d="M147.585 484.102C139.452 484.102 132.826 477.472 132.808 469.309L132.676 406.447C132.659 398.274 139.273 391.611 147.422 391.593L212.095 391.456L212.072 380.294C212.066 377.589 213.118 375.036 215.033 373.108C216.948 371.178 219.488 370.113 222.186 370.106L248.252 370.052H248.274C253.853 370.052 258.397 374.598 258.409 380.199L258.595 469.044C258.612 477.218 251.997 483.882 243.85 483.898L147.615 484.102H147.585ZM248.257 372.756L222.192 372.811C220.214 372.816 218.35 373.597 216.943 375.015C215.536 376.432 214.764 378.306 214.768 380.29L214.794 392.803C214.795 393.162 214.654 393.505 214.401 393.76C214.149 394.013 213.807 394.157 213.449 394.158L147.427 394.297C140.766 394.311 135.359 399.759 135.372 406.441L135.504 469.304C135.518 475.978 140.936 481.398 147.585 481.398H147.61L243.845 481.194C250.505 481.181 255.912 475.733 255.899 469.05L255.713 380.203C255.705 376.094 252.369 372.756 248.274 372.756H248.257ZM248.255 371.404H248.264H248.255Z" fill="#0D376E"/>
<path d="M247.349 381.431L224.027 381.48C219.702 381.489 216.171 385.047 216.18 389.385L216.204 400.584L157.131 400.708C150.523 400.722 145.128 406.158 145.142 412.789L145.26 469.047C145.273 475.678 150.691 481.091 157.3 481.077L243.405 480.896C250.013 480.882 255.409 475.446 255.395 468.815L255.28 413.709L255.277 412.557L255.228 389.303C255.219 384.964 251.674 381.422 247.349 381.431Z" fill="#155BB7"/>
<path d="M248.706 469.584C248.706 472.015 246.74 473.986 244.317 473.986C241.894 473.986 239.929 472.015 239.929 469.584C239.929 467.153 241.894 465.182 244.317 465.182C246.74 465.182 248.706 467.153 248.706 469.584Z" fill="white"/>
<path d="M251.772 395.172C251.275 395.172 250.873 394.77 250.873 394.271V382.289C250.873 380.278 249.095 378.642 246.909 378.642H238.206C237.709 378.642 237.308 378.238 237.308 377.74C237.308 377.242 237.709 376.839 238.206 376.839H246.909C250.086 376.839 252.671 379.284 252.671 382.289V394.271C252.671 394.77 252.269 395.172 251.772 395.172Z" fill="white"/>
<path d="M212.928 455.516H179.585C176.922 455.516 174.754 453.341 174.754 450.669V438.518C174.754 437.273 175.76 436.264 177 436.264C178.241 436.264 179.247 437.273 179.247 438.518V450.669C179.247 450.856 179.399 451.008 179.585 451.008H212.928C213.259 451.008 213.526 450.739 213.526 450.407V438.518C213.526 437.273 214.533 436.264 215.773 436.264C217.015 436.264 218.02 437.273 218.02 438.518V450.407C218.02 453.224 215.736 455.516 212.928 455.516Z" fill="white"/>
<g opacity="0.0434783">
<path d="M187.478 414.605C186.897 414.605 186.316 414.379 185.875 413.931C185.005 413.043 185.017 411.618 185.902 410.744L196.461 400.331L206.856 410.758C207.733 411.638 207.733 413.064 206.856 413.945C205.978 414.825 204.556 414.825 203.679 413.945L196.435 406.679L189.053 413.958C188.615 414.39 188.046 414.605 187.478 414.605Z" fill="white"/>
<path d="M196.373 428.566C195.132 428.566 194.126 427.558 194.126 426.313V403.504C194.126 402.26 195.132 401.251 196.373 401.251C197.614 401.251 198.62 402.26 198.62 403.504V426.313C198.62 427.558 197.614 428.566 196.373 428.566Z" fill="white"/>
</g>
<path d="M487.652 466.831L391.417 467.034C384.031 467.049 377.976 461 377.96 453.591L377.829 390.728C377.814 383.319 383.843 377.245 391.229 377.229L487.464 377.027C494.849 377.011 500.904 383.06 500.92 390.469L501.052 453.332C501.067 460.741 495.037 466.815 487.652 466.831Z" fill="#3F85E2"/>
<path d="M391.387 468.386C387.467 468.386 383.77 466.849 380.974 464.056C378.17 461.254 376.621 457.539 376.612 453.594L376.481 390.731C376.464 382.558 383.078 375.895 391.226 375.877L487.461 375.674H487.491C495.625 375.674 502.251 382.304 502.268 390.467L502.4 453.33C502.417 461.502 495.803 468.166 487.655 468.183L391.419 468.386H391.387ZM487.652 466.832H487.661H487.652ZM487.491 378.379H487.467L391.232 378.581C384.571 378.596 379.163 384.044 379.177 390.726L379.308 453.589C379.316 456.811 380.583 459.847 382.876 462.139C385.163 464.424 388.185 465.682 391.387 465.682H391.414L487.649 465.479C490.86 465.472 493.887 464.201 496.172 461.9C498.456 459.599 499.711 456.558 499.704 453.335L499.572 390.471C499.558 383.798 494.141 378.379 487.491 378.379Z" fill="#0D376E"/>
<path d="M487.652 466.831L391.417 467.034C384.031 467.049 377.976 461 377.96 453.591L377.829 390.728C377.814 383.319 383.843 377.245 391.229 377.229L487.464 377.027C494.849 377.011 500.904 383.06 500.92 390.469L501.052 453.332C501.067 460.741 495.037 466.815 487.652 466.831Z" fill="#FD9242"/>
<path d="M391.387 468.386C387.467 468.386 383.77 466.849 380.974 464.056C378.17 461.254 376.621 457.539 376.612 453.594L376.481 390.731C376.464 382.558 383.078 375.895 391.226 375.877L487.461 375.674H487.491C495.625 375.674 502.251 382.304 502.268 390.467L502.4 453.33C502.417 461.502 495.803 468.166 487.655 468.183L391.419 468.386H391.387ZM487.652 466.832H487.661H487.652ZM487.491 378.379H487.467L391.232 378.581C384.571 378.596 379.163 384.044 379.177 390.726L379.308 453.589C379.316 456.811 380.583 459.847 382.876 462.139C385.163 464.424 388.185 465.682 391.387 465.682H391.414L487.649 465.479C490.86 465.472 493.887 464.201 496.172 461.9C498.456 459.599 499.711 456.558 499.704 453.335L499.572 390.471C499.558 383.798 494.141 378.379 487.491 378.379Z" fill="#0D376E"/>
<path d="M487.651 466.831L391.417 467.034C384.031 467.049 377.975 461 377.96 453.591L377.829 390.728C377.813 383.319 383.843 377.245 391.229 377.229L487.463 377.027C494.849 377.011 500.904 383.06 500.919 390.469L501.051 453.332C501.067 460.741 495.037 466.815 487.651 466.831Z" fill="#0D376E"/>
<path d="M491.206 472.436L387.863 472.654C382.432 472.666 377.979 468.217 377.968 462.77L377.821 392.775C377.809 387.327 382.243 382.861 387.674 382.85L491.018 382.632C496.449 382.62 500.9 387.069 500.912 392.516L501.058 462.511C501.07 467.958 496.636 472.425 491.206 472.436Z" fill="white"/>
<path d="M387.841 473.556C381.912 473.556 377.082 468.724 377.07 462.772L376.923 392.777C376.91 386.818 381.733 381.96 387.673 381.948L491.017 381.73H491.039C496.968 381.73 501.799 386.562 501.811 392.514L501.957 462.509C501.97 468.468 497.148 473.326 491.208 473.338L387.864 473.556H387.841ZM491.205 471.535L491.206 472.437L491.205 471.535C496.153 471.524 500.171 467.478 500.16 462.512L500.014 392.518C500.003 387.56 495.978 383.534 491.039 383.534H491.02L387.676 383.751C382.728 383.762 378.71 387.808 378.72 392.773L378.867 462.769C378.878 467.726 382.903 471.752 387.841 471.752H387.861L491.205 471.535Z" fill="#0D376E"/>
<path d="M491.206 478.049L387.863 478.267C382.432 478.279 377.979 473.83 377.968 468.383L377.821 398.388C377.809 392.94 382.243 388.474 387.674 388.463L491.018 388.244C496.449 388.233 500.9 392.681 500.912 398.129L501.058 468.124C501.07 473.571 496.636 478.037 491.206 478.049Z" fill="white"/>
<path d="M387.842 479.169C381.913 479.169 377.083 474.336 377.07 468.384L376.924 398.39C376.917 395.515 378.036 392.801 380.071 390.751C382.107 388.7 384.807 387.567 387.673 387.561L491.017 387.344H491.04C496.969 387.344 501.799 392.176 501.811 398.127L501.958 468.122C501.97 474.08 497.148 478.938 491.208 478.95L491.207 478.049L491.208 478.95L387.865 479.169H387.842ZM491.04 389.147H491.021L387.677 389.364C385.291 389.369 383.041 390.313 381.345 392.023C379.647 393.733 378.716 395.993 378.721 398.386L378.868 468.381C378.878 473.339 382.902 477.366 387.842 477.366H387.861L491.205 477.147C496.153 477.137 500.171 473.09 500.161 468.125L500.014 398.131C500.004 393.174 495.979 389.147 491.04 389.147Z" fill="#0D376E"/>
<path d="M492.05 371.404L465.984 371.459C461.151 371.47 457.205 375.445 457.215 380.293L457.241 392.806L391.22 392.945C383.834 392.961 377.804 399.035 377.82 406.445L377.952 469.307C377.967 476.716 384.022 482.765 391.408 482.75L487.642 482.547C495.028 482.531 501.058 476.457 501.042 469.047L500.913 407.472L500.911 406.184L500.856 380.201C500.846 375.353 496.884 371.394 492.05 371.404Z" fill="#FDA868"/>
<path d="M391.381 484.102C383.245 484.102 376.62 477.472 376.604 469.309L376.472 406.447C376.454 398.274 383.069 391.611 391.217 391.593L455.891 391.456L455.868 380.294C455.862 377.589 456.913 375.036 458.829 373.108C460.743 371.178 463.284 370.113 465.982 370.106L492.048 370.052H492.069C494.759 370.052 497.294 371.106 499.213 373.022C501.136 374.943 502.199 377.492 502.204 380.199L502.39 469.044C502.399 472.989 500.866 476.711 498.073 479.524C495.281 482.337 491.577 483.89 487.645 483.898L391.411 484.102H391.381ZM492.053 372.756L465.988 372.811C464.01 372.816 462.146 373.597 460.738 375.015C459.331 376.432 458.559 378.306 458.563 380.29L458.589 392.803C458.591 393.55 457.988 394.156 457.244 394.158L391.223 394.297C384.562 394.311 379.155 399.759 379.168 406.441L379.3 469.304C379.313 475.978 384.73 481.398 391.381 481.398H391.405L487.639 481.194C490.851 481.188 493.878 479.916 496.162 477.615C498.447 475.315 499.701 472.272 499.694 469.05L499.509 380.203C499.505 378.22 498.724 376.35 497.311 374.939C495.902 373.532 494.041 372.756 492.069 372.756H492.053ZM492.051 371.404H492.059H492.051Z" fill="#05162C"/>
<path d="M490.891 381.431L467.569 381.48C463.244 381.489 459.713 385.047 459.723 389.385L459.746 400.584L400.674 400.708C394.065 400.722 388.67 406.158 388.684 412.789L388.801 469.047C388.815 475.678 394.233 481.091 400.842 481.077L486.947 480.896C493.555 480.882 498.951 475.446 498.937 468.815L498.822 413.709L498.819 412.557L498.77 389.303C498.761 384.964 495.216 381.422 490.891 381.431Z" fill="#FC7C1C"/>
<path d="M492.248 469.584C492.248 472.015 490.283 473.986 487.86 473.986C485.436 473.986 483.472 472.015 483.472 469.584C483.472 467.153 485.436 465.182 487.86 465.182C490.283 465.182 492.248 467.153 492.248 469.584Z" fill="white"/>
<path d="M495.314 395.172C494.817 395.172 494.415 394.77 494.415 394.271V382.289C494.415 380.278 492.638 378.642 490.452 378.642H481.748C481.251 378.642 480.85 378.238 480.85 377.74C480.85 377.242 481.251 376.839 481.748 376.839H490.452C493.629 376.839 496.213 379.284 496.213 382.289V394.271C496.213 394.77 495.811 395.172 495.314 395.172Z" fill="white"/>
<path d="M459.525 455.516H426.183C423.52 455.516 421.352 453.341 421.352 450.669V438.518C421.352 437.273 422.358 436.264 423.598 436.264C424.839 436.264 425.844 437.273 425.844 438.518V450.669C425.844 450.856 425.997 451.008 426.183 451.008H459.525C459.856 451.008 460.124 450.739 460.124 450.407V438.518C460.124 437.273 461.13 436.264 462.371 436.264C463.612 436.264 464.617 437.273 464.617 438.518V450.407C464.617 453.224 462.333 455.516 459.525 455.516Z" fill="white"/>
<path d="M442.822 436.527L432.428 426.099C431.55 425.219 431.55 423.793 432.428 422.912C433.305 422.032 434.727 422.032 435.604 422.912L442.848 430.179L450.231 422.899C451.117 422.027 452.537 422.04 453.409 422.926C454.279 423.814 454.265 425.24 453.381 426.114L442.822 436.527Z" fill="white"/>
<path d="M442.911 435.607C441.67 435.607 440.665 434.598 440.665 433.353V410.544C440.665 409.3 441.67 408.291 442.911 408.291C444.152 408.291 445.157 409.3 445.157 410.544V433.353C445.157 434.598 444.152 435.607 442.911 435.607Z" fill="white"/>
<path d="M580.986 485.224H62.3849C61.8063 485.224 61.3369 484.753 61.3369 484.173V483.777C61.3369 483.196 61.8063 482.726 62.3849 482.726H580.986C581.565 482.726 582.033 483.196 582.033 483.777V484.173C582.033 484.753 581.565 485.224 580.986 485.224Z" fill="#0D376E"/>
<path d="M580.986 485.224H62.3849C61.8063 485.224 61.3369 484.753 61.3369 484.173V483.777C61.3369 483.196 61.8063 482.726 62.3849 482.726H580.986C581.565 482.726 582.033 483.196 582.033 483.777V484.173C582.033 484.753 581.565 485.224 580.986 485.224Z" stroke="#0D376E" stroke-width="4.61456" stroke-miterlimit="10"/>
</svg>
