<svg width="104" height="104" viewBox="0 0 104 104" fill="none" xmlns="http://www.w3.org/2000/svg">
<rect width="104" height="104" rx="4" fill="#B2CEF3"/>
<path d="M31 39.1667V33C31 31.8954 31.8954 31 33 31H62.8382C63.3687 31 63.8774 31.2107 64.2525 31.5858L72.4142 39.7475C72.7893 40.1226 73 40.6313 73 41.1618V71C73 72.1046 72.1046 73 71 73H33C31.8954 73 31 72.1046 31 71V64.8333" stroke="#155BB7" stroke-width="1.5" stroke-linecap="round" stroke-linejoin="round"/>
<path d="M42.6665 31H61.3332V44.4C61.3332 44.7314 61.0645 45 60.7332 45H43.2665C42.9351 45 42.6665 44.7314 42.6665 44.4V31Z" stroke="#155BB7" stroke-width="1.5" stroke-linecap="round" stroke-linejoin="round"/>
<path d="M66 73V54.9333C66 54.602 65.7314 54.3333 65.4 54.3333H59" stroke="#155BB7" stroke-width="1.5" stroke-linecap="round" stroke-linejoin="round"/>
<path d="M38 73V64.8333" stroke="#155BB7" stroke-width="1.5" stroke-linecap="round" stroke-linejoin="round"/>
<path d="M52.0002 52H26.3335M26.3335 52L33.3335 45M26.3335 52L33.3335 59" stroke="#155BB7" stroke-width="1.5" stroke-linecap="round" stroke-linejoin="round"/>
<rect x="24.5" y="24.5" width="55" height="55" rx="1.5" stroke="#155BB7"/>
</svg>
