<svg width="104" height="104" viewBox="0 0 104 104" fill="none" xmlns="http://www.w3.org/2000/svg">
<rect width="104" height="104" rx="4" fill="#B2CEF3"/>
<path d="M56.6665 73H30.6665C29.5619 73 28.6665 72.1046 28.6665 71V33C28.6665 31.8954 29.5619 31 30.6665 31H73.3332C74.4377 31 75.3332 31.8954 75.3332 33V56.6667" stroke="#155BB7" stroke-width="1.5" stroke-linecap="round"/>
<path d="M28.6665 40.3333L75.3332 40.3333" stroke="#155BB7" stroke-width="1.5" stroke-linecap="round" stroke-linejoin="round"/>
<path d="M35.6665 35.69L35.6898 35.6641" stroke="#155BB7" stroke-width="1.5" stroke-linecap="round" stroke-linejoin="round"/>
<path d="M42.6665 35.69L42.6898 35.6641" stroke="#155BB7" stroke-width="1.5" stroke-linecap="round" stroke-linejoin="round"/>
<path d="M49.6665 35.69L49.6898 35.6641" stroke="#155BB7" stroke-width="1.5" stroke-linecap="round" stroke-linejoin="round"/>
<path d="M69.4998 75.3333V61.3333M69.4998 61.3333L63.6665 67.1666M69.4998 61.3333L75.3332 67.1666" stroke="#155BB7" stroke-width="1.5" stroke-linecap="round" stroke-linejoin="round"/>
<rect x="24.5" y="24.5" width="55" height="55" rx="1.5" stroke="#155BB7"/>
</svg>
